<svg xmlns="http://www.w3.org/2000/svg" viewBox="0 0 82.18 125.08"><defs><style>.cls-1{fill:#444;}</style></defs><title>icon-leaf</title><g id="Calque_2" data-name="Calque 2"><g id="_2" data-name="2"><path class="cls-1" d="M16.73,9.65c.88,3.11,2.7,5.38,4.31,8.14,2,3.38,2.7,7,3.8,10.75,1.75,5.89,4.17,12,7.83,16.92.16.21.5,0,.39-.25-3.17-6.6-6.25-12.76-8.25-19.86-1.68-6-5.53-10.13-7.87-15.76-.05-.11-.25-.06-.21.06Z"/><path class="cls-1" d="M27,29.29a120.09,120.09,0,0,0,5.92,15,.11.11,0,0,0,.21-.09,119.79,119.79,0,0,0-6-15c0-.08-.16,0-.13.06Z"/><path class="cls-1" d="M27.54,30.29A41.56,41.56,0,0,0,24.73,25c0-.05-.1,0-.08.05a41.92,41.92,0,0,0,2.76,5.27c.05.08.17,0,.13-.05Z"/><path class="cls-1" d="M30.66,41.63c.1-.8.39-.09.67.31l1.34,1.89a29.09,29.09,0,0,0,2.89,4,.18.18,0,0,0,.3-.19A17.3,17.3,0,0,0,33.49,44a23.09,23.09,0,0,0-2.75-3.32s-.12,0-.13.06c0,.29-.06.58-.1.87a.08.08,0,0,0,.15,0Z"/><path class="cls-1" d="M30.38,39.23A17.15,17.15,0,0,0,35,47.53a.17.17,0,0,0,.26-.21,79,79,0,0,1-4.6-8.18c-.07-.16-.34-.09-.3.09Z"/><path class="cls-1" d="M29.72,39.2c.92,3.49,3,7.87,6.18,9.85a.16.16,0,0,0,.21-.23c-1-1.61-2.4-3-3.43-4.6a31.88,31.88,0,0,1-2.52-5.15c-.09-.24-.51-.12-.44.13Z"/><path class="cls-1" d="M30.8,41.27C33,47.39,37.7,51.46,41.42,56.59c4.23,5.82,6.3,12.84,10.11,18.88.11.17.35,0,.29-.18A90.67,90.67,0,0,0,43.21,58C39.42,52.14,33.77,47.73,31,41.2a.09.09,0,0,0-.16.07Z"/><path class="cls-1" d="M45.22,59.61c2.32,5.51,4.58,11,6.6,16.62.09.25.45.08.37-.17a98.69,98.69,0,0,0-6.74-16.55.13.13,0,0,0-.23.1Z"/><path class="cls-1" d="M46.44,63.38c-1.55-7.32-7.91-13.89-13.6-18.44-.18-.14-.4.12-.26.29,2.13,2.74,4.86,5,7.23,7.54a33.86,33.86,0,0,1,6.54,10.64s.1,0,.09,0Z"/><path class="cls-1" d="M30.85,38.75A26,26,0,0,0,35.92,48c0,.06.17,0,.12-.08a82.42,82.42,0,0,1-5-9.23c0-.09-.18,0-.15.07Z"/><path class="cls-1" d="M32.87,44.09a68.49,68.49,0,0,0,5,7.09c.06.07.18,0,.13-.08a67.29,67.29,0,0,0-5.09-7s0,0,0,0Z"/><path class="cls-1" d="M34,44.79a19.18,19.18,0,0,0,4.12,5c.07.06.17-.05.11-.12C36.81,48,35.29,46.53,34,44.76a0,0,0,1,0,0,0Z"/><path class="cls-1" d="M43.22,58c1.32,2.3,2.28,4.78,3.57,7.08.05.09.21.06.18-.05a24.58,24.58,0,0,0-3.57-7.15c-.06-.1-.24,0-.18.12Z"/><path class="cls-1" d="M44.84,61.05c1.79,3.21,3.15,6.72,5,9.85.06.1.26.07.23-.07-.72-3.5-3-7.06-5.11-9.87-.06-.08-.2,0-.15.09Z"/><path class="cls-1" d="M46.34,61.9c1.31,3,2.61,6.08,4.08,9,0,.07.14,0,.11,0-1.26-3.06-2.69-6.05-4.11-9,0,0-.1,0-.08,0Z"/><path class="cls-1" d="M49.61,69.45c2.1,8,4.78,17.07,10.48,23.25.11.13.35,0,.26-.16-2-3.76-4.42-7.21-6.1-11.16s-2.87-8-4.49-12c0-.07-.17,0-.15,0Z"/><path class="cls-1" d="M58.78,91.46c5.15,7,4.62,15.68,8.43,23.17,2.83,5.56,8.34,8.73,14.29,10.05.12,0,.15-.16,0-.21-3.85-1.57-7.81-3-10.79-6s-4.24-6.88-5.26-10.8c-1.49-5.7-2.31-11.87-6.6-16.27a.08.08,0,1,0-.12.1Z"/><path class="cls-1" d="M82,124.64l.22-1a.34.34,0,0,0-.21-.34,26.7,26.7,0,0,1-14.13-12.43C65,105.39,63.7,99.31,61.33,93.7c-.12-.26-.58-.14-.5.15,1.79,6.44,4,13.66,7.47,19.4a25.11,25.11,0,0,0,5.24,6.11c.91.77,8,4.23,8,5.23a.23.23,0,0,0,.45,0Z"/><path class="cls-1" d="M65,107.89a28.43,28.43,0,0,0,4.34,8.73c.2.28.68,0,.52-.33-1.54-2.81-3-5.7-4.67-8.46-.05-.09-.22-.07-.19.06Z"/><path class="cls-1" d="M65.78,107.86c1.16,3,2.32,7,4.49,9.53.11.12.35,0,.31-.14a24.35,24.35,0,0,0-2-4.45c-.82-1.7-1.62-3.4-2.39-5.12a.21.21,0,0,0-.39.18Z"/><path class="cls-1" d="M65.27,108.71c1.19,3.94,3.67,8.47,7,11,.26.19.55-.16.37-.4-1.19-1.63-2.61-3-3.76-4.72a44.51,44.51,0,0,1-3.32-6,.17.17,0,0,0-.31.14Z"/><path class="cls-1" d="M66.55,111.55c1.21,3.26,3.62,7.21,6.73,8.93a.24.24,0,0,0,.32-.34c-1-1.38-2.41-2.49-3.5-3.84a48.91,48.91,0,0,1-3.31-4.86.13.13,0,0,0-.24.11Z"/><path class="cls-1" d="M68.29,114.19c1.37,2.35,3.84,5.58,6.55,6.43a.16.16,0,0,0,.18-.25,34.27,34.27,0,0,0-3.37-3,36,36,0,0,1-3-3.4c-.14-.17-.45,0-.34.21Z"/><path class="cls-1" d="M70.93,116.47a29.22,29.22,0,0,0,4.46,4.83c.08.06.23,0,.16-.14a29.46,29.46,0,0,0-4.46-4.82c-.1-.09-.25,0-.16.13Z"/><path class="cls-1" d="M71.75,118.79a105,105,0,0,0,9,6.23.39.39,0,0,0,.44-.64,102.76,102.76,0,0,0-9.15-6,.24.24,0,0,0-.28.4Z"/><path class="cls-1" d="M65.06,106.61l0,.19a.07.07,0,0,0,.13,0,30.73,30.73,0,0,0-5-15.11c-.1-.14-.3,0-.24.15.88,2.3,2.09,4.46,2.92,6.79.92,2.6,1.25,5.45,2.28,8,0,0-.1,0-.09,0Z"/><path class="cls-1" d="M62.82,98.31c-.29-.7-.59-1.4-.88-2.09a.27.27,0,0,0-.5.22l1,2a.21.21,0,0,0,.39-.17Z"/><path class="cls-1" d="M63,101.31c-.69-3.86-2.66-7.85-7.2-6.7-3.38.85-6.06,3.71-9.27,5-5.13,2-8.69.08-13.53-1.31-4.18-1.2-8-.79-11.13-4.45a70.09,70.09,0,0,1-8-12.4c-4.74-8.82-7.07-18-9.67-27.56a.34.34,0,0,0-.68.11c.77,8.3,4,16.87,7.61,24.33a94.34,94.34,0,0,0,5.94,10.5c1.91,2.93,4,6.76,7.24,8.49,2.55,1.37,5.64,1.13,8.37,1.88,3,.82,5.71,2.38,8.87,2.38a16.51,16.51,0,0,0,8.32-2.8c1.55-.93,3-2.25,4.68-2.93,2.49-1,3.22-1.06,5.33.71s2.12,2,2.93,4.81c0,.12.23.1.21,0Z"/><path class="cls-1" d="M4.47,55.07l-.15-.51a.15.15,0,1,0-.27.12c0,.06.25.39.28.45s.18,0,.14-.06Z"/><path class="cls-1" d="M4.8,56.12c-2-4,0-8.59-1.84-12.79C1.69,40.4.42,38.05,1.13,34.74c.59-2.72,2-5.21,2.84-7.85.09-.27-.3-.52-.46-.24-2.2,3.64-4.41,8.71-3.14,13a39.06,39.06,0,0,0,1.86,4c1.17,2.77.83,4.81.89,7.63a7.39,7.39,0,0,0,1.53,4.92c.06.08.2,0,.15-.09Z"/><path class="cls-1" d="M3.62,49.22a19.68,19.68,0,0,0,.19,3.43,12.55,12.55,0,0,0,.51,3.4c0,.12.21.07.23,0a12.9,12.9,0,0,0-.27-3.44,20.16,20.16,0,0,0-.57-3.36,0,0,0,0,0-.09,0Z"/><path class="cls-1" d="M3.26,49.72c.06,2.45,0,5.31,1,7.62a.16.16,0,0,0,.29-.05c.09-2.48-.69-5.15-1.12-7.58a.06.06,0,0,0-.12,0Z"/><path class="cls-1" d="M3.3,28.14A15.2,15.2,0,0,0,6.35,22c.63-2.78.27-5.39,1.56-8,1-2.06,2.48-3.77,3.25-5.95C12.1,5.3,12.38,2.87,14,.43a.28.28,0,0,0-.41-.37C11.92,1.29,11.53,2.93,11,4.91a33.33,33.33,0,0,1-3.61,8,11.26,11.26,0,0,0-1.5,5.27,25.53,25.53,0,0,1-2.74,9.91c0,.08.08.13.13.07Z"/><path class="cls-1" d="M14,.49c5.41,2.73,12.45,3.89,17.28,7.58,3.59,2.74,4.84,6.57,9.15,8.57,3.87,1.8,8.17,2.32,12.21,3.65C59.14,22.42,63,27,65.29,33.3c.06.18.33.08.31-.09C64.3,21.7,53.52,19.75,44.38,17a17.11,17.11,0,0,1-7.3-3.88c-1.88-1.84-3-4.31-5.14-5.9s-5.23-2.48-7.83-3.42C20.8,2.59,17.5,1.26,14.1.34A.08.08,0,0,0,14,.49Z"/><path class="cls-1" d="M65.36,30.88c0,6.52,3.12,11.17,6.66,16.35C76.66,54,80,65,75.56,72.63a35.23,35.23,0,0,0-3.28,7.2c-1.34,4.11-3.37,6-6.45,8.72-3.67,3.22-3.76,6.78-2.2,11.23.12.35.67.17.61-.18-.91-4.76-.61-7.86,3.28-11.07C69.36,87,70.89,85.83,72,83.7c1.55-3,2-6.29,3.75-9.23,1.3-2.19,2.48-3.85,2.83-6.44a31.4,31.4,0,0,0-3.25-17.74C74,47.69,72,45.5,70.4,43.08a32.85,32.85,0,0,1-4.78-12.21c0-.13-.26-.15-.26,0Z"/><path class="cls-1" d="M20.45,7.77c-.49,2-.87,4.08-1.26,6.13,0,.09.13.11.15,0,.42-2,.84-4.08,1.15-6.14,0,0,0,0,0,0Z"/><path class="cls-1" d="M22,9.63a29.14,29.14,0,0,1-2,6.13c-.05.11.13.21.19.1a17.84,17.84,0,0,0,1.94-6.22c0-.07-.1-.08-.12,0Z"/><path class="cls-1" d="M12.87,5.84a7.26,7.26,0,0,0,4.2,5.27c.06,0,.11-.06.05-.1a9.46,9.46,0,0,1-4.24-5.17Z"/><path class="cls-1" d="M13.08,5a12.57,12.57,0,0,0,3,5c.09.09.24,0,.15-.13A20.74,20.74,0,0,1,13.16,5a0,0,0,0,0-.08,0Z"/><path class="cls-1" d="M19,4.66c-.2,1.08-.34,2.16-.58,3.23s-.62,2.1-.84,3.16c0,.12.15.14.2,0a16.46,16.46,0,0,0,1.44-6.41.11.11,0,0,0-.22,0Z"/><path class="cls-1" d="M19.51,5c-.28,1.07-.46,2.15-.79,3.21s-.82,2-1.19,3.09a.11.11,0,0,0,.19.1,12.91,12.91,0,0,0,1.94-6.36c0-.08-.12-.13-.15,0Z"/><path class="cls-1" d="M15.6,6.93a30.61,30.61,0,0,0,3.79,7.64.07.07,0,0,0,.11-.07c-1.13-2.58-2.61-5.06-3.86-7.59,0,0-.06,0,0,0Z"/><path class="cls-1" d="M16.5,8.57c2.63,6.52,7,12,9.44,18.7a.08.08,0,0,0,.15,0c-1.55-6.8-6.4-12.56-9.48-18.72,0-.07-.15,0-.11.06Z"/><path class="cls-1" d="M12.15,7.24a9.82,9.82,0,0,1-1.22,3.85,28.71,28.71,0,0,0-2.07,2.57,11.24,11.24,0,0,0-1.09,5.2.06.06,0,0,0,.11,0c.43-2.64.62-4.7,2.47-6.82a7.48,7.48,0,0,0,1.84-4.81s0,0,0,0Z"/><path class="cls-1" d="M7.8,20.69C6.36,27,.25,33.11,3.05,39.93c0,.06.13,0,.11,0C2,35.94,3,32.35,4.73,28.74c1.23-2.58,2.93-5.12,3.11-8,0,0,0,0,0,0Z"/><path class="cls-1" d="M3.18,41.24A32.83,32.83,0,0,1,5.07,51.65a22.19,22.19,0,0,0,.85,5.77c1.77,6.09,4.18,12.24,6.55,18.12,0,.08.15,0,.13-.06C10.52,69,7.25,62.59,5.77,55.91c-.61-2.75-.17-5.51-.53-8.26a27.08,27.08,0,0,0-2-6.46c0-.06-.12,0-.1.05Z"/><path class="cls-1" d="M13,77.18c1.55,3.08,3.28,6.07,4.95,9.08,1.26,2.27,2.32,5,4.06,7,2.87,3.25,9.22,4.13,13.28,4.75.08,0,.11-.11,0-.13-5.65-1.41-11.63-2.17-14.79-7.58C18,86,15.73,81.44,13.1,77.14c0-.06-.13,0-.1,0Z"/><path class="cls-1" d="M36.25,98A13.69,13.69,0,0,0,45,99.31a14.12,14.12,0,0,0,3.75-1.81c2.25-1.3,4.54-1.91,6.82-3a.17.17,0,1,0-.14-.31c-1.46.69-3,.94-4.49,1.61-1.25.57-2.32,1.49-3.55,2.1a12.59,12.59,0,0,1-11-.05c-.13-.07-.21.14-.08.21Z"/><path class="cls-1" d="M58.79,94.28v.06a0,0,0,0,0,0,0c.09,0,.07,0,.15,0s0,0,0,0c0-.35-.09-.39-.44-.58a2.67,2.67,0,0,0-.79-.29,2.36,2.36,0,0,0-1.86.25.12.12,0,0,0,.09.21,7,7,0,0,1,1.71-.08c.22,0,1.11.3,1.14.45,0,0,0,0,0,0Z"/><path class="cls-1" d="M61.8,94.09a13,13,0,0,1,.69-3.4,8.13,8.13,0,0,1,2.6-2.9,7.3,7.3,0,0,0,2.79-3.41c0-.07-.07-.1-.11,0-1.06,2.14-3.2,3.06-4.68,4.82a7.44,7.44,0,0,0-1.46,4.91.09.09,0,0,0,.17,0Z"/><path class="cls-1" d="M69.27,83.14c3.53-6.65,8.31-14,7.07-21.78C75,53,70.16,43.59,64.87,37.12c-.11-.14-.3,0-.21.18,4.54,7,9.55,15,11.15,23.36S72.27,75.79,69.1,83.05c0,.1.12.19.17.09Z"/><path class="cls-1" d="M14.37,1.81c6,1.9,13.68,3.44,18.09,8.26,2.83,3.08,3.54,6.22,8,7.27.12,0,.16-.17.05-.21C35.33,15.4,33.64,9.82,29,7.12A57.92,57.92,0,0,0,14.42,1.66c-.09,0-.15.12-.05.15Z"/><path class="cls-1" d="M41,18.46c4,1,8.25,1.35,12,2.87,4.72,1.9,8,6.48,9.61,11.18,0,.08.16,0,.15,0-1.55-10.78-13-12.8-21.78-14.09-.05,0-.08.08,0,.09Z"/><path class="cls-1" d="M63.26,33.59l-.1-.13a.1.1,0,0,0-.18,0,4.85,4.85,0,0,0,.46,1.65,5.58,5.58,0,0,0,.93,1.71c0,.05.16,0,.14-.07a11.33,11.33,0,0,0-.61-1.55,13.11,13.11,0,0,0-.72-1.77L63,33.6l.13.1c.07.06.16,0,.1-.11Z"/><path class="cls-1" d="M25.26,24.7a26.9,26.9,0,0,0,1,2.56c.4,1,.75,2,1.17,3,0,.07.16,0,.14,0a17.45,17.45,0,0,0-2.26-5.54.05.05,0,0,0-.09,0Z"/><path class="cls-1" d="M24.51,24.12c1.35,3.1,2.53,6.34,4,9.39,0,.07.18,0,.15,0a41.5,41.5,0,0,0-4.07-9.38s-.1,0-.08,0Z"/><path class="cls-1" d="M27.91,30.72c-.35-4.4,1.88-7.61,3.24-11.6a22.58,22.58,0,0,0,1.18-8.35c0-.07-.12-.06-.12,0a33.46,33.46,0,0,1-2.84,11.8c-1.12,2.62-2.2,5.29-1.51,8.16,0,0,.06,0,.05,0Z"/><path class="cls-1" d="M30.61,9.66C29,15,28.43,21,25.17,25.71c-.05.08,0,.19.12.12,1.83-1.87,2.54-4.44,3.15-6.92.76-3.07,1.6-6.13,2.24-9.23,0,0-.06,0-.07,0Z"/><path class="cls-1" d="M24.18,24.09c1.93-4.24,4.11-9.41,3.92-14.16,0-.08-.12-.07-.13,0a60,60,0,0,1-3.85,14.14,0,0,0,1,0,.06,0Z"/><path class="cls-1" d="M23.21,20.2a38,38,0,0,0,3.92-12c0-.07-.1-.09-.12,0-1.19,4.1-2.35,8.06-3.86,12.06,0,0,0,.06.06,0Z"/><path class="cls-1" d="M21.61,18.16A53,53,0,0,0,25.82,6.89c0-.09-.1-.14-.13,0-1.34,3.79-2.66,7.55-4.14,11.29a0,0,0,1,0,.06,0Z"/><path class="cls-1" d="M30.93,39.17c.06.29.13.58.2.87a.06.06,0,0,0,.12,0c2.11-6,5.4-13.38,4-19.85a.06.06,0,0,0-.11,0,26.12,26.12,0,0,1-1.37,10.55c-.42,1.42-.86,2.83-1.28,4.25-.26.82-.49,1.65-.71,2.48A1.61,1.61,0,0,1,31,39.16s0,0,0,0Z"/><path class="cls-1" d="M35.12,19.3a5,5,0,0,1,.31-4.15s0-.07-.07,0A4.08,4.08,0,0,0,35,19.36c0,.08.15,0,.12-.06Z"/><path class="cls-1" d="M38.7,17.68c-1.76,4.9-.46,9.52-1.4,14.46-.67,3.5-4.57,8.09-3.54,11.58,0,.12.22.1.19,0-.64-3.73,3.23-8.37,3.79-12.14.69-4.71-.24-9.09,1-13.84,0-.05-.05-.08-.07,0Z"/><path class="cls-1" d="M34.62,46c.64-4.76,4.16-7.94,5.51-12.39s-.43-8.76,1.14-13.11c0-.07-.08-.14-.12-.07-2.37,4.32,0,9.49-1.71,14.05-1.52,4-5,7-4.87,11.52,0,0,0,0,0,0Z"/><path class="cls-1" d="M42.92,18.77A5.88,5.88,0,0,0,41,23.4c0,.06.12.08.14,0,.22-.77.26-1.57.55-2.34A10.07,10.07,0,0,1,43,18.81s0-.07,0,0Z"/><path class="cls-1" d="M43.26,19.05a9.93,9.93,0,0,0-.76,1.78,4,4,0,0,0-.41,1.72.06.06,0,0,0,.11,0,6,6,0,0,0,.56-1.64c.21-.6.45-1.19.65-1.79,0-.09-.1-.18-.15-.09Z"/><path class="cls-1" d="M44.23,18.64c-.32.62-.6,1.23-.87,1.87a8.45,8.45,0,0,0-.62,1.77c0,.08.11.12.16,0a7.72,7.72,0,0,0,.78-1.7c.25-.64.47-1.28.68-1.94a.07.07,0,0,0-.13-.05Z"/><path class="cls-1" d="M46.64,20.68c-2.36,5-2.4,10.57-4.26,15.73-1.61,4.48-4.17,8.5-4.91,13.27,0,.2.27.23.31,0,1-5.14,3.76-9.48,5.31-14.41s1.68-9.89,3.59-14.61c0,0,0,0,0,0Z"/><path class="cls-1" d="M38.82,52.13c1.11-4.23,3.68-7.16,5.57-11,1.6-3.21,1.86-6.84,3.54-10,0-.06-.07-.11-.11-.05-2.34,3.23-2.31,7.51-4.34,11s-4,6.1-4.83,10.05a.09.09,0,0,0,.17,0Z"/><path class="cls-1" d="M48.33,30c.6-1.4,1-2.87,1.56-4.3s1.16-2.84,1.61-4.29a.07.07,0,0,0-.12-.05,40.72,40.72,0,0,0-3.16,8.6.06.06,0,0,0,.11,0Z"/><path class="cls-1" d="M53.34,20.76a25.56,25.56,0,0,0-3,4.51c-.06.11.12.19.2.1a25.06,25.06,0,0,0,2.82-4.58s0-.06-.07,0Z"/><path class="cls-1" d="M53.47,21.44a7.9,7.9,0,0,0-2.09,3.92c0,.07.09.12.13.05.34-.57.54-1.21.84-1.81s.81-1.37,1.24-2.05c0-.08-.06-.18-.12-.11Z"/><path class="cls-1" d="M53.92,21.34a136.5,136.5,0,0,1-5.7,17c-2.29,5.25-5.36,10.1-7.67,15.32-.1.21.24.39.35.19C46.74,44.05,52,32.63,54,21.36c0-.05-.08-.08-.09,0Z"/><path class="cls-1" d="M43.15,56.65c1.34-2.37,2.27-5,3.66-7.34,1-1.78,2.5-3.44,2.86-5.53,0-.1-.12-.12-.16,0-2,4.3-5.42,8.14-6.49,12.87,0,.06.09.1.13,0Z"/><path class="cls-1" d="M49.9,42.93c3.52-5.54,4.82-12,7.78-17.79.06-.12-.14-.23-.21-.12a43.09,43.09,0,0,0-3.26,8,56.77,56.77,0,0,1-4.42,9.88c0,.07.06.15.11.07Z"/><path class="cls-1" d="M45.88,61.05c4.72-9.87,9.72-19.43,15.18-28.9,0,0,0-.06,0,0A156.33,156.33,0,0,0,45.65,61c-.06.14.16.22.23.08Z"/><path class="cls-1" d="M62.54,31.59c-3.8,4.55-5.44,10.17-8.88,14.91,0,.06,0,.11.09.06a24.28,24.28,0,0,0,3.7-6.37,46.79,46.79,0,0,1,5.14-8.57s0-.06-.05,0Z"/><path class="cls-1" d="M47.75,67.1C51.49,62.69,52.9,57,55.66,52c1.49-2.71,3.53-4.91,5.24-7.45s2.69-5.28,4.56-7.64c.06-.08-.07-.17-.14-.09-2.06,2.24-2.93,5.09-4.63,7.58s-3.6,4.37-5.06,6.81c-3.05,5.09-4.69,10.8-8,15.74a.1.1,0,0,0,.16.11Z"/><path class="cls-1" d="M50,70.21c.78-2,2.61-3.57,3.57-5.57a38.07,38.07,0,0,1,3.32-6.48s0-.11-.08-.07a16.25,16.25,0,0,0-3.17,5.5,17,17,0,0,1-2,3.79,7.26,7.26,0,0,0-1.71,2.8s.06.08.08,0Z"/><path class="cls-1" d="M57,57.5C61.15,52,63.82,45.68,67.72,40a.17.17,0,0,0-.28-.19c-2,2.66-3.31,5.71-4.9,8.63-1.7,3.12-3.65,6.07-5.6,9,0,0,0,0,0,0Z"/><path class="cls-1" d="M52.14,76.63c.59-3.28,2.65-6.07,4.23-8.95,1.25-2.27,2.49-4.54,3.63-6.87,0-.08-.09-.15-.14-.07-1.81,2.91-3.48,5.92-5.1,8.94-1.18,2.2-2.54,4.42-2.8,6.94,0,.11.16.12.18,0Z"/><path class="cls-1" d="M60.77,59.72c3-5.39,5.08-11.59,9-16.39.08-.09-.07-.2-.15-.11-3.86,4.66-6.44,11-8.89,16.49,0,0,0,0,0,0Z"/><path class="cls-1" d="M53,81.27a26.74,26.74,0,0,0,3.5-6.37.13.13,0,0,0-.23-.13,26.81,26.81,0,0,0-3.32,6.48,0,0,0,0,0,0,0Z"/><path class="cls-1" d="M57.75,73.83c4.16-8.73,9.4-16.48,14.4-24.71A.12.12,0,0,0,72,49a116.59,116.59,0,0,0-14.34,24.8c0,.09.09.13.13,0Z"/><path class="cls-1" d="M55.61,84.87a22.58,22.58,0,0,0,1.87-3.28A15.74,15.74,0,0,0,59,78.15c0-.13-.17-.19-.24-.09a23,23,0,0,0-1.59,3.18c-.57,1.18-1.24,2.32-1.73,3.53,0,.11.11.19.17.1Z"/><path class="cls-1" d="M59.91,77.1c4.23-7.92,10.82-15,14.1-23.39,0-.1-.11-.18-.16-.09-4.38,7.74-11.08,15-14,23.43,0,0,.06.1.09,0Z"/><path class="cls-1" d="M74.41,54.87c-.41.83-.79,1.67-1.24,2.49-.36.66-.81,1.28-1.11,2,0,.07.07.11.12.06a14.64,14.64,0,0,0,2.38-4.46.08.08,0,0,0-.15-.06Z"/><path class="cls-1" d="M75.11,55.33A12,12,0,0,0,73,58.94a.07.07,0,0,0,.12.06,20,20,0,0,0,1-1.81c.34-.61.71-1.2,1-1.81,0-.05,0-.09-.06-.05Z"/><path class="cls-1" d="M74.72,57.13a9.49,9.49,0,0,0-1.8,3c0,.06.06.11.09,0,.63-1,1.1-2,1.76-3,0,0,0-.07,0,0Z"/><path class="cls-1" d="M75,58.07a15.72,15.72,0,0,0-1.83,3.28c0,.06.07.12.11.06.68-1,1.2-2.2,1.82-3.27a.06.06,0,0,0-.1-.07Z"/><path class="cls-1" d="M75.56,60.53c-2.31,4.89-5.72,9-9.23,13A81.44,81.44,0,0,0,57.1,87.14c-.21.37.34.76.55.38a88.91,88.91,0,0,1,9.74-14.84c3.24-3.78,6.51-7.38,8.24-12.13,0,0,0-.06-.07,0Z"/><path class="cls-1" d="M58.7,90c3.46-3.63,5.74-8.1,9.32-11.7,2.88-2.9,5.86-5.53,7.64-9.28.09-.19-.23-.37-.34-.18-2.39,4.41-6,7.52-9.36,11.17-2.79,3-4.8,6.67-7.42,9.84-.08.1.07.25.16.15Z"/><path class="cls-1" d="M59.27,91.92c2.72-1.67,4.6-4.69,6.34-7.3,1.61-2.42,4.42-4,5.62-6.66.07-.15-.15-.24-.24-.13-1.8,2.18-4.11,3.62-5.7,6-1.87,2.76-4.4,5.23-6,8.1,0,0,0,0,0,0Z"/><path class="cls-1" d="M76.3,66.69a67.26,67.26,0,0,1-10.07,11.9C63,81.71,61.14,85.8,58,89c-.16.17.06.44.23.28a28.33,28.33,0,0,0,3.72-5A37,37,0,0,1,68,77.37a39.07,39.07,0,0,0,8.3-10.67s0,0,0,0Z"/><path class="cls-1" d="M62,84.53a17.06,17.06,0,0,0-1.55,2.2c-.56.85-1.15,1.67-1.77,2.48l.42.16c0-.12,0-.24,0-.36s-.14-.19-.21-.08l-.2.28a.23.23,0,0,0,.38.27,17.5,17.5,0,0,0,3-4.9,0,0,0,0,0-.07,0Z"/><path class="cls-1" d="M63.27,83.33c-2.29,1.46-3.67,4.19-5.08,6.44l.47.25c.87-2.1,2.67-4,4.08-5.79,1-1.2,2.07-2.32,2.38-3.88,0-.18-.22-.21-.29-.07a31.86,31.86,0,0,1-3.34,4.82c-1.13,1.51-2,3.28-3.3,4.67-.24.25.24.61.44.31a58.92,58.92,0,0,1,4.77-6.63c.07-.08-.06-.17-.13-.12Z"/><path class="cls-1" d="M66.82,78.68A47.87,47.87,0,0,0,60.75,86c-.07.11.07.26.18.16A40.24,40.24,0,0,0,67,78.86c.08-.12-.08-.3-.2-.18Z"/><path class="cls-1" d="M30.47,34.55c1.92-3.21,1.17-7.31,2.33-10.8,0-.06-.07-.11-.1-.05C30.89,27,32,31.1,30.34,34.49c0,.07.08.13.13.06Z"/><path class="cls-1" d="M33,22.6a15.66,15.66,0,0,0,.37-2.26c0-.05-.07-.08-.09,0a14.41,14.41,0,0,0-.42,2.27c0,.09.12.1.14,0Z"/><path class="cls-1" d="M29.6,34.18a63.86,63.86,0,0,1,1.31-7.39.05.05,0,0,0-.1,0,25.12,25.12,0,0,0-1.29,7.4s.08.06.08,0Z"/><path class="cls-1" d="M28.64,33.19c.27-1.47.41-2.93.82-4.38s.95-2.52,1.41-3.79c0-.08-.08-.14-.12-.07a15,15,0,0,0-2.18,8.24s.07,0,.07,0Z"/><path class="cls-1" d="M58.89,91.44C55.29,93.83,51.41,93,47.57,94c-1.29.33-2.36,1.27-3.56,1.8A16.37,16.37,0,0,1,36.46,97a.07.07,0,0,0,0,.13c5.29.83,8.72-2.41,13.73-2.92,2.47-.25,7.16-.44,8.73-2.73,0,0,0,0,0,0Z"/><path class="cls-1" d="M37.79,96c2.58-.49,5.2-.26,7.74-.94a67.25,67.25,0,0,1,9.82-2c.09,0,.09-.17,0-.17A26.28,26.28,0,0,0,47.71,94c-3.32,1-6.63,1.06-9.92,2,0,0,0,0,0,0Z"/><path class="cls-1" d="M57.15,89.91a124.61,124.61,0,0,0-18.07,2c-3,.55-5.33.17-8.33-.3a5,5,0,0,0-3,.24c-.12,0,0,.22.08.18,2.37-.77,4.71.65,7,.72a31.73,31.73,0,0,0,5.8-.79c5.49-.86,11-1.32,16.5-1.78.2,0,.15-.3,0-.3Z"/><path class="cls-1" d="M26.21,91.58a17.62,17.62,0,0,1-2.18,0c-.65,0-1.28-.23-1.92-.31a0,0,0,0,0,0,.08,7.35,7.35,0,0,0,4.13.26s0,0,0,0Z"/><path class="cls-1" d="M20.87,89.06c1.64.18,3.28.4,4.93.55.1,0,.12-.16,0-.17-1.64-.17-3.29-.28-4.94-.43a0,0,0,0,0,0,0Z"/><path class="cls-1" d="M19.67,88.05a106.55,106.55,0,0,0,19.21,1.54,74.77,74.77,0,0,0,7.49-.26c3.25-.35,7-2.46,10.15-1.17.17.07.27-.19.1-.28-1.8-.89-3.31-.55-5.2,0a43.36,43.36,0,0,1-11,1.4A151.1,151.1,0,0,1,19.68,88c-.07,0-.07.09,0,.1Z"/><path class="cls-1" d="M54.81,86.32A46.88,46.88,0,0,0,47.11,85c-2.27-.05-4.2,1.12-6.54.53-2.87-.73-4.79-3.32-7.94-3a.08.08,0,0,0,0,.15c3.41.22,5.74,3.18,9.08,3.45,1.54.12,2.94-.64,4.45-.81,2.77-.31,5.9.64,8.64,1,0,0,0,0,0,0Z"/><path class="cls-1" d="M30.89,82.46c-4.76-.8-9.41-.07-14.11-1.55-.08,0-.13.1-.05.14,4.28,1.89,9.57,1.34,14.15,1.49.05,0,.06-.07,0-.08Z"/><path class="cls-1" d="M15.09,80.08a17.08,17.08,0,0,0,5.35.78c.07,0,.06-.12,0-.13-1.78-.25-3.55-.37-5.32-.74,0,0-.07.07,0,.09Z"/><path class="cls-1" d="M13.87,78.16a21.32,21.32,0,0,0,2.65.64,25.74,25.74,0,0,0,3,.57c.08,0,.11-.11,0-.14a22.72,22.72,0,0,0-2.67-.58,24,24,0,0,0-3-.51s0,0,0,0Z"/><path class="cls-1" d="M13.89,79a14.23,14.23,0,0,0,6.38,1.06c.06,0,.05-.08,0-.09-1.07-.15-2.15-.19-3.21-.36s-2.1-.48-3.15-.7c-.05,0-.07.07,0,.09Z"/><path class="cls-1" d="M20.11,79.53a15.05,15.05,0,0,0,6.45,1.27,25,25,0,0,1,5.11.17c1.77.32,3.43,1,5.17,1.44a.09.09,0,1,0,.06-.16,19.5,19.5,0,0,0-7.42-1.88c-3.35-.11-6.09.31-9.34-.92-.05,0-.08,0,0,.08Z"/><path class="cls-1" d="M37.57,82.14c5.32,1.8,11.26.88,16.74,2.25.1,0,.16-.12.06-.16C49.27,81.92,43,83.15,37.59,82c-.06,0-.09.09,0,.11Z"/><path class="cls-1" d="M54.2,83.22a19.41,19.41,0,0,0-6.41-1.37c-.07,0-.11.11,0,.13,2.11.52,4.28.84,6.4,1.34.07,0,.11-.08,0-.1Z"/><path class="cls-1" d="M53.2,82.47a15.29,15.29,0,0,0-6.33-1.54.07.07,0,1,0,0,.14c1.06.22,2.14.32,3.2.57s2.08.61,3.13.87a0,0,0,0,0,0,0Z"/><path class="cls-1" d="M53,81.36a14,14,0,0,0-6-1.16.07.07,0,0,0,0,.14c.87.22,1.81.23,2.7.38a30.87,30.87,0,0,1,3.27.74c.07,0,.11-.08,0-.1Z"/><path class="cls-1" d="M53,80.44a21.43,21.43,0,0,0-5.1-.73,26.47,26.47,0,0,1-6.3-1.32.13.13,0,0,0-.13.23c3.06,2.27,8,1.27,11.52,1.88a0,0,0,0,0,0-.06Z"/><path class="cls-1" d="M40.36,78.14a131.9,131.9,0,0,1-15.73-1.78c-2.3-.47-4.56-1.28-6.88-1.57-1.91-.24-3.78.23-5.69-.13-.18,0-.24.24-.07.3,1.79.69,3.22.17,5.13.25,2.43.1,5.07,1.09,7.47,1.53a73.31,73.31,0,0,0,15.77,1.43,0,0,0,1,0,0,0Z"/><path class="cls-1" d="M12,74.23a18.21,18.21,0,0,0,3.54,0,.07.07,0,0,0,0-.13,18.81,18.81,0,0,0-3.52,0c-.09,0-.11.14,0,.14Z"/><path class="cls-1" d="M12.41,73.5a6.84,6.84,0,0,0,3.66.31c.09,0,.05-.14,0-.16-.58-.1-1.21,0-1.8-.07a15.41,15.41,0,0,1-1.79-.25.09.09,0,0,0,0,.17Z"/><path class="cls-1" d="M12.05,72.78a5.9,5.9,0,0,0,3.19.25c.08,0,0-.14,0-.15a13.64,13.64,0,0,0-1.57-.07,11.47,11.47,0,0,1-1.56-.2.09.09,0,0,0,0,.17Z"/><path class="cls-1" d="M11,71.12c8.61-.44,16.4,3.41,24.87,3.47a.14.14,0,0,0,0-.28C28,72.77,19.08,69.51,11,70.93c-.12,0-.09.19,0,.19Z"/><path class="cls-1" d="M22.32,73.21a67.55,67.55,0,0,0,11,1.71c.08,0,.09-.1,0-.12a68.7,68.7,0,0,0-11-1.64s0,0,0,0Z"/><path class="cls-1" d="M30.4,73.12c3.82,1,7.8,1.53,11.45,3,3.17,1.3,6.3,0,9.39,1.2a.16.16,0,0,0,.11-.29,6.88,6.88,0,0,0-2.74-.51c-2.66,0-4.61.11-7.14-.93-3.44-1.42-7.4-1.95-11-2.6-.06,0-.08.08,0,.09Z"/><path class="cls-1" d="M41.19,75.43c1.55,0,3.1.07,4.65.22.77.07,1.55.17,2.31.29a8.65,8.65,0,0,0,1.74.35s0,.06,0,.06l.56,0a.11.11,0,0,0,0-.22,33.29,33.29,0,0,0-9.28-.78s0,.06,0,.06Z"/><path class="cls-1" d="M43.1,74.75c2.43.28,4.85.54,7.28.85.16,0,.19-.23,0-.26a68.37,68.37,0,0,0-7.29-.7.06.06,0,0,0,0,.11Z"/><path class="cls-1" d="M49.1,72.52a31.43,31.43,0,0,0-7.75-1.3,26.4,26.4,0,0,1-6.91-.66c-1.12-.32-2.19-.71-3.32-1-7.07-1.61-14.58-2-21.76-2.9a.13.13,0,0,0,0,.25c7,.94,14.15,1.51,21.08,2.84,2.8.54,5.24,1.61,8.08,1.8a81.79,81.79,0,0,1,10.59,1s.06-.06,0-.07Z"/><path class="cls-1" d="M6.4,61.07c4.48,1.11,9.24,1.12,13.78,2,.05,0,.07-.07,0-.08A50.31,50.31,0,0,0,6.42,61s-.06.05,0,.06Z"/><path class="cls-1" d="M21.49,63.48c3.69,1.67,7.84,1.86,11.8,2.41,4.71.65,9.42,1.32,14.13,1.92a.13.13,0,0,0,0-.25c-4.17-.6-8.35-1.15-12.53-1.71-4.43-.59-9.22-.78-13.42-2.4,0,0,0,0,0,0Z"/><path class="cls-1" d="M48.93,69.15c-3.46-.54-7.13-.66-10.62-.91a.1.1,0,0,0,0,.2,56.64,56.64,0,0,0,10.64.76s0,0,0,0Z"/><path class="cls-1" d="M35.83,68.38c-5.76-.64-11.56-1.26-17.35-1.63a0,0,0,1,0,0,.08c5.74.75,11.56,1.26,17.34,1.73a.09.09,0,0,0,0-.18Z"/><path class="cls-1" d="M49,70.3c-1-.21-1.9-.43-2.86-.63a14.7,14.7,0,0,0-2.86-.53.07.07,0,0,0,0,.13,15.34,15.34,0,0,0,2.69.58c1,.19,2,.36,3.05.53,0,0,.06-.07,0-.08Z"/><path class="cls-1" d="M49.14,71.08c-.72-.17-1.49-.16-2.23-.27a20.9,20.9,0,0,0-2.21-.4c-.06,0-.11.09,0,.13a6.48,6.48,0,0,0,2.09.52,7.11,7.11,0,0,0,2.39.07s0,0,0,0Z"/><path class="cls-1" d="M46.4,63.77A228.18,228.18,0,0,0,6.72,55.44a.19.19,0,0,0,0,.37c13.5,1.65,26.4,5.51,39.72,8,0,0,0,0,0,0Z"/><path class="cls-1" d="M5.17,49.06c5.77,2.92,13,2.63,19.12,4.5s11.92,4.18,18.27,5c.27,0,.31-.37,0-.41-6.74-.95-13-3.43-19.55-5.28C17.18,51.2,10.89,51.24,5.19,49c0,0-.06,0,0,.06Z"/><path class="cls-1" d="M43.46,60.42A66.89,66.89,0,0,1,32.73,57.9a0,0,0,0,0,0,.09,29.54,29.54,0,0,0,10.75,2.55.06.06,0,0,0,0-.12Z"/><path class="cls-1" d="M28.69,56.14c-7.87-.89-15.72-2-23.6-2.82-.1,0-.11.15,0,.16,7.84,1.07,15.74,1.83,23.61,2.67,0,0,0,0,0,0Z"/><path class="cls-1" d="M38.76,52.88c.05.24-15.35-2.53-16.48-2.78A171,171,0,0,1,5,45.85a.11.11,0,0,0-.08.21c6.16,2.13,12.62,3.25,19,4.61,3.35.71,6.69,1.51,10.06,2.14,1.37.26,3.68,1.22,5,.35a.06.06,0,0,0,0-.07l-.1-.23s-.07,0-.07,0Z"/><path class="cls-1" d="M4.07,44.4a13.73,13.73,0,0,0,5.84,2.14c.05,0,.08-.08,0-.1C9,46.15,8,46,7.08,45.65a19.51,19.51,0,0,1-2.95-1.32c-.06,0-.11,0-.06.07Z"/><path class="cls-1" d="M4.79,43.79a5.66,5.66,0,0,0,1.77.75,5.15,5.15,0,0,0,1.73.33c.08,0,.09-.12,0-.15-.59-.22-1.25-.27-1.85-.45s-1.08-.42-1.64-.55c0,0-.05.05,0,.07Z"/><path class="cls-1" d="M3.78,41.58c3.82,3,8.89,3.12,13.46,4,3,.6,5.72,1.9,8.69,2.63,3.19.78,6.7.1,9.45,2.23.27.21.56-.22.3-.43a9,9,0,0,0-5-1.75A54.6,54.6,0,0,1,20.81,46c-5.77-1.66-11.56-1.55-17-4.44a0,0,0,1,0,0,0Z"/><path class="cls-1" d="M34.59,49.92a8.91,8.91,0,0,0,1.74,1,4.26,4.26,0,0,0,1.76.52.07.07,0,0,0,0-.13,9.72,9.72,0,0,0-1.61-.61,17.38,17.38,0,0,1-1.82-.94.09.09,0,1,0-.1.14Z"/><path class="cls-1" d="M34.71,50.05a8.28,8.28,0,0,0,3.66,1.45.05.05,0,0,0,0-.1c-.6-.25-1.22-.44-1.82-.69s-1.18-.55-1.77-.83c-.1-.05-.18.11-.09.17Z"/><path class="cls-1" d="M34.65,50.12a4.65,4.65,0,0,0,3.07,1.41.06.06,0,0,0,0-.12c-.51-.17-1-.24-1.53-.46A6,6,0,0,1,34.74,50c-.06-.05-.14,0-.09.09Z"/><path class="cls-1" d="M34.48,47.35c-9.41-6.68-23.13-4.93-32.42-12-.17-.13-.36.14-.2.27,4.16,3.18,9.69,4.28,14.6,5.76,6,1.8,12.56,2.83,18,6,0,0,.09,0,0-.07Z"/><path class="cls-1" d="M2,34.84a7.17,7.17,0,0,0,4.18,2.31.09.09,0,0,0,0-.18A15.25,15.25,0,0,1,4,36.12a11.32,11.32,0,0,1-1.93-1.38c0-.05-.13,0-.08.1Z"/><path class="cls-1" d="M1.67,34.06a9.43,9.43,0,0,0,4.57,2.53c.07,0,.12-.1,0-.13-.72-.4-1.52-.63-2.25-1A17.88,17.88,0,0,1,1.75,34c-.06,0-.14,0-.08.1Z"/><path class="cls-1" d="M2.18,33.6a14.31,14.31,0,0,0,5.15,3c.08,0,.15-.09.07-.14-.82-.54-1.77-.91-2.62-1.4s-1.71-1-2.55-1.57c0,0-.09,0,0,.07Z"/><path class="cls-1" d="M3.59,31.25c3.23,3.35,7.7,3.42,12,4.25,4.1.79,6.36,3.07,9.91,4.87a7,7,0,0,0,4,.88c.15,0,.14-.25,0-.25-4.75-.18-8-4.56-12.59-5.64s-9.42-.85-13.29-4.19c0,0-.11,0-.07.08Z"/><path class="cls-1" d="M31.62,42.94c-5-.57-8.91-3.29-13.52-5-4.33-1.64-9.31-1.16-12.91-4.43-.05,0-.13,0-.08.09,3.2,3.39,8.27,2.89,12.39,4.33,4.76,1.67,8.92,5,14.12,5.11a0,0,0,0,0,0-.06Z"/><path class="cls-1" d="M28.61,37c-3.68-.56-7.11-2.75-10.43-4.4-1.81-.9-3.08-2.38-4.81-3.35C11,27.9,8.6,28.06,6.89,25.14c0-.09-.2,0-.15.06a6.62,6.62,0,0,0,3.38,2.94A26.31,26.31,0,0,1,14.23,30c1,.67,1.81,1.6,2.88,2.25,2.23,1.34,4.76,2.57,7.1,3.75a8.43,8.43,0,0,0,4.4,1.11c.05,0,.05-.08,0-.09Z"/><path class="cls-1" d="M6.56,24.37A10.9,10.9,0,0,0,11.39,28s.1-.06,0-.08a16.39,16.39,0,0,1-4.77-3.61c-.06-.07-.16,0-.11.09Z"/><path class="cls-1" d="M7.41,24a10.18,10.18,0,0,0,4.94,4,0,0,0,0,0,0-.08,14.49,14.49,0,0,1-4.93-4,0,0,0,0,0,0,.05Z"/><path class="cls-1" d="M7.14,22.46A9.63,9.63,0,0,0,12,26.36c.06,0,.13-.08.06-.12A16.89,16.89,0,0,1,7.2,22.4s-.09,0-.06.06Z"/><path class="cls-1" d="M7.83,20.94c2.79,3.46,6.85,5.18,10.48,7.59,2.84,1.9,5.38,4.65,9,4.8a.16.16,0,0,0,0-.32c-3.87-.67-6.5-3.53-9.73-5.52-3.39-2.08-6.81-3.8-9.71-6.6,0,0-.09,0,0,.05Z"/><path class="cls-1" d="M25.73,31.69C19.93,28,14.25,24.21,8.45,20.56c-.1-.06-.2.08-.1.14C14,24.5,19.72,28.44,25.69,31.75a0,0,0,1,0,0-.06Z"/><path class="cls-1" d="M9,13.26c4.55,3.67,9.45,7.41,15.2,8.9.08,0,.12-.08,0-.11A66.18,66.18,0,0,1,9,13.24s0,0,0,0Z"/><path class="cls-1" d="M22.46,19.9c-4.15-2.35-8.18-4.83-12.1-7.56-.08-.05-.16.07-.09.12A102,102,0,0,0,22.41,20c.06,0,.12-.08.05-.11Z"/><path class="cls-1" d="M10.59,11.74a57.2,57.2,0,0,0,11.35,6.1.1.1,0,1,0,.07-.18,87.88,87.88,0,0,1-11.35-6c-.06,0-.13,0-.07.09Z"/><path class="cls-1" d="M20,15.12c-2.4-1.57-4.88-3-7.33-4.51-.08,0-.17.08-.09.13,2.45,1.5,4.88,3,7.37,4.45.05,0,.1,0,.05-.07Z"/><path class="cls-1" d="M24.84,26A119.76,119.76,0,0,1,8.38,16.43c-.1-.08-.21.08-.11.15A86,86,0,0,0,24.82,26s.05,0,0,0Z"/><path class="cls-1" d="M7.89,18.4c5.62,4.11,11.48,8.52,18.1,10.85a.09.09,0,0,0,.07-.17c-6.69-2.5-12.22-6.86-18.14-10.73,0,0-.06,0,0,0Z"/><path class="cls-1" d="M49.51,55a11.12,11.12,0,0,0-1.41,3.12c-.43,1.22-1.14,2.3-1.56,3.5,0,.07.06.14.11.08,1.72-1.71,1.85-4.56,3-6.62a.07.07,0,0,0-.12-.08Z"/><path class="cls-1" d="M49.25,54.55a19.91,19.91,0,0,0-1.65,3.64A32.53,32.53,0,0,0,46,62.33c-.05.18.2.36.31.16a32.19,32.19,0,0,0,1.63-3.93,20.24,20.24,0,0,0,1.4-4s0-.06-.08,0Z"/><path class="cls-1" d="M49.43,54.42c-1.68,1.9-3.48,4.78-3.62,7.38a.09.09,0,0,0,.18,0c.55-1.17.85-2.46,1.38-3.65a24.87,24.87,0,0,1,2.15-3.71.05.05,0,1,0-.09-.06Z"/><path class="cls-1" d="M49.27,56.33c-1,2.14-2,4.32-3,6.52h.32c0-.22.1-.43.14-.65,0-.06,0-.14-.1-.09a.77.77,0,0,0-.36.83c0,.19.26.18.32,0,1-2.17,1.92-4.37,2.79-6.58,0-.1-.11-.16-.16-.06Z"/><path class="cls-1" d="M49.39,57c-.46,1-.86,2.12-1.3,3.17s-1,2.08-1.33,3.16l.25,0a1.86,1.86,0,0,1,.07-.52s-.06-.06-.08,0l-.23.46c-.09.14.13.29.21.15a25.69,25.69,0,0,0,2.57-6.39.09.09,0,1,0-.16-.06Z"/><path class="cls-1" d="M49.81,58.15a61.78,61.78,0,0,1-2.89,5.75c-.1.18.16.38.27.19a26.31,26.31,0,0,0,2.66-5.93s0,0,0,0Z"/><path class="cls-1" d="M50.05,59.51A42.78,42.78,0,0,0,47.42,66c-.06.21.23.39.35.19a30,30,0,0,0,3.87-8.81c0-.13-.16-.15-.21,0-1.33,2.91-2.36,5.84-4,8.63l.35.18c.69-2.22,1.5-4.4,2.4-6.56,0-.09-.11-.14-.15-.05Z"/><path class="cls-1" d="M50.65,61.5c.93-2.28,1.76-4.56,2.88-6.76,1.24-2.43,2.88-4.58,4.19-7,.06-.11-.08-.28-.18-.17-3.37,3.52-5.95,9.11-7.12,13.79a.12.12,0,0,0,.23.09Z"/><path class="cls-1" d="M61.12,42c-1.35,2.56-3.11,4.81-4.58,7.28-.06.1.07.25.17.15a27.32,27.32,0,0,0,4.55-7.38c0-.09-.1-.14-.14-.05Z"/><path class="cls-1" d="M64.73,35.66c-.62,1.47-1.24,3-2,4.36s-1.54,2.45-2.21,3.72c0,.07.07.14.12.09a18.87,18.87,0,0,0,4.11-8.15s0,0,0,0Z"/><path class="cls-1" d="M32.43,51.86a16.7,16.7,0,0,0,2.77.66,12.24,12.24,0,0,0,2.5.78c.1,0,.2-.12.12-.21A6.23,6.23,0,0,0,35.23,52a6.37,6.37,0,0,0-2.78-.39.11.11,0,0,0,0,.21Z"/><path class="cls-1" d="M31.71,51.28a36.43,36.43,0,0,1,3.74.76c1,.27,2,.73,3,.93.13,0,.19-.17.09-.23-1.85-1.21-4.66-1.58-6.82-1.69a.12.12,0,0,0,0,.23Z"/><path class="cls-1" d="M34,49.75a1.18,1.18,0,0,0,.31.08.07.07,0,0,0,0-.12,1.25,1.25,0,0,0-.28-.15c-.12-.05-.2.15-.07.19Z"/><path class="cls-1" d="M33.64,52a35.4,35.4,0,0,0-6.76-1.15c-.09,0-.14.14,0,.17a34.27,34.27,0,0,0,6.76,1.16c.1,0,.15-.15,0-.18Z"/><path class="cls-1" d="M34,51.47l.06.06h0l.08-.06a0,0,0,0,0,0-.06c-.45-.66-2.34-.53-3.08-.63a55.49,55.49,0,0,0-5.75-.61.07.07,0,0,0,0,.14,46.63,46.63,0,0,0,4.86.71c.77.1,1.53.2,2.3.28.32,0,1.32-.07,1.55.13,0,0-.07,0,0,0Z"/><path class="cls-1" d="M28.12,50.91c-4.82-.95-9.65-2.22-14.54-2.73-.08,0-.11.11,0,.13,4.75,1.28,9.72,1.83,14.57,2.66,0,0,0,0,0-.06Z"/><path class="cls-1" d="M3.89,30a3.21,3.21,0,0,0,1.26,1,3.64,3.64,0,0,0,1.53.59c.07,0,.12-.08.05-.13-.45-.3-1-.42-1.53-.69A7.91,7.91,0,0,0,3.9,30s0,0,0,0Z"/><path class="cls-1" d="M3.63,29.21a7.12,7.12,0,0,0,4,1.94.12.12,0,0,0,.06-.23,20.4,20.4,0,0,1-2-.67,15.61,15.61,0,0,1-2-1.14c-.06,0-.16,0-.1.1Z"/><path class="cls-1" d="M4.26,28.44A7.57,7.57,0,0,0,6.2,29.92a4.47,4.47,0,0,0,2.33.73.09.09,0,0,0,0-.16c-.6-.36-1.38-.45-2-.76a11.47,11.47,0,0,1-2.18-1.38c-.06-.05-.13,0-.09.09Z"/><path class="cls-1" d="M5.17,28a7.47,7.47,0,0,0,2.05,1.83,4.87,4.87,0,0,0,2.34.91c.11,0,.19-.14.08-.21-.69-.47-1.57-.68-2.29-1.12a13.93,13.93,0,0,1-2-1.57c-.1-.08-.22.07-.15.16Z"/><path class="cls-1" d="M5.43,27.88c.3.76,1.32,1.33,2,1.74a4.34,4.34,0,0,0,2.26.94.12.12,0,0,0,.07-.19A10.34,10.34,0,0,0,7.6,29.14,10.15,10.15,0,0,0,5.51,27.8a.06.06,0,0,0-.08.08Z"/><path class="cls-1" d="M4.73,28.75C5,29.53,6.21,30,6.91,30.38a6.39,6.39,0,0,0,2.86.76c.09,0,.08-.14,0-.17-.88-.4-1.82-.64-2.69-1.06a11.61,11.61,0,0,1-1.33-.75,2.23,2.23,0,0,0-1-.49.06.06,0,0,0-.06.08Z"/><path class="cls-1" d="M8.66,29.94a18.11,18.11,0,0,0,4.93,2.22,30.4,30.4,0,0,1,5.85,2.55.07.07,0,1,0,.08-.11c-3-2.56-7.46-2.81-10.84-4.7a0,0,0,0,0,0,0Z"/><path class="cls-1" d="M19.81,35.44a31.3,31.3,0,0,0,5.32,2.3C26,38,28.19,39,29,38.42a.14.14,0,0,0,0-.16c-.09-.19-.09-.18-.3-.21a.1.1,0,0,0-.11.09l0,.09c0,.06.08.11.12.07-.24.23-2.08-.4-2.35-.47-.78-.2-1.56-.41-2.32-.67a33.94,33.94,0,0,1-4.21-1.8s-.09,0,0,.08Z"/><path class="cls-1" d="M23.15,36.35a13.07,13.07,0,0,0,2.77,1.12,7.26,7.26,0,0,0,2.71.49.18.18,0,0,0,0-.35A22.86,22.86,0,0,0,26,37c-.91-.24-1.79-.56-2.68-.84-.13,0-.25.14-.12.22Z"/><path class="cls-1" d="M23.52,35.81a9,9,0,0,0,2.65,1.13,6.66,6.66,0,0,0,2.57.6.14.14,0,0,0,.06-.25,10,10,0,0,0-2.61-.83,14.36,14.36,0,0,0-2.63-.76c-.06,0-.09.08,0,.11Z"/><path class="cls-1" d="M27.61,36.89a17.66,17.66,0,0,1-3.77-1.08,21.75,21.75,0,0,1-3.32-2c-.09-.06-.21.06-.13.14a10.1,10.1,0,0,0,7.2,3.15.09.09,0,0,0,0-.17Z"/><path class="cls-1" d="M43.56,19.45c.34-.31.67-.64,1-1l-.38-.35a9.45,9.45,0,0,0-1.3,2.4A5.1,5.1,0,0,0,42.39,23a.19.19,0,0,0,.36,0c.33-.72.38-1.57.65-2.32a12.53,12.53,0,0,1,1.19-2.3.26.26,0,0,0-.42-.3c-.28.38-.56.75-.81,1.15-.08.13.08.29.2.18Z"/><path class="cls-1" d="M44.35,19.45a6.35,6.35,0,0,0-.8,1.78,3.5,3.5,0,0,0-.3,1.79.17.17,0,0,0,.29.07,6.46,6.46,0,0,0,.45-1.7c.18-.61.45-1.18.65-1.79a.17.17,0,0,0-.29-.15Z"/><path class="cls-1" d="M45.33,19.1a4.7,4.7,0,0,0-1.11,1.77,2.9,2.9,0,0,0-.31,1.92.14.14,0,0,0,.24,0,7.7,7.7,0,0,0,.5-1.69,11.36,11.36,0,0,1,.93-1.8c.08-.16-.1-.37-.25-.23Z"/><path class="cls-1" d="M45.18,19.4A3.71,3.71,0,0,0,44.26,21,3.1,3.1,0,0,0,44,22.76c0,.09.16.16.21,0a8.87,8.87,0,0,0,.47-1.62c.19-.58.49-1.12.66-1.7,0-.08-.06-.15-.13-.09Z"/><path class="cls-1" d="M42.62,21.24a13.76,13.76,0,0,0-1.17,5.31c0,2.34.53,4.3-.78,6.43,0,.06,0,.14.09.08a4.61,4.61,0,0,0,1.08-3.48c0-1.21-.3-2.41-.24-3.63a18.2,18.2,0,0,1,1.19-4.64.09.09,0,0,0-.17-.07Z"/><path class="cls-1" d="M42.6,27.34c-.15,1-.32,2-.56,3a8.56,8.56,0,0,0-.61,2.4.09.09,0,0,0,.15.05,4.8,4.8,0,0,0,.87-2.38,12.15,12.15,0,0,0,.27-3.06c0-.07-.11-.06-.12,0Z"/><path class="cls-1" d="M43.09,27.21c-.25.94-.49,1.9-.74,2.84a6.14,6.14,0,0,0-.51,2.35.1.1,0,0,0,.17.06,5.4,5.4,0,0,0,.85-2.38,26.17,26.17,0,0,0,.56-2.8c0-.19-.28-.27-.33-.07Z"/><path class="cls-1" d="M43.8,26.71A29.42,29.42,0,0,1,43.17,30a11.71,11.71,0,0,0-.76,2.65.13.13,0,0,0,.24.1,6.38,6.38,0,0,0,1-2.77,16.22,16.22,0,0,0,.43-3.19.14.14,0,0,0-.28,0Z"/><path class="cls-1" d="M44.87,25.16a60.34,60.34,0,0,1-1.75,7l.48.11c.72-3.88,1.91-7.78,2.39-11.7,0-.13-.19-.18-.24,0-1.35,3.71-1.89,7.83-2.65,11.7a.25.25,0,0,0,.48.11,33.73,33.73,0,0,0,1.58-7.15.15.15,0,1,0-.29,0Z"/><path class="cls-1" d="M47.06,19.69a13.42,13.42,0,0,0-2.16,5.64.08.08,0,0,0,.16,0c.37-.93.62-1.9,1-2.85s.74-1.86,1.1-2.79c0-.05-.05-.08-.07,0Z"/></g></g></svg>