<svg xmlns="http://www.w3.org/2000/svg" viewBox="0 0 98.31 90.3"><defs><style>.cls-1{fill:#444;}</style></defs><title>icon-hibiscusflower</title><g id="Calque_2" data-name="Calque 2"><g id="_2" data-name="2"><path class="cls-1" d="M56.65,31.87A17.61,17.61,0,0,0,50.71,18c-4.09-3.45-9-3.81-14.08-2.67-5.5,1.24-11.3,3-15.49,7-3,2.84-5.84,7.68-4.5,11.93.05.18.37.2.4,0,.58-4.58,1.56-8.32,5.1-11.56s8.57-5,13.3-6c5.08-1.07,10.21-1.13,14.44,2.27s5.46,8,6.67,13c0,.07.1,0,.1,0Z"/><path class="cls-1" d="M16.84,33.82c-.7,8.74,12.38,7.51,17.42,9.91a14,14,0,0,0,11.05.55c3.47-1.13,7.46-3.26,9.22-6.58.09-.16-.1-.35-.25-.24-2.85,1.9-5.14,4.12-8.44,5.32a18.54,18.54,0,0,1-5.29,1.14c-2.51.14-4.29-.76-6.51-1.68-5.62-2.32-16.27.08-17.1-8.42a.05.05,0,0,0-.1,0Z"/><path class="cls-1" d="M56.07,35.15a17.79,17.79,0,0,1-1.57,2.38,15.92,15.92,0,0,0-1.56,1.85.17.17,0,0,0,.19.24,5,5,0,0,0,1.81-1.78,8.74,8.74,0,0,0,1.22-2.65,0,0,0,0,0-.09,0Z"/><path class="cls-1" d="M33.78,42.59C25.59,44.39,24.91,54.9,28.23,61c2.43,4.45,6.64,7.8,10.24,11.26,2.29,2.21,5,5.75,8.57,4.81.28-.07.17-.45-.08-.47-3.65-.37-6.34-3.89-8.79-6.26-2.73-2.64-5.72-5.2-7.9-8.33-4.64-6.64-3.52-15,3.67-19,.2-.11.05-.4-.16-.36Z"/><path class="cls-1" d="M48,76.59c6.15,3,14.56-4.86,17.42-9.67a22.32,22.32,0,0,0,2.8-10c.22-3.36.37-7.89-1.32-10.9a.24.24,0,0,0-.43.07c-.46,2.71.38,5.63.46,8.37a23.92,23.92,0,0,1-1.4,9.38,20.27,20.27,0,0,1-6.21,8c-3.27,2.76-6.77,5.3-11.27,4.61-.07,0-.12.08,0,.11Z"/><path class="cls-1" d="M66.5,46.63a6.43,6.43,0,0,0-.1-1.7c-.07-.34-.66-.25-.61.09.13.86.32,1.72.48,2.57a8,8,0,0,0,.65,2.48.16.16,0,0,0,.3,0A6.82,6.82,0,0,0,67,47.79c-.18-.95-.33-1.92-.55-2.86l-.56.25a2.44,2.44,0,0,1,.49,1.45c0,.11.16.1.17,0Z"/><path class="cls-1" d="M64.43,44.29c.89,2.31,1.07,4.64,1.61,7,0,.11.21.11.22,0,.28-2.39-.7-4.93-1.75-7,0,0-.1,0-.08,0Z"/><path class="cls-1" d="M65.9,49.89c-.35,5.34,1.28,11.68-1.76,16.39-.09.13.11.32.24.22,1.63-1.29,2-3.39,2.08-5.38a74,74,0,0,0-.4-11.24.08.08,0,0,0-.16,0Z"/><path class="cls-1" d="M55.68,38.74c-1,1.14-1.83,3-1,4.43.64,1.08,2.38,1.78,3.36.79a.24.24,0,0,0-.12-.41c-1.06-.13-2.2-.14-2.66-1.33s.21-2.35.49-3.42a.06.06,0,0,0-.1-.06Z"/><path class="cls-1" d="M59.18,36.77a19.73,19.73,0,0,0,3.16-3.36,10.76,10.76,0,0,0,2.21-3.58.19.19,0,0,0-.32-.17,28.48,28.48,0,0,0-2.51,3.5c-.88,1.15-1.89,2.18-2.79,3.31-.14.16.06.45.25.3Z"/><path class="cls-1" d="M65.8,28.51c4-3.18,7.51-7.84,8-13,.43-4.18-1.45-8.64-5.64-9.92-.14-.05-.19.14-.08.21A10.67,10.67,0,0,1,72.54,18c-1.17,4.21-4.13,7.19-6.79,10.47,0,0,0,.1,0,.07Z"/><path class="cls-1" d="M66.38,4.85a14.68,14.68,0,0,0-3.83-1.53c-1.61-.56-2.9-1.57-4.44-2.25A14.7,14.7,0,0,0,50.29.15c-3.95.47-12.2,1.42-12.81,6.53a.21.21,0,0,0,.38.15C40.77,2.23,47.61.93,52.79.94c3,0,5,1,7.57,2.32a24.38,24.38,0,0,0,6,1.77c.11,0,.15-.12.06-.18Z"/><path class="cls-1" d="M36.65,8.09c-.43,1.66-.51,3.42.64,4.81a9.32,9.32,0,0,0,4.48,2.94.17.17,0,0,0,.16-.29c-1-.87-2.3-1.39-3.31-2.29-1.64-1.45-1.69-3.08-1.77-5.15a.1.1,0,0,0-.2,0Z"/><path class="cls-1" d="M38.48,4.92c-1.58,1.62-1.93,5.58-.55,7.41.09.12.32.08.31-.09a23.86,23.86,0,0,1-.47-3.48A20.1,20.1,0,0,1,38.63,5a.09.09,0,0,0-.15-.08Z"/><path class="cls-1" d="M73.53,17.8c3.42-2.17,6.7-1.89,10.12.14A12.25,12.25,0,0,1,88,21.59a19.73,19.73,0,0,1,1.73,4.57c.84,2.51,2.47,4.8,2.59,7.5.13,3-1.17,5.47-2.32,8.1a.07.07,0,1,0,.12.06c1.7-2.53,3-5.91,2.74-9-.17-1.82-1-3.31-1.7-5-.74-1.88-1.07-3.93-2-5.75-2.68-5.4-10.94-9-15.82-4.5-.12.11,0,.31.19.22Z"/><path class="cls-1" d="M62.36,36a2.09,2.09,0,0,1,1.54.45,7.15,7.15,0,0,1,.88,1.11.12.12,0,0,0,.19,0,1.66,1.66,0,0,0-.75-1.6,2.42,2.42,0,0,0-1.88-.52c-.37.05-.38.64,0,.61Z"/><path class="cls-1" d="M59.64,72.48c4.09,2.1,8.85,1.44,13.13.24,3.43-1,7.94-3.51,8.65-7.34a.23.23,0,0,0-.38-.2c-1.5,1.28-2.51,3-4.1,4.18A15.59,15.59,0,0,1,71.61,72a25.69,25.69,0,0,1-6.32,1c-1.91,0-3.73-.55-5.62-.7a.07.07,0,0,0,0,.13Z"/><path class="cls-1" d="M81,66.12A40.88,40.88,0,0,1,84.75,60c.72-1,1.54-2.21,1-3.43,0-.11-.22,0-.22.07.11,2-1.3,3.28-2.4,4.84A19.9,19.9,0,0,0,80.66,66c-.08.2.24.31.34.13Z"/><path class="cls-1" d="M86,56.87c-.58,1.13-1.18,2.24-1.78,3.35a31.86,31.86,0,0,0-1.84,3.33c0,.11.1.25.19.14a16.15,16.15,0,0,0,1.84-3.14c.61-1.19,1.16-2.4,1.67-3.63,0-.06,0-.1-.08-.05Z"/><path class="cls-1" d="M63.11,44.36c-1.38,1.35-2.71,2.08-4.55,1a6.94,6.94,0,0,1-2.9-2.83c0-.08-.18,0-.17,0,.1,1.53,2.29,2.89,3.59,3.4,1.73.66,3.08-.18,4.21-1.48a.12.12,0,0,0-.18-.17Z"/><path class="cls-1" d="M56.65,37a3.67,3.67,0,0,0-1,1.34,1.91,1.91,0,0,0-.17,1.34.09.09,0,0,0,.15,0,8.27,8.27,0,0,0,.27-1.24,3.85,3.85,0,0,1,.77-1.4,0,0,0,0,0-.06,0Z"/><path class="cls-1" d="M58.68,35.9a2.64,2.64,0,0,0-1.87,1.79c0,.06.08.12.12.06.26-.31.46-.66.74-1a6.84,6.84,0,0,1,1-.81c.05,0,0-.11,0-.09Z"/><path class="cls-1" d="M57.55,44c.62.17,1.25.31,1.88.45a8.19,8.19,0,0,0,1.68.33.07.07,0,0,0,0-.14,8.34,8.34,0,0,0-1.65-.43c-.63-.14-1.26-.29-1.89-.4a.1.1,0,0,0-.05.19Z"/><path class="cls-1" d="M58.06,44a2.32,2.32,0,0,0,.07,1.62c0,.1.21.1.2,0s-.11-.55-.13-.83,0-.5,0-.75a.07.07,0,0,0-.11,0Z"/><path class="cls-1" d="M58.58,44.25a7.34,7.34,0,0,0,.18.84,2.64,2.64,0,0,0,.29.83.08.08,0,0,0,.15-.05A2.49,2.49,0,0,0,59,45a7.14,7.14,0,0,0-.31-.81s-.1,0-.09,0Z"/><path class="cls-1" d="M59.18,44.48q.09.42.21.84a1.16,1.16,0,0,0,.27.63.08.08,0,0,0,.12,0,1.05,1.05,0,0,0-.11-.67c-.09-.28-.19-.55-.29-.82a.1.1,0,0,0-.2.06Z"/><path class="cls-1" d="M60.33,44.31A2.54,2.54,0,0,0,60.67,46,.08.08,0,0,0,60.8,46a3.74,3.74,0,0,0-.15-.74,5.88,5.88,0,0,1-.11-.94c0-.13-.2-.13-.21,0Z"/><path class="cls-1" d="M58.84,44.41c1.24.11,4.18,1.32,4.74-.58a.13.13,0,0,0-.19-.14,3,3,0,0,1-2.12.72c-.82,0-1.61-.27-2.43-.25a.13.13,0,0,0,0,.25Z"/><path class="cls-1" d="M55.82,35.79C53,44.7,40.79,46.44,33.1,44.43a.14.14,0,0,0-.07.27,20.15,20.15,0,0,0,14.3-.53c3.61-1.49,7.82-4.28,8.75-8.32,0-.17-.2-.22-.26-.06Z"/><path class="cls-1" d="M32.56,44.69a11,11,0,0,0-2.13,14.88.1.1,0,0,0,.17-.11c-2.73-5.34-2.21-10.39,2-14.73,0,0,0-.06,0,0Z"/><path class="cls-1" d="M31,61c3.62,4.53,7.28,9.26,12.53,11.93,3.9,2,8.29,3.67,11.76,0a.2.2,0,0,0-.29-.27c-4.26,3.94-9.82,1.2-14-1.51-4-2.56-6.74-6.8-10-10.15,0,0,0,0,0,0Z"/><path class="cls-1" d="M56.45,71.89c4.55-1.77,9-6.65,8.87-11.79,0-.09-.15-.11-.17,0a14.1,14.1,0,0,1-2.78,7c-1.64,2-3.8,3.34-5.94,4.79,0,0,0,.05,0,0Z"/><path class="cls-1" d="M54,38.16a.4.4,0,0,0,.07.18,0,0,0,0,0,.05,0,.59.59,0,0,0-.05-.19s-.08,0-.07,0Z"/><path class="cls-1" d="M55.65,32.58a16.07,16.07,0,0,0-2.18-7.27s-.12,0-.09,0a70.21,70.21,0,0,1,2.2,7.24,0,0,0,0,0,.07,0Z"/><path class="cls-1" d="M52.54,24c-1.63-3.23-4.18-7.27-8.45-6.42-.1,0-.07.17,0,.17a7.48,7.48,0,0,1,5.44,1.92,16.94,16.94,0,0,1,3,4.34s0,0,0,0Z"/><path class="cls-1" d="M42.36,17.58c-5.21.76-10.31-.1-15.12,2.51a17.36,17.36,0,0,0-8.35,10.07c0,.13.14.17.19.05A17.87,17.87,0,0,1,29.16,19.43c4.32-1.74,9-.27,13.2-1.82,0,0,0,0,0,0Z"/><path class="cls-1" d="M54.53,33.71c-2.7,1.42-5.46,1-8.39,1.07a0,0,0,0,0,0,.09,13,13,0,0,0,8.45-1.09c.05,0,0-.1,0-.07Z"/><path class="cls-1" d="M43.55,35.09a19.7,19.7,0,0,0-11.86.65s0,0,0,0a22.37,22.37,0,0,1,11.84-.63,0,0,0,0,0,0,0Z"/><path class="cls-1" d="M54.25,35.65a30.64,30.64,0,0,1-8,4.68,14.25,14.25,0,0,1-9.49.32s-.06.05,0,.07c6,3,13.07-1.06,17.54-5,0,0,0-.07,0-.05Z"/><path class="cls-1" d="M19,31.71c-1.59,8.31,8.76,7.85,14.13,9.4a0,0,0,0,0,0-.09c-2-1.07-4.4-1-6.6-1.49a18.44,18.44,0,0,1-4.64-1.47C19.37,36.75,19,34.28,19,31.71c0,0-.07-.05-.08,0Z"/><path class="cls-1" d="M57.44,35.75l.05.14s0,0,.06,0A11.35,11.35,0,0,0,58.09,33a13.36,13.36,0,0,0,.14-3c0-.06-.1-.08-.11,0-.2,1-.21,2.08-.33,3.11-.06.52-.14,1-.21,1.55,0,.18-.22.86-.11,1.05,0,0,0,0,0,0Z"/><path class="cls-1" d="M58.69,35.45c.26-1.08.41-2.18.57-3.28a13.09,13.09,0,0,0,.31-2.91c0-.1-.12-.1-.15,0a15.17,15.17,0,0,0-.6,3.28c-.13,1-.27,1.94-.33,2.91a.1.1,0,0,0,.2,0Z"/><path class="cls-1" d="M60.87,30.51c-.27.8-.52,1.59-.84,2.37s-.68,1.37-1,2.07a.17.17,0,0,0,.31.16A10.92,10.92,0,0,0,61,30.55a.08.08,0,0,0-.16,0Z"/><path class="cls-1" d="M60.62,34.78c-1.62-.53-4.22.73-4.33,2.59a.22.22,0,0,0,.38.15,7,7,0,0,1,1.5-1.8A4.87,4.87,0,0,1,60.6,35a.1.1,0,0,0,0-.2Z"/><path class="cls-1" d="M57.78,36.75c-1,1-3,4.81-.92,5.74a.1.1,0,0,0,.11-.17c-1.45-1.5,0-4.09.92-5.49,0-.06-.06-.14-.11-.08Z"/><path class="cls-1" d="M57.24,39.73a4.45,4.45,0,0,0,0,2.77.07.07,0,0,0,.13,0,5,5,0,0,1-.11-2.73s0,0,0,0Z"/><path class="cls-1" d="M57.35,41.67a3.45,3.45,0,0,0,2.22,2.81c1,.42,2.62.52,3.44-.38.09-.1,0-.3-.13-.28a6.73,6.73,0,0,1-3,.13,4.61,4.61,0,0,1-2.47-2.31s-.1,0-.1,0Z"/><path class="cls-1" d="M68.83,47.24c2.32,4,1.34,10.39.78,14.73,0,.08.11.11.13,0a34.21,34.21,0,0,0,.55-8.15c-.1-2.19-.13-4.78-1.43-6.63,0,0,0,0,0,0Z"/><path class="cls-1" d="M68.66,53.44A25.52,25.52,0,0,1,68,64.29a13.32,13.32,0,0,1-2.55,5,4.1,4.1,0,0,0-1.15,2.08c0,.09.12.16.16.06.57-1.48,1.89-2.54,2.65-3.94a14.6,14.6,0,0,0,1.47-4.41c.57-3,1.17-6.74.08-9.68,0,0,0,0,0,0Z"/><path class="cls-1" d="M68.18,65.32c-.66,2.21-1.42,4.38-2.11,6.57,0,.12.16.2.21.08a27.28,27.28,0,0,0,2-6.62c0-.08-.11-.11-.13,0Z"/><path class="cls-1" d="M69.29,65.34a28.75,28.75,0,0,1-.83,3.06,30.31,30.31,0,0,0-1.09,3c0,.07.09.14.14.08a9.53,9.53,0,0,0,1.13-2.62,24,24,0,0,0,.84-3.44c0-.12-.16-.17-.19,0Z"/><path class="cls-1" d="M70.6,65.65A15.12,15.12,0,0,1,70,68.48c-.31.92-.84,1.73-1.18,2.63a.07.07,0,0,0,.11.06,9.53,9.53,0,0,0,1.76-5.51c0-.06-.1-.08-.11,0Z"/><path class="cls-1" d="M63.79,71.43c3.14.95,6,0,9-1.29,1.85-.8,3.83-1.56,4.33-3.68a.1.1,0,0,0-.18-.06c-1.83,3.89-9.31,5.55-13.1,5,0,0,0,0,0,0Z"/><path class="cls-1" d="M80,64.53a23,23,0,0,1,2.61-4.67,4.5,4.5,0,0,0,1.3-2.93.1.1,0,0,0-.2,0,12.77,12.77,0,0,1-2.12,3.66,12.26,12.26,0,0,0-1.75,3.9c0,.09.12.15.16.06Z"/><path class="cls-1" d="M54.49,42.47c-.5.75-1,1.52-1.5,2.23s-1.1,1.2-1.58,1.84c0,.06,0,.16.09.11a11,11,0,0,0,3.09-4.12.06.06,0,0,0-.1-.06Z"/><path class="cls-1" d="M54.7,43.64c-.34.48-.68,1-1,1.46a11.18,11.18,0,0,0-1,1.68.05.05,0,0,0,.09.06,10.5,10.5,0,0,0,1-1.47c.36-.56.7-1.12,1-1.69,0,0,0-.08-.06,0Z"/><path class="cls-1" d="M55.59,44.73a10.9,10.9,0,0,1-.6,1.12,12.21,12.21,0,0,0-.68,1.08,0,0,0,0,0,.08,0,4.2,4.2,0,0,0,.69-1,13.17,13.17,0,0,0,.57-1.2s0-.08-.06,0Z"/><path class="cls-1" d="M61.21,37.67c-.33,0-.65.06-1,.11a2.73,2.73,0,0,0-.93.25c-.06,0,0,.13,0,.15a2.23,2.23,0,0,0,.85-.07c.36-.06.71-.15,1.06-.24.11,0,.08-.21,0-.2Z"/><path class="cls-1" d="M59,38.32a9.05,9.05,0,0,1,5.89,1.07,10.76,10.76,0,0,0,2.94,1.36c1.5.32,3.07.19,4.58.51a27.06,27.06,0,0,1,5.08,1.84c4.21,1.85,10,4.57,14.17,1.29.09-.06,0-.23-.08-.19C84.77,46.68,79.75,42.62,73.41,41c-2.89-.77-5.6-.47-8.3-2A7.25,7.25,0,0,0,59,38.23c-.05,0,0,.1,0,.09Z"/><path class="cls-1" d="M92,43.81a11.33,11.33,0,0,0,4.22-3.7s0-.11-.09-.06A20.7,20.7,0,0,1,92,43.77s0,.06,0,0Z"/><path class="cls-1" d="M96.57,40.22c.08,0,.05-.16,0-.13s0,.15,0,.13Z"/><path class="cls-1" d="M97.17,39c-.88-.4-1.47.94-.69,1.45a1.11,1.11,0,0,0,1.31-.07A1.57,1.57,0,0,0,98.3,39c0-.1-.08-.22-.19-.23-.65-.07-1.7.35-1.6,1.16a.13.13,0,0,0,.22.08c.41-.42.67-.81,1.33-.76L97.81,39c.07.51-.09,1.23-.74,1.23-.26,0-.56-.15-.56-.45a.48.48,0,0,1,.55-.46c.17,0,.27-.21.11-.28Z"/><path class="cls-1" d="M96.4,44.09a.83.83,0,0,0-.91.86.92.92,0,0,0,1,.84,1,1,0,0,0,.62-1.69c-.21-.22-.59-.05-.79.12s0,.17.06.2a1.06,1.06,0,0,0,.53,0l-.16-.06a.58.58,0,0,1-.46,1c-.69-.13-.5-1,.1-1.14a.09.09,0,0,0,0-.17Z"/><path class="cls-1" d="M97,39.65c-2.65,3.1-7,7.15-11.35,7a.07.07,0,0,0,0,.14c4.27.82,9.16-4,11.42-7.1,0-.05,0-.1-.06-.06Z"/><path class="cls-1" d="M59.17,39c9.24,1.63,17.86,5.44,27,7.46a.18.18,0,0,0,.08-.36c-4.65-1.48-9.42-2.65-14.1-4.09-4.22-1.3-8.52-2.92-13-3.19a.09.09,0,0,0,0,.18Z"/><path class="cls-1" d="M87,46.71c-.73-.08-1.93.72-1.33,1.55s1.65-.48,2.16-.79a.15.15,0,0,0,0-.24A1.33,1.33,0,0,0,86.18,47c-.05,0,0,.1,0,.09a1.49,1.49,0,0,1,1.38.41l0-.24c-.45.28-.79.94-1.35,1s-.53-.56-.25-.85.65-.28,1-.47c.06,0,.06-.16,0-.17Z"/><path class="cls-1" d="M83.91,44.42c.36-.37.7-.75,1-1.13a5.46,5.46,0,0,0,.87-1,.07.07,0,0,0-.1-.09,4.9,4.9,0,0,0-1,1c-.34.38-.68.76-1,1.16a.1.1,0,0,0,.15.14Z"/><path class="cls-1" d="M85.12,41.44a1,1,0,1,0,1.83.47.93.93,0,0,0-1.12-1,1.31,1.31,0,0,0-.78,1.5.1.1,0,0,0,.18,0c.16-.32.14-.71.37-1a.6.6,0,0,1,1,.26.69.69,0,0,1-.79.74.87.87,0,0,1-.6-1c0-.07-.09-.13-.13-.05Z"/><path class="cls-1" d="M57.4,40.05a.73.73,0,0,1-.44-.21l-.07.31a4.81,4.81,0,0,1,2-.61c.61,0,1.17.19,1.76.18a.27.27,0,0,0,.18-.47c-1.14-.93-3.23-.3-4.22.55-.21.18.07.47.29.35a.79.79,0,0,1,.48,0,.06.06,0,0,0,0-.11Z"/><path class="cls-1" d="M57.11,38c.67,0,1.34-.06,2,0a12.42,12.42,0,0,0,2,.24.24.24,0,0,0,.16-.41,3,3,0,0,0-2-.54,3.63,3.63,0,0,0-2.18.55.11.11,0,0,0,.06.2Z"/><path class="cls-1" d="M58.3,39.12H57.21l.08.5,2.83-.92L60,38.12a5.57,5.57,0,0,1-2.93.46c0,.21,0,.41,0,.62a10.29,10.29,0,0,1,2.06-.33,10.51,10.51,0,0,0,1.68-.08.2.2,0,0,0,0-.36,6.3,6.3,0,0,0-4,.16c-.38.1-.24.59.09.62a5.93,5.93,0,0,0,3.24-.56c.3-.14.07-.64-.24-.53l-2.8,1a.25.25,0,0,0,.14.49l1-.29a.1.1,0,0,0,0-.2Z"/><path class="cls-1" d="M59.59,39.08a9,9,0,0,0,2,0,7,7,0,0,1,2.57.68.34.34,0,0,0,.32-.59,5.71,5.71,0,0,0-4.44-.62c-.32.08-.33.63,0,.67a30.76,30.76,0,0,0,4.34.66.24.24,0,0,0,.11-.45,12.45,12.45,0,0,0-4.29-.89c0,.23,0,.45,0,.68a5,5,0,0,1,3.92.54l.32-.59a7.42,7.42,0,0,0-2.62-.69,3.22,3.22,0,0,0-2.33.43.1.1,0,0,0,.05.16Z"/><path class="cls-1" d="M67.51,27.51a34.9,34.9,0,0,0-3.75,5.58.11.11,0,0,0,.19.1c1.16-1.91,2.41-3.75,3.62-5.63,0,0,0-.08-.06,0Z"/><path class="cls-1" d="M68.68,27.39a14.64,14.64,0,0,0-3.24,5c0,.07.09.11.13,0,.49-.78.85-1.65,1.34-2.45a20.27,20.27,0,0,1,1.83-2.5s0-.08-.06-.05Z"/><path class="cls-1" d="M70.07,27.39a35.39,35.39,0,0,0-3.38,4.7c0,.08.07.17.14.1a37.29,37.29,0,0,0,3.35-4.72c0-.07-.06-.15-.11-.08Z"/><path class="cls-1" d="M70.72,26c1.12-1.25,2.18-2.56,3.22-3.89a5.2,5.2,0,0,0,1.38-2.64.09.09,0,0,0-.17-.05c-1,2.43-3,4.39-4.45,6.57a0,0,0,1,0,0,0Z"/><path class="cls-1" d="M66.36,34.34c3,1.61,5.44,1.64,8.79,1.83a44,44,0,0,1,12.09,2.19.08.08,0,0,0,.05-.14c-2.91-1.42-6.33-1.69-9.51-2-1.58-.19-3.14-.27-4.73-.31a16.81,16.81,0,0,1-6.65-1.58s-.07,0,0,.06Z"/><path class="cls-1" d="M84.27,36a39.14,39.14,0,0,1,4.89,3c.1.07.23-.09.13-.17a21,21,0,0,0-5-2.86s-.07,0,0,0Z"/><path class="cls-1" d="M85.83,35.32c.89.42,1.8.78,2.69,1.21a25.61,25.61,0,0,0,2.39,1.22c.1,0,.16-.1.09-.16a10.86,10.86,0,0,0-2.47-1.38,16.71,16.71,0,0,0-2.65-1c-.08,0-.13.11,0,.14Z"/><path class="cls-1" d="M87.84,34.12a17.13,17.13,0,0,1,1.49.88c.52.36,1,.82,1.47,1.2.06,0,.15,0,.11-.09a6.58,6.58,0,0,0-3-2.1c-.06,0-.1.08,0,.11Z"/><path class="cls-1" d="M85.2,20.42c1.82,1.73,2.61,3.88,3.37,6.21.66,2,3.06,6.45,1.21,8.24-.08.08,0,.21.13.16,2.24-1.35.87-3.77.07-5.62-1.36-3.15-1.77-6.91-4.66-9.11-.09-.07-.2,0-.12.12Z"/><path class="cls-1" d="M84.06,19.23a11.11,11.11,0,0,0-8.47-1.07c-.12,0-.1.26,0,.24a15.68,15.68,0,0,1,8.35,1c.1,0,.17-.09.08-.14Z"/><path class="cls-1" d="M52.69,42.32c-1.3.61-2.49,1.43-3.77,2.09s-2.61,1.18-3.86,1.86c-.05,0,0,.09,0,.07a20.78,20.78,0,0,0,7.65-4s0-.08-.05-.06Z"/><path class="cls-1" d="M41.82,47.15a26.29,26.29,0,0,0-7.26,2.05c-1.16.51-2.29,1-2.75,2.27,0,.05.06.08.09,0,1.81-2.94,6.82-3.56,9.92-4.31,0,0,0,0,0,0Z"/><path class="cls-1" d="M51.81,52c-.54,2.07-2,3.2-3.54,4.53a24,24,0,0,0-3.67,4.06c-1.82,2.5-3.34,5.14-3.59,8.27,0,.17.24.16.25,0,.45-4.29,3.26-8.38,6.28-11.34,1.75-1.7,3.85-3,4.31-5.51a0,0,0,0,0,0,0Z"/><path class="cls-1" d="M43.27,64.74A22.68,22.68,0,0,0,41,71c0,.05.08.1.1,0,.81-2,1.36-4.19,2.19-6.23,0,0,0-.08-.06,0Z"/><path class="cls-1" d="M43.92,66a11.28,11.28,0,0,0-2,5.47s.06,0,.08,0A23.07,23.07,0,0,1,44,66s0,0,0,0Z"/><path class="cls-1" d="M44.43,67.78a11.5,11.5,0,0,0-1,2.07,4.62,4.62,0,0,0-.47,1.88c0,.08.12.12.16,0a18.51,18.51,0,0,0,.52-1.84,11.61,11.61,0,0,1,.94-2.1c0-.06-.06-.11-.1,0Z"/><path class="cls-1" d="M46.29,67.59c-.25.72-.53,1.43-.83,2.13s-.56,1.12-.77,1.7c0,.07.08.09.11,0a12.62,12.62,0,0,0,1.58-3.85c0-.06-.07-.08-.09,0Z"/><path class="cls-1" d="M58.18,46.73a20.93,20.93,0,0,0,.3,6.7,19.35,19.35,0,0,1,.79,5.18,21.67,21.67,0,0,1-.94,4.28c0,.09.12.15.15.06,2.18-5.43-.54-10.58-.26-16.21,0,0,0,0,0,0Z"/><path class="cls-1" d="M58.78,65.06a42.44,42.44,0,0,0-1.39,5.32c0,.05.06.07.08,0a40.67,40.67,0,0,0,1.36-5.32,0,0,0,1,0,0,0Z"/><path class="cls-1" d="M59.61,63.18c-.26,2.72-.92,5.34-1.28,8a.06.06,0,1,0,.12,0,33.82,33.82,0,0,0,1.29-8.08c0-.08-.12-.07-.13,0Z"/><path class="cls-1" d="M60.29,62.24a31.86,31.86,0,0,1-.94,6.94c0,.08.11.14.14,0a15.24,15.24,0,0,0,.9-7c0-.06-.1-.06-.1,0Z"/><path class="cls-1" d="M61.33,60.73a41.19,41.19,0,0,1-1.1,6.8,0,0,0,0,0,0,0,17.83,17.83,0,0,0,1.31-6.81.12.12,0,0,0-.24,0Z"/><path class="cls-1" d="M62.26,61.05a20.08,20.08,0,0,1-.79,5.06c0,.17.22.29.3.12a11.53,11.53,0,0,0,.63-5.18.07.07,0,0,0-.14,0Z"/><path class="cls-1" d="M64.38,44.68a8.71,8.71,0,0,0-.48-1.29c-.12-.27-.54,0-.4.25a8.51,8.51,0,0,0,.73,1.11.08.08,0,0,0,.15-.07Z"/><path class="cls-1" d="M64.34,39.76a4.47,4.47,0,0,1-1,1.93,3.56,3.56,0,0,1-.79.66,4.07,4.07,0,0,0-.74.42c-.12.11,0,.28.13.29.68,0,1.42-.74,1.8-1.25a3.14,3.14,0,0,0,.68-2,.06.06,0,0,0-.11,0Z"/><path class="cls-1" d="M57.78,41.65c-.9.7.72,2.07,1.34,2.32A3.21,3.21,0,0,0,63,42.51c0-.13-.05-.34-.22-.27-1,.45-1.82,1.39-3.06,1.15a2.1,2.1,0,0,1-1.5-1.1c-.16-.29-.13-.47-.41-.64Z"/><path class="cls-1" d="M64.62,39.89c-.94,1.57-4.48,5.4-6.25,2.61l-.49.52a5.46,5.46,0,0,0,4.92.63c1.24-.54,2.6-2,2.11-3.45-.06-.16-.32-.23-.4,0-.49,1.17-.81,2.23-2.1,2.77a4.65,4.65,0,0,1-4.18-.56.37.37,0,0,0-.49.52c2,3.35,6.34-.45,7.12-2.91,0-.14-.17-.21-.24-.09Z"/><path class="cls-1" d="M58.69,39.09a3.58,3.58,0,0,0-.7,1.47,12.86,12.86,0,0,0-.61,1.91c-.07.36.47.62.64.24a13.64,13.64,0,0,0,.55-1.89,3.83,3.83,0,0,0,.25-1.7.08.08,0,0,0-.13,0Z"/><path class="cls-1" d="M59.47,38.94C59,40,58.6,41.13,58.19,42.21a.35.35,0,0,0,.1.35.32.32,0,0,0,.17.09.36.36,0,0,0,.4-.18,9.69,9.69,0,0,0,1-3.43.21.21,0,0,0-.4-.1Z"/><path class="cls-1" d="M60.29,39.31a12.59,12.59,0,0,1-.82,2.17c-.23.44-.95,1.06-.73,1.57a.27.27,0,0,0,.34.18.39.39,0,0,0,.21-.13.17.17,0,0,0,0-.2l0-.06c0-.1-.18-.06-.23,0l0,0,.2.15s.45-.63.52-.75a6.24,6.24,0,0,0,.44-.9,5.1,5.1,0,0,0,.41-2,.18.18,0,0,0-.36,0Z"/><path class="cls-1" d="M61.23,39.09a9.6,9.6,0,0,0-1.33,2.14,4.66,4.66,0,0,0-.82,2.2c0,.16.22.33.38.2a5.34,5.34,0,0,0,1.07-2.06,15.28,15.28,0,0,0,1-2.33c0-.15-.16-.26-.27-.15Z"/><path class="cls-1" d="M58.82,42.65c-1.24.09-.94-1.85-1.11-2.62-.11-.51-1-.38-.92.15a8.49,8.49,0,0,0,.67,3.14c.34.53,1.19.88,1.64.29.09-.12.07-.34-.11-.37-1.21-.19-1.1-2.13-1.26-3.08l-.92.15c.18.83,0,1.79.59,2.49a1.1,1.1,0,0,0,1.55.27c.16-.13.12-.44-.13-.42Z"/><path class="cls-1" d="M77.17,44.18a4.86,4.86,0,0,0,.56,2.44c.06.11.23,0,.2-.09-.09-.4-.25-.79-.36-1.18a8.07,8.07,0,0,0-.37-1.18s0,0,0,0Z"/><path class="cls-1" d="M78.28,46.78a.74.74,0,0,0-.79.85.77.77,0,0,0,1.07.61,1,1,0,0,0,.63-1.19,1.17,1.17,0,0,0-.52-.64c-.2-.12-.58-.28-.79-.11,0,.05-.06.13,0,.16a1.43,1.43,0,0,0,.42.1,1,1,0,0,1,.5.36.66.66,0,0,1-.15,1c-.27.2-.74.22-.87-.15a.65.65,0,0,1,.48-.85s.07-.09,0-.1Z"/><path class="cls-1" d="M79,43.72a18.24,18.24,0,0,0,2-1.81c.09-.1-.06-.23-.16-.14a18,18,0,0,0-1.94,1.87s0,.12.07.08Z"/><path class="cls-1" d="M80.94,40.65c-.29.31.15.92.36,1.18a.15.15,0,0,0,.16,0,1,1,0,0,0,.25-1.94.8.8,0,0,0-1,.24c-.2.27-.29.81.06,1a.11.11,0,0,0,.15-.12c0-.24-.12-.43,0-.65a.49.49,0,0,1,.72-.11c.56.39.21,1.1-.33,1.28l.16,0A1.7,1.7,0,0,1,81.2,41c0-.14,0-.24-.17-.33a.06.06,0,0,0-.09,0Z"/><path class="cls-1" d="M63.88,37.83c2.44.88,5.09,1.34,7.47,2.36,1,.42,1.37,1.1,2.19,1.65a1,1,0,0,0,1.15.2.1.1,0,0,0,0-.19c-1,0-1.52-1.05-2.26-1.56a6.78,6.78,0,0,0-1.91-.77c-2.17-.65-4.37-1.29-6.58-1.79a.05.05,0,0,0,0,.1Z"/><path class="cls-1" d="M87,50.29,87,50.11h0l0,.18s.06,0,0,0Z"/><path class="cls-1" d="M89.06,47.39a1.23,1.23,0,0,0-.73,1.34.79.79,0,0,0,1.09.55.75.75,0,0,0,.15-1.19c-.25-.22-1.07-.27-1,.22a.11.11,0,0,0,.11.1c.21,0,.35-.19.58-.13a.41.41,0,0,1-.21.79.63.63,0,0,1-.41-.78,1.64,1.64,0,0,1,.57-.78c.06-.06,0-.15-.1-.12Z"/><path class="cls-1" d="M89.9,41.82c-.38.51-.66,1.29-.05,1.75A.7.7,0,0,0,91,43.11a1.57,1.57,0,0,0-.21-.84c-.12-.26-.34-.3-.61-.23-.48.14-.88.76-.51,1.2,0,0,.14,0,.13-.06a.78.78,0,0,1,.43-.83c.19-.06.25,0,.33.15a1.33,1.33,0,0,1,.14.48c0,.54-.58.62-.85.21s0-.91.17-1.26c0-.09-.09-.2-.15-.11Z"/><path class="cls-1" d="M90.35,40.75c-.49.74-1,1.5-1.42,2.26a17.71,17.71,0,0,0-1.33,2.31c0,.09.08.2.15.11a16.48,16.48,0,0,0,1.33-2.16c.48-.81,1-1.63,1.39-2.46,0-.08-.07-.13-.12-.06Z"/><path class="cls-1" d="M92.65,40.86A.73.73,0,0,0,92.91,42c.58.24,1.11-.41,1-1a1,1,0,0,0-1.34-.67A1.15,1.15,0,0,0,92,41.94a.11.11,0,0,0,.19,0,2.19,2.19,0,0,1,.17-.88.78.78,0,0,1,1-.3c.41.23.38,1.05-.18,1.06A.5.5,0,0,1,92.8,41a.11.11,0,0,0-.15-.15Z"/><path class="cls-1" d="M92.36,46.16a.86.86,0,0,0-.81,1.16.88.88,0,0,0,1.42.25.87.87,0,0,0-.28-1.36.57.57,0,0,0-.7.17.4.4,0,0,0,.12.6.07.07,0,0,0,.1-.1.28.28,0,0,1,.26-.45.47.47,0,0,1,.41.33.61.61,0,0,1-.33.79.64.64,0,0,1-.81-.51.68.68,0,0,1,.62-.68.1.1,0,0,0,0-.2Z"/><path class="cls-1" d="M95.92,44.47a4.35,4.35,0,0,1-.54-.87,7.81,7.81,0,0,0-.35-.84.05.05,0,0,0-.1,0,2.67,2.67,0,0,0,.92,1.73s.1,0,.07-.05Z"/><path class="cls-1" d="M95.88,44.29a8.14,8.14,0,0,0-1.06-2s-.13,0-.11,0a8,8,0,0,0,1.12,2s.06,0,0,0Z"/><path class="cls-1" d="M94.15,45.93a1,1,0,0,0-.4,1.38.88.88,0,0,0,1.49-.05.83.83,0,0,0-.47-1.34c-.42-.08-1.35.24-1.12.82a.06.06,0,0,0,.12,0c.21-.32.38-.59.82-.6a.59.59,0,0,1,.46,1,.64.64,0,0,1-1.12,0A.91.91,0,0,1,94.18,46s0-.1,0-.08Z"/><path class="cls-1" d="M92.55,45.13c-.53.08-.48.83,0,1,.75.35,1.25-.5,1.46-1.07a.1.1,0,0,0,0-.12,1.78,1.78,0,0,0-1.4-.19.7.7,0,0,0-.46.89.08.08,0,0,0,.15,0c.16-.89,1-.7,1.64-.47L93.76,45A1.27,1.27,0,0,1,93,46a.55.55,0,0,1-.61-.21.45.45,0,0,1,.2-.63s0,0,0,0Z"/><path class="cls-1" d="M92.19,46.36a4.59,4.59,0,0,0-.65-1c-.06-.07-.2,0-.16.1a4.87,4.87,0,0,0,.66,1,.09.09,0,0,0,.15-.1Z"/><path class="cls-1" d="M94.42,46.11c-.21-.33-.46-.64-.65-1s-.29-.74-.5-1.06a.08.08,0,0,0-.14,0,3.15,3.15,0,0,0,1.22,2s.1,0,.07,0Z"/><path class="cls-1" d="M75.58,38.5c-.33.23-.72.47-.79.9a1.09,1.09,0,0,0,.25.85,1.07,1.07,0,0,0,1.69,0,1.29,1.29,0,0,0-.2-1.83c-.49-.34-1.6-.39-1.86.27a.08.08,0,0,0,.1.1c.2-.08.34-.22.54-.29a1.31,1.31,0,0,1,.76,0,1,1,0,0,1,.6,1.44.83.83,0,0,1-1.36.23c-.57-.55-.22-1.19.3-1.62,0,0,0-.07,0,0Z"/><path class="cls-1" d="M72.64,43.68a1.1,1.1,0,1,0,.54,2.13.88.88,0,0,0,.61-.39,1,1,0,0,0-.17-.76,1.05,1.05,0,0,0-1.43-.41,0,0,0,0,0,0,.09,1.08,1.08,0,0,1,1.06.31.8.8,0,0,1,.25.5c0,.28-.26.37-.49.4a.85.85,0,0,1-.93-.51,1,1,0,0,1,.57-1.17.1.1,0,0,0,0-.19Z"/><path class="cls-1" d="M73.57,44.74a6.12,6.12,0,0,0,.43-.69,2.37,2.37,0,0,0,.36-.73.07.07,0,0,0-.12-.07,2.51,2.51,0,0,0-.42.71c-.12.24-.23.48-.33.74,0,0,.05.07.08,0Z"/><path class="cls-1" d="M73.1,44.48a9.78,9.78,0,0,0,1.25-1.75s0-.07,0,0a10.41,10.41,0,0,0-1.21,1.79s0,0,0,0Z"/><path class="cls-1" d="M74.9,40.14a1.15,1.15,0,0,0-.27,1.29.06.06,0,0,0,.11,0c0-.2,0-.39,0-.59A1.67,1.67,0,0,1,75,40.2c0-.05,0-.11-.08-.06Z"/><path class="cls-1" d="M74.85,40.22c.45.35.36.77.21,1.24,0,0,0,.06.07,0,.39-.35.13-1.05-.22-1.32,0,0-.09,0-.06,0Z"/><path class="cls-1" d="M63.62,39.35A4.32,4.32,0,0,0,62,42.45a.05.05,0,0,0,.1,0c.25-.5.36-1,.61-1.55a8.85,8.85,0,0,1,1-1.54s0-.05,0,0Z"/><path class="cls-1" d="M62.18,35.71a7.15,7.15,0,0,0-.57,1.86c0,.09.12.16.16.06a7.66,7.66,0,0,0,.47-1.9s-.05-.06-.06,0Z"/><path class="cls-1" d="M63.38,35.31c-.17.45-.31.91-.44,1.38a5.05,5.05,0,0,0-.29,1.43.07.07,0,0,0,.13,0,4.79,4.79,0,0,0,.4-1.3,13,13,0,0,0,.29-1.51c0-.05-.07-.09-.09,0Z"/><path class="cls-1" d="M64.29,36.42a5.89,5.89,0,0,0-.16,1.44c0,.07.09.08.12,0a5.3,5.3,0,0,0,.16-1.44c0-.06-.11-.08-.12,0Z"/><path class="cls-1" d="M65,39.8a2.24,2.24,0,0,1-.7,2.49c-.06.05,0,.12.07.09a1.93,1.93,0,0,0,.72-2.63.05.05,0,0,0-.09,0Z"/><path class="cls-1" d="M58,31.27c-.06-.26-.12-.54-.2-.8a.41.41,0,0,0-.38-.34.15.15,0,0,0-.13.11.47.47,0,0,0,.17.41c.08.09.17.14.25.24a1.22,1.22,0,0,1,.18.42c0,.07.13,0,.11,0Z"/><path class="cls-1" d="M56.71,28.69c.51,2,.87,4.06,1.35,6.08a.24.24,0,0,0,.46-.07,19.86,19.86,0,0,0-1.43-6.12.2.2,0,0,0-.38.11Z"/><path class="cls-1" d="M56.71,27.86c0,1.25.09,2.5.12,3.74A20.12,20.12,0,0,0,57,34.9c0,.22.36.18.41,0a12.77,12.77,0,0,0,.1-3.55,22.15,22.15,0,0,0-.38-3.54c0-.22-.37-.15-.37.06Z"/><path class="cls-1" d="M55.7,26.82c.2,1.27.66,2.49,1,3.73.36,1.44.57,2.93,1,4.35a.18.18,0,0,0,.36-.06,19,19,0,0,0-2.3-8s0,0,0,0Z"/><path class="cls-1" d="M61.29,33.29a8.39,8.39,0,0,1,2-4.86c1-1.15,2.2-2,3.2-3.09a.07.07,0,0,0-.09-.11c-2.62,1.66-5.35,4.78-5.23,8.06a.05.05,0,0,0,.1,0Z"/><path class="cls-1" d="M67.43,24.27c2.4-2.92,5-6.67,4.44-10.63a0,0,0,1,0-.07,0c-.18,4.21-2.28,7.13-4.54,10.5-.07.1.09.22.17.13Z"/><polygon class="cls-1" points="71.66 11.62 71.66 11.61 71.66 11.62 71.66 11.62"/><path class="cls-1" d="M71.2,11.79c-.61-3-4.2-4.47-6.94-4.81a.05.05,0,0,0,0,.1C67.09,8.15,70,8.62,71.17,11.8c0,0,0,0,0,0Z"/><path class="cls-1" d="M42.31,3.69c-2.37.86-4.27,4.45-3.21,6.87a.09.09,0,0,0,.18,0,8.06,8.06,0,0,1,.45-3.86,7.44,7.44,0,0,1,2.61-2.9s0-.09,0-.08Z"/><path class="cls-1" d="M39.46,11.84c.15.89.95,1.2,1.7,1.53a19.91,19.91,0,0,1,3.09,1.88c.07,0,.13-.06.08-.11a8.55,8.55,0,0,0-2.13-1.48c-.91-.48-2.32-.75-2.7-1.83a0,0,0,0,0,0,0Z"/><path class="cls-1" d="M42.52,12.89a38.45,38.45,0,0,0,5.22,3c.06,0,.13,0,.07-.09a36.89,36.89,0,0,0-5.23-3,.06.06,0,0,0-.06.1Z"/><path class="cls-1" d="M45.68,13.79A14.48,14.48,0,0,1,50,17s.07,0,0,0a8.92,8.92,0,0,0-4.34-3.18s0,0,0,0Z"/><path class="cls-1" d="M52,17.63a29.17,29.17,0,0,1,6.21,14.7c0,.11.19.12.18,0A23.14,23.14,0,0,0,52,17.62s0,0,0,0Z"/><path class="cls-1" d="M59.9,28.56a13.66,13.66,0,0,0,.21-5.25s-.07,0-.07,0c-.06,1.76.05,3.46-.18,5.22a0,0,0,0,0,0,0Z"/><path class="cls-1" d="M60.17,22.54a25.49,25.49,0,0,0-2.82-10.18s-.12,0-.1,0a38.85,38.85,0,0,1,2.9,10.14s0,0,0,0Z"/><path class="cls-1" d="M44,3.29c3.16-1.1,7.36-1.94,10.64-.89A24.12,24.12,0,0,1,57,3.57c1.33.57,2.81.36,4.16,1,.08,0,.14-.08.06-.12-1.13-.59-2.3-.49-3.49-.85s-2-1.38-3.3-1.69C51.25,1.12,46.89,2,44,3.16a.07.07,0,1,0,0,.13Z"/><path class="cls-1" d="M68.63,13.12a13.37,13.37,0,0,1-1.81,6.93c0,.07.06.15.11.08a10.09,10.09,0,0,0,1.76-7,0,0,0,0,0-.06,0Z"/><path class="cls-1" d="M70,12.87c-.46,2.27-1.13,4.41-1.75,6.63a.05.05,0,0,0,.1,0,18.22,18.22,0,0,0,1.68-6.65s0,0,0,0Z"/><path class="cls-1" d="M70.75,13.67a14.09,14.09,0,0,1-2,6c0,.07.07.13.11.06l.13-.23a0,0,0,0,0-.06,0c.07.06.11.07.14,0l.18-.28a4.7,4.7,0,0,0,.47-.85A11,11,0,0,0,70.25,17a10.09,10.09,0,0,0,.52-3.36Z"/><path class="cls-1" d="M68.32,12.05a2.11,2.11,0,0,0-.87-1.44,1.79,1.79,0,0,0-1.53-.38c-.06,0-.06.11,0,.12a3.2,3.2,0,0,1,1.41.41,2.2,2.2,0,0,1,.87,1.3c0,.07.13,0,.12,0Z"/><path class="cls-1" d="M56.23,34.17s.05-.11,0-.15a.07.07,0,0,0,0,0c-.07,0-.16.12-.19.16a2.1,2.1,0,0,0-.33.65,9,9,0,0,0-.49,1.58.09.09,0,0,0,.17.07A9.24,9.24,0,0,0,56,35a4.66,4.66,0,0,0,.26-.71v-.21c0-.06-.08-.06-.09,0a0,0,0,0,0,.08,0Z"/><path class="cls-1" d="M64.78,43.42a32.83,32.83,0,0,1,3.3,6.26c0,.07.14,0,.12,0a13.8,13.8,0,0,0-3.33-6.3c0-.05-.14,0-.09.08Z"/><path class="cls-1" d="M64.43,43.07c.51.94,1.25,1.76,1.8,2.69s.89,2,1.48,2.88c.07.11.22,0,.2-.09a8.83,8.83,0,0,0-1.37-3A8.87,8.87,0,0,0,64.47,43s-.06,0,0,0Z"/><path class="cls-1" d="M64.6,43.83a18,18,0,0,0,1.33,2.34c.49.91.76,1.93,1.29,2.81a.11.11,0,0,0,.2-.06,7.62,7.62,0,0,0-1.06-2.77,6.26,6.26,0,0,0-1.73-2.35s0,0,0,0Z"/><path class="cls-1" d="M63.94,43.05a22.71,22.71,0,0,1,1.79,2.46c.53.88.88,1.84,1.39,2.72,0,.1.19,0,.17-.08A10.78,10.78,0,0,0,64.06,43c-.06-.06-.18,0-.12.1Z"/><path class="cls-1" d="M64.71,42.46c1.21,1.37,2.16,2.91,3.32,4.3.06.07.15,0,.12-.09a16.18,16.18,0,0,0-3.37-4.27,0,0,0,1,0-.07.06Z"/><path class="cls-1" d="M65.13,41.71a13.3,13.3,0,0,1,3.17,3.6.07.07,0,0,0,.12-.06,7.28,7.28,0,0,0-3.25-3.59s-.07,0,0,.05Z"/><path class="cls-1" d="M65.5,41.64a7.27,7.27,0,0,1,2.12,1.19A19.72,19.72,0,0,1,69,44.31s.14,0,.11-.07a5.35,5.35,0,0,0-3.62-2.7c-.06,0-.08.07,0,.1Z"/><path class="cls-1" d="M66.21,40.85a26.71,26.71,0,0,0,3.63,2.25s.1,0,.06-.08a28.37,28.37,0,0,0-3.66-2.23,0,0,0,1,0,0,.06Z"/><path class="cls-1" d="M66,40.61a7.61,7.61,0,0,1,3.26,1.31c.06,0,.12-.06.07-.1A4.64,4.64,0,0,0,66,40.51c-.06,0-.08.09,0,.1Z"/><path class="cls-1" d="M62.69,35.64A5.13,5.13,0,0,1,65,37l.17-.24c-1.22-.66-2.46-1.28-3.65-2a.2.2,0,0,0-.26.28,7.14,7.14,0,0,0,2.42,2.28A.23.23,0,0,0,63.9,37c-.53-.51-1.07-1-1.57-1.54l-.26.37A7.5,7.5,0,0,1,63.59,37c.4.43.67,1,1.09,1.35a.19.19,0,0,0,.31-.18C64.7,37,63.32,36,62.28,35.38a.23.23,0,0,0-.26.36c.54.5,1,1,1.57,1.54l.26-.36a7.41,7.41,0,0,1-2.3-2.09l-.26.28c1.26.58,2.48,1.27,3.7,1.91a.14.14,0,0,0,.17-.23,4,4,0,0,0-2.44-1.28.07.07,0,1,0,0,.13Z"/><path class="cls-1" d="M85.42,57.72a4.21,4.21,0,0,1,2-3.12,4.26,4.26,0,0,0,1.64-1.17,3.9,3.9,0,0,0-.1-3.76.2.2,0,0,0-.36.11,15.51,15.51,0,0,1,.33,2.34c-.11,1.55-1.44,1.67-2.42,2.46a3.22,3.22,0,0,0-1.23,3.14.07.07,0,0,0,.13,0Z"/><path class="cls-1" d="M88.26,48.74a12.07,12.07,0,0,0,.8,2.71.06.06,0,0,0,.11,0,11.79,11.79,0,0,0-.83-2.71c0-.05-.09,0-.08,0Z"/><path class="cls-1" d="M87.54,48.62a6.57,6.57,0,0,1,.32,2.81c-.29,1.18-1.38,1.59-2.23,2.28a2.24,2.24,0,0,0-1,2.44.13.13,0,0,0,.25-.08c-.4-2.16,2.53-2.5,3.19-4.2a4.31,4.31,0,0,0-.41-3.29c0-.06-.1,0-.09,0Z"/><path class="cls-1" d="M75.74,51.09c2,3.1,3.58,6.47,5.59,9.56,0,0,0,0,0,0-1.21-3.41-3.5-6.65-5.61-9.55,0,0,0,0,0,0Z"/><path class="cls-1" d="M78.35,53.32c1,1.9,1.74,4,2.81,5.83a.07.07,0,0,0,.13-.06,23,23,0,0,0-2.85-5.83c0-.07-.13,0-.09.06Z"/><path class="cls-1" d="M79.37,53.4c1,2,1.87,4.06,3,6a.07.07,0,0,0,.13-.06,26.87,26.87,0,0,0-3-6,.05.05,0,1,0-.09,0Z"/><path class="cls-1" d="M80.3,53.11a35.71,35.71,0,0,0,2.34,4.41c0,.08.19,0,.15-.07a34.62,34.62,0,0,0-2.41-4.38,0,0,0,0,0-.08,0Z"/><path class="cls-1" d="M81.11,52.69c.37.76.76,1.5,1.19,2.23a5.5,5.5,0,0,0,1.28,1.82.12.12,0,0,0,.19-.12,6.49,6.49,0,0,0-1.09-1.93c-.45-.72-.89-1.43-1.35-2.14-.09-.15-.29,0-.22.14Z"/><path class="cls-1" d="M82.86,52.55c.32.5.62,1,.9,1.52a5.62,5.62,0,0,0,.77,1.35.1.1,0,0,0,.17-.08A3.55,3.55,0,0,0,84.12,54a16.46,16.46,0,0,0-1-1.58c-.1-.13-.32,0-.23.15Z"/><path class="cls-1" d="M84.62,53.79A4.29,4.29,0,0,1,85.19,55a.06.06,0,0,0,.12,0,1.83,1.83,0,0,0-.56-1.27c-.06-.07-.19,0-.13.11Z"/><path class="cls-1" d="M78.63,55.76c.33,1.12.69,2.23,1,3.37a23.87,23.87,0,0,0,.79,3.39c0,.09.2.12.21,0,.28-2.23-.76-4.9-1.72-6.87-.07-.14-.28,0-.24.11Z"/><path class="cls-1" d="M78.57,56.38a14,14,0,0,1,.91,3.29c.13,1,0,2,.14,3.06a.16.16,0,0,0,.31,0c.73-2-.1-4.73-1.09-6.5a.15.15,0,0,0-.27.12Z"/><path class="cls-1" d="M29.42,51.65a8.69,8.69,0,0,0,2.18,7.28c.11.11.28,0,.21-.17A13.66,13.66,0,0,1,30,55c-.26-1.06,0-2.53-.38-3.48a.1.1,0,0,0-.12-.07l-.11,0a.06.06,0,0,0-.05.06v.1a.05.05,0,0,0,.1,0Z"/><path class="cls-1" d="M61.39,46a13.65,13.65,0,0,1,.47,5.75c0,.16.21.22.24.06A9.83,9.83,0,0,0,61.49,46c0-.05-.12,0-.1,0Z"/><path class="cls-1" d="M62.31,45.68a48.39,48.39,0,0,0,.48,5.39c0,.08.13,0,.13,0a48.33,48.33,0,0,0-.53-5.37s-.09,0-.08,0Z"/><path class="cls-1" d="M63.12,44.45a32.15,32.15,0,0,0,.37,5.64c0,.14.22.09.23,0a31.94,31.94,0,0,0-.43-5.6.09.09,0,0,0-.17,0Z"/><path class="cls-1" d="M63.15,44.11a12.11,12.11,0,0,1,1.08,3.56c.1.87,0,1.75.13,2.59a.12.12,0,0,0,.23,0c.87-1.91-.19-4.65-1.24-6.29-.08-.13-.26,0-.2.12Z"/><path class="cls-1" d="M64.1,44.34A15.26,15.26,0,0,1,65,47.45c.15,1,0,1.93.2,2.88a.13.13,0,0,0,.23,0c.73-1.85-.14-4.53-1.26-6.06,0,0-.13,0-.1.05Z"/><path class="cls-1" d="M63.43,43.43c-1,.73-3.71,3.42-4.89,1.45l-.37.51c2.55.52,6.68.61,7.73-2.43.07-.21-.22-.32-.35-.19a6.76,6.76,0,0,1-3,2,8.91,8.91,0,0,1-4.17-.08.34.34,0,0,0-.36.51c1.45,2.45,4.63,0,5.66-1.63.07-.12-.09-.27-.2-.18Z"/><path class="cls-1" d="M66.17,41.14c-.16,1.2-.38,2.75-1.78,3.07l.24.38c1-1,2.18-2.36,2.33-3.76a.13.13,0,0,0-.23-.09c-.4.56-.64,1.23-1,1.81a10.29,10.29,0,0,1-1.43,1.72.24.24,0,0,0,.23.39c1.63-.37,1.82-2.13,1.77-3.51a.06.06,0,0,0-.12,0Z"/><path class="cls-1" d="M66.2,38.27a5.16,5.16,0,0,0-5.48-4.39.26.26,0,0,0,0,.51,5.56,5.56,0,0,1,5.32,3.9c0,.08.16.07.15,0Z"/><path class="cls-1" d="M65.26,30.65a12.93,12.93,0,0,0-1.6,2.08c-.25.38-.48.77-.71,1.16a1,1,0,0,0-.24.7.27.27,0,0,0,.19.17c.39.08.49-.28.3-.57a.12.12,0,0,0-.21.07l.29.09.11-.22a4.73,4.73,0,0,0,.28-.55c.18-.33.36-.65.55-1,.36-.63.81-1.23,1.15-1.88,0-.07-.05-.13-.11-.08Z"/><path class="cls-1" d="M65.28,29.62a16.68,16.68,0,0,0-1.26,2,13.12,13.12,0,0,0-1.16,2.11c-.13.35.47.51.58.14a1,1,0,0,0,0-.29.17.17,0,0,0-.22-.16.75.75,0,0,0-.27.13l.38.45a13.89,13.89,0,0,0,1.17-2.1,17.59,17.59,0,0,0,1-2.14.18.18,0,0,0-.3-.16Z"/><path class="cls-1" d="M65,30.43c-.72,1.15-1.43,2.33-2,3.54-.15.31.34.58.49.26a2.76,2.76,0,0,0,.2-.47.16.16,0,0,0-.23-.17,2.81,2.81,0,0,0-.36.27l.39.37c.66-1.18,1.22-2.44,1.76-3.67a.13.13,0,0,0-.22-.13Z"/><path class="cls-1" d="M66.13,30.23a15.49,15.49,0,0,0-1.61,1.91,5.89,5.89,0,0,0-1.11,2c0,.21.24.39.39.21a12.91,12.91,0,0,0,1.08-1.88,21.7,21.7,0,0,1,1.43-2.11.12.12,0,0,0-.18-.17Z"/><path class="cls-1" d="M66.11,31.43a8.26,8.26,0,0,0-1.47,1.86,3.78,3.78,0,0,0-.77,2.06.14.14,0,0,0,.24.09A7.62,7.62,0,0,0,65,33.6a14.64,14.64,0,0,1,1.28-2,.11.11,0,0,0-.16-.15Z"/><path class="cls-1" d="M66.16,32.16a5.18,5.18,0,0,0-1.36,1.4c-.27.42-.79,1.19-.56,1.71a.13.13,0,0,0,.18.07c.4-.3.49-1,.73-1.41a6.87,6.87,0,0,1,1.2-1.54c.13-.12,0-.34-.19-.23Z"/><path class="cls-1" d="M66.17,32.78a2.94,2.94,0,0,0-1,1.08c-.16.29-.52,1-.18,1.28a.17.17,0,0,0,.2,0c.17-.09.17-.21.2-.39a3.37,3.37,0,0,1,.22-.68A2.74,2.74,0,0,1,66.37,33c.14-.12-.06-.34-.2-.25Z"/><path class="cls-1" d="M66.43,33.74a4,4,0,0,0-.66.7c-.16.23-.42.54-.39.83,0,.11.15.22.25.13a2,2,0,0,0,.43-.69,5,5,0,0,1,.57-.79c.12-.13-.07-.3-.2-.18Z"/><path class="cls-1" d="M66.58,34.31a1.86,1.86,0,0,0-.36.75.09.09,0,0,0,.13.07,2,2,0,0,0,.43-.72.11.11,0,0,0-.2-.1Z"/><path class="cls-1" d="M66.86,35a1.7,1.7,0,0,0-.9.59c-.18.2-.5.6-.37.87a.1.1,0,0,0,.15.06c.12-.07.13-.14.19-.27a2.13,2.13,0,0,1,.26-.44,3.07,3.07,0,0,1,.75-.64.1.1,0,0,0-.08-.17Z"/><path class="cls-1" d="M67.1,35.17c-.2.25-.39.52-.58.78a1.85,1.85,0,0,0-.41.7.09.09,0,0,0,.13.1,1.75,1.75,0,0,0,.49-.65c.17-.28.34-.56.49-.84,0-.08-.07-.16-.12-.09Z"/><path class="cls-1" d="M68,33.58A10.11,10.11,0,0,1,72.77,31c.06,0,0-.13,0-.12A7.93,7.93,0,0,0,68,33.54s0,.06,0,0Z"/><path class="cls-1" d="M75.5,30.31c1.07-.11,2.14-.24,3.2-.41,0,0,0,0,0,0-1.07.11-2.14.26-3.2.43,0,0,0,0,0,0Z"/><path class="cls-1" d="M83,28.59a3.24,3.24,0,0,0,2.23-1.19,0,0,0,0,0-.05,0A4.83,4.83,0,0,1,83,28.54s0,.06,0,.05Z"/><path class="cls-1" d="M86.63,25.43s0,0,0,0,0,0,0,0Z"/><path class="cls-1" d="M87.43,23.72a11,11,0,0,1-2,1.82c-.67.46-1.45.73-2.11,1.2a.07.07,0,0,0,0,.13c1.67-.23,3.22-1.82,4.15-3.12,0,0,0-.05,0,0Z"/><path class="cls-1" d="M86.9,22.52A49.79,49.79,0,0,1,83,25.7c-.06.06,0,.16.07.12A16.1,16.1,0,0,0,87,22.57s0-.09,0-.05Z"/><path class="cls-1" d="M85.4,20.2C84,22.39,81.66,22.89,79.46,24a0,0,0,0,0,0,.09,9.1,9.1,0,0,0,6-3.81s0-.09-.08,0Z"/><path class="cls-1" d="M83.83,19.39s0,0,0,0,0,0,0,0Z"/><path class="cls-1" d="M83.79,19.32a3.49,3.49,0,0,0-.74.59,5.38,5.38,0,0,0-.66.69c0,.07.06.15.12.11a4.79,4.79,0,0,0,.72-.62,3.77,3.77,0,0,0,.63-.7.05.05,0,0,0-.07-.07Z"/><path class="cls-1" d="M21.45,28.63a79.71,79.71,0,0,0,8.41-1s0-.07,0-.07a79.24,79.24,0,0,0-8.4,1s0,.06,0,.06Z"/><path class="cls-1" d="M32.91,27.44c4.14.4,7.81-.21,11.63,1.92,2.67,1.5,4.76,3,8,2.88a0,0,0,0,0,0-.09,13.86,13.86,0,0,1-6.78-2.26,17.38,17.38,0,0,0-3.39-1.71c-3.13-1.11-6.19-.58-9.42-.78,0,0,0,0,0,0Z"/><path class="cls-1" d="M45.77,29.07a20.5,20.5,0,0,0,7.18,3A.07.07,0,0,0,53,32a46.3,46.3,0,0,1-7.16-3c-.07-.05-.14.07-.06.12Z"/><path class="cls-1" d="M48.24,29.25a25.31,25.31,0,0,0,5.08,2.17c.12,0,.16-.14,0-.18a42.94,42.94,0,0,1-5.09-2s-.06,0,0,.06Z"/><path class="cls-1" d="M49.58,29a11,11,0,0,0,3.94,1.74c.1,0,.13-.12,0-.16a34,34,0,0,1-4-1.65s-.07,0,0,.07Z"/><path class="cls-1" d="M51.12,29a13.2,13.2,0,0,0,1.48.68,6.25,6.25,0,0,0,1.38.53c.09,0,.12-.09.05-.14a7.16,7.16,0,0,0-1.5-.65,11.32,11.32,0,0,0-1.38-.49s-.07,0,0,.07Z"/><path class="cls-1" d="M51.66,28.24c.53.25,1.05.5,1.58.73,0,0,0,0,0,0-.52-.26-1-.49-1.58-.74,0,0,0,0,0,0Z"/><path class="cls-1" d="M52.72,27.13A43.08,43.08,0,0,0,48,23.78s-.07,0,0,0a44.56,44.56,0,0,0,4.72,3.33s0,0,0,0Z"/><path class="cls-1" d="M45.52,22.22a20.19,20.19,0,0,0-8.05-1.88s0,.07,0,.07a55.59,55.59,0,0,1,8.06,1.82s0,0,0,0Z"/><path class="cls-1" d="M53,43.14a32.54,32.54,0,0,0-4.89,3.43s0,.1.06.07A32.51,32.51,0,0,0,53,43.16s0,0,0,0Z"/><path class="cls-1" d="M45.46,48.17c-4.87,1.34-10.09,2.83-13,7.27,0,0,0,.05,0,0,3.42-4.06,8.06-5.75,13-7.22a0,0,0,0,0,0-.08Z"/><path class="cls-1" d="M37.67,52.45A14.15,14.15,0,0,0,32,58.07a.1.1,0,0,0,.17.09,15.45,15.45,0,0,1,5.49-5.69s0,0,0,0Z"/><path class="cls-1" d="M37.47,54.47c-1.14,1.05-2.24,2.13-3.28,3.27-.36.4-1.47,1.21-1.37,1.8a.07.07,0,0,0,.09.05l.09,0a.06.06,0,0,0,0-.06v-.07s-.08,0-.09,0c0-.3,1-1.18,1.23-1.43s.68-.77,1-1.14c.75-.81,1.5-1.61,2.29-2.39Z"/><path class="cls-1" d="M37.52,55.88a21.66,21.66,0,0,0-3,2.77c-.43.49-1.62,1.56-1.57,2.28A.09.09,0,0,0,33,61l.13,0a.07.07,0,0,0,.08,0l0-.09c0-.06,0-.12-.1-.07.33-.35.65-1,1-1.42s.69-.84,1-1.24a27.62,27.62,0,0,1,2.32-2.27s0,0,0,0Z"/><path class="cls-1" d="M37.12,57.66a21,21,0,0,0-4,4.4c-.09.13.12.27.21.16s.22-.25.32-.38,0-.14-.08-.1l-.41.27.19.18a28.14,28.14,0,0,1,3.86-4.44s0-.14-.08-.09Z"/><path class="cls-1" d="M37.48,58.55a22.13,22.13,0,0,0-3.73,4.35c-.07.09,0,.24.16.2.26-.12.52-.23.77-.36,0,0,0-.1,0-.09-.28.05-.54.11-.81.18L34,63a29,29,0,0,1,3.62-4.35c.09-.09,0-.2-.13-.13Z"/><path class="cls-1" d="M39.19,59c-1.25,1.07-2.81,2.58-3.26,4.22,0,.09.1.16.16.09.56-.68.94-1.5,1.46-2.21a17.44,17.44,0,0,1,1.74-2c.07-.07,0-.16-.1-.1Z"/><path class="cls-1" d="M55.33,42.85a51,51,0,0,1-5.6,4,.18.18,0,0,0,.15.32A14.33,14.33,0,0,0,55.49,43c.1-.11-.06-.25-.16-.16Z"/><path class="cls-1" d="M54.76,44c-.55.48-1.07,1-1.63,1.48a15.27,15.27,0,0,0-1.7,1.38.2.2,0,0,0,.2.32,5.73,5.73,0,0,0,1.76-1.27A8.82,8.82,0,0,0,55,44.1c.08-.13-.1-.22-.2-.14Z"/><path class="cls-1" d="M55.88,43.93a18.49,18.49,0,0,0-1.41,1.39,6.53,6.53,0,0,0-1.16,1.36.2.2,0,0,0,.28.27,6.91,6.91,0,0,0,1.32-1.38,18.82,18.82,0,0,0,1.18-1.49c.09-.13-.11-.24-.21-.15Z"/><path class="cls-1" d="M56.09,44.52c-.49.44-1,.91-1.42,1.38a5.08,5.08,0,0,0-1.16,1.33.13.13,0,0,0,.18.17A5,5,0,0,0,55,46.17c.44-.49.89-1,1.3-1.5a.11.11,0,0,0-.17-.15Z"/><path class="cls-1" d="M54.31,41.89c-.61.52-1.22,1-1.87,1.53a6.14,6.14,0,0,0-1.35,1.13c-.11.16.08.31.23.28a4.19,4.19,0,0,0,1.61-1,13.62,13.62,0,0,0,1.66-1.65.19.19,0,0,0-.28-.26Z"/><path class="cls-1" d="M55.56,40.08a5.4,5.4,0,0,0-2.44,1.81c0,.06,0,.17.12.14a5.52,5.52,0,0,0,1.12-.87c.41-.34.82-.69,1.26-1a.05.05,0,0,0-.06-.09Z"/><path class="cls-1" d="M54.77,39.37a5.81,5.81,0,0,0-2.61,2.46.06.06,0,0,0,.1.06,9.41,9.41,0,0,1,2.59-2.4c.09,0,0-.17-.08-.12Z"/><path class="cls-1" d="M50.58,3s0,0,0,0,0,0,0,0Z"/><path class="cls-1" d="M50.6,3c-.36-.48.12.12.27.28.32.32.64.65.93,1,.57.65,1,1.37,1.59,2,0,0,.08,0,.06,0a10.53,10.53,0,0,0-3.17-3.69s-.08,0-.05.08l.34.39s0,0,0,0Z"/><path class="cls-1" d="M51.09,2.05a44.18,44.18,0,0,1,3.69,4.39s.06,0,0,0A22.33,22.33,0,0,0,51.12,2s-.06,0,0,0Z"/><path class="cls-1" d="M52.56,2.4a25.91,25.91,0,0,1,2.86,4.25,0,0,0,0,0,0,0,13.22,13.22,0,0,0-2.88-4.25s0,0,0,0Z"/><path class="cls-1" d="M61.55,11.3A9.21,9.21,0,0,1,62,18.54a0,0,0,0,0,.08,0,7.93,7.93,0,0,0-.51-7.27s0,0,0,0Z"/><path class="cls-1" d="M64.36,34.44c-.4-.37.38.32.4.35a9.43,9.43,0,0,1,.74.93,12.07,12.07,0,0,1,1,1.73l.39-.32A33,33,0,0,0,61.92,33c-.07.15-.15.29-.23.44a14.58,14.58,0,0,1,4.24,3.93.27.27,0,0,0,.45-.28A10.86,10.86,0,0,0,61.92,33a.25.25,0,0,0-.23.44,22,22,0,0,1,4.8,4.07c.17.19.5,0,.42-.26a6.93,6.93,0,0,0-2.68-3.53.2.2,0,0,0-.29.17c0,.36.07.47.36.65,0,0,.1-.05.06-.09Z"/><path class="cls-1" d="M62.79,34.39a4.29,4.29,0,0,0-3.48-2,.23.23,0,0,0-.11.44c.54.24,1.09.46,1.64.68a6.48,6.48,0,0,0,1.53.54c.16,0,.33-.19.17-.32A6.67,6.67,0,0,0,61,33c-.54-.21-1.07-.43-1.61-.62,0,.15,0,.31,0,.46a4,4,0,0,1,3.34,1.63.08.08,0,0,0,.13-.08Z"/><path class="cls-1" d="M59.75,31.43a10.68,10.68,0,0,1,2.69,1.81c.72.7,1.15,1.62,1.85,2.31a.13.13,0,0,0,.21-.13c-.37-2-2.92-3.6-4.69-4.14-.09,0-.14.11-.06.15Z"/><path class="cls-1" d="M57.93,32.34c.38-.6,4,1.54,4.48,1.81l.2-.53a8.16,8.16,0,0,1-4.17-2.38l-.24.44a29.86,29.86,0,0,1,4.86,1.81.25.25,0,0,0,.24-.44,14.93,14.93,0,0,0-5-1.87.26.26,0,0,0-.23.44,9.54,9.54,0,0,0,4.39,2.56.29.29,0,0,0,.2-.53c-.6-.34-4.66-2.75-5-1.38a.11.11,0,0,0,.2.07Z"/><path class="cls-1" d="M58.9,30.75a16.32,16.32,0,0,0,1.92,1.16,20.79,20.79,0,0,0,2,1.36c.13,0,.29-.09.2-.21a6.14,6.14,0,0,0-1.82-1.42,6.3,6.3,0,0,0-2.27-1c-.07,0-.14.08-.08.14Z"/><path class="cls-1" d="M61.62,30a7.51,7.51,0,0,0,1.1.64,4.43,4.43,0,0,0,1.19.5A.08.08,0,0,0,64,31a4.28,4.28,0,0,0-1.14-.6,6.42,6.42,0,0,0-1.2-.45s0,0,0,0Z"/><path class="cls-1" d="M62.8,28.85a2.29,2.29,0,0,0,1.89.9.07.07,0,0,0,0-.12c-.31-.13-.63-.17-.93-.3a3.31,3.31,0,0,1-.87-.58c-.06-.05-.17,0-.11.1Z"/><path class="cls-1" d="M63.59,27.45a8.34,8.34,0,0,0,.92.52,3.81,3.81,0,0,0,.89.37c.06,0,.11-.07.06-.11a4.08,4.08,0,0,0-.9-.48,7.69,7.69,0,0,0-.94-.38,0,0,0,0,0,0,.08Z"/><path class="cls-1" d="M64.71,26.74a5.11,5.11,0,0,0,1.26.81c.06,0,.09-.06.06-.1a2.6,2.6,0,0,0-.58-.4c-.22-.14-.45-.27-.68-.39,0,0-.11.05-.06.08Z"/><path class="cls-1" d="M65.9,26l.77.55s0,0,0,0c-.24-.2-.5-.38-.75-.57,0,0-.06,0,0,0Z"/><path class="cls-1" d="M69,31.52a10.21,10.21,0,0,1,3.61-3.66s0-.07,0-.06A7.79,7.79,0,0,0,69,31.5s0,0,0,0Z"/><path class="cls-1" d="M75.09,26.23c.85-.68,1.72-1.33,2.55-2a2.72,2.72,0,0,0,1.11-1.77s0,0-.06,0c-.5,1.69-2.31,2.72-3.61,3.77,0,0,0,0,0,0Z"/><path class="cls-1" d="M54.67,53.28c.56,4.53-2.18,9.78-3.8,13.87,0,0,.06.1.09,0a49,49,0,0,0,2.63-6.86c.71-2.29,1.52-4.63,1.16-7,0-.05-.09-.05-.08,0Z"/><path class="cls-1" d="M54.64,59.64a39.71,39.71,0,0,1-3.47,7.69c-.06.1.1.18.16.08a26.39,26.39,0,0,0,3.38-7.75s-.05-.06-.07,0Z"/><path class="cls-1" d="M55.05,60.76c-1,2.29-1.59,5.08-3.13,7.06,0,.05,0,.11.06.08.92-.51,1.18-1.69,1.52-2.61.57-1.49,1.14-3,1.64-4.5,0,0-.07-.08-.09,0Z"/><path class="cls-1" d="M55.83,61C55,63,54.26,65,53.51,67c0,.12.17.2.22.08.76-2,1.5-4,2.22-6,0-.06-.09-.11-.12,0Z"/><path class="cls-1" d="M56.29,61.8a9.93,9.93,0,0,1-.46,2c-.26.71-.7,1.33-1,2a.08.08,0,0,0,.12.09,6.76,6.76,0,0,0,1.49-4.11c0-.1-.17-.12-.18,0Z"/><path class="cls-1" d="M57.16,44.64c-1.34,1.1-2.63,3-2.42,4.86,0,.06.1.08.11,0a11.07,11.07,0,0,1,.7-2.64,6.61,6.61,0,0,1,1.67-2.16s0-.1-.06-.07Z"/><path class="cls-1" d="M57.93,44.62c-1.22,1.4-2.51,3.5-2.39,5.44a.08.08,0,0,0,.15,0,25.87,25.87,0,0,1,.82-2.82,10.91,10.91,0,0,1,1.54-2.53c.06-.07,0-.18-.12-.1Z"/><path class="cls-1" d="M58,45.57a5.79,5.79,0,0,0-1.43,4.19c0,.08.14.07.15,0,.16-.68.17-1.37.39-2a8.26,8.26,0,0,1,1-2.05c0-.06,0-.13-.1-.08Z"/><path class="cls-1" d="M59.22,45.28A5.66,5.66,0,0,0,58,49.58a.15.15,0,0,0,.29,0c.11-.69.11-1.38.28-2.06a9.34,9.34,0,0,1,.85-2.1c.06-.11-.1-.23-.17-.13Z"/><path class="cls-1" d="M59.3,45.33c-.72,1-1.52,2.7-1.15,4,0,.1.21.14.26,0a13.1,13.1,0,0,0,.39-1.78,12.36,12.36,0,0,1,.72-2c0-.13-.12-.29-.22-.16Z"/><path class="cls-1" d="M59.45,45.46a9.48,9.48,0,0,0-.83,2.4,7.23,7.23,0,0,0-.29,2.53.17.17,0,0,0,.33,0c.24-.79.24-1.66.41-2.47s.42-1.61.6-2.42a.12.12,0,0,0-.22-.08Z"/><path class="cls-1" d="M60.45,45.83a6,6,0,0,0-1.08,3.27.06.06,0,0,0,.12,0c.18-.51.26-1,.42-1.56a13.88,13.88,0,0,1,.64-1.66.06.06,0,0,0-.1-.06Z"/><path class="cls-1" d="M61.39,45c-.2.64-.42,1.29-.59,1.95,0,0,0,0,.05,0,.23-.64.41-1.3.6-2,0,0,0,0-.06,0Z"/><path class="cls-1" d="M23.58,40.47c-2,1.93-4.31,1.71-6.82,2.24a9.22,9.22,0,0,0-4.4,2.22c-1.88,1.64-3.47,3.46-5.61,4.81S2.29,52,.1,53.27a.23.23,0,0,0,.19.41,32.28,32.28,0,0,0,11.46-7.51c2.49-2.41,4.64-2.78,7.88-3.49a6.77,6.77,0,0,0,4-2.12c.06-.06,0-.14-.09-.09Z"/><path class="cls-1" d="M.45,55.69a12.64,12.64,0,0,0,5.24-1.41c2.12-1.08,4-3.6,6.33-4,.1,0,.09-.18,0-.2-1.58-.31-2.45.68-3.61,1.65a17.87,17.87,0,0,1-8,3.74.1.1,0,0,0,0,.19Z"/><path class="cls-1" d="M13.05,50.69a7.38,7.38,0,0,0,1.64.76,3.85,3.85,0,0,1,2.37,2.22,6.85,6.85,0,0,0,3.28,3.49c.12.05.26-.1.14-.2a10.81,10.81,0,0,1-2.56-2.58,17,17,0,0,0-1.16-2.29c-.93-1.06-2.48-.91-3.65-1.5a.06.06,0,0,0-.06.1Z"/><path class="cls-1" d="M21.34,56.29c-1.56-1.82-2.95-3.63-4.33-5.57a3.58,3.58,0,0,0-2.76-1.9c-.18,0-.26.28-.08.35C16,50,16.73,51.44,17.84,53a13.06,13.06,0,0,0,3.35,3.48c.13.09.23-.1.15-.21Z"/><path class="cls-1" d="M14.45,49.12a39.53,39.53,0,0,0,7.67-2.35A17.82,17.82,0,0,1,27,45a29.27,29.27,0,0,0,4-.34.19.19,0,0,0-.06-.38c-2.53.08-4.76-.07-7.09,1-3.1,1.45-6.25,2.52-9.46,3.7a.09.09,0,0,0,0,.17Z"/><path class="cls-1" d="M20,57a3.85,3.85,0,0,1,.89.73c.25.26.42.56.67.81a.07.07,0,0,0,.11,0,1.73,1.73,0,0,0-.54-.93,2.51,2.51,0,0,0-.44-.35A3,3,0,0,0,20,57,0,0,0,1,0,20,57Z"/><path class="cls-1" d="M20.83,56.2a18.21,18.21,0,0,0,1.57,2.48s.1,0,.08-.06a17.18,17.18,0,0,0-1.6-2.45s-.07,0-.05,0Z"/><path class="cls-1" d="M19.13,56.63a22.68,22.68,0,0,0,1.64,9.92c1.8,4,5.75,5.58,8.39,8.88,4.06,5.09,9.09,11.9,16.34,11.91a.17.17,0,0,0,0-.33A21.59,21.59,0,0,1,36,82.11c-2.73-2.46-4.77-5.5-7.16-8.27C26.64,71.28,23.43,70,21.74,67S19.8,60.1,19.18,56.62a0,0,0,0,0-.05,0Z"/><path class="cls-1" d="M45.54,87.11a21.26,21.26,0,0,0,4.22,2.09,11.88,11.88,0,0,0,3.69,1.1.12.12,0,0,0,.06-.22,27.92,27.92,0,0,0-3.6-1.27c-1.46-.55-2.85-1.25-4.3-1.83a.07.07,0,0,0-.07.13Z"/><path class="cls-1" d="M53.79,90c1.12-4.81,2.16-8.77-.46-13.34-.16-.26-.54,0-.4.25a13.32,13.32,0,0,1,1.63,7.57c-.17,1.87-.94,3.62-1,5.5a.09.09,0,0,0,.18,0Z"/><path class="cls-1" d="M20,55c-.14-.27.82-.11.86-.11.28,0,.57.17.85.24l1.94.51a7.27,7.27,0,0,1,3.22,1.39.15.15,0,0,0,.23-.2c-.9-1.47-3.34-1.63-4.86-2-.12,0-3-.79-2.27.18,0,0,0,0,0,0Z"/><path class="cls-1" d="M8.41,50.65a5.83,5.83,0,0,0,.85-.46s0,0,0,0a5.77,5.77,0,0,0-.85.45,0,0,0,0,0,0,0Z"/><path class="cls-1" d="M8.85,50.53l.08-.08a0,0,0,0,0,0-.05l-.09-.07H8.79A36.14,36.14,0,0,1,.71,55.11c-.14.06-.08.29.07.23,2.69-1.11,6-2.65,8-4.85,0,0,0,.07,0,0Z"/><path class="cls-1" d="M14.39,48.27c2.52-.45,4.62-1.7,6.93-2.73a24.72,24.72,0,0,1,8.54-1.9.07.07,0,0,0,0-.14c-5.74-.3-10.3,2.82-15.48,4.75,0,0,0,0,0,0Z"/><path class="cls-1" d="M23,59.39c2.77,3,5.46,6.17,8.37,9,.06,0,.16,0,.11-.09a81.38,81.38,0,0,0-8.35-9.07c-.09-.08-.21,0-.13.14Z"/><path class="cls-1" d="M33.14,69.85c4.45,2,6.68,6.71,10.69,9.33,0,0,0,0,0,0-4-2.7-6.15-7.41-10.69-9.32,0,0,0,0,0,0Z"/><path class="cls-1" d="M45,80.77A27.61,27.61,0,0,0,50,84.5c.07,0,.14-.06.08-.12-1.61-1.28-3.37-2.37-5-3.63,0,0,0,0,0,0Z"/><path class="cls-1" d="M49.93,84c-4-4.25-8.17-8.52-12.55-12.38a.08.08,0,0,0-.11.12c3.95,4.3,8.31,8.37,12.64,12.28,0,0,0,0,0,0Z"/><path class="cls-1" d="M20.44,58.28a25.56,25.56,0,0,0,2.74,9.63c0,.06.14,0,.11,0a69.69,69.69,0,0,1-2.8-9.59,0,0,0,0,0,0,0Z"/><path class="cls-1" d="M24,68.5c1.95,1.76,4.13,3.28,6,5.09a55.22,55.22,0,0,1,4.15,5.12,18.16,18.16,0,0,0,9.33,6.09.06.06,0,0,0,0-.12c-4.83-1.7-7.84-4.41-10.87-8.44-2.33-3.09-5.53-5.51-8.64-7.77a0,0,0,0,0,0,0Z"/><path class="cls-1" d="M44.68,85.57c2,1.8,5.19,1.82,6.91,4,0,.07.16,0,.11-.07-1.71-2.23-4.81-2.42-7-4,0,0,0,0,0,0Z"/><path class="cls-1" d="M52.29,77.6c1.82,4,1.16,7.76.84,12,0,.1.16.12.18,0,.86-3.89,1.1-8.49-1-12,0,0,0,0,0,0Z"/><path class="cls-1" d="M21.83,56.1c1.54.66,3.17,1.12,4.77,1.64.27.08.38-.36.1-.44-1.6-.45-3.21-.95-4.85-1.25,0,0-.05,0,0,.05Z"/><path class="cls-1" d="M23.73,41.6a17.47,17.47,0,0,0-1.1,3.51c0,.08.1.13.14,0s.13-.29.2-.44,0-.06-.06,0-.19.26-.28.4l.14,0a17.67,17.67,0,0,0,1-3.53s0,0,0,0Z"/><path class="cls-1" d="M24.77,41.46a4.25,4.25,0,0,0-1,2.74s.06,0,.07,0c.12-.45.15-.91.3-1.35a6.41,6.41,0,0,1,.64-1.38,0,0,0,0,0,0,0Z"/><path class="cls-1" d="M25.49,41.54q-.28.72-.54,1.44a9.51,9.51,0,0,0-.53,1.64c0,.05.06.07.08,0a14.35,14.35,0,0,0,1.08-3.07s-.07-.09-.09,0Z"/><path class="cls-1" d="M26.16,42.19a8.08,8.08,0,0,1-.66,1.92.06.06,0,0,0,.1.06,4.57,4.57,0,0,0,.6-2s0,0,0,0Z"/><path class="cls-1" d="M26.92,42.31a2.27,2.27,0,0,0-.36,1.52.06.06,0,0,0,.12,0c0-.24,0-.48.07-.72a3.36,3.36,0,0,1,.27-.75.06.06,0,1,0-.1,0Z"/><path class="cls-1" d="M27.14,42.32c.5.13.31.34.24.71a2.22,2.22,0,0,0,0,.77c0,.09.14.05.14,0a5.07,5.07,0,0,1,.17-1.23.06.06,0,0,0,0-.06,1,1,0,0,0-.48-.24c-.05,0-.06,0,0,.07Z"/><path class="cls-1" d="M28.15,42.55a2.61,2.61,0,0,0,0,.79,0,0,0,0,0,.09,0,2.63,2.63,0,0,0,0-.79.05.05,0,0,0-.1,0Z"/><path class="cls-1" d="M28.6,42.48c.22-.14.36.07.4.22s.05,0,.06,0c.08-.28-.29-.43-.5-.28,0,0,0,.09,0,.06Z"/><path class="cls-1" d="M23,44.07a34.41,34.41,0,0,0-8.2,4.22.09.09,0,0,0,.09.15C17.6,47,20.25,45.55,23,44.23c.09,0,0-.19-.07-.16Z"/><path class="cls-1" d="M38.15,73.79c0,.14,0,.28-.07.42h0c0-.14,0-.28.07-.42Z"/><path class="cls-1" d="M23.35,60.34c.31,0,.39.23.21.59,0,.34,0,.68,0,1,0,.51-.05,1-.07,1.52-.05,1.19-.12,2.37-.13,3.56,0,.06.09.06.1,0,.18-2.36.22-4.75.29-7.12,0,0-.05-.07-.08,0-.3.19-.25.09-.3.46,0,0,0,0,0,0Z"/><path class="cls-1" d="M24,61.32A56.38,56.38,0,0,0,24.06,67s0,0,.05,0A56.51,56.51,0,0,0,24,61.32a0,0,0,0,0,0,0Z"/><path class="cls-1" d="M25.12,61.6a25,25,0,0,0,0,6.64c0,.05.08,0,.08,0a54.32,54.32,0,0,1,0-6.63,0,0,0,0,0-.05,0Z"/><path class="cls-1" d="M25.85,62.34c-.07,2.36-.12,4.73-.11,7.09,0,.1.15.09.15,0,.07-2.37.07-4.73.05-7.1,0,0-.09,0-.09,0Z"/><path class="cls-1" d="M27.05,63c-.18,2.2-.39,4.4-.49,6.6,0,.09.12.08.13,0,.19-2.2.29-4.4.41-6.6,0,0-.05,0-.05,0Z"/><path class="cls-1" d="M27.82,64.9c-.08,1.78-.21,3.58-.2,5.36a.07.07,0,0,0,.14,0c.12-1.78.1-3.58.13-5.36a0,0,0,1,0-.07,0Z"/><path class="cls-1" d="M31.2,69a54.41,54.41,0,0,0,.14,5.85,0,0,0,0,0,.09,0A54.41,54.41,0,0,0,31.29,69a0,0,0,0,0-.09,0Z"/><path class="cls-1" d="M37.32,71.43a29,29,0,0,0,.1,7.89c0,.07.12.07.11,0a43.22,43.22,0,0,1-.18-7.88s0,0,0,0Z"/><path class="cls-1" d="M38.5,73.51a35.23,35.23,0,0,0,.11,7c0,.06.09.06.09,0,.13-2.32-.09-4.72-.12-7a0,0,0,0,0-.08,0Z"/><path class="cls-1" d="M39.35,75.62a19.73,19.73,0,0,0,.84,7.6.06.06,0,0,0,.11,0,53.44,53.44,0,0,1-.85-7.58.05.05,0,0,0-.1,0Z"/><path class="cls-1" d="M40.55,76.8c.1,2.31.08,4.69.32,7a.09.09,0,0,0,.17,0,32.72,32.72,0,0,0-.35-7c0-.08-.15-.08-.14,0Z"/><path class="cls-1" d="M31.8,69.51c1.23-.53,2.38,1.21,3.07,1.94a21.84,21.84,0,0,0,2.33,2.38s.11,0,.08-.06A25.84,25.84,0,0,0,33.85,70c-.59-.56-1.3-1-2.09-.61-.05,0,0,.11,0,.09Z"/><path class="cls-1" d="M33,69.84a2.12,2.12,0,0,0-1.07-1.17.07.07,0,0,0-.08.11,73.33,73.33,0,0,0,8.82,6.66c.07,0,.16-.08.09-.14-1.47-1.27-3.07-2.4-4.63-3.57l-2.21-1.65c-.72-.53-1.77-1.92-1-.22,0,0,0,0,0,0Z"/><path class="cls-1" d="M55,30.37c1.16,2.68,0,5.07-.73,7.66,0,.07.09.11.13,0,1.2-2.34,1.9-5.31.69-7.75,0,0-.11,0-.09,0Z"/><path class="cls-1" d="M54.91,29.2c.47,3.31,1,6.58-1.74,9.09-.07.06,0,.17.11.12,3.12-1.92,2.56-6.21,1.75-9.23,0-.06-.13-.05-.12,0Z"/><path class="cls-1" d="M54.42,29.18c1.06,3.33.19,6.18-1.67,9,0,.07.06.12.11.08,2.45-2.21,2.89-6.18,1.72-9.12a.08.08,0,0,0-.16.05Z"/><path class="cls-1" d="M54.1,29.48a10.13,10.13,0,0,1-1.52,7.75c-.06.09.08.19.15.11a8,8,0,0,0,1.5-7.9.07.07,0,1,0-.13,0Z"/><path class="cls-1" d="M54.12,28.48a12.23,12.23,0,0,1-1.37,6.25c0,.07.06.15.12.08a8.52,8.52,0,0,0,1.35-6.33c0-.06-.1-.06-.1,0Z"/><path class="cls-1" d="M57.05,27.22a7.86,7.86,0,0,0,5.23,2.55c.07,0,.08-.11,0-.13a11,11,0,0,1-5.15-2.52c-.06-.06-.15,0-.09.1Z"/><path class="cls-1" d="M56.93,26.4a8.52,8.52,0,0,0,5.92,2.5c.06,0,.08-.1,0-.11A11,11,0,0,1,57,26.34s-.09,0,0,.06Z"/><path class="cls-1" d="M89.79,30.08c-.73.25-1.43.54-2.16.79-.46.16-2.28.95-2.68.52-.06-.06-.14,0-.13.08l0,.19a.15.15,0,0,0,.09.1,4,4,0,0,0,2.21-.45,16.14,16.14,0,0,0,2.68-1.12c.06,0,0-.14,0-.11Z"/><path class="cls-1" d="M90.65,30.32A19.51,19.51,0,0,1,88,31.56c-.81.28-1.68.36-2.49.65-.07,0-.09.16,0,.17a7.42,7.42,0,0,0,5.19-2s0-.07,0-.05Z"/><path class="cls-1" d="M90.45,31a22.1,22.1,0,0,1-2.15,1,10.1,10.1,0,0,0-1.73.6c-.09,0,0,.16.05.17a4.83,4.83,0,0,0,2.2-.62,7.2,7.2,0,0,0,1.73-1c.07-.07,0-.16-.1-.13Z"/><path class="cls-1" d="M90.44,31.66a20.19,20.19,0,0,1-1.89,1c-.52.21-1.08.32-1.58.58-.13.06,0,.26.07.25a6.24,6.24,0,0,0,3.57-1.64c.11-.11,0-.28-.17-.2Z"/><path class="cls-1" d="M65.32,44.42c.82,1.53,1.43,3.08,2.12,4.66a.11.11,0,0,0,.22-.06,12.47,12.47,0,0,0-2.22-4.68.07.07,0,0,0-.12.08Z"/><path class="cls-1" d="M65.8,44.3a36.72,36.72,0,0,1,3,7.31s.1,0,.09,0a17.44,17.44,0,0,0-3-7.36.06.06,0,0,0-.1.06Z"/><path class="cls-1" d="M67.17,45.43c.59,1.84,1.13,3.75,1.9,5.52a.06.06,0,0,0,.11,0c-.5-1.87-1.27-3.7-1.94-5.51,0,0-.09,0-.07,0Z"/><path class="cls-1" d="M66.94,45.41a6.48,6.48,0,0,1,2.63,5.13c0,.09.16.12.17,0A5.36,5.36,0,0,0,67,45.34s-.08,0,0,.07Z"/></g></g></svg>