<svg xmlns="http://www.w3.org/2000/svg" viewBox="0 0 116.6 141.97"><defs><style>.cls-1{fill:#444;}</style></defs><title>icon-monsteraleaf_2</title><g id="Calque_2" data-name="Calque 2"><g id="_2" data-name="2"><path class="cls-1" d="M56.21,110.25c-1.67,5,1.6,9.73,1.92,14.72.36,5.63-1.91,11.11-.25,16.74.1.37.71.34.71-.07,0-2.57-.39-5.09-.28-7.67.11-2.8.74-5.6.6-8.41-.27-5.24-3.54-9.84-2.32-15.19,0-.24-.3-.36-.38-.12Z"/><path class="cls-1" d="M58.09,141.75c2.51,1.44,2.86-9.15,3-10.48C62,124,58.71,117.48,59,110.33c0-.51-.77-.53-.8,0-.28,4.75,1.38,9.15,2.09,13.79a29.07,29.07,0,0,1-.1,8.28c-.12,1-1.14,9.25-1.92,8.95a.24.24,0,0,0-.2.43Z"/><path class="cls-1" d="M55.88,110.11c-4,1.72-6,5.45-8.85,8.44a11.09,11.09,0,0,1-8.66,3.72c-3.88-.16-6.67-2.27-9.9-4-.3-.16-.62.2-.38.45,3.79,4.1,11,6.2,16.13,3.36s6.59-9.06,11.85-11.59c.23-.11,0-.44-.19-.34Z"/><path class="cls-1" d="M28.35,118.22c3.06.91,5.77,2,8.91.9a72.17,72.17,0,0,0,10-4.48c.15-.08.06-.34-.1-.27-2.55.92-5,2.11-7.47,3.21s-4.29,1.93-7.12,1.45c-1.38-.23-2.76-.74-4.12-1.08-.18,0-.27.22-.09.27Z"/><path class="cls-1" d="M51.3,111.32a10.29,10.29,0,0,1-2.14,1.22,8.1,8.1,0,0,0-1.82.82.15.15,0,0,0,.1.26,4.39,4.39,0,0,0,2-.87c.66-.43,1.28-.91,1.9-1.4,0,0,0,0,0,0Z"/><path class="cls-1" d="M54.09,108.65c-7.37-1-13.76,4.77-21,5-9.25.26-17.57-6.69-24.95-11.24-.2-.13-.44.15-.27.31a46.11,46.11,0,0,0,10.82,7.24c3.58,1.87,7.49,3.76,11.55,4.33,8.39,1.19,15.64-4.94,23.89-5.48a.07.07,0,1,0,0-.13Z"/><path class="cls-1" d="M7.8,106.15c5.22,5.3,12.62,11.21,20.35,12,.46,0,.47-.64,0-.69-8.13-.88-13.93-7-20.2-11.48-.13-.09-.28.1-.17.21Z"/><path class="cls-1" d="M7.77,102.37c-.57,1.2-.65,3.62.59,4.49.09.07.18,0,.17-.12-.1-.69-.54-1.29-.66-2a7.59,7.59,0,0,1,.06-2.33.09.09,0,0,0-.16,0Z"/><path class="cls-1" d="M54.6,107.63c-4.32-1.39-8.28.92-12.41,2A27.42,27.42,0,0,1,26,108.7c-5-1.87-9.14-5.37-13.4-8.39C8.49,97.42,3.91,94.25,3.28,89c0-.2-.37-.16-.36,0,0,3.87,2.37,6.66,5.28,9.07a88.45,88.45,0,0,0,14.06,9.65A27.83,27.83,0,0,0,36.94,111c5.93-.35,11.67-4.4,17.59-3.1a.12.12,0,1,0,.07-.22Z"/><path class="cls-1" d="M3.31,89.26a12.87,12.87,0,0,1,.48-3.8c.32-1.1.93-2.07,1.25-3.16,0-.11-.11-.21-.19-.12-1.67,1.71-2,4.82-1.91,7.07,0,.23.37.24.37,0Z"/><path class="cls-1" d="M4.81,82.46c2.05,5.44,6.37,10.29,10.92,13.9,4.22,3.34,9.85,6.75,15.36,7.35.24,0,.26-.31.07-.38-5.33-2.21-10.39-3.9-15-7.5-4.79-3.75-8-8.38-11.14-13.45-.06-.11-.27,0-.22.08Z"/><path class="cls-1" d="M32.34,103.76a21.68,21.68,0,0,0,3.59.49c.41,0,1,0,1.28-.4.69-1.2-2.49-1.7-3.16-1.57a.1.1,0,0,0,0,.18c.49.14,1,.17,1.48.32a3.66,3.66,0,0,1,1,.5c.32.43-.07.6-.44.64-1.23.11-2.52-.31-3.76-.29a.07.07,0,0,0,0,.13Z"/><path class="cls-1" d="M32.79,102.18c-4.49-2.77-9.11-5.26-13.43-8.29S11.1,87.41,6.93,84.21c-.21-.17-.48.17-.3.36a78.72,78.72,0,0,0,12.42,9.81,85.46,85.46,0,0,0,13.71,7.88c.05,0,.08-.06,0-.08Z"/><path class="cls-1" d="M4.45,80.59A15.35,15.35,0,0,1,1.18,75,21,21,0,0,1,.7,69.19a.15.15,0,0,0-.29,0c-1.31,3.94.71,9,3.7,11.77a.23.23,0,0,0,.34-.32Z"/><path class="cls-1" d="M.49,68.6a8.75,8.75,0,0,1,1.09-2.69c.47-.75,1.17-1.38,1.56-2.15a.15.15,0,0,0-.2-.21c-1.63.81-2.41,3.35-2.7,5,0,.16.21.24.25.08Z"/><path class="cls-1" d="M3.14,63.6a49,49,0,0,0,6.93,10.13c2.48,2.94,6.21,4.33,9,7,.36.34.93-.18.57-.53-2.67-2.58-6.32-3.92-8.79-6.63C8,70.44,5.87,66.8,3.31,63.47c-.07-.1-.22,0-.17.13Z"/><path class="cls-1" d="M19.33,80.5c5.35,3.59,10.74,7.38,17,9.23a29,29,0,0,1,5.13,1.76,42.2,42.2,0,0,1,4.19,3,13.92,13.92,0,0,0,8.17,2.49.26.26,0,0,0,0-.52,18.75,18.75,0,0,1-9.9-4.1,22,22,0,0,0-7.42-3.18c-6.34-1.85-11.35-5.75-17-9a.2.2,0,0,0-.22.33Z"/><path class="cls-1" d="M33.51,90.89,30.82,89.7a13.21,13.21,0,0,0-2.68-1.15c-.54-.09-1.21.24-.8.81a.08.08,0,0,0,.15,0c.08-.91,3,.53,3.24.65l2.71,1.14c.14.06.21-.16.07-.22Z"/><path class="cls-1" d="M27.21,89.66a9,9,0,0,0,7.18,2.94.19.19,0,0,0,0-.37,12.6,12.6,0,0,1-7.09-2.69c-.07-.06-.16,0-.1.12Z"/><path class="cls-1" d="M33.76,91.44a1.31,1.31,0,0,1,.53.84.1.1,0,0,0,.19,0,1,1,0,0,0-.68-.9s-.08,0,0,.08Z"/><path class="cls-1" d="M54.87,100.49c.1-1.15-1.56-1.32-2.38-1.5-1.72-.37-3.81-.79-5.5-.21-.15,0-.19.27,0,.31a19.32,19.32,0,0,0,3.14.32c.9.1,3.65.24,4.16,1.21a.32.32,0,0,0,.59-.13Z"/><path class="cls-1" d="M47.22,99.41c-.93,1.87,3.44,3.25,4.73,3.39a3.06,3.06,0,0,0,2.58-.58,1,1,0,0,0,0-1.47c-.06-.06-.18,0-.13.09.78,1.33-.85,2-2,1.75a11.57,11.57,0,0,1-1.54-.39c-1-.3-3.79-1.32-3.56-2.74a.08.08,0,0,0-.14,0Z"/><path class="cls-1" d="M55.24,105.31c-.51-.49-1.13-1.1-1.91-.76a.93.93,0,0,0-.47,1.44,2.56,2.56,0,0,0,2.11.59c.51-.12,1.19-.83.63-1.28a.18.18,0,0,0-.23.06c-.23.36-.24.69-.8.69a2.59,2.59,0,0,1-1.09-.28c-.59-.33,0-.87.47-.83a2.56,2.56,0,0,1,1.19.49c.08,0,.17-.06.1-.12Z"/><path class="cls-1" d="M50,104.94c-1-1.18-2.66-1.24-4.15-1-2.46.3-4.89,1.17-7.35,1.6a.18.18,0,0,0,0,.34c1.64.37,3.24-.23,4.81-.69A11.1,11.1,0,0,1,50,105a0,0,0,0,0,0-.08Z"/><path class="cls-1" d="M38.78,105.7a.76.76,0,0,0-.75,1.18c.63,1.11,3.33.44,4.24.38l4.24-.25c.78-.05,2.46.1,3.12-.51a.82.82,0,0,0-.05-1.43c-.07-.06-.2,0-.16.11.53,1.41-5.19,1.49-5.86,1.54l-2.12.13-.85.06a1.36,1.36,0,0,1-1.82-.92.15.15,0,0,0,0-.29Z"/><path class="cls-1" d="M62.1,96.77c-.36-.21-.72-.44-1.08-.67-1.26-2-.78-3.22,1.42-3.59a20.76,20.76,0,0,1,2.69-.57,21.16,21.16,0,0,1,7.13-.55.11.11,0,0,0,.07-.21c-1.76-.9-3.56-.58-5.45-.23s-4.4.49-6.11,1.58c-2.54,1.61-1.22,3.85,1.27,4.37a.07.07,0,0,0,.06-.13Z"/><path class="cls-1" d="M72.44,91.56c0,3.07-3.69,3.22-5.93,3.77a39.05,39.05,0,0,0-5.13,1.46c-.23.09-.07.41.15.38a50.75,50.75,0,0,0,9.6-2.71c1.42-.55,1.75-1.46,1.36-2.9,0,0,0,0,0,0Z"/><path class="cls-1" d="M53.78,93.22a2.72,2.72,0,0,0-3-1.15,1.68,1.68,0,0,0-1.1,2c.37.94,2,1.22,2.92,1.06.67-.13,1.63-1.08.89-1.7a.08.08,0,0,0-.13.07c.21,1.18-.95,1.27-1.83,1.08-.68-.14-1.64-.4-1.36-1.28A1.45,1.45,0,0,1,52,92.49c.62.16,1.08.68,1.69.81.05,0,.09,0,.06-.08Z"/><path class="cls-1" d="M53.84,87.89a24.79,24.79,0,0,0,.07,4.56c0,.11.17.08.18,0a26.56,26.56,0,0,0-.21-4.54s0,0,0,0Z"/><path class="cls-1" d="M54,88.53c.16,1.11.31,2.22.5,3.33,0,.17.3.1.27-.07-.2-1.1-.46-2.19-.7-3.28,0-.05-.08,0-.07,0Z"/><path class="cls-1" d="M54.83,88.54A10.25,10.25,0,0,0,55,91.86a.11.11,0,0,0,.2,0,10.53,10.53,0,0,0-.2-3.35c0-.08-.15-.06-.15,0Z"/><path class="cls-1" d="M55.32,89a11,11,0,0,1,.08,1.52,7.77,7.77,0,0,0,0,1.18c0,.11.17.08.2,0A4.48,4.48,0,0,0,55.42,89a.05.05,0,0,0-.1,0Z"/><path class="cls-1" d="M53.56,87.91A6.83,6.83,0,0,1,54,90c0,.63-.17,1.25-.14,1.87a.18.18,0,0,0,.33.1c.76-1.16.27-3-.37-4.1-.08-.13-.32-.06-.26.09Z"/><path class="cls-1" d="M54.38,87.9a8.69,8.69,0,0,0-.06,3.33.11.11,0,0,0,.22,0,8.87,8.87,0,0,0,.14-3.33.15.15,0,0,0-.3,0Z"/><path class="cls-1" d="M58.09,96.58c.39,0,.94,0,1.19-.35a.15.15,0,0,0-.09-.23c-.39-.16-.85.18-1.19.35-.14.06,0,.24.09.23Z"/><path class="cls-1" d="M58.49,89.93c5.12-.59,10.83-3.59,15-6.4.1-.06,0-.26-.08-.21-5.14,1.88-9.71,4.82-15,6.51-.06,0,0,.1,0,.1Z"/><path class="cls-1" d="M75,82.68c8.23-3,15.41-9.57,20.57-16.35.07-.09-.07-.2-.15-.13A34.65,34.65,0,0,0,92.19,70a33.76,33.76,0,0,1-5.6,5,61,61,0,0,1-11.72,7.51c-.12,0,0,.25.08.2Z"/><path class="cls-1" d="M101.16,52.08c-1.41-.74-2.08-.24-2.9,1a103,103,0,0,1-6.69,9.29C86.4,68.44,79.81,73.08,74.15,78.68c-.25.24.1.6.37.38a164.83,164.83,0,0,0,14.3-12.9A57.15,57.15,0,0,0,94.14,60c1.18-1.6,4.37-8.31,6.9-7.61.15,0,.27-.18.12-.26Z"/><path class="cls-1" d="M74.07,79.71c1.17,2.92,7.94-3.4,8.92-4.4,4.49-4.6,7.92-10.31,11.54-15.57.12-.18-.16-.34-.28-.17-2.7,3.78-5.27,7.66-8.09,11.36-.88,1.17-9.93,11.77-11.91,8.69a.1.1,0,0,0-.18.09Z"/><path class="cls-1" d="M96.91,55.74A16.81,16.81,0,0,0,94,60c0,.07.09.15.15.08a17.2,17.2,0,0,0,1.35-2c.49-.76,1-1.5,1.57-2.22.06-.08-.07-.16-.13-.08Z"/><path class="cls-1" d="M96.69,56.15a32.93,32.93,0,0,0-3.48,5.3c0,.07.07.13.12.08a33.25,33.25,0,0,0,3.48-5.31.07.07,0,1,0-.12-.07Z"/><path class="cls-1" d="M100.13,52.41a8.91,8.91,0,0,0-4.17,5,.07.07,0,0,0,.12,0A26,26,0,0,1,98,54.65a19.58,19.58,0,0,1,2.26-2.1c.08-.06,0-.19-.11-.14Z"/><path class="cls-1" d="M101.14,52.28c3.07,2.58.56,8.49-.21,11.73A23.31,23.31,0,0,1,94.81,75c-5,5.42-9.9,12.1-17,15-.21.09-.08.43.14.37,4.15-1.18,7.29-4.24,10.15-7.26A138.28,138.28,0,0,0,98,72.24c2.91-3.83,3.62-8.46,4.55-13,.49-2.37,1.29-5.62-1.35-7,0,0-.11,0-.07.07Z"/><path class="cls-1" d="M84.28,86.13s0,0,0,0,0,0,0,0Z"/><path class="cls-1" d="M84.28,86.28c2-.29,3-1.82,4.47-3a62.31,62.31,0,0,1,7.06-4.65,27.88,27.88,0,0,0,9-10.41.21.21,0,0,0-.36-.22c-3,4-5.19,8-9.64,10.73-1.43.87-2.88,1.65-4.23,2.63-2,1.43-4,4.15-6.33,4.93,0,0,0,0,0,0Z"/><path class="cls-1" d="M104.82,68.25c1.66.2.44,8.4.29,9.38a18.41,18.41,0,0,1-4.64,10c-.09.11,0,.3.16.21,3.75-2.48,4.75-7.18,5.11-11.34.1-1.14,1.44-8.56-.92-8.35-.06,0-.06.09,0,.09Z"/><path class="cls-1" d="M101.15,87c-2,3.12-5.81,3.34-9.09,4.32a21,21,0,0,0-6.17,3.32A35.45,35.45,0,0,1,67,101.21c-.23,0-.25.34,0,.35A28.64,28.64,0,0,0,84.67,96.4a54.62,54.62,0,0,1,5.23-3.61A28.37,28.37,0,0,1,95.61,91C98,90.27,100,89.23,101.29,87c0-.09-.08-.18-.14-.09Z"/><path class="cls-1" d="M65.75,101.17a5.07,5.07,0,0,0-1.92-.47,3.63,3.63,0,0,0-2,.22.14.14,0,0,0,0,.25,8.43,8.43,0,0,0,1.81,0c.68,0,1.35.1,2,.12a.06.06,0,0,0,0-.11Z"/><path class="cls-1" d="M61,99.18a2.41,2.41,0,0,0-2-.12.18.18,0,0,0-.14.16,1.17,1.17,0,0,0,1.45,1.09,1.2,1.2,0,0,0,.71-.63c.11-.23.22-.64,0-.81a.13.13,0,0,0-.16,0c-.09.15,0,.3-.08.47a.83.83,0,0,1-.36.5.78.78,0,0,1-1.15-.65L59,99.4a3.7,3.7,0,0,1,1.87-.1c.06,0,.12-.08.05-.12Z"/><path class="cls-1" d="M77.07,94.56a5.74,5.74,0,0,0-3.72.68c-.93.51-2.16,1.44-2.37,2.52a.13.13,0,0,0,.22.14,15.39,15.39,0,0,1,2.36-2.27,7.14,7.14,0,0,1,3.5-.91c.12,0,.11-.14,0-.16Z"/><path class="cls-1" d="M71.16,97.9c0,2.3,7.24-.2,6.06-3.21,0-.11-.21-.07-.17,0,.91,2.34-4.81,5.3-5.72,3.13,0-.09-.17,0-.17,0Z"/><path class="cls-1" d="M60.9,102.67a1.64,1.64,0,0,0-2.71.86.3.3,0,0,0,.12.33c.86.38,2.28.67,3.08,0a.8.8,0,0,0,.23-1,.51.51,0,0,0-.66-.3.13.13,0,0,0,0,.21c.55.58-.25.85-.8.87a3.45,3.45,0,0,1-1.58-.33l.2.36a1.32,1.32,0,0,1,2-.81.15.15,0,0,0,.19-.22Z"/><path class="cls-1" d="M58.67,108c5.44-.54,10.64.13,16.07.5s10.51-.36,15.77-1.13,11.15-1,16.31-2.49a19.14,19.14,0,0,0,9.4-6.87c.16-.21-.16-.43-.35-.28-1.82,1.46-3.39,3.17-5.33,4.49a17.57,17.57,0,0,1-7.67,2.7c-5,.76-10,1.38-14.91,2.1a67.76,67.76,0,0,1-15.51.8c-4.6-.37-9.26-1-13.79.1,0,0,0,.09,0,.08Z"/><path class="cls-1" d="M115.81,98.12c1.56-1.9.47-5.86-.44-7.83a.1.1,0,0,0-.18.06c.19,1.24.61,2.44.79,3.69a26.43,26.43,0,0,1-.19,4.08Z"/><path class="cls-1" d="M114.93,90.42a29.18,29.18,0,0,1-5.23,1.82c-1.91.37-3.85.17-5.77.38a54.62,54.62,0,0,0-7.17,1.6c-5,1.24-10.15.61-14.56,3.73-.13.09-.07.36.12.29,3-1,5.4-2.2,8.6-2.47a44,44,0,0,0,7.62-1.36c5.66-1.47,11.26-1,16.49-3.82.12-.06,0-.22-.1-.17Z"/><path class="cls-1" d="M59.06,110.66c4.1.87,4.9,4.89,7.09,7.74a10.79,10.79,0,0,0,4.7,3.41c4.2,1.66,10.68,3.14,15,1.34.22-.09.07-.41-.14-.37-5.37,1.09-14.37.23-18.39-4-2.82-3-3.46-7.86-8.2-8.49-.21,0-.26.3-.06.35Z"/><path class="cls-1" d="M90.06,118.48c-.82.71-1.57,1.5-2.43,2.17a23.21,23.21,0,0,0-2.63,1.9.12.12,0,0,0,.11.21,7.54,7.54,0,0,0,2.74-1.64,11.86,11.86,0,0,0,2.47-2.43c.12-.16-.12-.33-.26-.21Z"/><path class="cls-1" d="M89.79,119.45a15.3,15.3,0,0,1-2.72,2.42c-.87.57-1.94.85-2.76,1.47-.11.08,0,.28.11.28a5.83,5.83,0,0,0,3.07-1.39,8.49,8.49,0,0,0,2.4-2.7c0-.06,0-.14-.1-.08Z"/><path class="cls-1" d="M88.06,118.27c-3.55,2.23-8.21-.26-11.7-1.43-.14,0-.22.15-.1.23,2.55,1.73,9.39,4.19,11.92,1.36.07-.08,0-.23-.12-.16Z"/><path class="cls-1" d="M76.27,116.81c.58-1.8,10.18,1.82,11.37,2.23a.18.18,0,1,0,.11-.35c-1.37-.5-11.52-4.48-11.6-1.9a.06.06,0,0,0,.12,0Z"/><path class="cls-1" d="M71.51,114.51A9.58,9.58,0,0,0,69,113a1.5,1.5,0,0,0-1.52,0c-1,.76-.44,2.15.35,2.81.94.78,2.7,1.62,3.74.54a1.12,1.12,0,0,0-.81-1.95c-.18,0-.17.31,0,.35.5.09.69.45.55,1.08a1.29,1.29,0,0,1-1,.5,2.64,2.64,0,0,1-1.23-.37,2.92,2.92,0,0,1-1.56-1.41c-.23-.68.06-1.44,1-1.31a3.82,3.82,0,0,1,1.1.52,19.26,19.26,0,0,0,1.75.9c.1,0,.2-.11.11-.18Z"/><path class="cls-1" d="M58.7,110.43c.29-.6,1.66.43,2,.61a4.19,4.19,0,0,0,1.59.7.16.16,0,0,0,.12-.27,4.3,4.3,0,0,0-1.53-1,6.2,6.2,0,0,0-1.47-.7c-.45-.09-1.12,0-1,.6a.17.17,0,0,0,.31.05Z"/><path class="cls-1" d="M64.22,108.66c4.57.49,7.75,4,12.22,5a.11.11,0,1,0,.06-.21A42.22,42.22,0,0,1,69.37,110a8.67,8.67,0,0,0-5.14-1.43.06.06,0,0,0,0,.12Z"/><path class="cls-1" d="M78.13,114.2c5.73,1.59,11.7,3.64,17-.29.09-.07,0-.22-.13-.16a14,14,0,0,1-10,1.88c-2.29-.44-4.46-1.27-6.78-1.59-.09,0-.11.13,0,.16Z"/><path class="cls-1" d="M91.09,117a15.34,15.34,0,0,1-3.52,4.61.08.08,0,0,0,.09.12,7.9,7.9,0,0,0,3.69-4.62c0-.14-.19-.26-.26-.11Z"/><path class="cls-1" d="M88.3,120.25c-.16.14-.38.22-.55.37l-.67.61c-.33.32-.79.62-.93,1.07a0,0,0,0,0,.06.06,3,3,0,0,0,1.11-.89c.2-.19.39-.38.58-.58a2.68,2.68,0,0,0,.28-.3c.06-.09.09-.22.17-.29s0-.08,0,0Z"/><path class="cls-1" d="M89.1,120.19c-.4.28-.77.57-1.15.86a6.69,6.69,0,0,0-1.09,1c-.11.14.1.34.25.25a5.84,5.84,0,0,0,1-.88c.36-.34.72-.68,1-1,.07-.07,0-.21-.1-.15Z"/><path class="cls-1" d="M91.77,116a20.11,20.11,0,0,0-1.11,1.82s0,.09.07,0A21.17,21.17,0,0,0,91.8,116s0,0,0,0Z"/><path class="cls-1" d="M92,115.82a9.84,9.84,0,0,0-1.13,1.6s0,.12.09.07a10.62,10.62,0,0,0,1.09-1.64s0-.06,0,0Z"/><path class="cls-1" d="M94.58,113.8c3.73-1.13,7.19-4.67,8.9-8,.14-.29-.26-.55-.44-.27a25.05,25.05,0,0,1-3.66,4.67,39.65,39.65,0,0,1-4.84,3.53,0,0,0,0,0,0,.09Z"/><path class="cls-1" d="M92.58,108.11a32.8,32.8,0,0,0-6.5,1.35c-2.29.75-4.36,2.56-6.89,1.59-.2-.07-.35.24-.15.34,1.58.82,2.71.44,4.27-.31,3-1.44,6.12-2,9.34-2.71.18,0,.1-.28-.07-.26Z"/><path class="cls-1" d="M79.93,111a2,2,0,0,1,.46-.9,5,5,0,0,1,1.4-.65,16,16,0,0,0,3-1.31c.1-.07.06-.23-.08-.2a19.36,19.36,0,0,0-3.89,1.55c-.59.26-1.26.68-1.14,1.39a.17.17,0,0,0,.16.13h.13Z"/><path class="cls-1" d="M94.16,108a3.09,3.09,0,0,0,2.23-1.16c.17-.19-.13-.42-.26-.21a3,3,0,0,1-2,1.22.08.08,0,0,0,0,.15Z"/><path class="cls-1" d="M102.75,94.18A35.86,35.86,0,0,0,94,96.47c-.09,0,0,.18.07.16a78.59,78.59,0,0,0,8.65-2.4,0,0,0,0,0,0,0Z"/><path class="cls-1" d="M92.59,96.88c-8.19-.72-14.88,4.87-22.9,4.92a.08.08,0,0,0,0,.15c3.34.32,6.35-.73,9.42-1.91A43.06,43.06,0,0,1,92.59,97a0,0,0,1,0,0-.09Z"/><path class="cls-1" d="M102.53,94.19c1.72-.16,3.48,0,5.19-.26,2.1-.31,3.92-1.38,6.07-1.54a0,0,0,1,0,0-.08c-1.84-.18-3.31.6-5.05,1-2,.53-4.17.22-6.22.79,0,0,0,.06,0,0Z"/><path class="cls-1" d="M86.78,102.59a65.08,65.08,0,0,0-7.37.66c-1,.12-2.13.25-2.23,1.37,0,0,.07.07.09,0,.69-1.37,3.34-1.19,4.67-1.33,1.62-.18,3.26-.3,4.85-.64a0,0,0,0,0,0-.09Z"/><path class="cls-1" d="M76.94,105.1c.59,1.1,1.78,1.07,2.94,1a62.77,62.77,0,0,0,7-.42c.1,0,.08-.16,0-.17-1.58-.08-3.19.07-4.77.14s-4,.63-5.11-.61a0,0,0,1,0,0,0Z"/><path class="cls-1" d="M87.68,105.5a1.69,1.69,0,0,0,1.73-2.09,1.82,1.82,0,0,0-2.51-1c-.2.11,0,.39.17.3a1.52,1.52,0,0,1,2,.66,1.5,1.5,0,0,1-1.35,2c-.06,0-.06.09,0,.09Z"/><path class="cls-1" d="M58.75,107.38a63.5,63.5,0,0,1,15.34.14c4.3.42,8.92,1,13.19.06.13,0,.12-.26,0-.25a119.13,119.13,0,0,1-14.87-.5c-4.62-.43-9.14-.73-13.7.28-.18,0-.11.29.07.27Z"/><path class="cls-1" d="M59,107.56a5.46,5.46,0,0,0,1.13-.1c.55-.11,1.11-.22,1.66-.3,1.18-.18,2.41-.18,3.56-.47.22,0,.16-.33,0-.36a13.2,13.2,0,0,0-4.37.4c-.58.12-2,.13-2.19.84a.16.16,0,0,0,.1.18l.12,0a.1.1,0,0,0,.09,0l.07-.07a.09.09,0,0,0-.13-.13Z"/><path class="cls-1" d="M58.75,107.87c1.55-.13,3.09-.33,4.65-.41,1.36-.07,2.73,0,4.08-.16a.19.19,0,0,0,0-.37,20.36,20.36,0,0,0-8.77.64c-.16,0-.15.31,0,.3Z"/><path class="cls-1" d="M61.73,107.31c2.29-.12,4.75.14,7-.26.13,0,.15-.24,0-.26-2.25-.42-4.78.07-7,.37-.09,0-.07.15,0,.15Z"/><path class="cls-1" d="M66.37,107.28a8.4,8.4,0,0,0,3.6-.1.07.07,0,0,0,0-.14c-1.21,0-2.37.2-3.58.13-.08,0-.08.1,0,.11Z"/><path class="cls-1" d="M52,85.14c-1,.15-2,.71-3,.81a9.17,9.17,0,0,1-4.92-1.15c-2-1-4-2.25-4.88-4.39,0-.09-.19,0-.19,0,.09,2.47,3.23,4,5.19,5a8,8,0,0,0,7.9-.12.08.08,0,0,0-.06-.14Z"/><path class="cls-1" d="M39.24,80.1c1.76-.94,4.42,0,6.26.24a28.69,28.69,0,0,1,3.4.53c1,.28,5.63,3.07,2.29,4.51-.15.07,0,.26.09.24,3.26-.38.57-3.9-1-4.75-1.77-1-4.34-.93-6.3-1.19-1.65-.22-3.41-.73-4.81.34,0,0,0,.1.06.08Z"/><path class="cls-1" d="M61.06,81.85a1.63,1.63,0,0,0-2,.26.91.91,0,0,0,.37,1.45,2.1,2.1,0,0,0,1.87-.25c.3-.26.53-1.22-.13-1.18a.12.12,0,0,0-.12.15,1.63,1.63,0,0,1,.11.31c0,.27-.18.43-.42.51a1.74,1.74,0,0,1-1.06,0c-.47-.18-.34-.68,0-.87A3.63,3.63,0,0,1,61,82.1a.14.14,0,0,0,0-.25Z"/><path class="cls-1" d="M72.14,76.07c-3-1.75-6.23,2.83-6.56,5.34,0,.1.15.15.19.06a15.24,15.24,0,0,1,1.89-3.36c1-1.15,2.69-2.69,4.36-1.85.13.06.25-.12.12-.19Z"/><path class="cls-1" d="M66.28,82.08c1.21,1.11,2.38-.43,3-1.32,1-1.27,3.36-1.94,3-3.87,0-.23-.38-.14-.35.09.17,1.49-1.52,2-2.41,2.86S68,82.91,66.38,82c-.07,0-.16.06-.1.12Z"/><path class="cls-1" d="M54,77.8c0,3-.23,5.86-.44,8.84a.12.12,0,0,0,.23,0,19.88,19.88,0,0,0,.48-8.91.14.14,0,0,0-.27,0Z"/><path class="cls-1" d="M56.22,78.9A43.82,43.82,0,0,0,56,86.32c.38,3.2,1.19,6,1,9.29,0,.21.31.22.33,0a20.91,20.91,0,0,0-.7-7.42c-.77-3-.43-6.21-.38-9.3,0-.05-.08-.05-.09,0Z"/><path class="cls-1" d="M55.15,97.4a7.08,7.08,0,0,1-.11-2c0-.09-.15-.12-.17,0a12.85,12.85,0,0,0,.1,6c.05.18.36.17.35,0,0-1.37-.22-2.73-.25-4.11,0-.21.09-1.55-.22-1.43s.15,1.48.19,1.62a.06.06,0,0,0,.11,0Z"/><path class="cls-1" d="M57.27,98.07c.35,2.56.24,5.15.57,7.7,0,.11.17.07.19,0a20.18,20.18,0,0,0-.73-7.68s0,0,0,0Z"/><path class="cls-1" d="M55.87,102.18c0,.63,0,1.26,0,1.88a6.46,6.46,0,0,0,.13,1.65c0,.09.18.11.2,0a7.07,7.07,0,0,0,0-1.78c0-.59-.08-1.19-.16-1.77,0-.09-.14-.07-.14,0Z"/><path class="cls-1" d="M54,77.11c2.46-6.55-.2-13.77,1.39-20.54a.07.07,0,0,0-.13,0c-2.25,6.58.31,13.8-1.38,20.55,0,.07.09.1.12,0Z"/><path class="cls-1" d="M55.24,54.12c.2-3.93-.8-7.79-.31-11.72.39-3,1.21-6,0-8.94a.11.11,0,0,0-.2.07c1,3.64-.09,6.84-.3,10.46-.19,3.38.58,6.75.67,10.13a.09.09,0,0,0,.17,0Z"/><path class="cls-1" d="M55,30.4a36.41,36.41,0,0,0,.26-6c0-.1-.17-.1-.19,0a37.54,37.54,0,0,0-.1,6,0,0,0,1,0,0,0Z"/><path class="cls-1" d="M56.38,54a58,58,0,0,1-.17,11.26c-.4,3.66.3,7.11.24,10.77,0,.1.16.13.18,0,.74-3.51-.45-7.2-.07-10.79A42.11,42.11,0,0,0,56.41,54Z"/><path class="cls-1" d="M55.49,20.72c0,1.59,0,3.17.1,4.75,0,0,0,0,0,0,0-1.58-.07-3.16-.11-4.74,0,0,0,0,0,0Z"/><path class="cls-1" d="M56.25,21.93a50.22,50.22,0,0,0-.08,14.74c0,.09.15.07.15,0-.14-5-.67-9.76,0-14.72,0-.05-.09-.07-.1,0Z"/><path class="cls-1" d="M56.31,38.08a12.78,12.78,0,0,0-.76,6c.2,1.31.81,2.49,1,3.82a35.77,35.77,0,0,1,0,4.63c0,.1.15.13.17,0a13.53,13.53,0,0,0,.1-5.63c-.32-1.44-.92-2.52-1-4a23.89,23.89,0,0,1,.56-4.76s0,0,0,0Z"/><path class="cls-1" d="M53.09,33c.37-4.22-2.3-8.36-3.43-12.31-1.42-5-4.76-8.88-4.23-14.27,0-.15-.2-.16-.26,0-1.65,3.83,1.14,7.66,2.71,11,1,2.24,1.45,4.65,2.37,6.92C51.42,27.25,52.68,29.88,53,33a0,0,0,0,0,.09,0Z"/><path class="cls-1" d="M45.77,4.69a17.35,17.35,0,0,1,6.67-3.48A27.52,27.52,0,0,1,59.22.88a.15.15,0,0,0,.05-.3c-4.52-1.71-10.55.59-13.61,4a.08.08,0,1,0,.11.12Z"/><path class="cls-1" d="M58.79,1.86a21.48,21.48,0,0,0-.29,2.26s0,0,0,0c.17-.74.22-1.52.32-2.27,0,0-.07,0-.08,0Z"/><path class="cls-1" d="M59,.83a6,6,0,0,0-.13,1.53c0,.59-.21,1.18-.21,1.77a.12.12,0,0,0,.23,0,5.23,5.23,0,0,0,.3-1.8A3.24,3.24,0,0,0,59,.82s0,0,0,0Z"/><path class="cls-1" d="M59.56.64a12.77,12.77,0,0,0-.16,3.75.16.16,0,0,0,.31,0A12.74,12.74,0,0,0,59.78.65a.11.11,0,0,0-.22,0Z"/><path class="cls-1" d="M60.65,1.09a11.88,11.88,0,0,0-.13,3.52.08.08,0,0,0,.16,0,11.86,11.86,0,0,0,.09-3.52.06.06,0,0,0-.12,0Z"/><path class="cls-1" d="M59.91,1c-.13-.12.67-.07.67-.07.28,0,.56.14.83.2a10.7,10.7,0,0,1,2,.63A4.45,4.45,0,0,1,65.86,4.6c0,.14.31.19.34,0a3.31,3.31,0,0,0-1.93-3.23C63.23.77,60.87,0,59.7.54a.17.17,0,0,0-.08.13c0,.28,0,.22.2.39.06,0,.14-.05.09-.1Z"/><path class="cls-1" d="M67.52,7c2,4.74-.51,8.55-2.28,12.88a36.39,36.39,0,0,0-2.88,10c0,.16.22.19.28,0,1.66-4.73,3.08-9.42,5-14.07,1.18-2.88,2.13-6.23,0-8.87,0,0-.08,0-.07,0Z"/><path class="cls-1" d="M62.27,30.6a11.78,11.78,0,0,0-.65,3.5.23.23,0,0,0,.39.18,25,25,0,0,0,8.95-14c.83-3.39,1.53-6.89,2.09-10.33.26-1.6.47-3.21-.91-4.34-.25-.2-.59.09-.37.34,2,2.39.11,6.9-.4,9.62a51.93,51.93,0,0,1-1.84,7.89,22.09,22.09,0,0,1-4.29,7.28,9,9,0,0,1-2,2c-.43.78-.78.85-1.06.21.09-.77.2-1.54.34-2.31,0-.11-.16-.13-.2,0Z"/><path class="cls-1" d="M72.48,5.8a1.45,1.45,0,0,0-.17-1.23l-.07.24a3.52,3.52,0,0,1,3.43.54c.08.06.14,0,.1-.11a3.08,3.08,0,0,0-3.71-.74.17.17,0,0,0-.07.24,1.65,1.65,0,0,1,.22,1c0,.15.23.19.27,0Z"/><path class="cls-1" d="M76.66,5.89c4.3,1.61,4.42,5.56,4.39,9.43,0,.24.39.33.44.08.7-3.64-.47-8.83-4.78-9.68a.09.09,0,0,0,0,.17Z"/><path class="cls-1" d="M81.82,17C78.32,25.83,77.3,36.49,71.08,44c-.21.25.2.56.43.35,3.33-3,4.55-7.85,6-11.91,1.74-5,3.7-10.21,4.55-15.45,0-.12-.16-.14-.2,0Z"/><path class="cls-1" d="M69.94,46.15c-3.68,2.71-10.79,8.79-9,14a.22.22,0,0,0,.42-.1c-1-5.63,5.05-10.31,8.74-13.8.09-.08,0-.19-.12-.13Z"/><path class="cls-1" d="M61.42,60.42c2.47,1.83,5.17-1.22,6.67-2.89a24,24,0,0,0,5.63-9.61.21.21,0,0,0-.41-.12,39.32,39.32,0,0,1-3.71,7.1c-1.61,2.23-4.86,6.53-8.08,5.3-.13-.05-.2.14-.1.22Z"/><path class="cls-1" d="M73.69,47.07a2.87,2.87,0,0,0-1.87-1.13,2.45,2.45,0,0,0-2,.32.1.1,0,0,0,.07.18,10.22,10.22,0,0,1,1.84-.11,4.11,4.11,0,0,1,1.77.91c.11.08.26-.07.19-.17Z"/><path class="cls-1" d="M71.22,44.1c-.39.47,0,.92.49,1.14a3.07,3.07,0,0,0,2.58.1c.1-.07.12-.27,0-.3-.48-.08-1,0-1.46,0-.33,0-1.74-.27-1.48-.85,0-.06-.06-.08-.09,0Z"/><path class="cls-1" d="M74.71,45.25c3.57-1.55,5.5-5,6.68-8.47,1.52-4.5,3.17-9.41,3.62-14.14,0-.25-.35-.29-.43-.07-1.34,3.82-2,7.94-3.09,11.84a19.47,19.47,0,0,1-6.88,10.7c-.08.07,0,.17.1.14Z"/><path class="cls-1" d="M84.64,22.4c.53-.73,1.27-2.16,2.74-1.09.47.34.59,1.68.83,2.23a11.26,11.26,0,0,0,1.92,2.87C93.36,30.27,94,34,94.53,38.8c0,.15.26.23.3.05A12.78,12.78,0,0,0,94,31.71c-1.29-3.42-4.26-5.74-5.53-9.07-1.07-2.8-3.41-4.2-3.85-.25a0,0,0,0,0,0,0Z"/><path class="cls-1" d="M94.33,39c-1.72,7.43-7.72,13.55-12.28,19.43-.2.24.19.53.42.33A45.38,45.38,0,0,0,90,49.14c1.86-3,4.26-6.56,4.39-10.14,0-.06-.09-.07-.1,0Z"/><path class="cls-1" d="M81.42,59.86a4.76,4.76,0,0,0-.19,1.53.33.33,0,0,0,.21.22c1.84.63,4.15-2.45,5.13-3.66a104.17,104.17,0,0,0,6.8-10.22.14.14,0,0,0-.22-.17c-2.27,1.88-3.54,4.74-5.09,7.18a27.56,27.56,0,0,1-2.57,3.52c-.34.38-3.79,3.5-3.55,1.83,0-.14-.13-.27-.26-.28h-.2a.05.05,0,0,0-.06,0Z"/><path class="cls-1" d="M93.61,47.43a22.27,22.27,0,0,0,4-13.73c0-.14-.21-.19-.25,0-.66,2.15-.7,4.46-1.23,6.66a24.88,24.88,0,0,1-2.86,6.94c-.11.18.16.34.29.17Z"/><path class="cls-1" d="M97.45,34.17c1.15-1.55,2.41,1.35,2.65,1.81s.54,1.06.78,1.6A31.64,31.64,0,0,1,102.22,42a.19.19,0,0,0,.36,0,8.37,8.37,0,0,0-.86-3.79A16.39,16.39,0,0,0,99.56,34c-.58-.69-2.17-1.17-2.27.14,0,.09.11.11.16.05Z"/><path class="cls-1" d="M102.46,42.5c-1.52,3.19-2.57,6.7-3.95,10-.15.36.47.64.64.29a38.47,38.47,0,0,0,3.64-10.16c0-.17-.26-.25-.33-.1Z"/><path class="cls-1" d="M79.51,62.2c-3.88,2.09-8,3.34-12,5.15-2.16,1-5.35,2.43-4.34,5.23.07.21.42.22.42,0-.07-3.93,6-5.36,8.92-6.5a28.1,28.1,0,0,0,7.23-3.55c.17-.12,0-.38-.21-.29Z"/><path class="cls-1" d="M63.35,72.75c1.76,2.22,6-1.35,7.67-2.32a27.58,27.58,0,0,0,9.26-8c.17-.25-.23-.49-.4-.25A26.44,26.44,0,0,1,72.51,69c-1.51,1-7.28,5.24-9,3.61a.08.08,0,1,0-.12.11Z"/><path class="cls-1" d="M82.83,57.59c-.39.7-2.36,2.86-.78,3.48.08,0,.12-.07.08-.13-1-1.22.63-2.14.83-3.3,0-.07-.09-.13-.13,0Z"/><path class="cls-1" d="M87.45,62c-4.19,3.6-8.18,8.9-13.56,10.75a.17.17,0,0,0,.08.33c2.36-.39,4.16-2,5.83-3.55,2.6-2.44,5.18-5,7.66-7.52,0,0,0,0,0,0Z"/><path class="cls-1" d="M88.47,60.74c4.91-4.49,7.64-11.5,9.79-17.59a.09.09,0,0,0-.16-.08c-1.4,2.78-2.39,5.73-3.7,8.55-1.58,3.41-3.88,6-6,9.06,0,0,0,.1.07.06Z"/><path class="cls-1" d="M78.5,93.44c1.25.49,2.35-.44,3.43-1a27.22,27.22,0,0,0,4.38-2.69c.08-.06,0-.21-.09-.17a21.18,21.18,0,0,0-3.55,1.73c-1.08.61-2.86,2.18-4.16,2.11,0,0,0,0,0,0Z"/><path class="cls-1" d="M86.92,89.3c3-1.51,5.92-3,8.86-4.51,0,0,0-.1,0-.08a42.16,42.16,0,0,0-8.94,4.39.11.11,0,0,0,.11.2Z"/><path class="cls-1" d="M103.88,73.52A55,55,0,0,1,100,80.71a9.32,9.32,0,0,1-3.34,2.86,4.15,4.15,0,0,0-1.4,1.2c0,.06,0,.14.11.09,1.6-1.61,3.5-2.06,4.8-4A45.37,45.37,0,0,0,104,73.56s-.06-.09-.08,0Z"/><path class="cls-1" d="M100,82.29a8.57,8.57,0,0,0-2,1.3,15.22,15.22,0,0,0-2.39,1.82s0,.13.08.1A13,13,0,0,0,98,84,9.94,9.94,0,0,0,100,82.33s0,0,0,0Z"/><path class="cls-1" d="M100.55,82.43c-.53.52-1.08,1-1.65,1.49s-1.23.83-1.81,1.29c-.11.08,0,.23.13.18a10.15,10.15,0,0,0,3.44-2.87c0-.06,0-.14-.11-.09Z"/><path class="cls-1" d="M103.89,80.53c-1.48,3.71-4.52,7.4-8.55,8.36a.07.07,0,0,0,0,.14,7.42,7.42,0,0,0,5.12-2.79,14.27,14.27,0,0,0,3.44-5.7s0,0,0,0Z"/><path class="cls-1" d="M94,89.76c-6.39,1.34-11.29,5.8-17.12,8.42-.11,0,0,.21.07.17,6.17-1.93,10.68-6.78,17.09-8.43a.08.08,0,1,0,0-.16Z"/><path class="cls-1" d="M100.39,52.17c-1.17.37-2.58,1.52-2.69,2.79,0,.08.12.14.17.08.39-.46.65-1,1.07-1.43a6.31,6.31,0,0,1,1.57-1.14.16.16,0,0,0-.12-.3Z"/><path class="cls-1" d="M100.68,52.57a1.33,1.33,0,0,0-.92-.14c-.25.06-.6.21-.69.48a.07.07,0,0,0,.09.09,5.27,5.27,0,0,1,.63-.31,1.35,1.35,0,0,1,.82,0c.08,0,.14-.1.07-.14Z"/><path class="cls-1" d="M101.53,52.76l-.43-.2s0,0,0,0,.27.16.41.24.11-.06,0-.09Z"/><path class="cls-1" d="M90.21,105.37c6.21-1.21,14.84.65,19.7-4.35,0,0,0-.13-.09-.08-5.86,4.48-13,2.36-19.62,4.39a0,0,0,0,0,0,0Z"/><path class="cls-1" d="M115,96.81a24,24,0,0,0-2.71,2.11c-1,.81-2,1.59-2.95,2.44-.11.11,0,.26.17.17,1-.72,1.87-1.52,2.8-2.29a24.69,24.69,0,0,0,2.74-2.36s0-.1,0-.07Z"/><path class="cls-1" d="M114.47,95.84a22.82,22.82,0,0,1-2.44,2c-.8.55-1.73.9-2.51,1.46a.09.09,0,0,0,.06.16,8.23,8.23,0,0,0,2.59-1.43,12.06,12.06,0,0,0,2.39-2.17s0-.12-.09-.07Z"/><path class="cls-1" d="M114.9,94.38a21.17,21.17,0,0,1-4.42,3.07c-.06,0,0,.14,0,.12A10.48,10.48,0,0,0,115,94.44a0,0,0,0,0-.06-.06Z"/><path class="cls-1" d="M114.76,93.38a8.68,8.68,0,0,1-1.63,1.45c-.57.38-1.21.57-1.8.9a.08.08,0,0,0,.06.15,5.71,5.71,0,0,0,3.48-2.42c0-.06-.06-.14-.11-.08Z"/><path class="cls-1" d="M114.52,92.68a13,13,0,0,0-1.21.89,5.56,5.56,0,0,0-1.11,1c-.06.08,0,.16.12.13a5.58,5.58,0,0,0,1.13-.87,11.43,11.43,0,0,0,1.13-1.07.05.05,0,0,0-.06-.08Z"/><path class="cls-1" d="M47.8,93.93a22.48,22.48,0,0,0-7.3-4.78,48.45,48.45,0,0,0-5-1.8c-1.91-.59-4.51-.94-6-2.39-.07-.07-.21,0-.14.1,1.43,2,4.83,2.22,7,2.94a40.36,40.36,0,0,1,11.35,6s0,0,0,0Z"/><path class="cls-1" d="M28.43,84.12c-5.2-4.43-9.25-9.71-13.39-15.07-4.73-6.13-9.31-11.81-8.61-19.9,0-.15-.22-.18-.27,0C4.09,55.68,8.73,62,12.61,66.93c4.74,6,9.27,12.88,15.69,17.34.09.06.21-.08.13-.15Z"/><path class="cls-1" d="M6,50a17.69,17.69,0,0,1,4.27-6.4c.06-.07,0-.19-.1-.14a10.48,10.48,0,0,0-4.26,6.51c0,.06.07.09.09,0Z"/><path class="cls-1" d="M10.64,43.58c4.39,6.94,8.9,13.67,12.92,20.84a16.4,16.4,0,0,0,5.48,6c3.06,2,6.22,3.38,8.88,5.92.11.1.31,0,.22-.16-1.48-2.4-3.89-3.66-6.33-5a19,19,0,0,1-8.11-8c-3.77-6.79-7.76-13.83-12.79-19.82-.12-.14-.37,0-.27.19Z"/><path class="cls-1" d="M39.66,76.32a19.19,19.19,0,0,0,5.27,1.79c3.1.54,6.21.17,8.73,2.41.3.27.76-.14.47-.43a7.93,7.93,0,0,0-5-2c-3.26-.37-6.3-.58-9.36-1.87-.09,0-.15.11-.07.15Z"/><path class="cls-1" d="M29.68,73.7c-.65-.24-1.56-1.37-2.34-.88-.95.6.08,2.16.44,2.73,1.62,2.55,4.85,4.69,8,4.46.1,0,.15-.16,0-.18-2.48-.48-4.64-1.12-6.48-2.94a10,10,0,0,1-1.24-1.52c-.45-.68-1.05-1.22-.28-1.84s.41-.29,1.12,0a1.72,1.72,0,0,0,.73.19,0,0,0,1,0,0,0Z"/><path class="cls-1" d="M29.82,74c2,1,7,3.1,6.19,5.93a.07.07,0,0,0,.12.06c1.6-2.68-4.49-5.5-6.23-6.14-.09,0-.16.11-.08.15Z"/><path class="cls-1" d="M3.39,79.76a27.07,27.07,0,0,1,2,1.9c.64.65,1.17,1.41,1.84,2a.12.12,0,0,0,.19-.13,10.48,10.48,0,0,0-3.95-3.84s-.06,0,0,.05Z"/><path class="cls-1" d="M4.16,80.87c.57.77,1.21,1.49,1.84,2.21a9.62,9.62,0,0,0,1.8,1.86.08.08,0,0,0,.12-.1,9.3,9.3,0,0,0-1.67-2c-.65-.71-1.29-1.41-2-2.07-.06-.06-.14,0-.09.09Z"/><path class="cls-1" d="M5.82,81.92A18.53,18.53,0,0,0,7.28,84,6.47,6.47,0,0,0,9,85.83c.08,0,.19,0,.17-.11a5.62,5.62,0,0,0-1.3-1.88,19.37,19.37,0,0,0-1.92-2c-.07-.07-.21,0-.15.11Z"/><path class="cls-1" d="M6.39,83a46.41,46.41,0,0,0,3.87,4.64c.06,0,.16,0,.12-.08A45.32,45.32,0,0,0,6.5,82.91c-.06-.07-.17,0-.11.11Z"/><path class="cls-1" d="M38.87,98.55a7,7,0,0,0-4.58-1.78.23.23,0,0,0-.21.15c-.16.75.44,1.18,1.11,1.44a7.32,7.32,0,0,0,3.89.47.1.1,0,0,0,0-.19c-.58-.13-1.18-.09-1.78-.17s-2.35-.28-2.56-1c-.24-.3-.18-.38.19-.25a6,6,0,0,1,.74.13,6.33,6.33,0,0,1,.94.28,12.48,12.48,0,0,1,2.16,1c.07,0,.16-.06.1-.12Z"/><path class="cls-1" d="M38.79,102.22c-6-2.31-11.61-4.67-16.92-8.25-5-3.38-9.87-7-14.93-10.3a.16.16,0,0,0-.18.27c5.17,3.8,10.51,7.48,15.89,11a51.43,51.43,0,0,0,16.1,7.39.06.06,0,0,0,0-.11Z"/><path class="cls-1" d="M49.26,71c-2.38-.56-3.74-2.07-5.63-3.44-1.21-.89-2.65-1.65-4.16-1.14a.14.14,0,0,0,0,.27c2.51.25,3.88,1.46,5.74,3a5.82,5.82,0,0,0,4,1.69c.18,0,.26-.28.06-.33Z"/><path class="cls-1" d="M39.17,67.85a4,4,0,0,0,1.29,2.61,18.34,18.34,0,0,0,3,3.35,5.68,5.68,0,0,0,5.67.72s0-.07,0-.06a6.46,6.46,0,0,1-6.35-1.83c-1.24-1.28-2.94-3.11-3.43-4.81a.08.08,0,0,0-.15,0Z"/><path class="cls-1" d="M49.65,71.33a2.41,2.41,0,0,1,.08,1.61A3.71,3.71,0,0,1,49,74.11a.09.09,0,0,0,.1.13c1.15-.42,1.35-2.1.75-3a.1.1,0,0,0-.18.1Z"/><path class="cls-1" d="M51.94,63.92a1,1,0,0,0-1.72-.58,1.57,1.57,0,0,0,.5,2.4c.68.42,2,.58,2.4-.26s-.76-1.57-.89-2.4c0-.1-.17-.1-.19,0a1.2,1.2,0,0,0,.31,1.1c.34.49.71,1.2-.18,1.38a1.64,1.64,0,0,1-1.77-.93,1,1,0,0,1,.26-1,.77.77,0,0,1,1.21.34s.07,0,.07,0Z"/><path class="cls-1" d="M64.71,42.75a5.09,5.09,0,0,0-4.24,1.65c-.63.65-1.56,2.23-.42,2.86.18.1.42-.09.31-.28-.69-1.13.34-2.21,1.25-2.86A7.71,7.71,0,0,1,64.74,43c.14,0,.1-.22,0-.24Z"/><path class="cls-1" d="M60.33,47.46c2.54.55,5.4-1.81,4.45-4.47-.06-.16-.34-.16-.33,0a3.59,3.59,0,0,1-4.09,4.22.11.11,0,0,0,0,.21Z"/><path class="cls-1" d="M68.67,28.71a45.56,45.56,0,0,1-4.76,5.44,0,0,0,0,0,0,.06,17,17,0,0,0,4.78-5.46s0-.07-.06,0Z"/><path class="cls-1" d="M68.09,31c-1.25,1.49-2.85,2.57-4.22,3.93-.07.06,0,.17.1.13a10.74,10.74,0,0,0,4.14-4.05s0,0,0,0Z"/><path class="cls-1" d="M68.78,31.79c-.62.6-1.23,1.21-1.87,1.77a23,23,0,0,0-2,1.63c-.05.06,0,.17.08.14a6.18,6.18,0,0,0,2.07-1.44,9.47,9.47,0,0,0,1.77-2.07s0-.05,0,0Z"/><path class="cls-1" d="M73.93,8.47c-.65,3.11-.89,6.27-1.65,9.37a80.48,80.48,0,0,1-3,9.06c-.07.18.22.26.29.08C72,21.36,74.17,14.66,74.15,8.51c0-.12-.19-.17-.22,0Z"/><path class="cls-1" d="M74.18,7.56a2.32,2.32,0,0,1-.13-.37c0-.62.55-.44.92-.25a9.58,9.58,0,0,1,1.19.71,27.85,27.85,0,0,1,2.17,2,.08.08,0,0,0,.12-.09,7.48,7.48,0,0,0-3.82-3.13c-1-.35-1.23.55-.63,1.2.06.07.22,0,.18-.1Z"/><path class="cls-1" d="M79.66,12.39c.88,6.09-1,10.9-3.12,16.49-2.05,5.33-3.85,10.61-7.17,15.33-.13.19.16.35.29.18,3.83-4.85,5.49-10.88,7.54-16.58,1.82-5.08,3.94-10,2.49-15.43,0,0,0,0,0,0Z"/><path class="cls-1" d="M86.8,22.83c-1.58-.51-1.69,4.57-1.65,5.39a.06.06,0,0,0,.12,0c.12-.76.3-5.28,1.5-5.21a.1.1,0,0,0,0-.19Z"/><path class="cls-1" d="M84.67,30.72C82,37.47,80.32,43.77,74.42,48.52c-.12.09,0,.24.14.19,2.93-1.26,4.83-4.18,6.17-6.91a44,44,0,0,0,4-11c0-.07-.08-.1-.1,0Z"/><path class="cls-1" d="M60.2,67.43c-.72-.11-.3,0,0-.24a6.36,6.36,0,0,1,1-.45,21.82,21.82,0,0,0,2-1.11A8.59,8.59,0,0,0,66,63.06a.16.16,0,0,0-.21-.22c-1,.63-1.84,1.54-2.78,2.26a20.39,20.39,0,0,1-3.7,2.22c-.09,0-.05.19,0,.18h.8c.05,0,.05-.07,0-.07Z"/><path class="cls-1" d="M56.78,69.68A8.12,8.12,0,0,0,60,68.86c.84-.39,2-.9,2.43-1.77.08-.17-.12-.32-.27-.29a12.19,12.19,0,0,0-2.53,1.41c-.95.47-2,.76-2.94,1.17-.15.06-.08.3.07.3Z"/><path class="cls-1" d="M58.05,68.67a16.53,16.53,0,0,0,4.49-2,.31.31,0,0,0-.3-.55c-1.45.74-2.82,1.64-4.26,2.39-.1.05,0,.22.07.18Z"/><path class="cls-1" d="M61.71,67.77c1-.74,1.92-1.5,2.82-2.33a14.61,14.61,0,0,0,2.3-2.35c0-.07,0-.13-.1-.09-.91.69-1.67,1.61-2.52,2.38s-1.71,1.55-2.59,2.29c-.07.06,0,.15.09.1Z"/><path class="cls-1" d="M65.22,63.82C72,59.67,78.44,55.59,82,48.3c0-.09-.09-.18-.15-.08-2.12,3.57-4.11,6.68-7.57,9.19-3,2.17-6.15,4.09-9.09,6.31-.06,0,0,.14.07.1Z"/><path class="cls-1" d="M82.82,47.37A43.58,43.58,0,0,0,85.75,40s0-.06-.06,0c-1,2.44-2,4.9-2.94,7.35,0,0,0,.06.07,0Z"/><path class="cls-1" d="M87.57,38c-1.15,2-2.23,4-3.23,6-.08.15.15.3.23.14,1.09-2,2.12-4.06,3.05-6.15,0,0,0,0-.05,0Z"/><path class="cls-1" d="M89.3,28a16.24,16.24,0,0,1,3.75,9.71.07.07,0,0,0,.14,0A12.17,12.17,0,0,0,89.36,28s-.1,0-.06.07Z"/><path class="cls-1" d="M92.84,40.43c-2.31,3.64-4.29,7.46-6.7,11-1.73,2.56-4.18,5-4.4,8.2,0,.19.32.26.35.06.7-3.58,3.34-6.46,5.26-9.49a105.8,105.8,0,0,0,5.57-9.76s0-.1-.08,0Z"/><path class="cls-1" d="M53.89,70a112.15,112.15,0,0,1-10.8-7.22c-.06,0-.13,0-.08.1,3,3.05,7,5.38,10.74,7.34.15.08.3-.14.14-.22Z"/><path class="cls-1" d="M42.25,62a3.69,3.69,0,0,0-1.41-1.52s0,0,0,0A3.76,3.76,0,0,1,42.23,62s0,0,0,0Z"/><path class="cls-1" d="M39.25,58.7c-3.91-2.93-6.07-7.11-8.41-11.22C28.3,43,25.39,39.35,24.47,34.2c0-.1-.17-.06-.16,0,.61,5.46,4.13,9.51,6.75,14.18,2.18,3.89,4.3,7.78,8.17,10.3,0,0,0,0,0,0Z"/><path class="cls-1" d="M24,28.33c-3,1.93-5.56,6-5.32,9.64,0,.21.36.31.41.07a19.34,19.34,0,0,1,1.52-5.26,16.82,16.82,0,0,1,3.49-4.3c.07-.07,0-.2-.1-.15Z"/><path class="cls-1" d="M18.66,38.9C20,43.12,23,46.56,25.12,50.38c.06.11.27.08.26-.06-.14-1.69-1.31-3-2.29-4.31a63.42,63.42,0,0,1-4.3-7.16c0-.06-.16,0-.13,0Z"/><path class="cls-1" d="M24.8,50.48c.8,1.93.45,4.21,1.39,6.06.7,1.39,2.09,2.17,3.13,3.26s1.9,2.6,3.25,3.55C34.35,64.61,36.45,65,38,66.69c.3.32.8-.15.5-.46A11.24,11.24,0,0,0,35.07,64a15.63,15.63,0,0,1-5-4.18c-1.75-1.93-3.47-2.75-4-5.57-.26-1.49-.24-2.62-1.25-3.77,0,0-.05,0,0,0Z"/><path class="cls-1" d="M24.45,29.29c1.69-3.09,4,3.86,4,3.74a12.15,12.15,0,0,0,1.07,2.76c1.19,1.82,3.41,3.19,4.82,4.92C36.9,43.92,39.63,49,44.05,50c.23,0,.43-.28.18-.4-3.24-1.7-5.29-4.13-7.54-6.92-1-1.29-2.07-2.61-3.2-3.83-1.58-1.69-3.23-2.67-4.3-4.89-.4-.82-3.13-8.57-4.79-4.64,0,0,0,.05.05,0Z"/><path class="cls-1" d="M44.07,49.55c-1-2.6-3.41-4-5.2-6.09C36.75,41,35.58,38,33.39,35.58,31,33,28.36,30.94,26.47,28A25,25,0,0,1,23,16.9c0-.13-.21-.15-.22,0-.29,6.44,2.95,11.84,7.5,16.23A52.08,52.08,0,0,1,37.37,42c1.9,2.81,5,4.58,6.5,7.64.07.13.26,0,.2-.11Z"/><path class="cls-1" d="M23.05,16.92a8.54,8.54,0,0,1,1.54-2.1c.59-.57,1.32-.94,1.93-1.48a.13.13,0,0,0-.12-.22c-1.64.34-3.06,2.24-3.55,3.71a.11.11,0,0,0,.2.09Z"/><path class="cls-1" d="M27,13.34c2.35,6.14,5.12,11.15,10.26,15.37a18,18,0,0,1,3.6,3.69,44.43,44.43,0,0,0,2.51,4.07,4.36,4.36,0,0,0,4.55,1.7c.28-.07.17-.45-.11-.42-4.15.43-5-4.1-7-6.54a36.85,36.85,0,0,0-5-4.42C31.5,23.13,30,18,27.26,13.25c-.07-.13-.31-.05-.25.09Z"/><path class="cls-1" d="M48.23,37.93C48.92,27.41,26.69,18.81,35.55,8.1c.16-.19-.15-.41-.32-.27-3.88,3.31-2.06,8.79.48,12.3,1.83,2.54,4,4.86,6,7.23,2.67,3.11,6.15,6.22,6.16,10.56a.16.16,0,0,0,.31,0Z"/><path class="cls-1" d="M35.28,8.21a4,4,0,0,1,1.89-1L37,6.86a7.21,7.21,0,0,0-1.74,1.37A4.42,4.42,0,0,0,34,9.84c0,.09.09.21.18.15a11.66,11.66,0,0,0,1.39-1.42c.52-.51,1.14-.9,1.65-1.4a.2.2,0,0,0-.18-.33,2.47,2.47,0,0,0-1.87,1.33s0,.06.07,0Z"/><path class="cls-1" d="M37.24,6.71c.94,2.89,2.62,5.48,3.57,8.38.87,2.64,1.3,5.34,2.5,7.88,1.84,3.9,4.43,9,9,10.12A.37.37,0,0,0,52.7,33l.15-.18a.31.31,0,0,0-.05-.48l0,0a.3.3,0,0,0-.42.39,5.9,5.9,0,0,0-2.15-1.33,10.26,10.26,0,0,1-1.93-1.79,21.7,21.7,0,0,1-2.08-3,31.2,31.2,0,0,1-3.46-7.23c-1.39-4.52-2.61-8.74-5.42-12.7,0,0-.08,0-.06,0Z"/><path class="cls-1" d="M52.5,33.1c1.48-1.37,1.17-4.53-.08-6a.13.13,0,0,0-.21.12,10,10,0,0,1,.63,3A26.86,26.86,0,0,1,52.32,33a.11.11,0,0,0,.18.08Z"/><path class="cls-1" d="M66.34,63.59c.12-.12.23-.25.35-.38.28-.25-.13-.69-.42-.43a36.31,36.31,0,0,1-2.88,2.52c-.88.65-2.23,1.12-2.88,2a.21.21,0,0,0,.18.32c1.1,0,2.22-1,3.08-1.65a14.05,14.05,0,0,0,3-2.8l-.54-.25a1.31,1.31,0,0,1-.17.54c-.08.19.21.29.32.14Z"/><path class="cls-1" d="M66.8,62.84c-2.07,1.54-4,3.22-6,4.86l.4.41a27.86,27.86,0,0,1,5.67-5,59.7,59.7,0,0,0,5.35-3.47.14.14,0,0,0-.13-.23A29.93,29.93,0,0,0,60.78,67.7a.29.29,0,0,0,.4.41c2-1.64,4-3.26,5.88-5,.18-.17-.07-.41-.26-.27Z"/><path class="cls-1" d="M74,58.26a29.74,29.74,0,0,0-5.78,4,.13.13,0,0,0,.16.21A29.69,29.69,0,0,0,74,58.27Z"/><path class="cls-1" d="M25.33,27.77c-1.56.26-2.06,1.13-3,2.27S19.88,32,19.1,33.22c-1.32,2.13-2,6.5.14,8.3.12.09.28,0,.21-.15-1.23-2.69-1.27-6.1.9-8.3,1.36-1.37,3.28-4.45,5.08-4.9.26-.06.16-.44-.1-.4Z"/><path class="cls-1" d="M18.68,36.5c-.37,1.16-.25,3.2.67,4.11a.18.18,0,0,0,.31-.17c-.09-.62-.42-1.19-.56-1.8a11.36,11.36,0,0,1-.16-2.1c0-.14-.22-.19-.26,0Z"/><path class="cls-1" d="M19,36.46c-1.9,3,1.22,6.86,3,9.19.11.14.3,0,.28-.14-.63-3.31-4.29-5.12-3.07-8.94a.13.13,0,0,0-.24-.11Z"/><path class="cls-1" d="M46.18,52.15a27.52,27.52,0,0,0,7.61,7.25,0,0,0,1,0,.05-.07,46.48,46.48,0,0,1-7.61-7.22s-.07,0,0,0Z"/><path class="cls-1" d="M48.08,52.81a18.56,18.56,0,0,0,6.39,6,.05.05,0,1,0,.05-.09,33.26,33.26,0,0,1-6.38-5.93s-.09,0-.06.05Z"/><path class="cls-1" d="M49.86,53.36c.72.77,1.48,1.51,2.24,2.26a16.32,16.32,0,0,0,2.09,2,.05.05,0,0,0,.07-.08,16.05,16.05,0,0,0-2-2c-.77-.74-1.52-1.49-2.31-2.21-.06-.05-.15,0-.09.09Z"/><path class="cls-1" d="M50.44,52.42c.69.7,1.38,1.41,2,2.14s1.19,1.58,1.87,2.27a.06.06,0,0,0,.1-.07,16.77,16.77,0,0,0-3.91-4.41c-.06-.05-.14,0-.09.07Z"/><path class="cls-1" d="M51.35,52.18c.55.59,1.12,1.16,1.68,1.73a10.61,10.61,0,0,0,1.58,1.49s.08,0,.06,0a10.11,10.11,0,0,0-1.49-1.58c-.58-.56-1.14-1.13-1.73-1.68-.06-.06-.16,0-.1.09Z"/><path class="cls-1" d="M52.59,52.24c.38.36.74.72,1.09,1.11s.63.82,1,1.18a.06.06,0,0,0,.1-.08,8.79,8.79,0,0,0-2.09-2.3c-.06-.06-.16,0-.1.09Z"/><path class="cls-1" d="M53.82,52.88a17.07,17.07,0,0,0,1.27,1.87,0,0,0,0,0,.07,0,16.8,16.8,0,0,0-1.22-1.88c0-.07-.16,0-.12.06Z"/><path class="cls-1" d="M54.77,52.24a29.59,29.59,0,0,0-.28,7.22.07.07,0,0,0,.13,0,69.5,69.5,0,0,0,.27-7.21.06.06,0,0,0-.12,0Z"/><path class="cls-1" d="M54.41,52.83a18.48,18.48,0,0,1-.2,6.59.13.13,0,0,0,.26.07,10.46,10.46,0,0,0,0-6.68,0,0,0,1,0-.09,0Z"/><path class="cls-1" d="M54.87,52.05c-.16,2.3-.39,4.68-.43,7,0,.1.16.13.18,0a21,21,0,0,0,.42-7,.09.09,0,0,0-.17,0Z"/><path class="cls-1" d="M54.87,52.66a35.17,35.17,0,0,0-.17,6,.08.08,0,0,0,.15,0,36,36,0,0,0,.19-6,.09.09,0,0,0-.17,0Z"/><path class="cls-1" d="M54.89,53.08c-.12,1.49-.15,3-.2,4.47a.12.12,0,0,0,.23,0c.08-2.65.3-5.33.22-8a.1.1,0,0,0-.19,0c-.24,2.64-.18,5.33-.26,8a.12.12,0,0,0,.23,0c0-1.49.1-3,.06-4.48,0-.06-.08-.06-.09,0Z"/><path class="cls-1" d="M47.48,4.36a5.76,5.76,0,0,0-.69,3.74s.07,0,.07,0a8.76,8.76,0,0,1,.77-3.67c0-.08-.1-.15-.15-.07Z"/><path class="cls-1" d="M46.7,10.26c2,5.91,4.74,11.44,5.81,17.65,0,.15.24.09.23-.05-.7-6.06-3.36-12.13-6-17.63,0-.05-.1,0-.08,0Z"/><path class="cls-1" d="M47.92,4.34a23.73,23.73,0,0,1,9.61-2.6.12.12,0,0,0,0-.24,15.38,15.38,0,0,0-9.67,2.76s0,.11.06.08Z"/><path class="cls-1" d="M58.89,7.64c-.43,3.26-.91,6.57-1.08,9.85a0,0,0,0,0,.09,0c.52-3.25.76-6.58,1-9.86,0,0,0,0,0,0Z"/><path class="cls-1" d="M59,13.62a36.71,36.71,0,0,1-.39,4.31c0,.12.19.16.22,0a14.78,14.78,0,0,0,.29-4.35.06.06,0,1,0-.12,0Z"/><path class="cls-1" d="M60.24,14a26,26,0,0,0-.59,3.71c0,.1.16.13.18,0a25.75,25.75,0,0,0,.56-3.71c0-.08-.14-.11-.15,0Z"/><path class="cls-1" d="M64.56,4.17a9.21,9.21,0,0,1,2.51,4.31.13.13,0,0,0,.26-.06,7.8,7.8,0,0,0-2.77-4.26s0,0,0,0Z"/><path class="cls-1" d="M65.23,2.93a10.75,10.75,0,0,1,2.85,6.12L68.55,9a17.84,17.84,0,0,0-3.22-6.66l-.2.33C67.67,3.62,67.4,6.85,68,9a.1.1,0,0,0,.2,0c.14-2.32-.51-5.56-2.88-6.63-.15-.07-.41.08-.28.26a18.43,18.43,0,0,1,3.07,6.54c.06.25.5.22.47,0a9.16,9.16,0,0,0-3.16-6.28c-.11-.09-.26,0-.16.15Z"/><path class="cls-1" d="M67.48,5.63a11.12,11.12,0,0,1,.59,4.54c0,.18.25.18.27,0a8.25,8.25,0,0,0-.68-4.62c0-.11-.22,0-.18.07Z"/><path class="cls-1" d="M10.06,45.12a24.42,24.42,0,0,0-2.72,3.8,5.34,5.34,0,0,0,.21,4.18s0,0,0,0c-.44-1.8-.7-3.28.4-4.9.69-1,1.48-2,2.21-3,.06-.09-.08-.17-.14-.09Z"/><path class="cls-1" d="M7.79,54.73a32.29,32.29,0,0,0,4.53,8.74c2.19,3,5.32,5.39,7.14,8.65a43,43,0,0,0,5.72,8.58c1,1.11,3.54,4.75,5.21,4.68a.12.12,0,0,0,.12-.12V85a.1.1,0,0,0-.09-.1H30.2c-.08,0-.11.11,0,.13-1.29-.29-2.83-2.46-3.71-3.36a45,45,0,0,1-3.11-3.52c-1.92-2.47-2.9-5.42-4.73-7.9s-4.29-4.39-6.1-6.89a44.55,44.55,0,0,1-4.68-8.64s-.06,0,0,0Z"/><path class="cls-1" d="M25.63,82.1l.09-.17.25.22a5.62,5.62,0,0,1,.53.44l.95.76c.76.6,1.49,1.26,2.3,1.78.05,0,.12,0,.07-.08a42.88,42.88,0,0,0-4.29-3.42s-.08,0-.08,0a.34.34,0,0,0,.17.45,0,0,0,0,0,0,0Z"/><path class="cls-1" d="M25,80.71c.8.86,1.68,1.64,2.54,2.44a17.23,17.23,0,0,0,2.37,2.07c.07,0,.13,0,.09-.1a20.15,20.15,0,0,0-2.55-2.42c-.78-.7-1.55-1.42-2.38-2.06-.05,0-.1,0-.07.07Z"/><path class="cls-1" d="M24.59,79.74l.05-.08a0,0,0,0,0,0,0c-.11-.11-.08-.1-.23-.1s-.06,0-.06,0c-.25.71,1.13,1.71,1.57,2.13a8.89,8.89,0,0,0,2.8,2,.1.1,0,0,0,.1-.16c-.64-.65-1.5-1.12-2.2-1.72-.3-.25-2.2-1.74-2.05-2.14,0,0,0,0,0,0Z"/><path class="cls-1" d="M23.15,78.56a14.29,14.29,0,0,0,6.64,5.74.07.07,0,0,0,.05-.12c-1.25-.89-2.57-1.63-3.74-2.65a23.39,23.39,0,0,1-2.82-3.07c-.06-.06-.18,0-.13.1Z"/><path class="cls-1" d="M25.62,80.91a23.37,23.37,0,0,0,2.87,2.76,16.79,16.79,0,0,0,2.89,2.17c.06,0,.14,0,.08-.1-.93-.93-2.07-1.68-3.08-2.52s-1.79-1.6-2.73-2.35c0,0,0,0,0,0Z"/><path class="cls-1" d="M27.5,82.78a30.51,30.51,0,0,0,4,3.18c.09.06.19-.06.11-.13a31,31,0,0,0-4.06-3.12s-.09,0-.05.07Z"/><path class="cls-1" d="M28.47,83.47a6,6,0,0,0,3.12,2.62.09.09,0,0,0,.08-.16c-.56-.39-1.16-.68-1.7-1.1s-.95-1-1.46-1.39c0,0-.05,0,0,0Z"/><path class="cls-1" d="M29.08,84.33a7.91,7.91,0,0,0,4,2.53c.06,0,.12-.07.05-.11-.65-.37-1.35-.62-2-1a13.06,13.06,0,0,1-2-1.49c-.06-.06-.15,0-.09.08Z"/><path class="cls-1" d="M30,84.72a8.66,8.66,0,0,0,4.16,2.06c.06,0,.09-.08,0-.1-.69-.34-1.44-.53-2.13-.87a16.54,16.54,0,0,1-2-1.18c-.05,0-.12,0-.07.09Z"/><path class="cls-1" d="M30.28,85.08c2.38,1.5,5,1.92,7.69,2.63a22.2,22.2,0,0,1,9.39,5.2c.13.11.32-.06.2-.18a21.1,21.1,0,0,0-6.63-4.38c-3.47-1.41-7.26-1.59-10.6-3.34a0,0,0,0,0,0,.07Z"/><path class="cls-1" d="M38.54,88.19c2.52,1.4,4.9,3,7.42,4.42.07,0,.15,0,.09-.11a32.08,32.08,0,0,0-7.47-4.37,0,0,0,0,0,0,.06Z"/><path class="cls-1" d="M39.39,88.4a21.94,21.94,0,0,1,5.55,3.26c.46.4,1.72,1.43.33.26-.77-.64-1.73-1.15-2.56-1.71a17.51,17.51,0,0,1-2.55-1.72l-.14.12c.61.26,1.21.54,1.8.85s5.2,2.87,5,3.38c.19-.48-1.31-1.22-1.73-1.51a18.61,18.61,0,0,0-2.44-1.71c-.44.26.62.62.88.79a23.69,23.69,0,0,1,2.1,1.45,17.88,17.88,0,0,1,2.39,2c1,1.14-.28,0-.63-.25s-1.27-1.25-1.48-1.06c0,0,2.11,1.63,2.3,1.76s.17-.06.11-.12c-.89-.84-1.87-1.57-2.83-2.32-.12-.1-.27.09-.17.2A14.62,14.62,0,0,0,49,94.8a.13.13,0,0,0,.16-.19,25.37,25.37,0,0,0-7.07-5.43.17.17,0,0,0-.18.28c1.85,1.25,3.7,2.52,5.5,3.84.15.11.35-.12.21-.25a26.54,26.54,0,0,0-8.09-5c-.18-.07-.29.19-.14.29,2.37,1.53,4.72,3.11,7,4.7a.15.15,0,0,0,.19-.23,17,17,0,0,0-7.15-4.53c-.09,0-.13.1,0,.14Z"/><path class="cls-1" d="M46.17,92.55c-.16,0,.38.43.42.46l1,.8c.64.5,1.28,1,1.94,1.49l.11-.23a5.53,5.53,0,0,1-.79-.34s0,0,0,0a4.4,4.4,0,0,1,.69.51c.12.1.31-.07.19-.18-.59-.5-1.22-1-1.84-1.44l-1-.79c-.18-.13-.62-.58-.85-.57s-.18.37.16.35c.07,0,.07-.1,0-.1Z"/><path class="cls-1" d="M47,93.24c-.31-.23-.61-.46-.9-.72l-.14.16c1.4.89,2.67,1.92,4,2.86.11.08.24-.08.15-.18a16.33,16.33,0,0,0-4.07-2.86c-.13-.06-.24.11-.12.18.34.21.65.43,1,.66.07,0,.13,0,.07-.1Z"/><path class="cls-1" d="M46.8,92.81a.62.62,0,0,0-.71-.37c-.05,0-.08.1,0,.13a27.24,27.24,0,0,0,3.8,2.87c.07,0,.16-.06.1-.12a18.35,18.35,0,0,0-1.77-1.39c-.31-.24-.63-.47-.95-.7l-.48-.35-.24-.18c-.22-.16-.16-.11.19.16,0,.06.11,0,.09,0Z"/><path class="cls-1" d="M74.63,58.22l0-.13s0,0,0-.05c-.33-.11-.16,0-.52,0-.7.06-2.32,1.86-2.84,2.29-2,1.62-4,3.19-5.8,5-.09.09,0,.21.13.14,1.5-1.13,2.89-2.42,4.32-3.64l2-1.71a23.68,23.68,0,0,1,2.64-1.88s0,0,0,0Z"/><path class="cls-1" d="M70,61.44a33.67,33.67,0,0,0-2.73,2.2,34.11,34.11,0,0,0-2.94,2.56c-.08.08,0,.25.13.17a32.3,32.3,0,0,0,2.7-2.26c1-.85,2-1.68,2.88-2.61,0,0,0-.09,0-.06Z"/><path class="cls-1" d="M69,61.55c-.79.92-1.53,1.87-2.41,2.71s-1.93,1.49-2.82,2.32c-.09.08,0,.2.12.16a12.7,12.7,0,0,0,5.2-5.12c0-.06,0-.13-.09-.07Z"/><path class="cls-1" d="M69.6,60.88a39.14,39.14,0,0,1-3.86,3.76c-1.4,1.14-3,2-4.43,3.08-.11.08,0,.21.12.17,3.26-1.29,6.26-4.18,8.29-6.91,0-.07-.06-.16-.12-.1Z"/><path class="cls-1" d="M68.8,61.52a28.15,28.15,0,0,1-3,2.93,40.66,40.66,0,0,1-4,2.47c-.11.07,0,.27.09.23a15.13,15.13,0,0,0,7-5.52c.06-.08-.07-.18-.14-.11Z"/><path class="cls-1" d="M61,67.23c-1.37.24-2.75.46-4.13.69-.2,0-.12.33.07.3a12.43,12.43,0,0,0,4.1-1.34.08.08,0,0,0-.06-.14,38.61,38.61,0,0,1-4.11,1.18c0,.1.05.2.07.3,1.36-.3,2.72-.61,4.09-.89.07,0,0-.12,0-.1Z"/><path class="cls-1" d="M25.54,37.34a16.77,16.77,0,0,0,4.11,7.2s.09,0,.06,0a22.16,22.16,0,0,1-4.14-7.16s0,0,0,0Z"/><path class="cls-1" d="M26.41,37.21a13.22,13.22,0,0,0,3.78,6.84s.09,0,0,0a17.5,17.5,0,0,1-3.73-6.81.05.05,0,0,0-.1,0Z"/><path class="cls-1" d="M26.51,36.78a13.89,13.89,0,0,0,3.6,6.14c.06,0,.16,0,.12-.08-.63-.93-1.38-1.77-2-2.73a21.15,21.15,0,0,1-1.61-3.36c0-.08-.16-.06-.14,0Z"/><path class="cls-1" d="M27.52,37a14.22,14.22,0,0,0,3.17,5.54.06.06,0,0,0,.1-.07c-.53-.92-1.21-1.74-1.74-2.67S28.08,38,27.64,37a.06.06,0,0,0-.12,0Z"/><path class="cls-1" d="M24,29.28a5.78,5.78,0,0,0,.59,1.41,8.91,8.91,0,0,0,.8,1.53c.06.07.2,0,.17-.06a8.83,8.83,0,0,0-.68-1.5,6.47,6.47,0,0,0-.8-1.43,0,0,0,0,0-.08.05Z"/><path class="cls-1" d="M24.24,28.26a7,7,0,0,0,1.57,3.4c.07.05.19,0,.16-.09A13.65,13.65,0,0,0,25.15,30c-.29-.59-.51-1.2-.77-1.8,0-.09-.15,0-.14.05Z"/><path class="cls-1" d="M24.68,28.28c.27.62.58,1.22.89,1.82a7.11,7.11,0,0,0,.9,1.56c0,.05.12,0,.11-.06A7.07,7.07,0,0,0,25.81,30c-.32-.6-.64-1.2-1-1.77a.08.08,0,0,0-.14.07Z"/><path class="cls-1" d="M25.32,28.5c.3.62.64,1.23,1,1.83a9.41,9.41,0,0,0,1,1.56c.05.05.16,0,.13-.07a7.91,7.91,0,0,0-.87-1.62c-.37-.6-.73-1.19-1.14-1.76a.06.06,0,0,0-.1.06Z"/><path class="cls-1" d="M25.74,28.88a13.55,13.55,0,0,0,1,1.12,9.21,9.21,0,0,1,1,1.48,3.07,3.07,0,0,0,.26-.25c-.27-.16-.54-.34-.82-.48-.08,0-.17.05-.11.12.22.24.47.43.7.65s.41,0,.3-.22a5.66,5.66,0,0,0-2.28-2.51c-.05,0-.11.05-.08.09Z"/><path class="cls-1" d="M26.21,29.11c-.07-.14-.14-.28-.2-.43l-.33.18a8.64,8.64,0,0,1,1.44,1.58,7.12,7.12,0,0,1,.49.8l.18.37s.25.52.09.38-.16,0-.14.07a.35.35,0,0,0,.57.2.2.2,0,0,0,.1-.22A8,8,0,0,0,26,28.6a.19.19,0,1,0-.19.31l.35.26s.12,0,.09-.06Z"/><path class="cls-1" d="M25.89,28.75c1.54,2.54,2.78,5.14,4.12,7.78,0,.11.22,0,.2-.07A20.3,20.3,0,0,0,26,28.64c-.07-.08-.21,0-.15.11Z"/><path class="cls-1" d="M48.24,41.45a25,25,0,0,0,6.69,6.88s.11,0,.07-.07c-1.11-1.15-2.41-2.12-3.54-3.26s-2.15-2.36-3.16-3.6c0,0-.09,0-.06.05Z"/><path class="cls-1" d="M48.94,41.38c1.7,1.85,3.36,3.76,5.12,5.55.18.18.47.57.77.4a.26.26,0,0,0,.11-.42s-.13,0-.13,0c0,.25-.71-.35-.71-.35a7.75,7.75,0,0,1-.79-.83l-1.42-1.49L49,41.3s-.12,0-.08.08Z"/><path class="cls-1" d="M49.33,40.42C51,42.32,52.65,44.18,54.4,46a.12.12,0,0,0,.18-.16c-1.65-1.87-3.38-3.71-5.16-5.46a.06.06,0,0,0-.09.08Z"/><path class="cls-1" d="M49.65,39.33c.8,1,1.63,1.87,2.46,2.8a17.15,17.15,0,0,0,2.31,2.43s.12,0,.09-.08A17.65,17.65,0,0,0,52.29,42c-.84-.91-1.69-1.82-2.56-2.7a.05.05,0,0,0-.08.07Z"/><path class="cls-1" d="M51.53,39.6a16.52,16.52,0,0,1,1.62,1.62A20.56,20.56,0,0,0,54.56,43s.13,0,.11,0a6.18,6.18,0,0,0-1.3-1.79,15.45,15.45,0,0,0-1.77-1.66c-.05,0-.12,0-.07.09Z"/><path class="cls-1" d="M53,39.46c.29.37.6.72.91,1.06a4,4,0,0,0,.9.9.08.08,0,0,0,.11-.1,4.19,4.19,0,0,0-.83-1c-.32-.34-.65-.67-1-1a.06.06,0,0,0-.09.08Z"/><path class="cls-1" d="M54.05,38.86a7.33,7.33,0,0,0,.64.83,0,0,0,0,0,.07,0,8.1,8.1,0,0,0-.58-.86c0-.08-.19,0-.13.08Z"/><path class="cls-1" d="M34.55,9.39s0,0,0,0,0,0,0,0Z"/><path class="cls-1" d="M37.5,8.51c-1.61.36-3.17,1.82-3,3.56,0,0,.09,0,.09,0a4.11,4.11,0,0,1,2.9-3.5s0-.07,0-.06Z"/><path class="cls-1" d="M34.4,13.3C33.94,16.13,36.31,19,38,21.07a52.7,52.7,0,0,1,4.13,5c1.18,1.86,2.15,3.84,3.38,5.66a.09.09,0,0,0,.16-.08A38,38,0,0,0,41,23.82c-2.51-2.92-6.56-6.32-6.49-10.52a.07.07,0,0,0-.14,0Z"/><path class="cls-1" d="M59.16,74.68c.79-.43,1.63-.83,2.38-1.33,0,0,0-.08,0-.06-.82.37-1.6.87-2.39,1.31a0,0,0,0,0,0,.08Z"/><path class="cls-1" d="M61.47,73c-.8.48-1.56,1-2.37,1.46a21,21,0,0,0-2.19,1.2c-.06,0,0,.12.06.11a7.59,7.59,0,0,0,2.41-1.13,13.11,13.11,0,0,0,2.16-1.55.06.06,0,0,0-.07-.09Z"/><path class="cls-1" d="M60.91,74.34c-.71.31-1.5.46-2.21.81a7.45,7.45,0,0,0-2,1.4c-.19.2.07.46.29.3a13.35,13.35,0,0,1,2.41-1.58c.44-.2.89-.35,1.34-.51.22-.08.33-.1.44-.31a.08.08,0,0,0,0-.11c-.07-.1-.06-.08-.17-.13a.06.06,0,0,0-.06,0l-.06.06s0,.08,0,.06Z"/><path class="cls-1" d="M61.19,75.05a34.22,34.22,0,0,0-4.54,2.25.2.2,0,0,0,.19.35,34.89,34.89,0,0,0,4.46-2.41.11.11,0,0,0-.11-.19Z"/><path class="cls-1" d="M60.88,75.74c-.74.35-1.45.75-2.17,1.13A12.56,12.56,0,0,0,56.82,78c-.12.1,0,.32.14.27a12.75,12.75,0,0,0,1.94-1c.71-.4,1.43-.79,2.13-1.22a.15.15,0,0,0-.15-.26Z"/><path class="cls-1" d="M61,74.36a25.6,25.6,0,0,1-3.77,2.17c.08.13.15.26.22.39a15.57,15.57,0,0,0,3.74-2.5.21.21,0,0,0-.19-.35,9.73,9.73,0,0,0-4.47,2.36c-.21.19.08.48.3.31.89-.66,1.77-1.33,2.65-2,.18-.13,0-.37-.19-.34a4.73,4.73,0,0,0-2.59,1.21l.28.3a10.82,10.82,0,0,1,1.62-1.48c.21-.15,0-.4-.24-.33a4.79,4.79,0,0,0-1.49.9c-.21.17.07.45.29.3l1.51-1.1c.21-.15-.05-.41-.25-.33l-1.18.47.25.33,1.07-.91c.13-.11,0-.38-.13-.36a2.19,2.19,0,0,0-1.25.47l.28.3,1.64-1.47c.18-.16,0-.43-.24-.33a6.49,6.49,0,0,0-1.69,1.18l.32.26.78-1.17c.14-.21-.14-.39-.32-.26a4.7,4.7,0,0,0-1.33,1.48l.35.22L58,72a.21.21,0,0,0-.32-.26l-.84.71.33.21A6.12,6.12,0,0,0,57.55,69c0-.21-.39-.18-.38,0l.06,2.52c0,.28-.19,1.63.37,1.28s-.59-3.43-.7-3.77a.18.18,0,0,0-.34.09,14.39,14.39,0,0,1,.32,3.34c0,.19-.21,1.25-.1,1.36.39.4.32-.86.32-1.06a29.85,29.85,0,0,0-.44-5.25.18.18,0,0,0-.34,0,2.36,2.36,0,0,0,.07,1.51c.06.16.31.11.27-.06-.21-.77-.17-.71-.12,0s.16,1.59.19,2.39a27.21,27.21,0,0,1,0,3.13c0,.23.32.23.35,0a11.64,11.64,0,0,0,.11-4.12c-.19-.9-.3-.91-.23,0,.09,1,.3,2,.38,3.09,0,.22.37.24.36,0,0-1.47-.06-2.94-.1-4.41l-.38,0a5.42,5.42,0,0,1-.38,3.48c-.08.2.2.32.34.21s.56-.48.85-.71l-.32-.26-1.08,2c-.12.23.22.45.35.22a4.6,4.6,0,0,1,1.27-1.4l-.32-.26-.79,1.17a.21.21,0,0,0,.32.26A6.34,6.34,0,0,1,59,72.74l-.25-.34-1.63,1.47c-.21.19.07.46.28.3.45-.41.36-.35-.26.2-.2.17,0,.42.24.34l1.18-.47-.24-.34L56.83,75l.29.3a3.31,3.31,0,0,1,1.4-.84l-.24-.33a9.93,9.93,0,0,0-1.62,1.48.21.21,0,0,0,.28.3,4.38,4.38,0,0,1,2.41-1.12l-.19-.34-2.67,2,.3.31a9.16,9.16,0,0,1,4.27-2.28l-.19-.34a14.53,14.53,0,0,1-3.68,2.41c-.26.12,0,.51.22.39a16,16,0,0,0,3.74-2.31c.13-.11,0-.35-.19-.25Z"/><path class="cls-1" d="M57.33,57.69c-.25,3.15-.63,6.3-.82,9.45,0,.06.1.09.12,0a43.61,43.61,0,0,0,.74-9.47,0,0,0,1,0,0,0Z"/><path class="cls-1" d="M57.2,58.92c0,3.09-.17,6.18-.1,9.27a.06.06,0,0,0,.12,0,87,87,0,0,0,.05-9.28s-.07,0-.07,0Z"/><path class="cls-1" d="M57.59,61.41c0,2.52-.18,5.11,0,7.62,0,.06.09.07.09,0,.18-2.52,0-5.11-.07-7.63a0,0,0,0,0-.06,0Z"/><path class="cls-1" d="M61.18,76.75c-.9.52-1.77,1.07-2.68,1.58s-1.87.93-2.72,1.51c-.05,0,0,.14,0,.12a19.78,19.78,0,0,0,5.42-3.11c.06,0,0-.14-.07-.1Z"/><path class="cls-1" d="M60.92,78.2a21.09,21.09,0,0,0-3.24,1.67c-.44.26-1.58.68-1.6,1.26a.1.1,0,0,0,.07.1c.12,0,.12,0,.23,0s0,0,0-.07l0-.06s-.1,0-.1,0c0-.16,1.06-.71,1.23-.81.37-.24.75-.46,1.14-.68.76-.44,1.55-.83,2.32-1.26a.07.07,0,0,0-.06-.13Z"/><path class="cls-1" d="M60,79.68a23.5,23.5,0,0,0-4.23,2.26c-.07,0,0,.17.08.14A22.9,22.9,0,0,0,60,79.79c.07,0,0-.14-.06-.11Z"/><path class="cls-1" d="M57.24,89.49a28.07,28.07,0,0,0,11-4.94c.06,0,0-.12-.06-.09a52.24,52.24,0,0,1-11,4.88.08.08,0,1,0,0,.15Z"/><path class="cls-1" d="M73.74,82.14c-3.36,2.65-7.92,3.35-11.13,6.12a.11.11,0,0,0,.12.17c3.66-2,8.18-3.19,11.19-6.1.12-.12,0-.29-.18-.19Z"/><path class="cls-1" d="M73.41,82.24c-4.1,2.22-8.31,4.18-12.45,6.32-.08,0,0,.17,0,.14a41,41,0,0,0,12.52-6.3c.1-.07,0-.22-.12-.16Z"/><path class="cls-1" d="M70.15,83.9c-2.43,1.1-5,1.94-7.43,2.93-.1,0,0,.19.07.17a38.62,38.62,0,0,0,7.5-2.85c.17-.08,0-.33-.14-.25Z"/><path class="cls-1" d="M42.7,89c-.37-.68-.33-.84.1-.46l.61.41c.41.27.81.55,1.21.83.8.56,1.56,1.17,2.37,1.71.06,0,.14,0,.09-.1A27.36,27.36,0,0,0,42.28,88c-.06,0-.15,0-.13.09a2.31,2.31,0,0,0,.54.92s0,0,0,0Z"/><path class="cls-1" d="M39.6,87.59a20.46,20.46,0,0,1,7,3.87c.07.06.14,0,.09-.11a12.35,12.35,0,0,0-7-3.88.06.06,0,0,0,0,.12Z"/><path class="cls-1" d="M41.71,88.26c2.22,1.22,4.31,2.66,6.52,3.89.07,0,.16-.06.1-.12a30.85,30.85,0,0,0-6.56-3.87c-.06,0-.13.06-.06.1Z"/><path class="cls-1" d="M43.92,88.71a68.31,68.31,0,0,0,6,3.66.06.06,0,0,0,.07-.1,67.94,67.94,0,0,0-6-3.64s-.1.05,0,.08Z"/><path class="cls-1" d="M45.06,88.41c1.77,1.15,3.46,2.54,5.3,3.56.06,0,.13,0,.08-.09a28.27,28.27,0,0,0-5.35-3.52s-.07,0,0,0Z"/><path class="cls-1" d="M46.51,88.49a38.68,38.68,0,0,0,4.89,3.14c.06,0,.14,0,.08-.09a38.64,38.64,0,0,0-4.92-3.13c-.05,0-.1,0-.05.08Z"/><path class="cls-1" d="M48,88.54a23.08,23.08,0,0,0,4.9,3.17c.07,0,.11-.07,0-.12-1.5-1.15-3.27-2.14-4.88-3.15-.07,0-.13.06-.07.1Z"/><path class="cls-1" d="M49.23,88.58c.71.37,1.43.72,2.11,1.14s1.29.94,2,1.34a.06.06,0,0,0,.08-.09,9.86,9.86,0,0,0-4.11-2.49c-.06,0-.11.07-.05.1Z"/><path class="cls-1" d="M50.27,88.49a9.23,9.23,0,0,1,1.61.87c.46.31.83.73,1.29,1a.07.07,0,0,0,.1-.09,5.67,5.67,0,0,0-2.94-2c-.12,0-.16.13-.06.17Z"/><path class="cls-1" d="M50.3,87.81c.52.33,1,.64,1.55,1a13.94,13.94,0,0,0,1.53,1,.08.08,0,0,0,.09-.12,8.92,8.92,0,0,0-3.13-2c-.05,0-.09.06,0,.09Z"/><path class="cls-1" d="M50.93,87.25l1.3.94a5.26,5.26,0,0,0,1.2.78c.07,0,.11-.07.07-.12A4.94,4.94,0,0,0,52.35,88L51,87.09a.09.09,0,1,0-.1.16Z"/><path class="cls-1" d="M51.59,87.21a13.06,13.06,0,0,1,1.24.86,4.23,4.23,0,0,0,1,.76c.07,0,.13-.06.1-.12a2.72,2.72,0,0,0-.93-.85,8.22,8.22,0,0,0-1.32-.76.07.07,0,0,0-.07.11Z"/><path class="cls-1" d="M52.2,86.89c.36.26.73.53,1.08.82s.5.56.83.64a.08.08,0,0,0,.11-.1c-.09-.33-.48-.57-.75-.77a7.25,7.25,0,0,0-1.19-.72.08.08,0,1,0-.08.13Z"/><path class="cls-1" d="M53.21,86.84a1.43,1.43,0,0,0,.44,1.07c.05,0,.13,0,.09-.06a2.15,2.15,0,0,1-.38-1c0-.09-.16-.1-.15,0Z"/><path class="cls-1" d="M53.71,84.38c0,.2.11,1,.1,1.29,0,.66,0,1.32-.07,2-.06,1.23-.18,2.45-.28,3.67l.34,0-.14-.54a.06.06,0,0,0-.12,0l-.08.55c0,.22.32.23.35,0a42.84,42.84,0,0,0,.33-4.8c0-.67.27-1.83-.2-2.4a.12.12,0,0,0-.13,0c-.19.1-.16.06-.2.26,0,0,.09.07.1,0Z"/><path class="cls-1" d="M54.24,84.19a21.51,21.51,0,0,0-.89,8.87c0,.1.17.07.17,0a61.81,61.81,0,0,1,.93-8.79c0-.13-.17-.2-.21-.06Z"/><path class="cls-1" d="M53.49,84.79a49.72,49.72,0,0,0,.58,9.52c0,.09.16.07.16,0a50.55,50.55,0,0,0-.67-9.51s-.07,0-.07,0Z"/><path class="cls-1" d="M54,88.72A34.37,34.37,0,0,0,54.28,96a.1.1,0,0,0,.19,0,35,35,0,0,0-.31-7.23c0-.07-.11,0-.12,0Z"/><path class="cls-1" d="M53.35,89.75c.34,2.28.41,4.53.64,6.8,0,.08.14.12.16,0a15.41,15.41,0,0,0-.63-6.87.09.09,0,0,0-.17,0Z"/><path class="cls-1" d="M53.54,91a23,23,0,0,0,.05,5.18c0,.13.21.1.23,0A23.57,23.57,0,0,0,53.63,91s-.09,0-.09,0Z"/><path class="cls-1" d="M54.47,90a26.71,26.71,0,0,1,.37,6c0,.06.1.09.12,0a13.58,13.58,0,0,0-.39-6,.05.05,0,0,0-.1,0Z"/><path class="cls-1" d="M56.72,56a24.84,24.84,0,0,0-.15,8.07c0,.09.14.06.15,0a61.62,61.62,0,0,0,.11-8c0-.05-.1-.08-.11,0Z"/><path class="cls-1" d="M56.84,50c-.12,3.48-.25,7,0,10.51a.09.09,0,0,0,.17,0c.22-3.47.12-7,0-10.51a.07.07,0,0,0-.14,0Z"/><path class="cls-1" d="M57.08,49.64c.2,3.37.16,6.74.32,10.11a.08.08,0,0,0,.16,0,36.94,36.94,0,0,0-.38-10.12c0-.05-.11-.05-.1,0Z"/><path class="cls-1" d="M60.57,49.13c-.58.66-1.1,1.36-1.63,2a19.71,19.71,0,0,0-1.76,2.35c0,.06,0,.13.1.08a16.74,16.74,0,0,0,1.64-2c.6-.77,1.22-1.54,1.76-2.34,0-.07,0-.16-.11-.1Z"/><path class="cls-1" d="M61.45,50.09c-.71.79-1.38,1.62-2.09,2.41S58,53.88,57.43,54.63c-.07.09.07.19.15.12a22,22,0,0,0,4-4.59s0-.11-.09-.07Z"/><path class="cls-1" d="M61.53,50.9c.78.5-3.59,5-4,5.45l.29.17c.08-.22.18-.44.28-.65s-.08-.11-.12-.06l-.45.54c-.13.16.07.4.24.25.62-.56,5.12-5.29,3.83-5.81-.06,0-.11.07,0,.11Z"/><path class="cls-1" d="M61.76,52.48c-.85.93-1.65,1.91-2.47,2.86a28.41,28.41,0,0,0-2.2,2.59c-.08.11.08.23.18.14a29.67,29.67,0,0,0,4.64-5.47c.06-.08-.08-.2-.15-.12Z"/><path class="cls-1" d="M61.94,53.74c-.79.85-1.45,1.8-2.2,2.68S58.12,58.1,57.33,59a.17.17,0,0,0,.24.24A15.7,15.7,0,0,0,62,53.74s0,0,0,0Z"/><path class="cls-1" d="M61.17,55.83c.25.15-1.91,2.41-2.11,2.63a10.4,10.4,0,0,0-1.73,2c0,.08,0,.21.14.15A8.82,8.82,0,0,0,59.09,59c.59-.65,1.18-1.31,1.75-2,.23-.26,1.12-1.13.39-1.34-.07,0-.12.08-.06.11Z"/><path class="cls-1" d="M61.23,58.08a10.32,10.32,0,0,0-1.83,1.73c-.49.5-1.29,1-1.52,1.7,0,.05,0,.11.09.09.69-.22,1.22-1,1.71-1.51a8.83,8.83,0,0,0,1.65-1.91c0-.06,0-.15-.1-.1Z"/><path class="cls-1" d="M61,59.5A11.19,11.19,0,0,0,59.35,61c-.57.55-1.16,1.1-1.73,1.66l.3.25.39-.58c0-.08-.05-.15-.12-.1l-.57.43c-.2.15.08.46.27.29.6-.54,1.17-1.1,1.74-1.67a9.29,9.29,0,0,0,1.45-1.62c0-.07,0-.17-.11-.12Z"/><path class="cls-1" d="M61.26,59.63c-1.22,1.15-2.49,2.26-3.68,3.44-.17.18.11.45.26.27s.44-.41.65-.62a.07.07,0,0,0-.08-.11c-.27.14-.51.31-.79.44l.22.29a37.3,37.3,0,0,0,3.63-3.48.16.16,0,0,0-.21-.23Z"/><path class="cls-1" d="M61.92,60.51a37.26,37.26,0,0,0-4.71,3.68l.27.28c.44-.47,1-.88,1.42-1.33a.06.06,0,0,0-.07-.09c-.53.37-1,.77-1.58,1.11-.24.15,0,.47.23.31a38.58,38.58,0,0,0,4.59-3.76c.09-.09,0-.28-.15-.2Z"/><path class="cls-1" d="M61.78,61.47a7.42,7.42,0,0,0-2.24,1.62c-.87.74-1.75,1.48-2.54,2.3a.21.21,0,0,0,.24.33,2,2,0,0,0,1.14-1.2c0-.07-.09-.13-.13-.06a1.48,1.48,0,0,1-1.15.88l.19.35c.82-.71,1.59-1.47,2.4-2.19a9.82,9.82,0,0,0,2.12-2s0,0,0,0Z"/><path class="cls-1" d="M62.18,61.75a9.67,9.67,0,0,1-2.5,2.15A26.66,26.66,0,0,0,56.92,66c-.11.11,0,.26.16.21a16.61,16.61,0,0,0,3.35-2.3c.64-.5,2.08-1.26,2.15-2.13a.14.14,0,0,0-.1-.13.46.46,0,0,0-.29-.06.07.07,0,0,0-.06,0l-.07.1a.07.07,0,0,0,.12.07Z"/><path class="cls-1" d="M57.3,52.52c-.09,3.44,0,6.88-.18,10.32,0,.17.28.23.31,0a28.3,28.3,0,0,0,0-10.38.06.06,0,0,0-.12,0Z"/><path class="cls-1" d="M57.72,52.12a47.48,47.48,0,0,0-.66,10.51.11.11,0,0,0,.21,0,78.37,78.37,0,0,0,.59-10.5.07.07,0,0,0-.14,0Z"/><path class="cls-1" d="M57.13,51.7c.22-2.75.11,0,.11.58,0,.78,0,1.57,0,2.36,0,1.83-.19,3.68-.07,5.51,0,.08.14.12.16,0a40,40,0,0,0,.2-10.26c0-.12-.21-.18-.24,0A7.9,7.9,0,0,0,57,51.7c0,.06.09.06.1,0Z"/><path class="cls-1" d="M57.92,51.65c.68,1.62.2,4.28.2,6,0,2,0,3.9.12,5.84,0,.07.11.08.12,0,.18-2.39.1-4.8.09-7.19,0-1.44.38-3.42-.43-4.7a.06.06,0,0,0-.1,0Z"/><path class="cls-1" d="M58.61,55.66a1.48,1.48,0,0,0,0,.21,0,0,0,0,0,.05,0,.71.71,0,0,0,0-.2c0-.05-.08-.06-.08,0Z"/><path class="cls-1" d="M60,61.07a14.16,14.16,0,0,0,1.16-3.27h0A14.05,14.05,0,0,1,60,61.06s0,0,0,0Z"/><path class="cls-1" d="M61.4,68.69c-.5.25-1,.46-1.52.75,0,0,0,.06,0,0,.51-.21,1-.53,1.5-.78,0,0,0,0,0,0Z"/><path class="cls-1" d="M65.41,66.25c-3.11,1.92-6.3,3.53-9.57,5.17a.08.08,0,0,0,.06.15,42.51,42.51,0,0,0,9.6-5.16.09.09,0,0,0-.09-.16Z"/><path class="cls-1" d="M63.91,68.1c-2.18,1.25-4.4,2.38-6.61,3.57-.08,0,0,.2.07.16A28.74,28.74,0,0,0,64,68.2c.05,0,0-.13-.07-.1Z"/><path class="cls-1" d="M63.64,69.72c-1.1.43-2.13,1.06-3.19,1.58s-2.18,1-3.22,1.51c-.12.06,0,.26.08.22A22,22,0,0,0,63.7,69.8s0-.1-.06-.08Z"/><path class="cls-1" d="M63.41,71.12a14.29,14.29,0,0,0-6.19,2.82c-.07.07,0,.18.11.14a49.67,49.67,0,0,1,6.13-2.76.1.1,0,0,0-.05-.2Z"/><path class="cls-1" d="M62.73,72.61a32.89,32.89,0,0,0-4.46,2c-.06,0,0,.14,0,.12a34.43,34.43,0,0,0,4.5-1.93c.12-.06,0-.22-.09-.17Z"/><path class="cls-1" d="M68.57,72.33A52.66,52.66,0,0,1,59.91,77c-.07,0,0,.14.05.12a21.34,21.34,0,0,0,8.7-4.67c.07-.06,0-.15-.09-.1Z"/><path class="cls-1" d="M69,73.45a73.76,73.76,0,0,0-7.52,3.83c-.12.07,0,.23.1.18a75.91,75.91,0,0,0,7.5-3.87.08.08,0,0,0-.08-.14Z"/><path class="cls-1" d="M69.22,74.27c-1.92,1.3-4,2.15-6,3.25-.06,0,0,.11,0,.1a16.8,16.8,0,0,0,6.06-3.25c.06,0,0-.15-.08-.1Z"/><path class="cls-1" d="M69.13,75.18c-.84.42-1.67.85-2.49,1.28a12.92,12.92,0,0,0-2.14,1.23.07.07,0,0,0,.06.11,13,13,0,0,0,2.2-1.11c.82-.45,1.63-.91,2.44-1.37a.08.08,0,0,0-.07-.14Z"/><path class="cls-1" d="M67.89,76.5a16.38,16.38,0,0,0-2.14,1,.07.07,0,0,0,0,.12A17.26,17.26,0,0,0,68,76.62c.09,0,0-.16-.07-.12Z"/><path class="cls-1" d="M81.14,51.85c-2.76,2.45-5.75,4.66-8.47,7.13a.06.06,0,0,0,.07.1A40.59,40.59,0,0,0,81.23,52c.07-.06,0-.16-.09-.1Z"/><path class="cls-1" d="M80.82,51.51c.08.49-1.17,1.33-1.52,1.68l-1.91,1.88c-1.29,1.25-2.63,2.44-3.84,3.75a.07.07,0,1,0,.09.1,48.4,48.4,0,0,0,4.82-4.45c.7-.71,1.4-1.41,2.07-2.15.29-.32.57-.5.53-.91a.05.05,0,0,0,0-.06c-.16,0-.12,0-.26,0a.05.05,0,0,0,0,0l0,.09a0,0,0,0,0,.06,0Z"/><path class="cls-1" d="M80.75,53.15c-2.1,1.75-4.35,3.44-6.34,5.31-.06,0,0,.15.07.11a46.35,46.35,0,0,0,6.4-5.29c.09-.08,0-.21-.13-.13Z"/><path class="cls-1" d="M81.22,53.42c-1,.92-2.07,1.89-3.12,2.81S75.9,58,74.91,59c0,0,0,.12.06.08A29.89,29.89,0,0,0,81.3,53.5s0-.13-.08-.08Z"/><path class="cls-1" d="M81.36,54.2a52.72,52.72,0,0,0-5.12,4.66,0,0,0,0,0,.06.07,54,54,0,0,0,5.18-4.61c.07-.07,0-.18-.12-.12Z"/><path class="cls-1" d="M81.61,54.88a38.55,38.55,0,0,1-4.81,3.91s0,.12.07.09A13.6,13.6,0,0,0,81.74,55c.06-.08-.06-.18-.13-.11Z"/><path class="cls-1" d="M82.41,55.08a36.74,36.74,0,0,1-4.93,4.22s0,.11,0,.08a14,14,0,0,0,5-4.19c.06-.08-.06-.18-.13-.11Z"/><path class="cls-1" d="M82.81,55.92a46.71,46.71,0,0,1-4.76,3.75s0,.11.06.08a18.13,18.13,0,0,0,4.83-3.69c.09-.09,0-.23-.13-.14Z"/><path class="cls-1" d="M81.92,57.33c-.6.46-1.18,1-1.76,1.43a10.85,10.85,0,0,0-1.51,1.36c-.05.06,0,.15.11.11A10.79,10.79,0,0,0,80.34,59c.58-.49,1.15-1,1.71-1.49.09-.08,0-.21-.13-.13Z"/><path class="cls-1" d="M81.22,59.36a8.44,8.44,0,0,0-1,.82.05.05,0,0,0,.06.08,10.48,10.48,0,0,0,1.08-.81c.06-.05,0-.14-.09-.09Z"/><path class="cls-1" d="M85.08,32.33c-.76,3.31-2.63,6.29-4.16,9.3-1.36,2.65-2.63,5.2-4.84,7.29-.09.09,0,.24.15.15,2.36-2.2,3.7-5,5.15-7.86s3.27-5.67,3.74-8.87c0,0,0,0,0,0Z"/><path class="cls-1" d="M83.51,38.63A87.52,87.52,0,0,1,78,46.94s0,.09.07.06a29.9,29.9,0,0,0,5.56-8.3c0-.09-.11-.15-.16-.07Z"/><path class="cls-1" d="M84,39.09a49.74,49.74,0,0,1-5.85,8.81c0,.07.05.14.11.09a23.76,23.76,0,0,0,5.81-8.87s0-.07-.07,0Z"/><path class="cls-1" d="M85.12,39.06c-1.66,2.83-3.48,5.56-5.16,8.38,0,.07.06.13.11.07a46.26,46.26,0,0,0,5.19-8.36c0-.09-.09-.18-.14-.09Z"/><path class="cls-1" d="M85.7,39.78c-1.32,2.5-2.88,4.82-4.31,7.25,0,.07,0,.16.11.09a26.82,26.82,0,0,0,4.31-7.29c0-.06-.07-.11-.11,0Z"/><path class="cls-1" d="M88,37.32c-2.23,3.47-4.62,6.94-6.66,10.51-.07.12.1.27.19.16a53.94,53.94,0,0,0,6.65-10.56c.06-.12-.11-.23-.18-.11Z"/><path class="cls-1" d="M87,38.78c-1.6,3-3.37,5.8-5.19,8.69-.07.12.1.28.21.17a26.36,26.36,0,0,0,5.19-8.77c0-.12-.15-.21-.21-.09Z"/><path class="cls-1" d="M87.85,37.58a41.66,41.66,0,0,1-4.56,7.62c-.08.11.08.23.17.14a17,17,0,0,0,4.59-7.7c0-.13-.15-.18-.2-.06Z"/><path class="cls-1" d="M92.62,34.23a46.1,46.1,0,0,0-3.38,5.65s.05.1.09,0a48.15,48.15,0,0,0,3.34-5.67s0-.06,0,0Z"/><path class="cls-1" d="M92.14,35.64c-.36.85-.65,1.71-1.07,2.54s-.87,1.38-1.26,2.1c0,0,0,.11.08.06a10.15,10.15,0,0,0,2.3-4.68s0,0,0,0Z"/><path class="cls-1" d="M93.11,35.44a20.5,20.5,0,0,1-2.74,5.22c-.05.07,0,.16.11.09a12.21,12.21,0,0,0,2.73-5.28c0-.06-.08-.09-.1,0Z"/><path class="cls-1" d="M92.9,37.31a18.66,18.66,0,0,1-2.53,4.61s0,.12.08.07A9.68,9.68,0,0,0,93,37.34a.06.06,0,0,0-.11,0Z"/><path class="cls-1" d="M93,38.54a11.54,11.54,0,0,1-1,2.64,15.44,15.44,0,0,1-1.78,2.25c-.07.09,0,.27.14.19a7.51,7.51,0,0,0,2.82-5.06.07.07,0,0,0-.13,0Z"/><path class="cls-1" d="M93.11,38.35A37.75,37.75,0,0,1,87.65,48c-.07.1.08.22.17.14a20.54,20.54,0,0,0,5.5-9.76.11.11,0,0,0-.21-.06Z"/><path class="cls-1" d="M92.86,38.74A33.2,33.2,0,0,1,87.1,50a.1.1,0,0,0,.15.13A20,20,0,0,0,93,38.77c0-.1-.15-.12-.18,0Z"/><path class="cls-1" d="M92.6,38.52c.39-.84-.39,1.53-.47,1.78A23.79,23.79,0,0,1,91,43a41.92,41.92,0,0,1-3,5c0,.06,0,.13.1.08a20.15,20.15,0,0,0,5-10.49c0-.08-.11-.09-.13,0-.11.34-.23.67-.36,1,0,0,0,0,0,0Z"/><path class="cls-1" d="M92.44,39.14c-1.58,5.82-5.75,10.07-8.87,15.1-.07.13.11.23.2.12,3.48-4.33,7.87-9.61,8.77-15.21,0,0-.08-.06-.1,0Z"/><path class="cls-1" d="M88.77,47.89c-3.48,3.9-8.43,8.74-8.14,14.3,0,.23.38.25.37,0a10.88,10.88,0,0,1,1.21-4.85c.22-.53.54-1.57-.17.09a3.94,3.94,0,0,0,0,3.64c.07.16.35.06.29-.11-.66-1.82,0-3.41,1-5,.07-.13-.11-.29-.21-.17a9.39,9.39,0,0,0-1.89,3,7.21,7.21,0,0,0-.44,1.7c.07,2.23.39-.57.67-1.48,1.27-4.16,5-7.52,7.5-11,0-.07-.06-.17-.12-.1Z"/><path class="cls-1" d="M24.3,48.26a23.59,23.59,0,0,1,1.27,4.17.07.07,0,0,0,.14,0,7.48,7.48,0,0,0-1.25-4.23.09.09,0,0,0-.16.08Z"/><path class="cls-1" d="M24.14,48a30.81,30.81,0,0,0,2.29,7.18.08.08,0,0,0,.15-.06c-.68-2.39-1.46-4.8-2.27-7.16a.09.09,0,0,0-.17,0Z"/><path class="cls-1" d="M24.62,46.58a17.21,17.21,0,0,1,2.43,6.3c0,.06.12.06.12,0a12.07,12.07,0,0,0-2.49-6.32s-.09,0-.06,0Z"/><path class="cls-1" d="M27.34,54.39A17.12,17.12,0,0,0,31.7,59.7c2,1.84,3.93,3.72,6,5.49.09.07.22,0,.14-.13-3.5-3.45-7.9-6.44-10.39-10.72,0-.06-.11,0-.09,0Z"/><path class="cls-1" d="M19.49,42a2.79,2.79,0,0,0-3.2,3.19c.19,1.63,1.17,3.12,1.46,4.77a4.51,4.51,0,0,0,1.35,3.1c.07.06.21,0,.15-.11-1-1.46-.82-3-1.22-4.57-.63-2.51-2.78-5.25,1.46-6.31a0,0,0,0,0,0-.07Z"/><path class="cls-1" d="M17.94,51.69c1.69,2.73,2.12,6.05,3.43,9,.05.11.22,0,.2-.07C21,57.65,20.05,54,18,51.63c0,0-.11,0-.08.06Z"/><path class="cls-1" d="M18.79,47.87c.11,3.56,1.62,6.92,2.9,10.2,0,0,0,0,0,0-1.12-3.36-2.47-6.64-2.82-10.19,0-.07-.12-.08-.11,0Z"/><path class="cls-1" d="M22.22,58.87c1.71,3.23,3.64,6.44,6.53,8.81,3.28,2.69,7,5.06,10.51,7.51.06,0,.12,0,.07-.08a87.52,87.52,0,0,0-9-6.54c-3.63-2.53-5.81-6.08-8.12-9.71,0,0,0,0,0,0Z"/><path class="cls-1" d="M33.48,69.25A31.3,31.3,0,0,0,39.67,75s.11,0,.07-.08c-2-1.94-4.14-3.82-6.22-5.7,0,0-.06,0,0,0Z"/><path class="cls-1" d="M34,68.36a83.51,83.51,0,0,0,6,5.89s.11,0,.07-.07a83.58,83.58,0,0,0-6-5.87,0,0,0,0,0,0,0Z"/><path class="cls-1" d="M35.93,69.12c2.07,1.2,2.59,4.06,4.88,4.95.1,0,.17-.12.07-.17-2.15-1.12-2.71-3.82-4.92-4.83,0,0-.06,0,0,.05Z"/><path class="cls-1" d="M36.44,67.53a28.82,28.82,0,0,0,5.47,6.58.1.1,0,0,0,.14-.13c-1.78-2.22-3.76-4.23-5.45-6.53-.07-.09-.22,0-.16.08Z"/><path class="cls-1" d="M38,67.09c1.51,2.14,3,4.31,4.7,6.33.1.13.33,0,.24-.16C41.41,71.09,39.75,69,38.11,67c-.07-.09-.23,0-.16.11Z"/><path class="cls-1" d="M38.85,66.23a13.13,13.13,0,0,0,3,6.13.13.13,0,0,0,.2-.15c-.49-1-1.16-1.94-1.67-2.95S39.47,67.2,39,66.17c0-.11-.2,0-.18.06Z"/><path class="cls-1" d="M38.7,67.72a9.77,9.77,0,0,0,1.5,3.2,8.93,8.93,0,0,0,2.09,2.48.14.14,0,0,0,.19-.18c-.56-.94-1.38-1.74-2-2.66s-1.07-2-1.67-2.89a.07.07,0,0,0-.13,0Z"/><path class="cls-1" d="M38.85,68.29a16.85,16.85,0,0,0,5.06,6.2c.1.07.19-.06.13-.14-.8-1-1.75-1.83-2.55-2.8s-1.65-2.23-2.43-3.37c-.09-.12-.28,0-.21.11Z"/><path class="cls-1" d="M40.64,71.44c.71,1.67,2.62,3.42,4.57,3.41a.08.08,0,0,0,0-.15,12.5,12.5,0,0,1-2.49-1.15,7.82,7.82,0,0,1-2-2.17.06.06,0,0,0-.11.06Z"/><path class="cls-1" d="M23.92,16.9c-.43,3.5,1.25,6.76,2.9,9.78,2,3.65,5.56,5.86,7.8,9.4a.06.06,0,0,0,.1-.06C33.16,32.77,30,31.12,28,28.23,25.82,25,23.8,20.79,24.12,16.91c0-.13-.18-.13-.2,0Z"/><path class="cls-1" d="M35.66,37.15c1.86,1.86,3.17,4.25,5,6.18A60.27,60.27,0,0,0,46.73,49c.05,0,.13,0,.08-.07-2-1.92-4.13-3.69-6-5.7s-3.06-4.4-5.07-6.1a0,0,0,0,0-.05,0Z"/><path class="cls-1" d="M41.24,41.42a18.63,18.63,0,0,0,6.18,7s.11,0,.07-.08c-1.08-1-2.25-2-3.26-3.06a29.36,29.36,0,0,1-2.95-3.9s-.05,0,0,0Z"/><path class="cls-1" d="M42.44,41.36a41.18,41.18,0,0,0,6.23,7.09s.13,0,.08-.07c-2.11-2.35-4.31-4.57-6.25-7.06,0,0-.08,0-.06,0Z"/><path class="cls-1" d="M44.92,42.69c1.29,1.5,2.58,3,3.88,4.5a6.94,6.94,0,0,0,2.84,2.43c.11,0,.15-.12,0-.16-1.46-.62-2.44-2.07-3.46-3.22S46.07,43.83,45,42.63c0,0-.09,0-.06.06Z"/><path class="cls-1" d="M45.49,40.56a29.67,29.67,0,0,0,8.15,8.37c.09.06.19-.06.12-.13a71.86,71.86,0,0,1-8.14-8.32c-.06-.07-.17,0-.13.08Z"/><path class="cls-1" d="M46.85,40.31a78.86,78.86,0,0,0,7.65,8,.15.15,0,0,0,.21-.2c-2.5-2.69-5.21-5.21-7.73-7.89a.09.09,0,0,0-.13.12Z"/><path class="cls-1" d="M47.72,39.93c.47,0,1.19,1.2,1.5,1.54l1.63,1.78c1.09,1.19,2.16,2.41,3.32,3.53a.19.19,0,0,0,.27-.26c-1.26-1.5-2.66-2.91-4-4.35-.61-.65-1.22-1.31-1.85-2-.33-.33-.49-.59-1-.59a.12.12,0,0,0-.12.08c-.07.18-.06.17,0,.35a.08.08,0,0,0,.07,0h.12c.1,0,.11-.16,0-.16Z"/><path class="cls-1" d="M52.27,34.89a9.81,9.81,0,0,0,1.11,1.61,4.38,4.38,0,0,0,1.35,1.19.06.06,0,0,0,.08-.08,15,15,0,0,0-1.19-1.2,11.11,11.11,0,0,1-1.26-1.57c0-.06-.13,0-.09,0Z"/><path class="cls-1" d="M52.93,33.88a18.83,18.83,0,0,0,2,2.75s.09,0,.07-.05a18.83,18.83,0,0,0-2-2.75s-.09,0-.07.05Z"/><path class="cls-1" d="M52.71,29.26a4.68,4.68,0,0,1-.37,2.62,1.68,1.68,0,0,1-2.23.57.07.07,0,0,0-.09.11c.56.7,1.64.41,2.22-.12a3.22,3.22,0,0,0,.57-3.19c0-.05-.1,0-.1,0Z"/><path class="cls-1" d="M49.86,31.6c.79.44,2,.91,2.76.1.35-.41.58-1.31-.09-1.55-.05,0-.12.05-.08.1a1,1,0,0,1-.19,1.42c-.66.51-1.68.1-2.38-.11a0,0,0,0,0,0,0Z"/><path class="cls-1" d="M48.38,4.63A6.33,6.33,0,0,0,49,9.24s.11,0,.09,0a14,14,0,0,1-.6-2.1,14.54,14.54,0,0,1,0-2.47,0,0,0,0,0-.06,0Z"/><path class="cls-1" d="M49.22,3.63a9.23,9.23,0,0,0,.69,4.79.06.06,0,0,0,.11,0,23,23,0,0,1-.73-4.75s-.07,0-.07,0Z"/><path class="cls-1" d="M50.2,3.07a27.77,27.77,0,0,0,1,5c0,.06.13.06.12,0a27.39,27.39,0,0,0-1-5c0-.07-.11,0-.11,0Z"/><path class="cls-1" d="M51.54,9.28a18.32,18.32,0,0,0,.83,4.33c0,.05.1,0,.09,0-.3-1.44-.68-2.86-.89-4.32,0,0,0,0,0,0Z"/><path class="cls-1" d="M48.42,11.83A46.76,46.76,0,0,1,53.66,31a0,0,0,0,0,.09,0,32.56,32.56,0,0,0-5.3-19.17s0,0,0,0Z"/><path class="cls-1" d="M31.47,46.23a19.65,19.65,0,0,0,7.19,8.45s.06,0,0,0a25.82,25.82,0,0,1-7.19-8.41s0,0,0,0Z"/><path class="cls-1" d="M33.1,47.54a21.07,21.07,0,0,0,7,6.81s.08,0,0-.06a27.86,27.86,0,0,1-7-6.78s-.08,0-.06,0Z"/><path class="cls-1" d="M34.47,46.32c1.09,1.47,2.27,2.89,3.42,4.31A9.67,9.67,0,0,0,41,53.43a0,0,0,1,0,0-.07c-2.66-1.82-4.4-4.7-6.49-7.08,0,0-.06,0,0,0Z"/><path class="cls-1" d="M32.15,40.86a22.66,22.66,0,0,1,6.47,7.24c1.39,2.19,3.94,3.41,5.2,5.55.06.11.22,0,.17-.1a5.6,5.6,0,0,0-1.88-2.14,18.51,18.51,0,0,1-4-4.73,18.15,18.15,0,0,0-5.89-5.87s-.07,0,0,0Z"/><path class="cls-1" d="M45.71,54.37a25.94,25.94,0,0,0,7,5.59c.07,0,.16-.05.09-.11-2.3-1.91-4.82-3.53-7.05-5.55,0,0-.13,0-.08.07Z"/><path class="cls-1" d="M45.84,52.9c1.59.89,2.46,2.29,3.74,3.53a15,15,0,0,0,3.81,2.76.17.17,0,0,0,.19-.29A23.79,23.79,0,0,1,48.79,55c-.86-.95-1.56-2-2.95-2.17,0,0,0,0,0,0Z"/><path class="cls-1" d="M46.13,53.62c0,.12,1.28,1,1.58,1.28l2,1.72c1.18,1,2.34,2.1,3.59,3.05a.19.19,0,0,0,.28-.16c0-.33-.1-.47-.44-.53-.07,0-.14.09-.06.13a18.28,18.28,0,0,1-1.5-1.47l-2-1.71c-1.19-1-2.37-2.06-3.6-3-.13-.11-.33.08-.23.22l.27.53a.06.06,0,0,0,.11,0Z"/><path class="cls-1" d="M45.55,53.09c1.55,2.73,5,5.25,7.88,6.5.17.08.28-.19.13-.28a45.24,45.24,0,0,1-4.39-3c-1.25-1-2.28-2.27-3.52-3.3,0,0-.14,0-.1.07Z"/><path class="cls-1" d="M47.94,54.9c1.07.93,2.26,1.73,3.41,2.56a30.56,30.56,0,0,0,4,2.71c.07,0,.17-.05.1-.12A27.69,27.69,0,0,0,52,57.49c-1.3-.92-2.59-1.9-4-2.7-.07,0-.15.06-.09.11Z"/><path class="cls-1" d="M49.57,57.6c1.77,1.18,3.49,2.44,5.26,3.63.06,0,.13,0,.08-.1a18.54,18.54,0,0,0-5.28-3.63c-.07,0-.13.06-.06.1Z"/><path class="cls-1" d="M52,58.81a3.68,3.68,0,0,1,1,.47c.3.18.52.45.81.64.09,0,.21-.05.15-.14a2.93,2.93,0,0,0-2-1.06c-.06,0-.09.07,0,.09Z"/><path class="cls-1" d="M53.87,59.7a.89.89,0,0,0,.42.24c.07,0,.14-.07.08-.13a1.13,1.13,0,0,0-.45-.23.07.07,0,0,0-.05.12Z"/><path class="cls-1" d="M45.11,52.15a6.31,6.31,0,0,1-.1-.76l-.23.08c.45.56.95,1.05,1.36,1.64s.71,1.1,1,1.66c0,.06.15,0,.12-.05A6.94,6.94,0,0,0,45,51.28c-.12-.08-.23.06-.19.17a6.18,6.18,0,0,1,.26.72,0,0,0,1,0,.09,0Z"/><path class="cls-1" d="M7.51,48.86c.21,0,.75,1.54.85,1.76.35.75.7,1.5,1.09,2.23,0,0,.09,0,.07,0-.34-.87-.75-1.71-1.15-2.55-.19-.4-.41-1.37-.88-1.52h0c0,.06,0,0,0,.12h.06s0,0,0,0Z"/><path class="cls-1" d="M8.26,47.76a6,6,0,0,0,2,4.29c0,.05.11,0,.07-.06a8.42,8.42,0,0,1-1.86-4.24c0-.09-.16-.07-.16,0Z"/><path class="cls-1" d="M8.74,46.35a10.54,10.54,0,0,0,2,5s.09,0,.07-.05a19.36,19.36,0,0,1-2-5s-.08,0-.08,0Z"/><path class="cls-1" d="M9.18,46.17c.73,1.56,1.46,3.15,2.33,4.64a0,0,0,0,0,.08-.05c-.66-1.59-1.49-3.12-2.29-4.65a.07.07,0,1,0-.12.06Z"/><path class="cls-1" d="M10.12,45.13A53.7,53.7,0,0,0,15.23,53s.09,0,.07,0a53.82,53.82,0,0,0-5.17-7.83Z"/><path class="cls-1" d="M16.22,54.52c2.68,5.69,5.83,11.8,10.56,16.14.07.06.17,0,.11-.1-4.31-5-7.39-10.39-10.62-16.06,0,0-.07,0-.05,0Z"/><path class="cls-1" d="M27.71,70.75a32.55,32.55,0,0,0,4,2.75s.08,0,0-.07a34.9,34.9,0,0,0-4-2.75c-.05,0-.08,0,0,.07Z"/><path class="cls-1" d="M3.09,65.92a8.65,8.65,0,0,0-.63,7.67s.08,0,.07,0A11.4,11.4,0,0,1,3.17,66s0-.08-.08,0Z"/><path class="cls-1" d="M2.73,75.21c1.18,3.46,4.54,6.12,7.22,8.48a55,55,0,0,0,10.87,7.57c.07,0,.13-.06.06-.1a76.54,76.54,0,0,1-10.39-7.24c-2.87-2.46-6.21-5.25-7.72-8.73a0,0,0,0,0,0,0Z"/><path class="cls-1" d="M22.05,92.58A86.59,86.59,0,0,0,34.68,99.8c.09,0,.17-.08.08-.13-4.29-2.3-8.54-4.57-12.66-7.16-.05,0-.09,0-.05.07Z"/><path class="cls-1" d="M24.61,92.71A27.32,27.32,0,0,0,34,97.81a0,0,0,1,0,0-.09c-3.39-1.37-6.2-3.34-9.4-5,0,0,0,0,0,0Z"/><path class="cls-1" d="M26.93,92.33a31.93,31.93,0,0,0,6.63,4.54c.06,0,.12-.05.06-.09-2.19-1.54-4.48-2.9-6.63-4.52,0,0-.1,0-.06.07Z"/><path class="cls-1" d="M3,65.82a37,37,0,0,0,7.75,9.81c3.12,2.74,7.05,4,10.14,6.84.06.06.15,0,.1-.08-2.38-2.69-5.56-3.64-8.44-5.62-4-2.77-6.78-7-9.5-11,0,0-.07,0,0,0Z"/><path class="cls-1" d="M19.73,81.93a18.77,18.77,0,0,0,8.68,5.28c.09,0,.16-.11.07-.15a33.8,33.8,0,0,1-8.69-5.18s-.09,0-.06.05Z"/><path class="cls-1" d="M100.19,53.16a6.93,6.93,0,0,0-3.61,3.34,0,0,0,0,0,.06,0,10.89,10.89,0,0,1,3.62-3.26.07.07,0,1,0-.07-.12Z"/><path class="cls-1" d="M100.66,52.83c-4.81,1.55-5.78,7.44-8.61,11-.06.09.08.2.16.13,3.35-3.4,3.61-9,8.47-11,0,0,0-.08,0-.07Z"/><path class="cls-1" d="M98.76,54.28a67.17,67.17,0,0,0-5.87,7.91c0,.05,0,.09.08.05C95,59.71,96.89,57,98.82,54.32c0,0,0-.08-.06,0Z"/><path class="cls-1" d="M96,57.23a98.72,98.72,0,0,0-5.37,9.63c0,.06.07.1.1,0a96.27,96.27,0,0,0,5.35-9.63c0-.05,0-.1-.08-.05Z"/><path class="cls-1" d="M95.15,58.79C92.92,62.5,90.36,66,87.9,69.51c0,0,0,.1.07.06a61.12,61.12,0,0,0,7.26-10.73,0,0,0,0,0-.08-.05Z"/><path class="cls-1" d="M93.27,62.09c-1.87,2.88-3.9,5.76-5.57,8.76,0,.07.06.13.11.07a66.14,66.14,0,0,0,5.52-8.79s0-.08-.06,0Z"/><path class="cls-1" d="M91.44,64.68a61,61,0,0,1-5.66,7.08.06.06,0,0,0,.08.08,25.67,25.67,0,0,0,5.68-7.1c0-.06-.06-.12-.1-.06Z"/><path class="cls-1" d="M91.67,65.33c-1.53,2.17-3.3,4.07-5,6.12,0,.06,0,.12.1.08a22.32,22.32,0,0,0,4.95-6.16,0,0,0,1,0-.07,0Z"/><path class="cls-1" d="M90.39,66.55a37.35,37.35,0,0,0-4.33,6c0,.07,0,.16.11.09a70.9,70.9,0,0,0,4.3-6s0-.09-.08,0Z"/><path class="cls-1" d="M90,67.49a30,30,0,0,1-3,3.62s0,.1.06.07a13.6,13.6,0,0,0,3-3.65s0-.07,0,0Z"/><path class="cls-1" d="M100.58,54A20.46,20.46,0,0,0,96,59.87c0,.05,0,.09.06,0A33.37,33.37,0,0,1,100.62,54s0-.07,0,0Z"/><path class="cls-1" d="M101.54,54.17c-1.44,1.6-3,3.18-4.26,4.91,0,0,0,.08.06.05,1.52-1.53,2.87-3.27,4.24-4.93,0,0,0-.06,0,0Z"/><path class="cls-1" d="M101.85,54.68a35.51,35.51,0,0,0-4.31,5.56c0,.06,0,.13.1.08,1.57-1.71,2.86-3.76,4.27-5.6,0,0,0-.08-.06,0Z"/><path class="cls-1" d="M102,56.14a41.41,41.41,0,0,0-3.79,4.59c0,.05,0,.11.08.07a39.73,39.73,0,0,0,3.8-4.59c0-.05,0-.11-.09-.07Z"/><path class="cls-1" d="M100.43,53.22c-.48,0-1.17.55-1.53.82a5.44,5.44,0,0,0-1.45,1.42c0,.06,0,.11.08.07.47-.39.88-.85,1.37-1.22s1.13-.71,1.69-1.09c0,0,0-.06,0,0l-.15,0s0,0,0,0Z"/><path class="cls-1" d="M100.81,52.82a3.84,3.84,0,0,0-3,2.38,0,0,0,0,0,.09,0,5.8,5.8,0,0,1,2.88-2.35s0-.07,0-.07Z"/><path class="cls-1" d="M96.79,56.74C95.7,59,94.38,61.1,93.14,63.27a.05.05,0,1,0,.08.06,26,26,0,0,0,3.61-6.57s0,0,0,0Z"/><path class="cls-1" d="M89.9,74.12c-2,1.49-4,3-6,4.53S79.71,82.4,77,82.89a.05.05,0,0,0,0,.1c2.09-.18,3.6-1.54,5.19-2.78,2.6-2,5.2-4,7.75-6.06,0,0,0,0,0,0Z"/><path class="cls-1" d="M88.89,76.25a59.15,59.15,0,0,1-10.51,7.52.11.11,0,0,0,.11.19,42.89,42.89,0,0,0,10.44-7.67s0-.07,0,0Z"/><path class="cls-1" d="M88.32,77.64a15.63,15.63,0,0,1-4.92,3.91c-1.21.65-2.66,1.31-3.39,2.51a.06.06,0,0,0,.09.08c2.77-2.3,6.09-3.49,8.27-6.46,0,0,0-.07-.05,0Z"/><path class="cls-1" d="M88.23,78.77a19.53,19.53,0,0,1-6.86,5,.09.09,0,0,0,.06.17,13,13,0,0,0,6.85-5.08s0-.07,0,0Z"/><path class="cls-1" d="M88.39,80.32c-3.81,3.62-8.27,5.83-12.68,8.59a.13.13,0,0,0,.12.22,35.79,35.79,0,0,0,12.6-8.77s0-.07,0,0Z"/><path class="cls-1" d="M88.3,81c2.21-3.56,5.71-5.9,8.3-9.14a17.39,17.39,0,0,0,4-10.24c0-.1-.16-.13-.18,0-.93,4.6-2.44,8.44-5.78,11.9-2.33,2.42-4.92,4.4-6.49,7.41,0,.1.1.2.16.1Z"/><path class="cls-1" d="M100.82,60.23c.89-1.6,1.74-5,.61-6.71s-3.38-.2-4.11,1.17c-.07.13.1.29.22.17s.4-.41.61-.61a1.81,1.81,0,0,1,1.84-.74c.94.06,1.07.11,1.33,1a4,4,0,0,1,.11,1.15c0,1.56-.57,3.05-.67,4.59,0,0,0,0,.06,0Z"/><path class="cls-1" d="M60.78,78.46c-1.71,1.35-3.41,2.7-5.09,4.08-.12.1.05.28.18.18,1.68-1.36,3.34-2.76,5-4.16.07-.06,0-.15-.09-.1Z"/><path class="cls-1" d="M60,79.43a9.87,9.87,0,0,0-3.41,2.17c-.15.14.06.35.22.23.88-.66,1.81-1.28,2.64-2,0,0,0-.12-.07-.09-1,.55-1.85,1.23-2.76,1.85l.19.25A33.58,33.58,0,0,1,60,79.54c.05,0,0-.13,0-.11Z"/><path class="cls-1" d="M57.26,77.07c-.38,1.83-.64,3.69-.93,5.54-.16,1-.69,2.33.06,3.21a.06.06,0,0,0,.1-.06c-.43-1.25.09-2.84.29-4.11.23-1.52.48-3,.64-4.56,0-.08-.14-.11-.16,0Z"/><path class="cls-1" d="M56.79,76.86c.65.85-.35,4.07-.36,5.18a6.44,6.44,0,0,0,.79,3.38c.11.21.39.07.36-.14a55.64,55.64,0,0,1-.27-8.56.18.18,0,0,0-.35,0c-.13,3-.08,6.1,0,9.14,0,.27.43.29.43,0,0-2.72.07-5.41-.07-8.12,0-.19-.32-.21-.31,0,.11,3.63.12,7.24.12,10.87a.11.11,0,0,0,.22,0,53.74,53.74,0,0,0,.22-6.34,20.49,20.49,0,0,0-.11-2.72c-.33-2.15-.26.44-.28.88,0,.9,0,1.81,0,2.71,0,.38,0,2.91.25,1.35a24.17,24.17,0,0,0,0-6c-.11-1-.2-1.49-.27-.12-.05.85.08,1.74.1,2.59a16,16,0,0,1,.06,3c-.18,1.09-.43-1.43-.43-2,0-1.07,1-4.65,0-5.41a.08.08,0,0,0-.11,0l-.1.12a.08.08,0,0,0,0,.08l.09.08a.06.06,0,0,0,.08-.08Z"/><path class="cls-1" d="M56,83c-.09-.86.3.65.3.65.08.39.15.79.21,1.19a28.68,28.68,0,0,1,.27,3.07.19.19,0,0,0,.37,0,17.89,17.89,0,0,0-.23-5.06c0-.21-.36-.17-.37,0A23.77,23.77,0,0,0,57,88.66c0,.23.38.14.36-.08a45.13,45.13,0,0,1-.45-5.68l-.37,0a17.19,17.19,0,0,1,.22,5h.37a20.68,20.68,0,0,0-.92-5.74c0-.08-.16-.13-.2,0a1.14,1.14,0,0,0-.1.87S56,83,56,83Z"/><path class="cls-1" d="M57.08,81.64A59,59,0,0,1,57.55,89c0,.1.17.14.19,0a17.82,17.82,0,0,0-.47-7.47c0-.12-.21-.07-.19,0Z"/><path class="cls-1" d="M57.69,83.3a30.62,30.62,0,0,1,.3,3.17c0,.8-.07,1.6,0,2.38,0,.07.11.06.13,0a11.78,11.78,0,0,0-.32-5.59c0-.09-.14,0-.13,0Z"/><path class="cls-1" d="M58.53,84.32a32,32,0,0,1,0,4.27h.3c0-.39,0-.78,0-1.17a.06.06,0,0,0-.11,0c-.05.39-.08.78-.14,1.17,0,.18.28.19.3,0a15.42,15.42,0,0,0-.13-4.29c0-.11-.21-.1-.2,0Z"/><path class="cls-1" d="M59.21,84.35a15.1,15.1,0,0,1,.26,2.22,9.75,9.75,0,0,0,0,1.71.06.06,0,0,0,.12,0c.46-1.12.07-2.84-.26-4a.08.08,0,0,0-.15,0Z"/><path class="cls-1" d="M60.53,84.78c0,1.1-.06,2.21,0,3.31,0,.09.15.13.18,0a7.48,7.48,0,0,0,0-3.36.07.07,0,0,0-.14,0Z"/><path class="cls-1" d="M61.49,84.61c0,.48-.06,1-.08,1.44a4.83,4.83,0,0,0,0,1.26c0,.07.12.07.14,0a5.19,5.19,0,0,0,.08-1.25c0-.48,0-1,0-1.44a.09.09,0,0,0-.17,0Z"/><path class="cls-1" d="M62.14,85.87a8.66,8.66,0,0,0,0,1.44s0,0,.06,0a9.86,9.86,0,0,0,.05-1.44s-.07,0-.07,0Z"/><path class="cls-1" d="M62.59,49.76A13.56,13.56,0,0,0,68.2,44.5c0-.08-.06-.18-.13-.1-.88.93-1.6,2-2.54,2.87a33.36,33.36,0,0,1-3,2.43s0,.07.05.06Z"/><path class="cls-1" d="M60.43,37.32c-.52.36-1,.7-1.58,1a8.6,8.6,0,0,0-1.39,1c-.05.05,0,.13.08.1a9.7,9.7,0,0,0,1.4-1l1.51-1.15s0,0,0,0Z"/><path class="cls-1" d="M62.25,36.66,60,38.3A11.78,11.78,0,0,0,57.72,40a.07.07,0,0,0,.08.11A11.29,11.29,0,0,0,60,38.6l2.4-1.79c.1-.08,0-.22-.14-.15Z"/><path class="cls-1" d="M64,36.33c-1.77,1.26-3.56,2.55-5.19,4-.09.08,0,.23.12.16,1.78-1.23,3.48-2.65,5.14-4,0,0,0-.11-.07-.08Z"/><path class="cls-1" d="M62.15,34.67a17,17,0,0,1-1.89,1.81c-.76.59-1.62,1-2.4,1.54-.12.08-.07.3.1.25a9.06,9.06,0,0,0,4.27-3.53c0-.05,0-.12-.08-.07Z"/><path class="cls-1" d="M110.2,94.32c-1,.88-3.23.73-4.44.87-1.51.17-3,.29-4.53.55a0,0,0,0,0,0,.09c2-.11,4-.41,6-.63,1-.11,2.41,0,3.06-.84,0,0,0-.07,0,0Z"/><path class="cls-1" d="M63,102.14A17.35,17.35,0,0,0,70.8,102a.08.08,0,0,0,0-.15,50.85,50.85,0,0,1-7.8.25,0,0,0,0,0,0,0Z"/><path class="cls-1" d="M53.46,110.19c-4.61,4.45-9.71,13.27-17.24,10.25-.09,0-.16.11-.07.15a7.41,7.41,0,0,0,7.46-.29A24,24,0,0,0,48,116.17c1.85-2,3.75-3.91,5.52-5.94,0,0,0-.06,0,0Z"/><path class="cls-1" d="M60,109.49a12.25,12.25,0,0,1,2.92,1.39,12.44,12.44,0,0,1,2.21,2.32s.08,0,.07,0A7.22,7.22,0,0,0,60,109.44s0,0,0,0Z"/><path class="cls-1" d="M65.9,114.47c4.27,5.13,9.74,6.64,16.22,7.55.11,0,.11-.15,0-.17A42.27,42.27,0,0,1,73.73,120,20.37,20.37,0,0,1,66,114.42s-.09,0-.06,0Z"/><path class="cls-1" d="M5.39,84.53a9.76,9.76,0,0,0,.87,9.4,0,0,0,0,0,.08-.05,11.25,11.25,0,0,1-.8-9.31c0-.09-.11-.13-.15,0Z"/><path class="cls-1" d="M7.38,94.93c3.92,4.57,9.77,7.36,14.9,10.4a37.35,37.35,0,0,0,16.24,5c.1,0,.13-.15,0-.16-6.17-1-11.27-2.22-16.66-5.42-5.05-3-10.26-5.78-14.46-9.91a0,0,0,0,0,0,.05Z"/><path class="cls-1" d="M42.44,96.85a6,6,0,0,0,2.3,1.3s0,0,0,0a9,9,0,0,1-2.28-1.28s0,0,0,0Z"/><path class="cls-1" d="M39.77,94.93A25.18,25.18,0,0,1,45.53,98s.11,0,.07-.07a14.41,14.41,0,0,0-5.8-3.12,0,0,0,0,0,0,.09Z"/><path class="cls-1" d="M37.06,92.26c2.76,1.55,5.38,3.33,8.12,4.88.06,0,.14,0,.08-.09a29.69,29.69,0,0,0-8.16-4.87,0,0,0,0,0,0,.08Z"/><path class="cls-1" d="M37.6,91.27A71.9,71.9,0,0,1,46,97s.11,0,.07-.08a29.08,29.08,0,0,0-8.46-5.67s-.07,0,0,0Z"/><path class="cls-1" d="M38.91,91.19c.75-.54,3.42,1.65,4.13,2.08,1.27.79,2.54,1.59,3.81,2.37a.12.12,0,0,0,.13-.2q-2.85-1.78-5.73-3.54c-.61-.36-1.71-1.43-2.39-.77a0,0,0,1,0,0,.06Z"/><path class="cls-1" d="M44.83,94.65A17.72,17.72,0,0,0,54,98.24a.07.07,0,0,0,0-.13,28.84,28.84,0,0,1-9.14-3.53,0,0,0,0,0-.06.07Z"/><path class="cls-1" d="M56,89.8A25.68,25.68,0,0,0,57.18,95a.2.2,0,0,0,.38-.09c-.25-2.07-.42-4.16-.61-6.23l-.37,0c.28,2.1.66,4.18,1.05,6.26,0,.25.42.15.39-.09q-.48-3-.9-6.07l-.33.07a54.54,54.54,0,0,1,.61,6.5.1.1,0,0,0,.19,0,22,22,0,0,0-.47-6.57c0-.21-.35-.13-.33.07.3,2,.57,4.06.84,6.09l.39-.09c-.37-2.09-.69-4.17-1.08-6.25,0-.2-.38-.17-.36,0,.21,2.1.44,4.19.59,6.29l.39,0c-.47-1.71-.78-3.49-1.31-5.18,0-.1-.22-.1-.21,0Z"/><path class="cls-1" d="M56,89.67c.23,1,.54,1.89.74,2.86s.24,2,.49,2.9a.1.1,0,0,0,.2,0,11.82,11.82,0,0,0-1.32-5.78c0-.06-.13,0-.11,0Z"/></g></g></svg>