<svg xmlns="http://www.w3.org/2000/svg" viewBox="0 0 89.87 89.56"><defs><style>.cls-1{fill:#444;}</style></defs><title>icon-flower</title><g id="Calque_2" data-name="Calque 2"><g id="_2" data-name="2"><path class="cls-1" d="M46.29,32.59a18.68,18.68,0,0,0,1.42-6.37c.45-3.8,1.33-6.43,4-9.26.12-.14,0-.37-.19-.27-5,2.53-5.15,11-5.51,15.8,0,.16.24.26.32.1Z"/><path class="cls-1" d="M50.63,17.49c2.85-2.68,6.14-4.22,9.3-6.43C63.6,8.5,66.51,5.72,71,4.58c.22,0,.22-.44,0-.42-3.75.26-6.63,2.64-9.44,4.94-3.55,2.91-8.15,4.59-11,8.27-.06.08.07.19.14.12Z"/><path class="cls-1" d="M48.75,20.69c.55-.8,1-1.64,1.61-2.44A23.48,23.48,0,0,0,52.16,16c.06-.11,0-.26-.15-.22a4.06,4.06,0,0,0-2,1.86,13.51,13.51,0,0,0-1.42,2.94.08.08,0,0,0,.14.07Z"/><path class="cls-1" d="M49.3,19.63a21.26,21.26,0,0,1,1.8-2.24,21.38,21.38,0,0,0,1.74-1.69c0-.07,0-.2-.12-.17a5.58,5.58,0,0,0-2.11,1.72,9.15,9.15,0,0,0-1.5,2.29c0,.11.12.18.19.09Z"/><path class="cls-1" d="M49,19.9a16.23,16.23,0,0,1,2.17-2.71c.76-.75,1.74-1.28,2.47-2,.09-.1,0-.29-.13-.25a6.66,6.66,0,0,0-2.8,2,10,10,0,0,0-1.94,2.87c-.06.13.15.22.23.11Z"/><path class="cls-1" d="M49,19.77a20.81,20.81,0,0,1,2.45-2.85c.83-.8,1.85-1.4,2.65-2.22.06-.06,0-.19-.09-.16-2.29.71-4.08,3.15-5.11,5.17a.06.06,0,1,0,.1.06Z"/><path class="cls-1" d="M48.37,20.75a35.59,35.59,0,0,1,2.47-3.41c.88-.95,2.08-1.6,2.91-2.56.07-.08,0-.23-.1-.2a7.74,7.74,0,0,0-3.3,2.51,9,9,0,0,0-2.16,3.58.1.1,0,0,0,.18.08Z"/><path class="cls-1" d="M71.31,4.2c1.53,4,.4,9-.07,13.16-.44,3.79-1,7.66-2.92,11a22.11,22.11,0,0,1-7.38,7.33c-2,1.33-4.25,2.06-5.55,4.23a.38.38,0,0,0,.63.41c2-3.19,6.88-4.59,9.65-7.25a18.78,18.78,0,0,0,5-7.89,40.84,40.84,0,0,0,1.47-10.43c.19-3.52,1-7.43-.55-10.72-.08-.17-.31,0-.25.14Z"/><path class="cls-1" d="M54.88,14a33.17,33.17,0,0,0-3,2.52s0,.08,0,.06A30.74,30.74,0,0,0,55,14c.06,0,0-.13-.09-.09Z"/><path class="cls-1" d="M38.52,35.53c-.39-2.11-1.58-3.48-3.08-5a38.39,38.39,0,0,1-6.57-7.63c-2.35-3.95-3.26-7.79-2.09-12.35C27.46,8,29.53-.53,33.64.86c.28.09.51-.35.23-.49-5.59-2.74-8.25,10.41-8.44,13.76-.23,3.92,1.68,7.62,3.86,10.77,2.7,3.91,7.06,6.37,9.17,10.65,0,0,.06,0,.06,0Z"/><path class="cls-1" d="M33.51.58c8,4.34,16.13,8.44,15,19a.26.26,0,0,0,.5.09C52.19,10.16,41.21,2.82,33.56.48c-.06,0-.11.07-.05.1Z"/><path class="cls-1" d="M70.83,24.53c4-1.18,7.28-.88,10.77,1.65,2.69,2,6,2.61,7.78,5.71a.27.27,0,0,0,.47-.25c-1.45-3.49-6-4.67-8.94-6.67-3.17-2.18-6.62-2-10.18-.87-.27.08-.18.51.1.43Z"/><path class="cls-1" d="M89.49,32.12c-1.41,3.63-3.26,5.54-6.45,7.71a46.09,46.09,0,0,1-7.45,4.09c-.25.11-.09.49.17.45,3.34-.62,6.38-3,9-5,2.35-1.83,4.69-4,4.86-7.18,0-.09-.11-.1-.14,0Z"/><path class="cls-1" d="M28.79,24.31c-3.16-2.5-8.53-2.64-12.34-2.3-2.86.25-7.26.73-8.71,3.62a.2.2,0,0,0,.34.22c2.37-3.14,8.22-3.51,11.76-3.4a25.43,25.43,0,0,1,8.87,2c.1,0,.16-.11.08-.16Z"/><path class="cls-1" d="M7.77,26a14.88,14.88,0,0,0,1.29,2.61,26.23,26.23,0,0,1,2.86,3.74c1.17,2,3.07,3,5.21,3.86.31.12.45-.35.16-.48a15,15,0,0,1-3.88-2.2c-.94-.88-1.31-2.14-2.09-3.14-.65-.83-1.52-1.46-2.16-2.3.08.1-1-2.23-1-2.2a1.74,1.74,0,0,0-.2-.13.14.14,0,0,0-.19,0L7.73,26s0,.08,0,.08Z"/><path class="cls-1" d="M38.78,40c-6.91-4-13.9-5.59-21.77-4.14-2.85.53-6.18.92-8.46,2.9-2.75,2.39-4,6-6.75,8.41-.22.2.05.6.3.43,2-1.25,3-3.07,4.3-5,2.37-3.61,5.18-5,9.39-5.8s8.13-1.29,12.3-.41c3.71.79,7.1,2.42,10.6,3.81.11.05.2-.13.09-.2Z"/><path class="cls-1" d="M2.39,47c-3.18,1.19,1.08,3.13,2.16,3.65,4.8,2.28,10.86,4.71,16.25,3.28a.27.27,0,0,0-.12-.53,27.77,27.77,0,0,1-10.41-1,24.68,24.68,0,0,1-3-1.14c-.38-.16-6.74-3-4.8-4.12A.09.09,0,0,0,2.39,47Z"/><path class="cls-1" d="M37.2,46.19c-4.63,5.92-14.3,5.28-17.55,12.58-1.25,2.82-.76,5.72-.87,8.7s-1.2,6.11.41,8.91c.12.21.5.1.41-.16-1.09-3.17-.16-6.15-.1-9.39.08-5,.13-9.29,4.84-12.36,4.49-2.92,10-3.34,13.16-8.09.13-.19-.16-.37-.3-.19Z"/><path class="cls-1" d="M19.4,76.56l.09.51a.23.23,0,0,0,.15.18c2.09.5,4.45-1.16,6.29-2,3.49-1.52,7.69-2.85,10.84-5,5-3.38,4.82-11.94,8.44-16.49.19-.24-.19-.56-.4-.35-3.52,3.41-4,8.54-6,12.8-1.68,3.5-5.19,4.74-8.52,6.32-1.61.76-9.44,5.23-10.73,3.91a.08.08,0,0,0-.13.07Z"/><path class="cls-1" d="M45.49,52.64c-.41.15-.67.72-.86,1.08A2,2,0,0,0,44.27,55a.09.09,0,0,0,.15,0,3.65,3.65,0,0,0,.66-1.17,3.09,3.09,0,0,0,.54-1.11.09.09,0,0,0-.13-.08Z"/><path class="cls-1" d="M45.5,53c-.68.67-1.63,1.7-1.61,2.72,0,.08.11.16.18.08a5.38,5.38,0,0,0,.71-1.29,15.41,15.41,0,0,1,.84-1.41c.05-.07,0-.16-.12-.1Z"/><path class="cls-1" d="M45.91,52.43a4.29,4.29,0,0,0-2.32,3.12c0,.07.09.1.13,0,.35-.54.61-1.13,1-1.66s.85-1,1.24-1.47c0,0,0,0,0,0Z"/><path class="cls-1" d="M40.21,65.09c-1.16,4-1.24,8.78,2,11.92,1.83,1.77,4.49,2,6.35,3.76,1.57,1.49,2.26,3.5,4.19,4.64.25.15.57-.18.34-.41-2-2-3.25-4.72-5.8-6.17-2.4-1.38-4.73-2-6.14-4.65s-1.22-6-.79-9.06c0-.09-.13-.11-.16,0Z"/><path class="cls-1" d="M52.9,85.38c4.17-1,4.25-6.37,5.49-9.74,1.31-3.54,3.08-8-.06-11.12a.28.28,0,0,0-.45.31c1.84,3.72,1.06,6.86-.12,10.6-1.09,3.47-1,8.14-4.9,9.84-.06,0,0,.12,0,.11Z"/><path class="cls-1" d="M49.57,52.9c2.34,1.46,4.68,2.76,6,5.29,1,1.83,1.16,4,2.43,5.71,1.61,2.17,4.29,2.94,6.82,3.45,4.8,1,7.26.05,11.55-1.73,2.72-1.13,6.36-.86,8.11-3.55a.33.33,0,0,0-.5-.43c-2.37,2.15-5.76,2.14-8.57,3.46a16.15,16.15,0,0,1-13.53.53c-4-1.63-3.93-5.25-6-8.35-1.47-2.23-3.87-3.55-6.24-4.61-.14-.06-.24.16-.11.23Z"/><path class="cls-1" d="M53.1,42.3l-.11.14a.21.21,0,0,0,0,.26c1,1.14,3.43.28,4.71,0a31.18,31.18,0,0,1,13.64.88c4,1.13,5.25,3.68,7.66,6.65s7.59,5.32,8.56,9.18a.22.22,0,0,0,.43,0c.28-2.82-3.05-4.63-4.9-6.3a24,24,0,0,1-4.6-5,11.44,11.44,0,0,0-2.28-3c-2.43-2-5.8-2.51-8.84-2.95a32.26,32.26,0,0,0-6.51-.44c-.77.05-7.52,1-7.45.79s-.2-.3-.33-.15Z"/><path class="cls-1" d="M87.89,59.37c-.84.55-1.56,1.3-2.38,1.9A12.12,12.12,0,0,0,83.06,63c-.08.1,0,.22.15.21a6.34,6.34,0,0,0,2.54-1.44,10.72,10.72,0,0,0,2.4-2.1c.11-.16-.09-.4-.26-.29Z"/><path class="cls-1" d="M48.19,39.93c-.5-1-2.67-.9-3.44-.35-.1.07,0,.2.1.19a6.56,6.56,0,0,1,1.77-.16,12.32,12.32,0,0,0,1.53.4.05.05,0,0,0,0-.08Z"/><path class="cls-1" d="M43.65,40.49a3.39,3.39,0,0,0-.63,4c0,.07.2.07.19,0a9.16,9.16,0,0,1-.15-1.89,7.49,7.49,0,0,1,.72-2c0-.08-.07-.13-.13-.08Z"/><path class="cls-1" d="M44.65,45.71a2.94,2.94,0,0,0,4.05-.46c1-1.11,1.43-3.39.3-4.53-.07-.08-.18,0-.17.09a13.18,13.18,0,0,1,.38,1.87,3.84,3.84,0,0,1-.61,2.11c-1,1.41-2.48,1.36-3.92.88,0,0,0,0,0,0Z"/><path class="cls-1" d="M46.69,40c-1.66-1.15-4.75,2.82-2.88,4,0,0,.08,0,.06,0a2,2,0,0,1,.28-2.49,3.06,3.06,0,0,1,2.51-1.39,0,0,0,0,0,0-.09Z"/><path class="cls-1" d="M31.45,2.29C29,3.31,27.7,8.77,27.3,11A10.69,10.69,0,0,0,29,19.59c.09.12.29,0,.21-.14a11.18,11.18,0,0,1-1.85-7.87C27.73,9,29.08,3.81,31.5,2.39c.06,0,0-.13-.05-.1Z"/><path class="cls-1" d="M29.43,20.91a16.94,16.94,0,0,0,4.07,5.95,26.88,26.88,0,0,1,5.44,8.39c.05.12.26,0,.22-.09-1.71-5.89-7-9-9.69-14.26,0,0,0,0,0,0Z"/><path class="cls-1" d="M37.32,30.36a22.36,22.36,0,0,0,1,2.19,13,13,0,0,0,1.1,2.13.12.12,0,0,0,.2-.1,11.82,11.82,0,0,0-.95-2,23.86,23.86,0,0,0-1.21-2.22s-.12,0-.1,0Z"/><path class="cls-1" d="M37.74,30.05a29.06,29.06,0,0,0,1.94,4,.11.11,0,0,0,.19-.1,27.38,27.38,0,0,0-2-4,.07.07,0,0,0-.12.06Z"/><path class="cls-1" d="M38.34,30.16a21.35,21.35,0,0,0,.95,2.27,8.68,8.68,0,0,0,1.13,2.18.11.11,0,0,0,.19-.1,7.58,7.58,0,0,0-.89-2.12,20.09,20.09,0,0,0-1.2-2.3c-.05-.09-.22-.05-.18.07Z"/><path class="cls-1" d="M45.68,28.05a18.91,18.91,0,0,0,.16,4.69c0,.14.25.12.26,0A19.23,19.23,0,0,0,45.79,28a.06.06,0,0,0-.11,0Z"/><path class="cls-1" d="M45.82,26.74l0,.2s0,0,0,0l.19.06a.06.06,0,0,0,.07-.05c.23-1.48.31-3,.53-4.46s.65-2.89.83-4.36c0-.07-.11-.12-.14-.05a11.92,11.92,0,0,0-1,3.76c-.11.85-.2,1.7-.26,2.55a11.5,11.5,0,0,0-.23,2.3c0-.05-.08,0-.07,0Z"/><path class="cls-1" d="M47.63,17.41c-.07-2.88-1.73-5.66-3.31-8-1.38-2-3.18-3.93-5.65-4.49a.08.08,0,0,0-.05.16,16.83,16.83,0,0,1,8.87,12.32.07.07,0,0,0,.14,0Z"/><path class="cls-1" d="M46.75,31.27c-.18.47-.14,1-.29,1.49a13.52,13.52,0,0,1-.67,1.38c0,.11.11.19.19.12a3.19,3.19,0,0,0,.89-3c0-.06-.1,0-.12,0Z"/><path class="cls-1" d="M46.59,30.71c-.17.71-.33,1.42-.53,2.12a15.78,15.78,0,0,0-.55,1.86c0,.14.19.2.26.09a10.93,10.93,0,0,0,1-4c0-.12-.2-.16-.23,0Z"/><path class="cls-1" d="M47.1,29.55c-.17.87-.32,1.73-.54,2.59s-.58,1.68-.76,2.54c0,.11.13.21.2.09a11.93,11.93,0,0,0,1.26-5.19c0-.09-.14-.12-.16,0Z"/><path class="cls-1" d="M47.57,30.37c-.18.82-.35,1.63-.6,2.43a15.89,15.89,0,0,0-.7,2.08c0,.07.09.09.13,0a9.68,9.68,0,0,0,1.34-4.52c0-.09-.15-.12-.17,0Z"/><path class="cls-1" d="M48.09,31.06c-.23.75-.41,1.51-.67,2.25A10.52,10.52,0,0,0,46.74,35a.17.17,0,0,0,.12.17l.07,0a.16.16,0,0,0,.18-.06l0-.07a.1.1,0,0,0,0-.15l0,0a.1.1,0,0,0-.14.11c.05.22.57-.83.54-.77.15-.37.28-.74.4-1.11a9.59,9.59,0,0,0,.43-2,.11.11,0,0,0-.22,0Z"/><path class="cls-1" d="M48.7,31.61a8.75,8.75,0,0,1-1.16,2.81c-.13.19.09.38.28.3s.12-.07.17-.17a.1.1,0,0,0,0-.13l0-.07a.09.09,0,0,0-.17,0h0l.07.29a6,6,0,0,0,1.07-3c0-.15-.23-.21-.27-.05Z"/><path class="cls-1" d="M49,32c-.15.41-.29.84-.45,1.25a3.59,3.59,0,0,0-.39,1.11.12.12,0,0,0,.2.1,2.44,2.44,0,0,0,.52-1.1,6.87,6.87,0,0,0,.29-1.33c0-.1-.13-.12-.17,0Z"/><path class="cls-1" d="M49.46,32.32c-.17.36-.35.73-.52,1.1a2.41,2.41,0,0,0-.36,1,.12.12,0,0,0,.21.09,2.18,2.18,0,0,0,.47-.92c.16-.4.3-.81.45-1.21.06-.17-.18-.23-.25-.08Z"/><path class="cls-1" d="M47.63,32.81a57.22,57.22,0,0,0,1.54-9.65.06.06,0,0,0-.12,0,56.15,56.15,0,0,0-1.56,9.64c0,.08.12.1.14,0Z"/><path class="cls-1" d="M49.71,21.7c3.64-8,13.65-10.9,20.18-16a.09.09,0,0,0-.1-.14A115.9,115.9,0,0,0,56.36,14c-2.89,2-5.5,4.25-6.74,7.63a0,0,0,1,0,.09,0Z"/><path class="cls-1" d="M53.29,34.65v.26s0,0,0,0l0-.26a0,0,0,0,0,0,0Z"/><path class="cls-1" d="M54.05,32.91a11.63,11.63,0,0,1-1.28,2.15,10.47,10.47,0,0,1-1,1c-.17.17-.23.19-.23.42a.13.13,0,0,0,.12.12c.11,0,.13,0,.2-.09a.09.09,0,0,0,0-.1l0,0a.07.07,0,0,0-.11,0s.77-.69.82-.75a9.22,9.22,0,0,0,.62-.78,7,7,0,0,0,.94-2c0-.05-.06-.1-.09,0Z"/><path class="cls-1" d="M54.13,33.35a13.78,13.78,0,0,1-.89,1.91,10.78,10.78,0,0,0-.91,1.43,0,0,0,0,0,.07.06,3.78,3.78,0,0,0,1.12-1.44,7.71,7.71,0,0,0,.79-1.9.09.09,0,0,0-.18-.06Z"/><path class="cls-1" d="M54.94,33.52c-.21.41-.4.83-.63,1.24s-.52.78-.72,1.2c0,.08,0,.16.11.1A4.7,4.7,0,0,0,55,33.56c0-.05-.06-.1-.09,0Z"/><path class="cls-1" d="M66.74,9.54a9.3,9.3,0,0,0-1.13,2c-.34.69-.72,1.38-1,2.1a.08.08,0,0,0,.15.07,22.34,22.34,0,0,0,1.15-2.16,8.6,8.6,0,0,0,.86-2s0-.05,0,0Z"/><path class="cls-1" d="M64.6,14.2a5.47,5.47,0,0,0-.49,1.17,0,0,0,0,0,.07,0,4.85,4.85,0,0,0,.47-1.18s0-.05-.05,0Z"/><path class="cls-1" d="M63.55,16.53c-1.3,2.37-2.76,4.68-4,7.1,0,.05,0,.11.09.05a44.75,44.75,0,0,0,3.89-7.13s0,0,0,0Z"/><path class="cls-1" d="M55,18.36a25.75,25.75,0,0,0-1.37,2.79c-.15.35-.8,1.3-.47,1.64a.09.09,0,0,0,.14,0l0-.05a.07.07,0,0,0-.06-.1h0s-.08.05,0,.08a7.43,7.43,0,0,0,.48-1c.14-.36.29-.71.44-1.06.32-.74.64-1.49,1-2.23,0,0-.05-.07-.07,0Z"/><path class="cls-1" d="M55.56,18.78a10.25,10.25,0,0,0-1.87,4.08c0,.06.09.09.11,0,.29-.59.47-1.22.72-1.82.34-.77.72-1.51,1.1-2.26a0,0,0,0,0-.06,0Z"/><path class="cls-1" d="M49.53,24.51c-.29,2.27-.75,4.49-1.08,6.74,0,.07.09.09.12,0a22.74,22.74,0,0,0,1-6.75,0,0,0,0,0-.07,0Z"/><path class="cls-1" d="M49.87,23.61a11.14,11.14,0,0,1,1-2.61,17.59,17.59,0,0,1,1.52-2c0-.06-.05-.13-.11-.08a7.43,7.43,0,0,0-2.54,4.7c0,.08.12.1.14,0Z"/><path class="cls-1" d="M70.68,6A61.9,61.9,0,0,1,68,26.21c0,.1.11.14.16.05C71,20.31,71.28,12.43,70.74,6c0,0-.06,0-.06,0Z"/><path class="cls-1" d="M67.46,27.77a23.1,23.1,0,0,1-8.26,7.48c-2,1.16-4.24,2.43-5.13,4.69-.06.17.18.27.28.13,3.57-5.15,10.38-6.3,13.12-12.29,0,0,0,0,0,0Z"/><path class="cls-1" d="M61.35,37.16l.18-.13,0-.19a11.85,11.85,0,0,0-2.85,1.58,4.69,4.69,0,0,0-1.91,2.18.09.09,0,0,0,.14.09A17.26,17.26,0,0,1,59,38.58c.83-.6,1.77-1,2.63-1.56a.1.1,0,0,0-.07-.19.29.29,0,0,0-.28.31.06.06,0,0,0,.12,0Z"/><path class="cls-1" d="M62.16,36.83a17.6,17.6,0,0,0-4.68,3.4c-.16.17.08.44.25.28a29.77,29.77,0,0,1,4.49-3.58.06.06,0,0,0-.06-.1Z"/><path class="cls-1" d="M62.3,37.41a33.64,33.64,0,0,0-3,1.66c-.55.32-1.18.7-1.29,1.36,0,.13.15.19.24.12a10.79,10.79,0,0,1,2-1.56c.73-.45,1.48-.9,2.17-1.42.09-.07,0-.21-.11-.16Z"/><path class="cls-1" d="M61.5,36.74a11.39,11.39,0,0,0-3.28,1.83c-.74.56-2,1.39-2,2.45a.16.16,0,0,0,.3.1c1.3-1.89,3.16-2.92,5-4.21.07,0,0-.21-.07-.17Z"/><path class="cls-1" d="M60.57,37.39a5.64,5.64,0,0,0-2.24,1.09c-.53.4-1.4,1.05-1.5,1.75,0,.13.13.19.22.15a2.17,2.17,0,0,0,.65-.63,7.66,7.66,0,0,1,.87-.84,12.71,12.71,0,0,1,2.06-1.33.1.1,0,0,0-.06-.19Z"/><path class="cls-1" d="M60.47,37.87A9.13,9.13,0,0,0,56.82,41c-.12.2.14.45.32.27.56-.55,1-1.17,1.62-1.71s1.2-1,1.83-1.48c.1-.07,0-.22-.12-.17Z"/><path class="cls-1" d="M58.7,39.23a2.9,2.9,0,0,0-1,.65c-.21.21-.64.54-.55.87,0,0,0,.08.09.07.32,0,.48-.38.68-.6s.61-.55.91-.83a.09.09,0,0,0-.09-.16Z"/><path class="cls-1" d="M59,39.91a.94.94,0,0,0-.74.53s0,.08.08.05A1.23,1.23,0,0,1,59,40c.08,0,.05-.15,0-.13Z"/><path class="cls-1" d="M38.37,37.75h-.06s-.06,0-.06,0v.06a.06.06,0,0,0,0,.08,13.24,13.24,0,0,1,3,1.65,4.26,4.26,0,0,0,2.4.89.05.05,0,0,0,0-.1,10.16,10.16,0,0,1-3.06-1.51c-.59-.39-1.56-1.14-2.33-1,0,0,0-.06,0-.08Z"/><path class="cls-1" d="M39.09,37.07c1.49.85,3,1.84,4.57,2.56.09,0,.12-.08.07-.13A16.73,16.73,0,0,0,39.14,37c-.06,0-.11.07,0,.1Z"/><path class="cls-1" d="M40.65,36.1c.44.28.87.57,1.28.89a12.13,12.13,0,0,0,1.19,1c.06,0,.14,0,.1-.08a3.93,3.93,0,0,0-1-1A10.75,10.75,0,0,0,40.71,36c-.06,0-.12.05-.06.09Z"/><path class="cls-1" d="M41.23,35c.33.5.72,1,1.09,1.44a5.75,5.75,0,0,0,1.2,1.35c.07,0,.14,0,.11-.11a5.51,5.51,0,0,0-1-1.36,18.53,18.53,0,0,0-1.24-1.42c-.07-.06-.19,0-.14.1Z"/><path class="cls-1" d="M42.76,34.17A3.11,3.11,0,0,0,43.62,36a.08.08,0,0,0,.12-.09c-.12-.3-.31-.58-.46-.87s-.26-.6-.39-.9c0-.07-.14,0-.13.05Z"/><path class="cls-1" d="M43.63,38.42a1.37,1.37,0,0,1,.43.4,2.26,2.26,0,0,0,.22.37.1.1,0,0,0,.15,0c.1-.42-.35-.81-.7-.95-.12-.05-.21.14-.1.21Z"/><path class="cls-1" d="M44.1,36.65a15.87,15.87,0,0,1,.61,1.48c0,.08.15,0,.16,0a2.25,2.25,0,0,0-.62-1.55c-.07-.08-.21,0-.15.11Z"/><path class="cls-1" d="M42.34,41.79c-1.82.1-3.63.18-5.45.25-.13,0-.15.21,0,.21A52.87,52.87,0,0,0,42.36,42c.12,0,.1-.23,0-.22Z"/><path class="cls-1" d="M42.16,42.84a8.63,8.63,0,0,0-5.1.4c-.1,0,0,.17.06.16.84-.12,1.64-.36,2.49-.44s1.7-.08,2.54-.09c0,0,0,0,0,0Z"/><path class="cls-1" d="M42.51,41.32A11,11,0,0,0,41.26,41a2,2,0,0,0-1-.09.12.12,0,0,0,0,.22,2,2,0,0,0,1,.26,9.23,9.23,0,0,0,1.29.11.08.08,0,0,0,0-.16Z"/><path class="cls-1" d="M42.6,44.59a7.06,7.06,0,0,0-2.23.94,7.77,7.77,0,0,0-2,1.43c0,.07,0,.17.09.13.7-.39,1.32-.9,2-1.31s1.47-.68,2.12-1.13a0,0,0,0,0,0-.06Z"/><path class="cls-1" d="M43,45a19.35,19.35,0,0,0-4,2.83.07.07,0,0,0,.07.11,19.12,19.12,0,0,0,4-2.87A0,0,0,0,0,43,45Z"/><path class="cls-1" d="M43.46,45.26a7.78,7.78,0,0,0-2.29,1.61A5.51,5.51,0,0,0,39.62,49a.14.14,0,0,0,.23.14c.65-.56,1.09-1.39,1.7-2a25.54,25.54,0,0,1,2-1.74c.06,0,0-.13-.08-.1Z"/><path class="cls-1" d="M43.69,45.82a13.37,13.37,0,0,0-1.48,1.33,3.85,3.85,0,0,0-1,1.31c0,.11.09.23.19.17a5.45,5.45,0,0,0,1.18-1.26c.43-.47.87-.92,1.31-1.37a.12.12,0,0,0-.16-.18Z"/><path class="cls-1" d="M42.55,44.23a13.41,13.41,0,0,0-1.43.69c-.36.18-.88.32-1.08.7a.14.14,0,0,0,.11.21c.44,0,.88-.36,1.25-.58s.89-.51,1.29-.82c.12-.09,0-.25-.14-.2Z"/><path class="cls-1" d="M42.45,43.89a5.84,5.84,0,0,0-1.7.64c-.44.23-1.12.51-1.35,1a.19.19,0,0,0,.2.28A4.44,4.44,0,0,0,41,45c.51-.29,1.06-.51,1.55-.82a.17.17,0,0,0-.11-.31Z"/><path class="cls-1" d="M42.35,43.43a10.81,10.81,0,0,0-1.19.46,3.27,3.27,0,0,0-1.16.55.16.16,0,0,0,.1.26,2.47,2.47,0,0,0,1.19-.39,5.56,5.56,0,0,0,1.16-.71.1.1,0,0,0-.1-.17Z"/><path class="cls-1" d="M42.11,43.32a6.26,6.26,0,0,0-1,.29,1.58,1.58,0,0,0-.7.34.11.11,0,0,0,.07.19,1.42,1.42,0,0,0,.74-.22,7.69,7.69,0,0,0,.91-.45.08.08,0,0,0-.06-.15Z"/><path class="cls-1" d="M42.27,43a4.94,4.94,0,0,0-1,.27,1.41,1.41,0,0,0-.73.47.09.09,0,0,0,.07.14,1.59,1.59,0,0,0,.73-.32L42.3,43c.05,0,0-.11,0-.09Z"/><path class="cls-1" d="M42,42.92a1.62,1.62,0,0,0-1.26.22.09.09,0,0,0,.07.15,5.8,5.8,0,0,1,1.19-.2c.11,0,.11-.15,0-.17Z"/><path class="cls-1" d="M43.57,47.27a8.59,8.59,0,0,0-1.21,2.35c0,.13.15.18.2.06a16.74,16.74,0,0,1,1.14-2.33.08.08,0,0,0-.13-.08Z"/><path class="cls-1" d="M44,47.71c-.17.33-.32.68-.46,1a3.28,3.28,0,0,0-.36,1.08.08.08,0,0,0,.15,0,3.19,3.19,0,0,0,.42-1c.14-.37.27-.75.38-1.13,0-.07-.09-.14-.13-.06Z"/><path class="cls-1" d="M44.63,48.15l-.39,1c-.11.26-.3.5-.26.78a.12.12,0,0,0,.16.08c.27-.13.36-.47.45-.74a3.8,3.8,0,0,0,.23-1.05.1.1,0,0,0-.19,0Z"/><path class="cls-1" d="M45.12,48.57c-.12.31-.4.66-.27,1,0,0,.07,0,.11,0,.29-.19.26-.64.34-1a.09.09,0,1,0-.18-.06Z"/><path class="cls-1" d="M45.18,48.69c.13.07.23.07.27.22a.64.64,0,0,1-.06.36,2.54,2.54,0,0,0-.2.52c0,.07.09.1.13.06a1.47,1.47,0,0,0,.38-1.07.12.12,0,0,0-.07-.1l-.39-.17c-.12-.06-.18.13-.06.18Z"/><path class="cls-1" d="M39.06,44.05a2.09,2.09,0,0,0-1.15.14c-.32.08-.81.11-1,.42a.17.17,0,0,0,0,.2c.32.19.72,0,1.05-.12a2.16,2.16,0,0,0,1.08-.47.11.11,0,0,0,0-.17Z"/><path class="cls-1" d="M38.76,44.64a4.51,4.51,0,0,0-.87.31c-.23.09-.4.15-.46.39a.23.23,0,0,0,.15.3.31.31,0,0,0,.25,0,.25.25,0,0,0,.11-.18v0a.18.18,0,0,0-.17-.18.11.11,0,0,0-.12,0l.17,0-.13,0,.21.17c0,.12,0,.05.14,0a2.31,2.31,0,0,0,.35-.18,3.32,3.32,0,0,0,.5-.33.15.15,0,0,0-.13-.26Z"/><path class="cls-1" d="M38.62,45a1.29,1.29,0,0,0,.16.58.09.09,0,0,0,.16,0,1.35,1.35,0,0,0,0-.6.14.14,0,0,0-.28.06Z"/><path class="cls-1" d="M44.37,44.45s0,0,0,0,0,0,0,0Z"/><path class="cls-1" d="M44.4,44.51a2.44,2.44,0,0,0,2.82.51,2.32,2.32,0,0,0,1.38-2.38.07.07,0,0,0-.14,0,2.82,2.82,0,0,1-1.16,2,2.66,2.66,0,0,1-2.85-.2,0,0,0,0,0-.05,0Z"/><path class="cls-1" d="M46,45.14a2.31,2.31,0,0,0,.33,1.06c0,.06.13,0,.13-.05a2.19,2.19,0,0,0-.3-1.07c0-.09-.17,0-.16.06Z"/><path class="cls-1" d="M46.76,44.9a.82.82,0,0,0,0,1c.07.06.21.06.24,0A3.41,3.41,0,0,0,47,45c0-.1-.14-.17-.19-.07Z"/><path class="cls-1" d="M47.15,44.75c-.07.32-.07.87.31,1a.15.15,0,0,0,.19-.13c0-.28-.23-.59-.33-.85a.09.09,0,0,0-.17,0Z"/><path class="cls-1" d="M47.39,44.69c.3.17.17.4.17.67a.23.23,0,0,0,.22.24.22.22,0,0,0,.25-.12.16.16,0,0,0,0-.22c.08.06.08-.18.08-.22a.63.63,0,0,0-.13-.35.5.5,0,0,0-.52-.19.1.1,0,0,0,0,.19Z"/><path class="cls-1" d="M47.9,44.22c0,.38-.14,1.09.17,1.37a.12.12,0,0,0,.17,0c.25-.34,0-1-.1-1.37a.12.12,0,0,0-.24,0Z"/><path class="cls-1" d="M48.38,44a1.6,1.6,0,0,0,.19,1.08.1.1,0,0,0,.17,0A1.57,1.57,0,0,0,48.62,44c0-.12-.24-.12-.24,0Z"/><path class="cls-1" d="M48.8,43.13A1,1,0,0,0,49,44.27a.12.12,0,0,0,.17-.09,8.26,8.26,0,0,1-.1-1,.13.13,0,0,0-.26,0Z"/><path class="cls-1" d="M40.69,48.84c-.07-.13-.45.55-.46.57s-.14.21,0,.27a.33.33,0,0,0,.17,0l-.18,0a.3.3,0,0,1,.08.08.13.13,0,0,0,.19,0,.38.38,0,0,0-.37-.57.44.44,0,0,0-.4.63.53.53,0,0,0,.75.19,1.13,1.13,0,0,0,.31-1.18.11.11,0,0,0-.09-.06.18.18,0,0,0-.16.09.09.09,0,0,0,0,.1l0,0c.07.1.23,0,.17-.09Z"/><path class="cls-1" d="M41,48.92c-.15.33-.44.85-.22,1.2a.15.15,0,0,0,.19.06c.37-.25.3-.82.29-1.21a.13.13,0,0,0-.26,0Z"/><path class="cls-1" d="M41.57,49.09c-.31.3-.64.84-.44,1.27a.2.2,0,0,0,.33,0,1.44,1.44,0,0,0,.14-.54,3.23,3.23,0,0,1,.22-.59c.06-.14-.14-.25-.25-.16Z"/><path class="cls-1" d="M41.92,49.43c-.15.27-.33.66-.14.94a.14.14,0,0,0,.24,0c.19-.23.15-.58.19-.86a.16.16,0,0,0-.29-.09Z"/><path class="cls-1" d="M40.88,48.55a4,4,0,0,0-.77,1.1l.51.16c0-.19.07-.36.07-.55a.1.1,0,0,0-.16-.08c-.15.13-.24.28-.38.41-.3.29.22.71.43.36a4,4,0,0,0,.56-1.23c0-.15-.13-.29-.26-.17Z"/><path class="cls-1" d="M40.85,48.86a.28.28,0,0,0,0-.13.16.16,0,0,0-.15-.1.35.35,0,0,0-.24.08s-.16.24-.07.21c-.4.14-.14.72.19.52s.21-.36.29-.61h-.15l0,0c0,.07.14.08.14,0Z"/><path class="cls-1" d="M42.29,49.42a3.35,3.35,0,0,1-.22.84c-.08.21.16.36.34.29s.24-.15.24-.31a.15.15,0,0,0-.17-.15.22.22,0,0,1-.11,0l.15.3a1.59,1.59,0,0,0,.07-1,.15.15,0,0,0-.3,0Z"/><path class="cls-1" d="M43.08,49.57c-.3.19-.66.85-.23,1.11.11.07.24.08.31,0,.18-.3-.28-.55.06-.87.1-.1,0-.28-.14-.2Z"/><path class="cls-1" d="M43.37,49.78a.89.89,0,0,0-.13.83.18.18,0,0,0,.21.1h.08a.12.12,0,0,0,.1-.15.27.27,0,0,0-.16-.21l.07.33a1,1,0,0,0,.19-.83.2.2,0,0,0-.36-.06Z"/><path class="cls-1" d="M43.55,50l.37,0,0-.21a2,2,0,0,0-.34.94.24.24,0,0,0,.35.22c.16-.11.27-.22.23-.42a.15.15,0,0,0-.21-.1l-.19.08.29.24a4.64,4.64,0,0,1,.14-.83.15.15,0,0,0-.1-.19.94.94,0,0,0-.55,0c-.16,0-.1.29,0,.24Z"/><path class="cls-1" d="M44.51,49.83c-.16.12-.36.33-.19.55a.28.28,0,0,0,.44,0,.15.15,0,0,0,0-.13l0,0c0-.05-.06-.1-.11-.08s.08.08,0,0a.13.13,0,0,1,0-.17.14.14,0,0,0-.21-.17Z"/><path class="cls-1" d="M44.6,50.08l.15,0,0-.2c-.16.27-.33.77,0,.95a.14.14,0,0,0,.19,0c.16-.23,0-.54.09-.81a.17.17,0,0,0-.08-.15.54.54,0,0,0-.33-.08c-.18,0-.2.29,0,.29Z"/><path class="cls-1" d="M45.42,50a1,1,0,0,0-.34.83.21.21,0,0,0,.38.12,1,1,0,0,0,.13-.23.13.13,0,0,0-.14-.16.82.82,0,0,0-.26.1l.29.13a.66.66,0,0,1,.11-.65c.08-.1-.08-.23-.17-.14Z"/><path class="cls-1" d="M45.58,50.28c0,.29.28.61.54.39,0,0,0-.08,0-.09a.41.41,0,0,1-.38-.29.07.07,0,0,0-.13,0Z"/><path class="cls-1" d="M37.79,41.7a1.27,1.27,0,0,0-.75-.77c-.34-.16-.52.35-.27.55a1.29,1.29,0,0,0,1.12.25c.4-.08.26-.68-.14-.61l-.52.08c-.3,0-.34.55,0,.61s1,.07,1.1-.39a.15.15,0,0,0-.1-.19c-.27-.06-.53,0-.8,0l0,.61.52-.09c0-.2-.1-.41-.14-.61a.74.74,0,0,1-.64-.15l-.18.56a1,1,0,0,1,.57.33.17.17,0,0,0,.29-.16Z"/><path class="cls-1" d="M37.5,40.46c-.38.27,0,.82.37.83a.25.25,0,0,0,.21-.11.23.23,0,0,0,0-.25c0-.07-.11-.11-.15-.17a1.69,1.69,0,0,1-.08-.24.24.24,0,0,0-.36-.06Z"/><path class="cls-1" d="M47.16,46.37a13.83,13.83,0,0,0,1.43,3.24c0,.06.14,0,.12-.06a25.85,25.85,0,0,0-1.54-3.18Z"/><path class="cls-1" d="M47.56,45.91a19.36,19.36,0,0,0,2,4c0,.06.14,0,.12-.07a14.6,14.6,0,0,0-.9-1.87c-.36-.7-.7-1.41-1.08-2.09a.08.08,0,0,0-.14.07Z"/><path class="cls-1" d="M48.6,46.18c.35.57.7,1.13,1.06,1.69a8.32,8.32,0,0,0,1,1.45c0,.06.13,0,.1-.07a10.56,10.56,0,0,0-1-1.58l-1-1.58c-.06-.09-.22,0-.16.09Z"/><path class="cls-1" d="M49.69,46.74c.34.33.7.66,1,1a9.23,9.23,0,0,0,.9,1c.06.05.13,0,.1-.09a4.35,4.35,0,0,0-.87-1.09,8.32,8.32,0,0,0-1-.94.09.09,0,0,0-.12.14Z"/><path class="cls-1" d="M50.56,47.13a6.19,6.19,0,0,1,1.35,1.49s.1,0,.09,0A2.87,2.87,0,0,0,50.65,47a.08.08,0,0,0-.09.14Z"/><path class="cls-1" d="M47.72,49.87a5.19,5.19,0,0,1,.54,1c.12.32.65.23.55-.13a2.82,2.82,0,0,0-.41-1,.13.13,0,0,0-.22.05,2.84,2.84,0,0,0,.08,1.08l.55-.13a1.73,1.73,0,0,0-.92-1.06c-.11,0-.24.11-.17.21Z"/><path class="cls-1" d="M48.31,49.43c.24.36.62,1,1.1.92a.19.19,0,0,0,.14-.17c.05-.43-.59-.84-.91-1s-.46.1-.33.3Z"/><path class="cls-1" d="M49.23,49.85a.57.57,0,0,0,.53.61A.24.24,0,0,0,49.9,50a.73.73,0,0,1-.33-.25.19.19,0,0,0-.34.08Z"/><path class="cls-1" d="M50,50.18a.33.33,0,0,0,.16.19.2.2,0,0,0,.27-.06l0,0a.13.13,0,0,0,0-.16c0-.06-.11-.08-.15-.13s-.36,0-.29.2Z"/><path class="cls-1" d="M48.9,35a12.65,12.65,0,0,0-1.25,1.75,4.14,4.14,0,0,0-.71,1.59c0,.07.08.08.12,0A11.8,11.8,0,0,0,48,36.73a13.1,13.1,0,0,1,1.11-1.57c.09-.11-.1-.23-.19-.12Z"/><path class="cls-1" d="M49.75,35.4a7.85,7.85,0,0,0-1.87,3.15c0,.05,0,.09.08.07a.68.68,0,0,0,.33-.34s0-.08-.07,0c-.34.44.18-.31.23-.41.15-.26.3-.52.46-.78.31-.52.67-1,1-1.51.07-.1-.07-.23-.16-.14Z"/><path class="cls-1" d="M51.14,35.63c-.35.48-.68,1-1,1.46a4.74,4.74,0,0,0-.71,1.4c0,.1.09.2.18.11a5.77,5.77,0,0,0,.83-1.32l.87-1.53c.08-.12-.1-.23-.18-.12Z"/><path class="cls-1" d="M42.78,34.85a1.49,1.49,0,0,0,.22.76.27.27,0,0,0,.5-.11c0-.34,0-.69-.27-.92a.18.18,0,0,0-.24.06c-.2.26-.08.6,0,.9l.5-.18a1.57,1.57,0,0,0-.51-.6.12.12,0,0,0-.18.09Z"/><path class="cls-1" d="M43.52,34.43a1,1,0,0,0,.3.6c.2.25.6,0,.45-.32l-.13-.24a.26.26,0,0,0-.23-.15c-.13,0-.18,0-.25.13a.28.28,0,0,0,0,.28c0,.08.1.16.14.24l.45-.32c-.18-.18-.29-.33-.55-.37a.16.16,0,0,0-.16.15Z"/><path class="cls-1" d="M44.61,34.21a.46.46,0,0,0,0,.66.22.22,0,0,0,.37-.08c.06-.27,0-.52-.26-.61a.14.14,0,0,0-.15,0Z"/><path class="cls-1" d="M43.28,35.18a.42.42,0,0,1,.06.31l.51-.18A1.14,1.14,0,0,0,42.68,35a.43.43,0,0,0-.27.34.65.65,0,0,0,0,.24c0,.06,0,.23,0,.15l.14-.17,0,0a.29.29,0,0,0,0,.53,1.76,1.76,0,0,1,.23.14.13.13,0,0,0,.18,0,.41.41,0,0,0-.1-.57c0,.15-.06.3-.08.45a.38.38,0,0,0,.22-.38.85.85,0,0,0,0-.23c-.15,0-.12.08.08.07a.64.64,0,0,1,.32.18.29.29,0,0,0,.5-.18.58.58,0,0,0-.4-.63.2.2,0,0,0-.24.29Z"/><path class="cls-1" d="M42.8,35.71l0-.1c.12-.39-.53-.49-.53-.1a1.17,1.17,0,0,0,.27.87l.18-.38-.07,0a.09.09,0,0,0-.09.05l-.05.07c-.21.35.43.5.43.14a6.53,6.53,0,0,0-.14-.77l-.41.28c.09.06.17.13.26.18s.28-.09.19-.22Z"/><path class="cls-1" d="M42.67,35.68a1.39,1.39,0,0,1-.68.16.27.27,0,0,0-.35.24.57.57,0,0,0,.25.6.18.18,0,0,0,.2,0h0a.14.14,0,0,0,.07-.11c0-.08,0-.14,0-.21,0-.27.35-.35.56-.42s.11-.32,0-.26Z"/><path class="cls-1" d="M42,36.36a.57.57,0,0,0-.64-.12s0,.13,0,.13a1.17,1.17,0,0,1,.56.07s.1,0,0-.08Z"/><path class="cls-1" d="M40.69,36.63l-.1.1a.1.1,0,0,0,.13.14l.11-.08c.11-.09,0-.26-.14-.16Z"/><path class="cls-1" d="M53.29,38.66c-.8.42-1.6.85-2.39,1.3-.35.2-.73.38-1.06.61-.13.09-.23.1-.26.26a.11.11,0,0,0,0,.12l.05,0a.09.09,0,0,0,.1,0l0,0a.06.06,0,0,0,0-.11c.22,0,.55-.26.76-.38l1-.54c.63-.37,1.25-.76,1.87-1.14a.07.07,0,1,0-.07-.12Z"/><path class="cls-1" d="M53.74,39.65A9.66,9.66,0,0,0,50,41.12c-.13.09,0,.27.14.21a33.92,33.92,0,0,1,3.63-1.52.08.08,0,0,0,0-.16Z"/><path class="cls-1" d="M53.35,40.58c-1,.46-2.15.74-3.15,1.22a.15.15,0,0,0,.1.27,10.09,10.09,0,0,0,3.14-1.32.1.1,0,1,0-.09-.17Z"/><path class="cls-1" d="M50,43.05c.54,0,1.07-.07,1.61-.08a11,11,0,0,0,1.4,0c.07,0,.08-.13,0-.14a9.08,9.08,0,0,0-3,.08.1.1,0,0,0,0,.19Z"/><path class="cls-1" d="M50.27,44.05a14.42,14.42,0,0,0,2.18.13,0,0,0,0,0,0-.09A13.17,13.17,0,0,0,50.27,44a0,0,0,1,0,0,0Z"/><path class="cls-1" d="M49.43,45c.69.11,1.39.15,2.08.24a8,8,0,0,0,1.82.18.13.13,0,0,0,0-.24,4.8,4.8,0,0,0-1.69-.34,12.88,12.88,0,0,0-2.24-.09.13.13,0,1,0,0,.25Z"/><path class="cls-1" d="M49.56,45.66a11.15,11.15,0,0,0,2.14,1c.74.25,1.74.28,2.3.9a.08.08,0,0,0,.13-.07c-.15-.56-.73-.63-1.23-.75a18.46,18.46,0,0,1-3.31-1.13,0,0,0,0,0,0,.08Z"/><path class="cls-1" d="M54.37,47.24c-.28-.39-.79-.8-1.27-.41a.61.61,0,0,0,.23,1c.34.09.61-.38.28-.57s-1-.29-1,.26a.26.26,0,0,0,.32.27.64.64,0,0,1,.41,0l.12-.62c.16,0,.23,0,.42,0a2.48,2.48,0,0,1,.31.18c.15.1.29-.1.19-.23Z"/><path class="cls-1" d="M53.42,47.33a.6.6,0,0,0-.78-.17.66.66,0,0,0-.26.8c.08.19.36.41.56.21s-.1-.77.27-.58c.16.08.35-.11.21-.26Z"/><path class="cls-1" d="M52.07,48.13l0,0c-.09,0-.21.11-.2.23s.1.4.34.4a.22.22,0,0,0,.2-.14.58.58,0,0,0-.12-.44l0,.24,0-.06c.11-.15-.08-.32-.23-.25Z"/><path class="cls-1" d="M52.23,48.55a1.77,1.77,0,0,0,.39-.26.09.09,0,0,0-.08-.16,2.16,2.16,0,0,0-.45.15c-.17.08,0,.36.14.27Z"/><path class="cls-1" d="M53.75,47a7.27,7.27,0,0,1,.14-.79.14.14,0,0,0-.16-.14.69.69,0,0,0-.31,1,.18.18,0,0,0,.33-.08Z"/><path class="cls-1" d="M53.78,45.75c0-.27.13-.54-.09-.75a.12.12,0,0,0-.17,0c-.23.19-.19.46-.16.74s.38.22.42,0Z"/><path class="cls-1" d="M53.71,44.83c-.14-.08-.08-.32-.3-.3s-.25.08-.24.22.19.5.48.41a.19.19,0,0,0,.06-.33Z"/><path class="cls-1" d="M53.51,44.48c-.06-.18,0-.35,0-.53s-.06-.1-.11-.09c-.41,0-.45.54-.26.83a.23.23,0,0,0,.4-.21Z"/><path class="cls-1" d="M51.09,35.3a1.35,1.35,0,0,0-.43,1c0,.23.3.41.48.23s.32-.17.43-.33a.19.19,0,0,0,0-.19c-.22-.25-.57-.07-.79.1l.47.22a2,2,0,0,1,.14-.83.18.18,0,0,0-.28-.19Z"/><path class="cls-1" d="M51.42,36.56a2.83,2.83,0,0,0,.65,0l-.26-.22c0,.37-.15.74-.19,1.11,0,.12.15.24.26.16a3.86,3.86,0,0,0,.85-.76l-.32-.27a2.78,2.78,0,0,0-.33.67.21.21,0,0,0,.13.26.45.45,0,0,0,.42,0,.12.12,0,0,0,0-.22l-.23-.11.08.24a2.11,2.11,0,0,1,.31-.57c.15-.19-.15-.45-.33-.28s-.52.52-.76.79l.29.09a1.15,1.15,0,0,1,.2-.9.22.22,0,0,0-.2-.37,2.84,2.84,0,0,0-.57.16.13.13,0,0,0,0,.26Z"/><path class="cls-1" d="M52.79,37.5c.06.17,0,.34,0,.51a.14.14,0,0,0,.22.07c.22-.23.07-.44-.09-.66s-.18,0-.15.08Z"/><path class="cls-1" d="M33.73,2.42a7.52,7.52,0,0,0,3.59,1.75s0,0,0-.07c-.67-.31-1.38-.54-2-.88s-1-.61-1.53-.85a0,0,0,0,0,0,0Z"/><path class="cls-1" d="M41.23,28.67c.79,1.67,1.31,3.4,2,5.1a.05.05,0,0,0,.1,0,22,22,0,0,0-2-5.11c0-.08-.15,0-.11.05Z"/><path class="cls-1" d="M42,28.8c.66,1.81,1.35,3.63,2.12,5.4,0,.07.17,0,.14-.05-.64-1.82-1.38-3.62-2.14-5.4,0-.06-.15,0-.12.05Z"/><path class="cls-1" d="M42.86,29.36c.63,1.36,1,2.83,1.68,4.17a.07.07,0,0,0,.14-.05,18.65,18.65,0,0,0-1.77-4.14s-.06,0,0,0Z"/><path class="cls-1" d="M31.75,5a21.49,21.49,0,0,1,.5,3.39,0,0,0,0,0,0,0A9,9,0,0,0,31.83,5s-.09,0-.08,0Z"/><path class="cls-1" d="M32.07,4.75a22,22,0,0,0,.41,2.8,0,0,0,0,0,.09,0,24.28,24.28,0,0,0-.43-2.8s-.07,0-.07,0Z"/><path class="cls-1" d="M41.87,7.52c.28,1.27.57,2.59,1,3.84,0,.09.18.06.16,0-.25-1.29-.62-2.58-1-3.84a.07.07,0,1,0-.14,0Z"/><path class="cls-1" d="M42.57,7.64a15.92,15.92,0,0,0,.76,3.43s.07,0,.07,0a31.6,31.6,0,0,0-.77-3.41,0,0,0,0,0-.06,0Z"/><path class="cls-1" d="M43.32,8.48a14,14,0,0,0,.57,2.63,0,0,0,0,0,.06,0c-.13-.88-.4-1.74-.56-2.62,0,0-.07,0-.07,0Z"/><path class="cls-1" d="M44,13.88c.3,1.31.64,2.61,1,3.91,0,0,.06,0,0,0-.31-1.31-.63-2.61-1-3.91,0,0,0,0,0,0Z"/><path class="cls-1" d="M45,18.48a10.32,10.32,0,0,0,.72,3.78s.11,0,.1,0a30.15,30.15,0,0,1-.8-3.75s0,0,0,0Z"/><path class="cls-1" d="M65.84,27.36c-1.41,1.75-2.75,3.63-4,5.48-.06.09.07.16.13.09.78-1,1.5-2,2.25-3a14.73,14.73,0,0,0,1.7-2.53s0-.05-.06,0Z"/><path class="cls-1" d="M66.14,27.75c-.39,1.51-1.86,2.5-2.65,3.79,0,.05,0,.12.08.07a20.55,20.55,0,0,0,1.77-2.16,3.5,3.5,0,0,0,.86-1.69s0-.05-.06,0Z"/><path class="cls-1" d="M63.45,24.91c-1.12,2-2.37,4-3.52,6,0,0,0,0,0,0a44.79,44.79,0,0,0,3.54-6s0-.06,0,0Z"/><path class="cls-1" d="M59.41,31.72Z"/><path class="cls-1" d="M59.45,31.73a17.07,17.07,0,0,1-1.05,2c-.34.58-.81,1.11-1.1,1.71,0,.05,0,.11.08.07a10.21,10.21,0,0,0,2.07-3.82Z"/><path class="cls-1" d="M53.34,42.57c-.18-.25-.37-.5-.52-.76a.12.12,0,0,0-.22.08c.24.9,1.48,2,2.38,1.28a.1.1,0,0,0-.09-.18,1.61,1.61,0,0,1-1.4-.43c-.26-.25-.43-.57-.71-.79l-.15.17c.23.21.44.45.65.68,0,0,.08,0,.06,0Z"/><path class="cls-1" d="M52.49,42.19c-.15-.15-.14-.15-.36-.16a.13.13,0,0,0-.1.22c.82,1,3,.77,4,.24.07,0,0-.16,0-.15-1.17,0-2.79.63-3.79-.27l-.07.22h.23c.07,0,.16,0,.1-.11Z"/><path class="cls-1" d="M58.46,41.28c3.52.48,7-.46,10.57.29,2.17.46,4.24,1.69,6.4.88.09,0,0-.16-.05-.15-2.81.6-6-1.15-8.83-1.38s-5.39.48-8.09.32a0,0,0,1,0,0,0Z"/><path class="cls-1" d="M75.85,42.32a16,16,0,0,0,7.2-3.93c1.54-1.4,4.33-3.62,4.55-5.83a.13.13,0,0,0-.25-.05c-.8,2.28-3,4.33-4.78,5.91a17.55,17.55,0,0,1-6.76,3.73c-.11,0-.07.2,0,.17Z"/><path class="cls-1" d="M71,25.47c3.33-1.42,5.72-.65,8.5,1.29a21.1,21.1,0,0,0,5,2.49.12.12,0,0,0,.08-.22,30.68,30.68,0,0,1-4.92-2.49,12.62,12.62,0,0,0-2.93-1.8,6.94,6.94,0,0,0-5.78.59.08.08,0,0,0,.07.14Z"/><path class="cls-1" d="M85.09,29.48a2.13,2.13,0,0,0,1.11.69c.73.25,1.3.55,1.49,1.35,0,.13.23.09.2,0A1.69,1.69,0,0,0,87,30.25c-.61-.31-1.29-.35-1.76-.89a.09.09,0,0,0-.13.12Z"/><path class="cls-1" d="M72.55,25.55c-.66.46-1.32.9-2,1.39-.41.32-1.17.69-1.17,1.28a.07.07,0,0,0,.13,0A5.88,5.88,0,0,1,71,26.92c.55-.41,1.06-.85,1.6-1.28,0,0,0-.13-.07-.09Z"/><path class="cls-1" d="M73,26a13.66,13.66,0,0,0-3.5,2.67.09.09,0,0,0,.12.13C70.76,28,71.83,27,73,26.14c.09-.06,0-.21-.08-.15Z"/><path class="cls-1" d="M72.58,27.13c-.49.31-1,.66-1.41,1a5.88,5.88,0,0,0-1.34,1.08c0,.05,0,.15.09.12a5.48,5.48,0,0,0,1.29-.86c.5-.38,1-.75,1.5-1.16.09-.08,0-.25-.13-.18Z"/><path class="cls-1" d="M71.67,28.39a6.54,6.54,0,0,0-1,.48,3,3,0,0,0-.84.6.08.08,0,0,0,.09.13,5.43,5.43,0,0,0,.87-.5c.32-.19.66-.35,1-.54.08,0,0-.2-.06-.17Z"/><path class="cls-1" d="M68.92,30.83a16,16,0,0,1-6.26,5.28s0,0,0,0A12.47,12.47,0,0,0,69,30.91a.07.07,0,1,0-.12-.08Z"/><path class="cls-1" d="M67.48,33.59a12,12,0,0,1-3.07,2.35c-.9.59-1.83,1.15-2.77,1.69-.09,0,0,.2.08.14,1.17-.67,2.32-1.38,3.44-2.14a7.57,7.57,0,0,0,2.38-2s0-.08-.06,0Z"/><path class="cls-1" d="M67.37,34.72a23.1,23.1,0,0,1-5,3.2s0,.1,0,.09a12,12,0,0,0,5-3.21s0-.13-.07-.08Z"/><path class="cls-1" d="M59.49,40.62c2.5-.24,5-.95,7.53-.65,1.73.21,3.27.83,5,.54.08,0,.07-.14,0-.15-2.26-.08-4.42-.91-6.69-.78a37.5,37.5,0,0,0-5.85,1s0,0,0,0Z"/><path class="cls-1" d="M73.12,40.72a4.93,4.93,0,0,0,3.81-.52s0-.07,0-.06a7.38,7.38,0,0,1-3.77.54s0,0,0,0Z"/><path class="cls-1" d="M79.08,39.93a27.81,27.81,0,0,1-4.6,1.35c-.06,0-.06.12,0,.12A9.65,9.65,0,0,0,79.11,40s0-.06,0,0Z"/><path class="cls-1" d="M79.68,40.2a12.12,12.12,0,0,1-3.75,1.56A.13.13,0,0,0,76,42a7.58,7.58,0,0,0,3.71-1.79s0,0,0,0Z"/><path class="cls-1" d="M81.18,39.35A21.57,21.57,0,0,1,78.8,40.6a23.35,23.35,0,0,0-2.47,1c-.06,0,0,.15,0,.15,1.72-.05,3.56-1.33,4.88-2.35,0,0,0-.12-.06-.08Z"/><path class="cls-1" d="M81.32,38.47a9.78,9.78,0,0,1-2.56,1.8,15,15,0,0,1-3,.83.11.11,0,0,0,0,.22,7,7,0,0,0,5.64-2.77c0-.06,0-.14-.1-.08Z"/><path class="cls-1" d="M81.76,28.18a7.66,7.66,0,0,0-1.5,1.51c-.06.08.06.18.12.11.47-.53.93-1.06,1.41-1.58,0,0,0-.06,0,0Z"/><path class="cls-1" d="M82.78,28.25c-.3.25-.59.52-.88.78a5.43,5.43,0,0,0-.74.7s0,.08,0,.06a5.45,5.45,0,0,0,.78-.66c.29-.26.58-.52.86-.8.05,0,0-.12-.07-.08Z"/><path class="cls-1" d="M83.23,28.75c-.25.2-.49.41-.73.62a2.9,2.9,0,0,0-.57.59S82,30,82,30a2.44,2.44,0,0,0,.63-.53c.22-.22.45-.45.66-.68a0,0,0,0,0,0-.05Z"/><path class="cls-1" d="M83.72,29a5.49,5.49,0,0,0-1.21,1.09.05.05,0,0,0,.07.07,5.2,5.2,0,0,0,1.21-1.09s0-.11-.07-.07Z"/><path class="cls-1" d="M84.6,29.22a9,9,0,0,0-.89.74,4.26,4.26,0,0,0-.74.73s0,.12.08.09a5.59,5.59,0,0,0,.78-.68c.29-.26.58-.52.85-.79a.06.06,0,1,0-.08-.09Z"/><path class="cls-1" d="M8.67,25.79a8.11,8.11,0,0,0,2,3,31.49,31.49,0,0,1,2.8,3.3c.05.06.13,0,.11-.07-1.08-2.45-3.77-3.74-4.78-6.29,0-.06-.12,0-.1,0Z"/><path class="cls-1" d="M14.15,32.48a4.44,4.44,0,0,0,4.33,2.29.06.06,0,0,0,0-.11A6.19,6.19,0,0,1,16,34a5.36,5.36,0,0,1-1.72-1.63s-.12,0-.09.07Z"/><path class="cls-1" d="M9.33,25.47a29,29,0,0,1,20.12.23c.14.05.19-.14.07-.2a25.25,25.25,0,0,0-20.25-.18c-.08,0,0,.18.06.15Z"/><path class="cls-1" d="M29.54,26.2A82,82,0,0,0,38.8,36.3c.19.17.49-.07.3-.28-1.58-1.74-3.41-3.26-5.05-5s-2.95-3.28-4.38-5c-.07-.08-.19,0-.13.12Z"/><path class="cls-1" d="M34.42,37.24c.58.27,1.17.5,1.77.73a7.54,7.54,0,0,0,1.61.51.17.17,0,0,0,.1-.3,7.4,7.4,0,0,0-1.59-.59c-.6-.2-1.21-.39-1.83-.53a.1.1,0,0,0-.06.18Z"/><path class="cls-1" d="M35.78,37a8,8,0,0,0,2.6,1.41c.26.1.48-.32.22-.45-.8-.39-1.58-.81-2.36-1.24l-.15.46a4.17,4.17,0,0,1,1.86.57.28.28,0,0,0,.31-.46c-.53-.42-1-.83-1.56-1.25l-.29.44L38,37.4c.26.14.61-.19.36-.41-.5-.44-1-.88-1.44-1.36-.09.15-.19.29-.28.43A2.81,2.81,0,0,1,38.4,37.2c.18.26.63-.05.45-.31a9,9,0,0,0-1.57-1.8l-.37.44a9.89,9.89,0,0,1,1.26.8c.29.22.56-.2.38-.45a5.88,5.88,0,0,0-1.2-1.24c-.27-.2-.61.21-.38.44.47.45.92.93,1.42,1.35.24.21.55-.19.35-.41-.42-.47-.89-.89-1.34-1.33l-.37.44a4.89,4.89,0,0,1,1,1.09l.42-.39A9.17,9.17,0,0,0,37.23,35a.29.29,0,0,0-.32.49,6.41,6.41,0,0,1,1.45,1.62l.49-.26a2.81,2.81,0,0,0-2.09-1.35c-.21,0-.38.3-.21.45.5.43,1,.9,1.43,1.37l.35-.41c-.54-.3-1.09-.59-1.63-.87a.26.26,0,0,0-.29.44L38,37.79l.31-.46a3.88,3.88,0,0,0-2.14-.61c-.22,0-.39.34-.15.46.79.4,1.58.81,2.35,1.24.08-.15.15-.3.22-.45-.87-.35-1.71-.88-2.61-1.15-.13,0-.25.12-.15.22Z"/><path class="cls-1" d="M31.13,35.66c.52.22,1.07.35,1.59.56s1.16.54,1.73.83a0,0,0,0,0,0-.08,6.85,6.85,0,0,0-3.35-1.39c-.06,0-.06.06,0,.08Z"/><path class="cls-1" d="M32.55,35.46c.63-.15,1.69.48,2.28.73s1.38.73,2.12,1A.07.07,0,0,0,37,37a9.37,9.37,0,0,0-2.57-1.28c-.53-.21-1.37-.72-1.92-.39,0,0,0,.1,0,.09Z"/><path class="cls-1" d="M33.86,35.12c.56.22,1.14.41,1.69.67s1,.64,1.59.84a.07.07,0,0,0,.08-.12A6.41,6.41,0,0,0,33.88,35c-.08,0-.09.1,0,.13Z"/><path class="cls-1" d="M35.33,35.16a4.6,4.6,0,0,0,.93.56c.34.22.62.52,1,.71a.09.09,0,0,0,.13-.12,2.38,2.38,0,0,0-.93-.85,1.78,1.78,0,0,0-1.07-.37,0,0,0,0,0,0,.07Z"/><path class="cls-1" d="M33.49,36.22a11.46,11.46,0,0,1,2.6,1.16c.08,0,.19-.05.11-.13A4.51,4.51,0,0,0,33.53,36c-.11,0-.15.18,0,.2Z"/><path class="cls-1" d="M30.17,35.68A23.35,23.35,0,0,0,20.4,35c-.09,0-.07.17,0,.16a50.3,50.3,0,0,1,9.73.6c.05,0,.07-.07,0-.09Z"/><path class="cls-1" d="M28,30.1a52.16,52.16,0,0,0,7.78,4.48c.12.06.24-.11.11-.18-2.56-1.52-5.23-3-7.89-4.31Z"/><path class="cls-1" d="M31.4,31.29c1.52,1.05,3.16,2,4.77,2.87a.09.09,0,1,0,.09-.15c-1.57-1-3.18-1.93-4.83-2.75,0,0-.05,0,0,0Z"/><path class="cls-1" d="M31.64,30.1c.29.24,3.61,2.6,3.49,2.79s0,.12.09.08l.07-.06a.07.07,0,0,0,0-.07c-.12-.51-.9-.85-1.29-1.14-.76-.58-1.53-1.16-2.31-1.71-.07,0-.14.06-.07.11Z"/><path class="cls-1" d="M35.84,40.37a36.59,36.59,0,0,0-16.33-3.22,26,26,0,0,0-5.76,1.39c-1.42.38-2.1.18-3,1.27-.1.13.1.29.21.18,1.06-1,3-1.12,4.39-1.57a19.32,19.32,0,0,1,7-1,42.38,42.38,0,0,1,13.4,3.08c.1,0,.15-.12.05-.17Z"/><path class="cls-1" d="M9.87,40.2a6.4,6.4,0,0,0-2.4,2.47,32.9,32.9,0,0,1-3.12,3.84c0,.06,0,.17.08.12,2.5-1.48,3.14-4.69,5.52-6.28.08-.06,0-.2-.08-.15Z"/><path class="cls-1" d="M4,47.33l-.14-.06a.08.08,0,0,0-.08,0l-.12.14a.11.11,0,0,0,0,.11c1.84,2.07,6.33,3.09,8.87,3.76,3.41.9,7.35,1.73,10.75.61a.17.17,0,0,0-.07-.34A24.74,24.74,0,0,1,12.68,51a33.89,33.89,0,0,1-3.8-1.15C7.56,49.38,5,47.48,4,47.41c0,0,0-.06,0-.08Z"/><path class="cls-1" d="M20.15,54c.89-.17,1.76-.44,2.65-.62s1.79-.24,2.67-.45a.08.08,0,0,0,0-.15,10.45,10.45,0,0,0-5.35,1.1.06.06,0,0,0,0,.12Z"/><path class="cls-1" d="M25.69,53.21c-1.87-.5-4,.29-5.8.75a.08.08,0,0,0,0,.15c2,.08,3.74-1,5.76-.73.1,0,.13-.14,0-.17Z"/><path class="cls-1" d="M30.9,49.71c0-.22-.08-.2-.32.06l-.64.35c-.38.19-.77.37-1.17.53-1,.4-2,.59-2.94.92-.06,0-.06.11,0,.11a11.19,11.19,0,0,0,5.46-2.15c.07-.05,0-.17-.08-.12l-.35.23s0,.09,0,.07Z"/><path class="cls-1" d="M30.75,50a41,41,0,0,1-4.1,1.75c-.12,0,0,.25.08.21a15.13,15.13,0,0,0,4.07-1.85c.07,0,0-.15-.05-.11Z"/><path class="cls-1" d="M32.52,49.78a20.25,20.25,0,0,1-2.08,1c-.71.3-1.5.43-2.19.77-.06,0-.05.14,0,.14a8.55,8.55,0,0,0,4.32-1.86c.06,0,0-.14-.08-.1Z"/><path class="cls-1" d="M37.33,45.47a18,18,0,0,1-7.22,4.92c-.13,0-.09.26.05.21a15.82,15.82,0,0,0,7.26-5.05s0-.13-.09-.08Z"/><path class="cls-1" d="M37.74,47.81a23.71,23.71,0,0,0-3,2.51,0,0,0,0,0,0,.06,23.58,23.58,0,0,0,3-2.53s0-.06,0,0Z"/><path class="cls-1" d="M38.37,47.68c-.41.44-.83.87-1.26,1.31A6.68,6.68,0,0,0,36,50.2a.06.06,0,0,0,.08.09,5.74,5.74,0,0,0,1.25-1.21c.39-.43.76-.88,1.12-1.33,0,0,0-.12-.08-.07Z"/><path class="cls-1" d="M38.8,48.14,37.66,49.2a5.91,5.91,0,0,0-1,1s0,.13.08.09a5.87,5.87,0,0,0,1-1c.37-.37.73-.75,1.09-1.12,0-.05,0-.11-.06-.07Z"/><path class="cls-1" d="M39.18,48.56c-.42.3-.81.65-1.21,1a4.54,4.54,0,0,0-1,1,.09.09,0,0,0,.11.13,4.52,4.52,0,0,0,1.1-.9c.38-.35.78-.69,1.14-1.06a.07.07,0,1,0-.1-.11Z"/><path class="cls-1" d="M39.34,49l-1,.88a3.86,3.86,0,0,0-.88.83c0,.06,0,.13.1.1a4.19,4.19,0,0,0,.93-.76l1-.9c.09-.09,0-.23-.13-.15Z"/><path class="cls-1" d="M37.58,47.74a10.51,10.51,0,0,1-1.4,1.43c-.52.42-1.14.7-1.65,1.14-.07.06,0,.18.09.16a5.33,5.33,0,0,0,3.1-2.61c.05-.09-.06-.2-.14-.12Z"/><path class="cls-1" d="M44.36,51.31c-.37.43-.75.86-1.11,1.29a6.35,6.35,0,0,0-1,1.34c0,.08.07.12.12.08a5.75,5.75,0,0,0,1-1.22c.37-.47.72-.95,1.08-1.42,0-.05,0-.11-.08-.07Z"/><path class="cls-1" d="M44.51,51.54c-.4.07-.72.57-1,.86s-.74.77-.77,1.22a.16.16,0,0,0,.24.15c.38-.2.6-.73.86-1.07s.68-.67.74-1.08c0,0,0-.09-.1-.08Z"/><path class="cls-1" d="M44,52.09a5.09,5.09,0,0,0-1,1.12c0,.1.08.17.16.13a2.92,2.92,0,0,0,1-1.07c.09-.12-.11-.3-.22-.18Z"/><path class="cls-1" d="M31.61,47a18.46,18.46,0,0,0-4,.23.05.05,0,0,0,0,.1c1.33-.05,2.66-.23,4-.3a0,0,0,0,0,0,0Z"/><path class="cls-1" d="M26,47.67a62.06,62.06,0,0,0-6.74,1.55c-.06,0,0,.1,0,.09A61.1,61.1,0,0,0,26,47.73s0-.06,0-.06Z"/><path class="cls-1" d="M33.92,50.45c-2.9,1.86-5.8,3.51-8.79,5.2a6.26,6.26,0,0,0-3.42,5.24.09.09,0,0,0,.17,0,7.79,7.79,0,0,1,2.27-4.23,23.09,23.09,0,0,1,3.79-2.14,52.75,52.75,0,0,0,6-4s0-.09,0-.07Z"/><path class="cls-1" d="M21.38,62.22c-1.16,3.69-1.18,7-1.32,10.8,0,.08.13.12.15,0a32.6,32.6,0,0,0,.18-4.94,40.42,40.42,0,0,1,1-5.88s0,0,0,0Z"/><path class="cls-1" d="M20,74.33c.37,2.84,3.37.72,4.6-.08,3.71-2.41,8.69-3,11.71-6.42,0,0,0-.14-.08-.09a25.92,25.92,0,0,1-7.46,4.12c-1,.43-8,4.49-8.64,2.44a.07.07,0,0,0-.13,0Z"/><path class="cls-1" d="M36.9,67A11.9,11.9,0,0,0,39.45,62c.53-2.33.82-4.33,2.67-6,.12-.11,0-.33-.17-.24a5.68,5.68,0,0,0-2.32,3.69c-.28,1.06-.4,2.14-.67,3.2A17.75,17.75,0,0,1,36.82,67a.05.05,0,0,0,.08.06Z"/><path class="cls-1" d="M38,52.78s0,0,0,0,0,0,0,0Z"/><path class="cls-1" d="M35.05,41.53a4.55,4.55,0,0,0-2.29-.05c-1.08.13-2.15.29-3.22.45a0,0,0,0,0,0,.08c1.84-.18,3.66-.43,5.5-.48Z"/><path class="cls-1" d="M26.65,42.43a52.1,52.1,0,0,0-8.19.43c-.05,0,0,.08,0,.08,2.7-.07,5.51-.17,8.19-.46a0,0,0,0,0,0,0Z"/><path class="cls-1" d="M35.74,41.74c-1.28.17-2.56.29-3.83.54-.12,0-.08.2,0,.18,1.28-.15,2.54-.44,3.8-.68,0,0,0,0,0,0Z"/><path class="cls-1" d="M36.19,42.66a20.35,20.35,0,0,0-2.07-.09c-.28,0-.74-.13-.94.12a.09.09,0,0,0,0,.11l0,0a.08.08,0,0,0,.1,0l0,0s0-.06,0-.09v0c0-.05-.08,0-.1,0s1.52,0,1.63,0a11,11,0,0,0,1.28,0s0,0,0-.05Z"/><path class="cls-1" d="M36.28,43c-.84.09-1.67.22-2.5.35a.12.12,0,0,0,0,.23,1.27,1.27,0,0,0,.28,0,.07.07,0,0,0,0-.13.72.72,0,0,0-.25-.07v.22c.83-.14,1.66-.27,2.48-.45.08,0,0-.14,0-.13Z"/><path class="cls-1" d="M36.44,43.51a7.78,7.78,0,0,0-1.43.32s0,.1,0,.1a7.14,7.14,0,0,0,1.43-.3.06.06,0,0,0,0-.12Z"/><path class="cls-1" d="M42.57,51.25a.89.89,0,0,0,.32-.29s0-.05,0,0a1.15,1.15,0,0,0-.33.29s0,.06,0,0Z"/><path class="cls-1" d="M42.58,51.23l0-.06a0,0,0,0,0,0,0c-.13,0-.66.69-.74.79-.41.46-1.26.92-1.35,1.58a.07.07,0,0,0,.11,0c.23-.22.4-.51.62-.74s.43-.43.63-.66.23-.31.34-.47a2.55,2.55,0,0,0,.35-.48s0,0,0,0Z"/><path class="cls-1" d="M43.27,51c-.36.43-.72.87-1.07,1.31a9.43,9.43,0,0,0-1,1.35.05.05,0,0,0,.08.07,8.45,8.45,0,0,0,1-1.26c.35-.48.7-1,1-1.46,0,0,0,0,0,0Z"/><path class="cls-1" d="M44.09,51c-.43.5-.86,1-1.27,1.53a7.41,7.41,0,0,0-1.14,1.6c0,.05,0,.08.08.05a10.18,10.18,0,0,0,1.15-1.45c.43-.55.87-1.08,1.32-1.61.06-.08-.07-.19-.14-.12Z"/><path class="cls-1" d="M44.45,51.46c-.5.82-1.18,1.52-1.66,2.34a.07.07,0,0,0,.11.09,8,8,0,0,0,1.74-2.3c.08-.13-.11-.26-.19-.13Z"/><path class="cls-1" d="M37.26,44.92a9.42,9.42,0,0,0-1.89.51c-.32.12-1.08.28-1.18.66a.11.11,0,0,0,.07.13l.06,0s.08,0,.09,0l0,0a.05.05,0,0,0,0-.08,5.77,5.77,0,0,0,1.35-.56,13.11,13.11,0,0,1,1.54-.48.07.07,0,1,0,0-.13Z"/><path class="cls-1" d="M37.46,45A5.82,5.82,0,0,0,35,46.42l.17.11.26-.18s0-.08,0-.08a.49.49,0,0,0-.43.15.11.11,0,0,0,.12.17c.41-.21.76-.52,1.16-.76s.81-.45,1.23-.65c.08,0,0-.17,0-.14Z"/><path class="cls-1" d="M37.32,45.66a6.38,6.38,0,0,0-1.54.72c-.05,0,0,.11,0,.1a6,6,0,0,0,1.55-.71c.08,0,0-.14-.06-.11Z"/><path class="cls-1" d="M38.72,43.62c-.76.17-1.5.41-2.24.64a8.89,8.89,0,0,0-1.95.7.11.11,0,0,0,.08.2,8.83,8.83,0,0,0,2.1-.66c.69-.24,1.38-.48,2-.78a.05.05,0,0,0,0-.1Z"/><path class="cls-1" d="M34.27,51.1A20.38,20.38,0,0,1,27.86,55c-1.63.74-3.27,1.51-3.69,3.4a0,0,0,0,0,.07,0c.86-2.56,3.74-3.22,5.91-4.32a14,14,0,0,0,4.13-3s0,0,0,0Z"/><path class="cls-1" d="M23.44,59.12C21.35,62.27,22,66.34,20.72,69.8c0,0,.05.08.08,0,1.74-3.34.76-7.36,2.71-10.67,0-.05,0-.1-.07-.05Z"/><path class="cls-1" d="M22.51,65.59c-.16.61-.28,1.23-.4,1.85a7.69,7.69,0,0,0-.26,1.63s0,0,.06,0a8.14,8.14,0,0,0,.41-1.85c.1-.54.2-1.08.27-1.62,0,0-.07-.07-.08,0Z"/><path class="cls-1" d="M23.09,66.13a8.53,8.53,0,0,1-.85,2.93c0,.07.07.1.11,0a4.67,4.67,0,0,0,.84-3,.05.05,0,0,0-.1,0Z"/><path class="cls-1" d="M23.66,66.24a26.55,26.55,0,0,1-1.14,2.83c0,.08.1.15.15.07a16.05,16.05,0,0,0,1.13-2.86c0-.09-.11-.13-.14,0Z"/><path class="cls-1" d="M24,67.15a9.4,9.4,0,0,0-.43,2.16c0,.1.15.11.16,0l.17-.34a0,0,0,0,0,0-.06.55.55,0,0,0-.29.37l.16,0a12.85,12.85,0,0,1,.38-2.13.06.06,0,0,0-.11,0Z"/><path class="cls-1" d="M24.94,67.86a5.13,5.13,0,0,0-.6,1.33.07.07,0,0,0,.12,0,5.12,5.12,0,0,0,.61-1.32c0-.07-.09-.13-.13-.06Z"/><path class="cls-1" d="M25.26,68.08a5.9,5.9,0,0,0-.54,1.1.06.06,0,0,0,.11,0,6,6,0,0,0,.56-1.06c0-.09-.09-.18-.13-.09Z"/><path class="cls-1" d="M9.1,42.23a9.75,9.75,0,0,0-2.62,2.58s0,.11.08.07c.45-.41.82-.92,1.24-1.36a17.54,17.54,0,0,1,1.34-1.25s0-.07,0,0Z"/><path class="cls-1" d="M9.48,43a18.41,18.41,0,0,1-2.71,2.11.06.06,0,1,0,.06.11A10.85,10.85,0,0,0,9.54,43s0-.11-.06-.07Z"/><path class="cls-1" d="M9.72,44.45a3.41,3.41,0,0,0-2,.79s0,.1.06.08c.31-.11.58-.32.88-.45a4.89,4.89,0,0,1,1.05-.32c.06,0,0-.11,0-.1Z"/><path class="cls-1" d="M9.58,45.05a5.83,5.83,0,0,0-1.33.64s0,.09,0,.08a5.29,5.29,0,0,0,1.35-.61c.07,0,0-.14-.06-.11Z"/><path class="cls-1" d="M8.73,46.75a0,0,0,1,0,0,0,0,0,0,0,0,0,0Z"/><path class="cls-1" d="M7.42,47a5.1,5.1,0,0,1,1.23.2c.36.12.67.31,1,.43a.06.06,0,0,0,.05-.11A3.82,3.82,0,0,0,7.42,47s0,0,0,0Z"/><path class="cls-1" d="M7,48a7.38,7.38,0,0,0,2.79.47c.06,0,.06-.11,0-.13a11,11,0,0,0-1.3-.19c-.49-.08-1-.19-1.47-.27-.07,0-.09.1,0,.12Z"/><path class="cls-1" d="M7.42,48.51A2.45,2.45,0,0,0,8.93,49c.05,0,.05-.09,0-.1a5.42,5.42,0,0,1-1.47-.44s-.11,0,0,.08Z"/><path class="cls-1" d="M38.44,53.9a33.86,33.86,0,0,0-4.56,5.66,0,0,0,0,0,.08,0c1.39-2,3-3.8,4.5-5.69,0,0,0,0,0,0Z"/><path class="cls-1" d="M32.63,61.32c-.8,1-1.58,2-2.36,3-.67.84-1.84,1.88-2.17,2.9,0-.05,0-.07-.07,0l-.09.12c-.06.07.06.14.11.07,1.58-2,3.13-4,4.62-6,0,0,0,0,0,0Z"/><path class="cls-1" d="M32.38,62.66a15.35,15.35,0,0,1-1,1.64c-.36.53-.82,1-1.18,1.54,0,0,0,.08.06,0a7.77,7.77,0,0,0,1.43-1.8c.2-.3.85-1.1.76-1.48,0,0,0,0,0,0h0s0,0,0,0l0,0a0,0,0,0,0,0,0l0,0s.08,0,.05,0Z"/><path class="cls-1" d="M33.23,62.71c-.32.45-.64.91-1,1.35a9.67,9.67,0,0,0-1,1.32,0,0,0,0,0,.07.06,6.12,6.12,0,0,0,1-1.23c.33-.48.65-1,.94-1.48,0,0,0,0,0,0Z"/><path class="cls-1" d="M38.35,63.69a9.64,9.64,0,0,1-3.41,4.19c-.09.06,0,.21.07.15a7.4,7.4,0,0,0,3.34-4.34s0,0,0,0Z"/><path class="cls-1" d="M34,68.32c-2.07,1.21-4.92,1.66-6.51,3.56,0,.06,0,.12.09.08,2-1.54,4.45-2.1,6.49-3.54,0,0,0-.13-.07-.1Z"/><path class="cls-1" d="M26.91,71.73c-1.66,1-3.37,1.71-5.08,2.56a0,0,0,0,0,0,.09A14.74,14.74,0,0,0,27,71.79s0-.08-.05-.06Z"/><path class="cls-1" d="M36.06,50.36a4.51,4.51,0,0,1-1.33,1.42A3.86,3.86,0,0,0,33.49,53a0,0,0,0,0,.06.06c.52-.4,1-.9,1.51-1.33a4.12,4.12,0,0,0,1-1.3s0,0,0,0Z"/><path class="cls-1" d="M36.92,50.64a7,7,0,0,0-1.26,1.11A14.82,14.82,0,0,0,34.51,53c0,.05,0,.13.09.08l.35-.39s0-.05,0,0a3.09,3.09,0,0,0-.39.33l.08.09c.4-.43.8-.85,1.22-1.26A14.94,14.94,0,0,0,37,50.7s0-.08,0-.06Z"/><path class="cls-1" d="M40.77,50.12a12.34,12.34,0,0,1-2.17,2.45.07.07,0,1,0,.09.11l.35-.31s0-.07,0,0l-.39.24.08.12a7.94,7.94,0,0,0,2.12-2.53s0-.06,0,0Z"/><path class="cls-1" d="M41.46,50.34a27.06,27.06,0,0,0-2.25,2.41l.13.11c.14-.18.28-.36.41-.55,0,0,0-.07,0-.05s-.33.32-.49.49,0,.22.12.13a25.84,25.84,0,0,0,2.18-2.5,0,0,0,0,0,0,0Z"/><path class="cls-1" d="M42.12,50.44c-.42.42-.81.88-1.2,1.33l-.57.63c0,.06-.58.71-.5.72a.08.08,0,0,0,.06-.12l0,0a.1.1,0,0,0-.1,0l0,0a.11.11,0,0,0-.06.11v0a.12.12,0,0,0,.1.08c.33,0,.74-.69.92-.91.49-.59,1-1.16,1.48-1.79,0,0,0-.11-.09-.07Z"/><path class="cls-1" d="M46.37,51q.15-.2,0-.09c0,.18-.07.36-.11.54a6.45,6.45,0,0,1-.21.62,11.4,11.4,0,0,1-.78,1.36.06.06,0,0,0,.1.08,4,4,0,0,0,1.15-2.78.06.06,0,0,0-.12,0,1.07,1.07,0,0,1-.09.27s0,0,0,0Z"/><path class="cls-1" d="M46.41,50.89a15.32,15.32,0,0,0-1,1.57,5.3,5.3,0,0,0-.8,1.5.12.12,0,0,0,.19.12,5.5,5.5,0,0,0,1-1.52A15.28,15.28,0,0,0,46.56,51c0-.09-.09-.13-.15-.06Z"/><path class="cls-1" d="M45.94,52.78l-.11.39s0,0,0,0l.12-.39s0,0,0,0Z"/><path class="cls-1" d="M46.86,51.23a37.28,37.28,0,0,1-2.34,4s0,.1.07.06a11.55,11.55,0,0,0,2.34-4s0-.07-.07,0Z"/><path class="cls-1" d="M44.83,55.76a12.85,12.85,0,0,0-1.59,4.79c-.4,1.78-1.32,3.22-1.1,5.11,0,.09.13.06.14,0,.22-1.7.85-3.1,1.19-4.71a22.39,22.39,0,0,1,1.4-5.16,0,0,0,0,0,0,0Z"/><path class="cls-1" d="M41.39,67.1c-.29,2.05-.52,4.76.65,6.61s4.1,3.07,6.08,3.9a.07.07,0,0,0,.06-.13c-1.72-1.17-4.18-1.83-5.56-3.43-1.58-1.84-1.18-4.73-1.19-7,0,0,0,0,0,0Z"/><path class="cls-1" d="M48.27,77.93c2,1,3.07,3.47,4.47,5.08,0,0,.07,0,.06,0a13.74,13.74,0,0,0-2.18-3,6.73,6.73,0,0,0-2.34-2s0,0,0,0Z"/><path class="cls-1" d="M52.12,80.7c.33.84.63,1.7,1,2.53,0,.08.17,0,.14,0-.31-.86-.67-1.7-1-2.55,0-.08-.15,0-.12.07Z"/><path class="cls-1" d="M52.72,80.67a13.62,13.62,0,0,0,.75,2.45.05.05,0,0,0,.09,0,12.47,12.47,0,0,0-.77-2.43s-.08,0-.07,0Z"/><path class="cls-1" d="M53.34,80.33a13.76,13.76,0,0,0,.46,2.19.1.1,0,0,0,.19,0c0-.12,0-.24,0-.37s-.08-.07-.09,0a3.57,3.57,0,0,0-.1.35H54c-.2-.73-.41-1.43-.54-2.17a.05.05,0,1,0-.1,0Z"/><path class="cls-1" d="M53.74,80.86a8.71,8.71,0,0,0,.61,1.53c0,.07.14,0,.13,0a9.74,9.74,0,0,0-.6-1.55c0-.1-.18,0-.14.07Z"/><path class="cls-1" d="M46.56,50.86A3.86,3.86,0,0,0,46.38,52a5.73,5.73,0,0,1-.32,1.25.2.2,0,0,0,.32.21,2.91,2.91,0,0,0,.36-2.57.09.09,0,0,0-.18,0Z"/><path class="cls-1" d="M46.86,50.74a10.46,10.46,0,0,0,0,1.77c0,.31-.08.77.23,1a.22.22,0,0,0,.29-.06.27.27,0,0,0,0-.23.15.15,0,0,0-.18-.11h0a.13.13,0,0,0-.09.15l.1-.13.17.11A4.05,4.05,0,0,1,47.25,52a8.87,8.87,0,0,0-.17-1.26.11.11,0,0,0-.22,0Z"/><path class="cls-1" d="M47.19,50.6c.08.51.19,1,.31,1.51a2.91,2.91,0,0,0,.4,1.17c.09.11.23,0,.25-.09a3.14,3.14,0,0,0-.23-1.27c-.13-.47-.27-.93-.43-1.39a.15.15,0,0,0-.3.07Z"/><path class="cls-1" d="M47.82,50.7a4.55,4.55,0,0,0,.1,1.1c0,.41.11.82.19,1.22s.61.18.47-.17a.7.7,0,0,0-.11-.21.13.13,0,0,0-.21,0,.67.67,0,0,0-.12.2l.46.08a8.74,8.74,0,0,0-.48-2.28.16.16,0,0,0-.3.07Z"/><path class="cls-1" d="M48.25,50.39A9.3,9.3,0,0,0,48.62,53,.22.22,0,0,0,49,53a.36.36,0,0,0,0-.45.11.11,0,0,0-.2,0l-.07.09.28.23a9.78,9.78,0,0,0-.46-2.57c-.05-.18-.35-.18-.35,0Z"/><path class="cls-1" d="M48.48,50.79c-.28.62.19,1.56.52,2.08a.28.28,0,0,0,.52-.2A4.51,4.51,0,0,0,48.81,51c-.13-.18-.4,0-.41.15-.1.91.31,2.32,1.28,2.64a.14.14,0,0,0,.16-.19c-.2-.36-.5-.64-.69-1a2.86,2.86,0,0,1-.28-1.41l-.41.15A2.37,2.37,0,0,1,49,52.72l.53-.12A5.07,5.07,0,0,1,49,51.5a2.7,2.7,0,0,0-.28-.75c-.06-.09-.18,0-.21,0Z"/><path class="cls-1" d="M50.08,54.07c.37,1.11,1.78,1.79,2.57,2.55a25.76,25.76,0,0,1,3.3,4.2s.09,0,.07,0a15.17,15.17,0,0,0-2.51-3.49c-1-1.08-2.64-2-3.38-3.23,0,0-.06,0-.05,0Z"/><path class="cls-1" d="M56.27,63c1.71,3.66,1.2,7.32,1,11.2,0,.06.09.06.1,0,.54-3.73.56-7.75-1.05-11.23a0,0,0,1,0-.06,0Z"/><path class="cls-1" d="M46.72,53.41a8.16,8.16,0,0,0-.21,2.09,0,0,0,0,0,.07,0,8.64,8.64,0,0,0,.23-2.09c0-.05-.08-.07-.09,0Z"/><path class="cls-1" d="M46.28,56.37A8.4,8.4,0,0,0,45.94,59,0,0,0,0,0,46,59c.11-.86.2-1.71.37-2.56,0-.06-.07-.09-.09,0Z"/><path class="cls-1" d="M46.62,57.49a4.28,4.28,0,0,0-.26,2.09s0,0,0,0a18.14,18.14,0,0,1,.24-2.08s0,0,0,0Z"/><path class="cls-1" d="M47.45,57.64a1.94,1.94,0,0,0,0,1.53s.08,0,.08,0c0-.2-.08-.37-.1-.56a2.39,2.39,0,0,1,0-1s0,0,0,0Z"/><path class="cls-1" d="M48.07,58a2.67,2.67,0,0,0,0,1.43.06.06,0,0,0,.1,0,11,11,0,0,0,0-1.41c0-.07-.09-.07-.1,0Z"/><path class="cls-1" d="M49,53.86h.1s0,0,0,0l-.1,0s0,.07,0,.07Z"/><path class="cls-1" d="M49,53.83a12.38,12.38,0,0,0,.73,1.86s.1,0,.09,0a11.59,11.59,0,0,0-.75-1.87s-.09,0-.07,0Z"/><path class="cls-1" d="M46.36,62c.26,1,.24,2,.45,3a8.25,8.25,0,0,0,1,2.57s0,0,0,0a14,14,0,0,1-1-3A18.23,18.23,0,0,0,46.4,62a0,0,0,0,0,0,0Z"/><path class="cls-1" d="M48.72,70.14a15.41,15.41,0,0,0,1,4.84s.05,0,0,0a21.54,21.54,0,0,1-1.07-4.82s0,0,0,0Z"/><path class="cls-1" d="M49.25,70.57a15.53,15.53,0,0,1,.57,3.1,4.05,4.05,0,0,0,.52,2s.08,0,.06,0c-.74-1.58-.5-3.45-1.11-5.1,0,0,0,0,0,0Z"/><path class="cls-1" d="M50.36,71.7a12.81,12.81,0,0,0,.6,3.53s0,0,0,0c-.17-1.18-.49-2.32-.6-3.51,0,0,0,0,0,0Z"/><path class="cls-1" d="M51.12,72.14a9.47,9.47,0,0,0,.75,3c0,.06.11,0,.11,0a9.67,9.67,0,0,0-.39-1.47c-.13-.49-.25-1-.42-1.47a0,0,0,0,0-.05,0Z"/><path class="cls-1" d="M51.89,73a17.58,17.58,0,0,0,.61,2c0,.06.11,0,.1,0A17.88,17.88,0,0,0,52,73c0-.08-.15,0-.13,0Z"/><path class="cls-1" d="M55.21,67a23.65,23.65,0,0,0,.23,2.6c.05.84.08,1.68.18,2.51a0,0,0,0,0,.09,0,49,49,0,0,0-.34-5.41s-.06,0-.08,0c-.19.14-.17.09-.17.33,0,.06.09.06.09,0Z"/><path class="cls-1" d="M55.72,73.65c0,1.17-.48,2.23-.48,3.4a22.06,22.06,0,0,1-.43,3.42c0,.07.1.08.12,0a7.78,7.78,0,0,0,.46-3.21c-.06-1.25.31-2.4.34-3.63,0,0,0,0,0,0Z"/><path class="cls-1" d="M43.93,62.44a10.55,10.55,0,0,0-.53,4.06,0,0,0,1,0,0,0c.15-1.36.38-2.7.54-4,0,0,0,0,0,0Z"/><path class="cls-1" d="M43.34,68.09l0,.49s0,0,0,0l0-.5s0,0,0,0Z"/><path class="cls-1" d="M43.9,66a4.79,4.79,0,0,0,0,1.81,0,0,0,0,0,.08,0A17.89,17.89,0,0,1,44,66c0-.08-.11-.08-.12,0Z"/><path class="cls-1" d="M44.64,67.25a4.17,4.17,0,0,0,0,.5s0,0,.06,0,0-.33,0-.49-.09-.06-.09,0Z"/><path class="cls-1" d="M60.58,39.73A19.89,19.89,0,0,1,70,38.67a0,0,0,1,0,0,0c-3.21-.39-6.43-.45-9.42,1-.07,0,0,.13,0,.11Z"/><path class="cls-1" d="M71.73,38.9a2.23,2.23,0,0,1,1-.17s0,0,0,0a2.19,2.19,0,0,0-1,.16s0,0,0,0Z"/><path class="cls-1" d="M74.51,38.84a11.11,11.11,0,0,0,1.41-.33s0,0,0,0a11.53,11.53,0,0,0-1.41.33,0,0,0,0,0,0,0Z"/><path class="cls-1" d="M78.62,38.11a17,17,0,0,1-1.71.69c-.46.16-.94.25-1.37.45a0,0,0,0,0,0,.09,7.93,7.93,0,0,0,3.08-1.2s0,0,0,0Z"/><path class="cls-1" d="M78.9,38.41c-1.1.52-2.24.92-3.35,1.4a.09.09,0,0,0,.06.16l.25-.06s0-.08,0-.09l-.26,0,0,.17a13.63,13.63,0,0,0,3.32-1.51,0,0,0,1,0,0-.05Z"/><path class="cls-1" d="M79.25,39a8.79,8.79,0,0,0-2.06.89c-.06,0,0,.13.06.12a8.54,8.54,0,0,0,2.07-.88c.08,0,0-.16-.07-.13Z"/><path class="cls-1" d="M86.64,32.81a2.25,2.25,0,0,0-.72.72,9.53,9.53,0,0,1-1.54,1.63c-1.24,1-2.6,1.94-3.8,3,0,0,0,.12.06.09a26.85,26.85,0,0,0,3.55-2.65,11.69,11.69,0,0,0,1.37-1.26c.4-.47.6-1.13,1.09-1.52,0,0,0,0,0,0Z"/><path class="cls-1" d="M68,35.82a14.31,14.31,0,0,1,2.11-.57s0,0,0,0a8.68,8.68,0,0,0-2.14.51c-.07,0,0,.12,0,.09Z"/><path class="cls-1" d="M71.83,34.41a11.4,11.4,0,0,1,1.72-.53s0,0,0,0a5.13,5.13,0,0,0-1.71.56s0,0,0,0Z"/><path class="cls-1" d="M75.18,33.2A61.53,61.53,0,0,0,81.5,31c.06,0,0-.14,0-.12a61.45,61.45,0,0,0-6.29,2.3s0,.06,0,.05Z"/><path class="cls-1" d="M30.86,12.45c.71,1.61,1.16,3.3,1.72,5,0,.07.12.05.1,0a17.2,17.2,0,0,0-1.8-5s0,0,0,0Z"/><path class="cls-1" d="M31.81,12.47a47.11,47.11,0,0,0,1.41,4.8c0,.08.16.05.13,0-.51-1.59-1.05-3.17-1.5-4.77,0,0-.05,0,0,0Z"/><path class="cls-1" d="M33,14.53c.18.78.33,1.57.56,2.33a0,0,0,0,0,0,0c-.15-.78-.39-1.55-.59-2.32Z"/><path class="cls-1" d="M33.56,20a84.56,84.56,0,0,0,4.31,9.86c0,.06.1,0,.08,0-1.48-3.27-3-6.52-4.37-9.83a0,0,0,1,0,0,0Z"/><path class="cls-1" d="M36.64,25.89c.63,1.33,1.13,2.77,1.85,4.05,0,0,.13,0,.11,0a21.92,21.92,0,0,0-1.89-4s-.09,0-.07,0Z"/><path class="cls-1" d="M40,30.63c.55,1.33,1,2.68,1.66,4,.07.14.26,0,.21-.1-.54-1.33-1.19-2.62-1.79-3.92,0-.06-.1,0-.08,0Z"/><path class="cls-1" d="M41.26,32.54a2,2,0,0,0,.4,1.06c.18.29.37.7.71.8.1,0,.24,0,.23-.15,0-.37-.33-.65-.53-.94a2.72,2.72,0,0,0-.64-.85.12.12,0,0,0-.17.08Z"/><path class="cls-1" d="M41.56,32.19c.4.72.86,1.42,1.32,2.11.2.29.62,0,.39-.27a3,3,0,0,0-.32-.3c-.06,0-.17,0-.16.08a3,3,0,0,0,.07.43l.44-.16A25.15,25.15,0,0,0,41.83,32c-.12-.15-.36,0-.27.19Z"/><path class="cls-1" d="M42.48,33.09c.19.46.44,1.21.91,1.46a.12.12,0,0,0,.18-.13,2,2,0,0,0-.38-.69,7.52,7.52,0,0,1-.43-.79c-.09-.18-.35,0-.28.15Z"/><path class="cls-1" d="M40.09,33.71a6.68,6.68,0,0,1,.76,1.19l.35-.25a5.1,5.1,0,0,1-.61-.7c-.09-.12-.26,0-.24.12A1.61,1.61,0,0,0,41,35.21c.07,0,.18,0,.15-.1-.13-.39-.38-.71-.51-1.1l-.24.12a4.28,4.28,0,0,1,.47.77c.11.25.52.05.39-.21a4.64,4.64,0,0,0-.91-1.2.16.16,0,0,0-.24.22Z"/><path class="cls-1" d="M58.82,43.59a22.4,22.4,0,0,0-2.45-.28,3.82,3.82,0,0,0-2,.07.12.12,0,0,0,0,.22,10.22,10.22,0,0,0,1.92.12c.81,0,1.62.11,2.43.07.11,0,.16-.18,0-.2Z"/><path class="cls-1" d="M58.73,44.48a16.36,16.36,0,0,0-5-.4.14.14,0,0,0,0,.27,24.53,24.53,0,0,0,5,.29c.09,0,.13-.14,0-.16Z"/><path class="cls-1" d="M58.17,45.24c-1.4-.18-2.81-.37-4.22-.47-.29,0-.26.46,0,.4l.24-.06a.11.11,0,0,0,0-.19l-.21-.12-.12.37c1.4.18,2.82.28,4.23.38.2,0,.21-.29,0-.31Z"/><path class="cls-1" d="M57.67,45.78a8.64,8.64,0,0,0-1.53-.18,17.36,17.36,0,0,0-1.75-.2.19.19,0,0,0-.07.37,6.12,6.12,0,0,0,3.34.12c.05,0,.07-.1,0-.11Z"/><path class="cls-1" d="M57.4,46.88a11.25,11.25,0,0,0-3.32-1c-.3-.05-.39.45-.1.54s.57.17.86.22c.14,0,.15-.16.07-.22s-.46-.33-.69-.5l-.24.5c1.09.26,2.16.59,3.24.86.21,0,.4-.25.18-.37Z"/><path class="cls-1" d="M56.66,47.11a4.9,4.9,0,0,0-1.39-.49,1.77,1.77,0,0,0-1.22,0,.15.15,0,0,0,0,.25,2.44,2.44,0,0,0,1.11.24c.46.08.92.2,1.38.3.16,0,.3-.19.13-.28Z"/><path class="cls-1" d="M56.25,47.47c-.54-.37-1.66-.83-2.25-.35a.11.11,0,0,0,0,.19,4.49,4.49,0,0,0,.9.07,3,3,0,0,1,1.12.39.18.18,0,0,0,.19-.3Z"/><path class="cls-1" d="M56.22,48.47a3.32,3.32,0,0,0-2.31-.82c-.22,0-.36.31-.14.43a1.28,1.28,0,0,0,.42.17.12.12,0,0,0,.14-.17,1.28,1.28,0,0,0-.26-.35l-.19.39a6.41,6.41,0,0,1,1.16.21c.35.11.66.28,1,.41.15.06.3-.16.18-.27Z"/><path class="cls-1" d="M55.71,48.9A4,4,0,0,0,53.78,48c-.28,0-.33.33-.15.48a1.81,1.81,0,0,0,.64.43c.14.05.23-.09.18-.21a2.06,2.06,0,0,0-.49-.61l-.27.42a5.54,5.54,0,0,1,1.85.62.16.16,0,0,0,.17-.26Z"/><path class="cls-1" d="M55.5,48.82a6,6,0,0,0-2.4-1.12c-.28-.06-.61.29-.34.53A2.78,2.78,0,0,0,54,49a.16.16,0,0,0,.17-.26c-.28-.32-.61-.59-.9-.9-.08.18-.17.37-.26.55a4.94,4.94,0,0,1,2.33.75.17.17,0,0,0,.19-.27Z"/><path class="cls-1" d="M55.12,49a3.42,3.42,0,0,0-2.35-1.09.29.29,0,0,0-.27.42,1.36,1.36,0,0,0,.57.57c.1,0,.21,0,.16-.14a2,2,0,0,1-.2-.63l-.29.35a3.43,3.43,0,0,1,2.1.77c.18.16.46-.07.28-.25Z"/><path class="cls-1" d="M54.37,49.46a5.13,5.13,0,0,0-2-.7c-.28,0-.37.42-.09.5a5.34,5.34,0,0,1,1.27.56c.07,0,.16,0,.12-.1a2.42,2.42,0,0,0-1.23-.95l-.09.5a12.52,12.52,0,0,1,1.9.46.15.15,0,0,0,.13-.27Z"/><path class="cls-1" d="M54.14,49.59c0,.43-1.16-.11-1.32-.17s-.5-.24-.72-.08a.4.4,0,0,0-.11.5c.13.28.39.19.58.36a.13.13,0,0,0,.21-.11.44.44,0,0,0-.11-.24l-.15-.13v.12a2.29,2.29,0,0,0,.6.14,3.13,3.13,0,0,0,.44.1c.38.05.77,0,.82-.48,0-.15-.22-.16-.24,0Z"/><path class="cls-1" d="M53.11,50.37a4.53,4.53,0,0,0-2-.66.33.33,0,0,0-.2.61,4.18,4.18,0,0,0,1.16.57c.11,0,.25-.09.18-.21a4.29,4.29,0,0,0-1-.92l-.28.6a5.25,5.25,0,0,1,1.72.55c.35.2.71-.33.35-.54Z"/><path class="cls-1" d="M52.52,50.75c-.27-.16-.54-.34-.81-.52s-.39-.29-.61-.25a.38.38,0,0,0-.12.7c.09,0,.24,0,.29-.07l0,0a.18.18,0,0,0,0-.2l0,.14-.2.07a3.34,3.34,0,0,1,1.31.47c.18.08.32-.21.15-.31Z"/><path class="cls-1" d="M51.07,51.09c-.21-.21-.37-.49-.68-.55-.12,0-.29.06-.24.22.11.33.39.44.66.64s.42-.14.26-.31Z"/><path class="cls-1" d="M37.05,41.34a13.48,13.48,0,0,0-2.62,0l.18.47a1.2,1.2,0,0,0,.24-.15.14.14,0,0,0-.05-.23.92.92,0,0,0-.23-.09c-.37-.09-.46.49-.09.5a13.34,13.34,0,0,0,2.6-.19.18.18,0,0,0,0-.35Z"/><path class="cls-1" d="M37.28,41.67a6.15,6.15,0,0,0-1.86-.26,3,3,0,0,0-1.68.31c-.12.08-.16.32,0,.36A6.33,6.33,0,0,0,35.39,42a14,14,0,0,1,1.83,0,.19.19,0,0,0,.06-.37Z"/><path class="cls-1" d="M36.81,42.07a8.06,8.06,0,0,0-2.34.32.29.29,0,0,0,.13.56c.37-.05.74-.06,1.12-.11a.09.09,0,0,0,0-.18c-.36-.11-.73-.16-1.1-.26l0,.55a17,17,0,0,0,2.24-.53c.18-.06.19-.35,0-.35Z"/><path class="cls-1" d="M36.63,42.4a1.06,1.06,0,0,1-.9.26c-.42,0-.34.71.11.52a.84.84,0,0,0,.21-.11.14.14,0,0,0,0-.23.53.53,0,0,0-.2-.13c0,.16,0,.33-.08.49a1.88,1.88,0,0,0,1-.6c.13-.12-.06-.32-.18-.2Z"/><path class="cls-1" d="M36.74,42.8a2.2,2.2,0,0,1-.61.16c-.23,0-.22.31-.08.42a.33.33,0,0,0,.53,0,.15.15,0,0,0,0-.2,1.82,1.82,0,0,1-.23-.15l0,.4a1.79,1.79,0,0,0,.56-.43.1.1,0,0,0-.11-.16Z"/><path class="cls-1" d="M36.64,42.92c.07.45-.28.52-.48.81a.21.21,0,0,0,.22.32c.5-.06.62-.79.56-1.19,0-.2-.33-.13-.3.06Z"/><path class="cls-1" d="M52,27.56c-.72,1.26-1.22,2.67-1.91,4,0,0,.06.11.09,0a23.34,23.34,0,0,0,1.85-4s0,0,0,0Z"/><path class="cls-1" d="M52.76,27.47A48.44,48.44,0,0,1,50.84,32a0,0,0,0,0,0,0,25.69,25.69,0,0,0,1.9-4.53s0,0,0,0Z"/><path class="cls-1" d="M53.54,27.5c-.67,1.59-1.42,3.08-2.21,4.61,0,.06.05.12.09.06a16,16,0,0,0,2.16-4.66,0,0,0,0,0,0,0Z"/><path class="cls-1" d="M56.56,21.79a24.65,24.65,0,0,0-3.08,5.15c0,.07.07.1.1,0a28.14,28.14,0,0,1,3-5.19Z"/><path class="cls-1" d="M57.12,21.29a14.8,14.8,0,0,0,2.63-3.4A18.74,18.74,0,0,0,62,13.83s0,0,0,0a26.17,26.17,0,0,1-2.25,4,15,15,0,0,1-2.6,3.42Z"/><path class="cls-1" d="M50,51.22c-.13,0,.63,1.17.71,1.27.25.3.59.74,1,.83a.09.09,0,0,0,.11-.13,3.4,3.4,0,0,0-.62-.69,5.74,5.74,0,0,1-.61-.79c-.11-.16-.41-.92-.7-.58a.09.09,0,0,0,0,.12.3.3,0,0,0,.06.11.09.09,0,0,0,.09,0h0c.08,0,0-.15,0-.14Z"/><path class="cls-1" d="M49.44,51.11a3.83,3.83,0,0,0,.83,1.38c.3.32.77.86,1.23.88a.13.13,0,0,0,.12-.18,1.4,1.4,0,0,0-.42-.42,5.43,5.43,0,0,1-.61-.57A12,12,0,0,1,49.67,51a.13.13,0,0,0-.23.12Z"/><path class="cls-1" d="M49.5,51.25a4.51,4.51,0,0,0,.94,1.42,3.3,3.3,0,0,0,1.28.95.07.07,0,0,0,.07-.12c-.36-.36-.81-.61-1.17-1a6.48,6.48,0,0,1-1-1.35.09.09,0,0,0-.16.09Z"/><path class="cls-1" d="M51.14,53.2a11,11,0,0,1,5.27,3.5.06.06,0,0,0,.09-.06c-.92-2-3.42-2.87-5.35-3.49,0,0,0,0,0,.05Z"/><path class="cls-1" d="M50.27,51.56a8.21,8.21,0,0,0,1.15,1.35,4.45,4.45,0,0,0,1.3,1,.12.12,0,0,0,.12-.19c-.36-.4-.87-.69-1.27-1.06a12.93,12.93,0,0,1-1.14-1.2c-.08-.08-.23,0-.16.11Z"/><path class="cls-1" d="M56.84,56.51c1.34,2.29,2.78,5.28,4.76,7.08a10.35,10.35,0,0,0,6.14,2.15c.09,0,.12-.13,0-.15-2.63-.66-5.06-.89-6.84-3.21-1.46-1.88-2.61-4-4-5.92,0,0-.1,0-.08,0Z"/><path class="cls-1" d="M59.89,43.32c4.44-.3,9.33-.07,13.07,2.52.06,0,.15-.06.09-.11a10,10,0,0,0-5.3-2.34c-2.37-.37-5.54-.83-7.88-.21-.07,0-.07.15,0,.14Z"/><path class="cls-1" d="M73.63,46.07a57.81,57.81,0,0,0,5.87,6.46c2,2,4.67,2.8,6.21,5.38.06.1.23,0,.17-.09-1.47-2.46-3.75-3.08-5.79-4.9A80.29,80.29,0,0,1,73.68,46a0,0,0,0,0-.05,0Z"/><path class="cls-1" d="M86,58.75c.06,1.21-3.3,2.23-4.17,2.69a13,13,0,0,1-5.35,1.85.07.07,0,0,0,0,.14c2.38.23,4.2-1.3,6.23-2.29,1.15-.56,3.61-.63,3.5-2.38,0-.13-.22-.14-.21,0Z"/><path class="cls-1" d="M76.24,63.53c-3,0-5.44,1.81-8.51,1.48-.09,0-.11.13,0,.16,2.81.93,5.78-1.22,8.55-1.55,0,0,0-.09,0-.09Z"/><path class="cls-1" d="M56.05,49.36l-.33-.08c-.07,0-.13.09-.06.12.48.23,1,.4,1.47.61s1.08.53,1.65.71c.06,0,.1-.07,0-.1a9.78,9.78,0,0,0-3.11-1.34v.13h.33a0,0,0,1,0,0,0Z"/><path class="cls-1" d="M55.52,48.9c1.19.49,2.33,1.15,3.53,1.58.05,0,.07,0,0-.08a10.2,10.2,0,0,0-3.54-1.59c-.06,0-.09.07,0,.09Z"/><path class="cls-1" d="M56,48.64a11,11,0,0,1,1.69.62c.43.23.8.58,1.23.78.06,0,.12,0,.09-.1a4.13,4.13,0,0,0-3-1.39s-.07.08,0,.09Z"/><path class="cls-1" d="M56.23,48.32a7.16,7.16,0,0,0,1.27.7,3.78,3.78,0,0,0,1.06.44s.09-.07,0-.11a4.24,4.24,0,0,0-1-.55,8.21,8.21,0,0,0-1.34-.55c-.05,0-.08,0,0,.07Z"/><path class="cls-1" d="M57.3,48.48c1,.35,2,.78,3,1.15,0,0,0,0,0,0a26.24,26.24,0,0,0-3-1.13Z"/><path class="cls-1" d="M60.32,51.22c1.12.55,2.12,1.33,3.23,1.87.05,0,.1,0,.06-.07a10.26,10.26,0,0,0-3.27-1.85s-.05,0,0,0Z"/><path class="cls-1" d="M61.67,51.12a45.22,45.22,0,0,0,4.53,2.49s.08,0,0-.08a47.37,47.37,0,0,0-4.56-2.42s0,0,0,0Z"/><path class="cls-1" d="M51.26,51.16a7.26,7.26,0,0,0,4.35,2.62s.09-.06,0-.08c-1.58-.77-3.1-1.23-4.31-2.59,0,0-.11,0-.08,0Z"/><path class="cls-1" d="M56.46,54.22a20.05,20.05,0,0,0,2.34,1.43s.06,0,0-.06a20.47,20.47,0,0,0-2.3-1.48.07.07,0,0,0-.07.11Z"/><path class="cls-1" d="M56,53.4a10.77,10.77,0,0,1,1.64.79c.47.28.88.64,1.35.91,0,0,0,0,0,0a6.6,6.6,0,0,0-3-1.74s-.06.06,0,.07Z"/><path class="cls-1" d="M57.19,53.18a10.8,10.8,0,0,1,2.07,1.28s.05,0,0,0a6.24,6.24,0,0,0-2.09-1.28,0,0,0,0,0,0,0Z"/><path class="cls-1" d="M63.26,56.13a10.87,10.87,0,0,0,7.86,3,.06.06,0,1,0,0-.12,13.89,13.89,0,0,1-7.83-3s0,0,0,0Z"/><path class="cls-1" d="M63.86,55.83a11.8,11.8,0,0,0,7.42,2.63.09.09,0,0,0,0-.17,17.22,17.22,0,0,1-7.41-2.49s0,0,0,0Z"/><path class="cls-1" d="M65,55.73a16.92,16.92,0,0,0,7.38,2.09c.1,0,.1-.15,0-.16a20.35,20.35,0,0,1-7.34-2c-.05,0-.09,0,0,.06Z"/><path class="cls-1" d="M73,57.51a42,42,0,0,1,6.18,2.71,0,0,0,1,0,0,0A29.9,29.9,0,0,0,73,57.49s0,0,0,0Z"/><path class="cls-1" d="M77,58.44c1.18.44,2.3,1,3.45,1.5,0,0,.07,0,0-.06a1,1,0,0,0-.36-.36s0,0,0,0c.48.39-.31,0-.36-.06l-.86-.38c-.62-.26-1.25-.49-1.89-.7,0,0,0,0,0,0Z"/><path class="cls-1" d="M77.55,57.7a21.83,21.83,0,0,0,3.72,1.77,0,0,0,0,0,0-.08,21.88,21.88,0,0,0-3.73-1.75,0,0,0,1,0,0,.06Z"/><path class="cls-1" d="M78.6,57.42c.53.32,1.09.59,1.63.89a14.62,14.62,0,0,0,1.47.76c.06,0,.09-.06,0-.1a11.3,11.3,0,0,0-1.63-.91c-.49-.25-1-.51-1.49-.71,0,0-.07,0,0,.07Z"/><path class="cls-1" d="M79.56,57.4a7.94,7.94,0,0,1,1.31.56c.34.17.64.41,1,.56,0,0,.05,0,0,0a4.81,4.81,0,0,0-2.29-1.16s-.08.06,0,.08Z"/><path class="cls-1" d="M79.71,56.64a18.76,18.76,0,0,0,2.2,1.2c.06,0,.1-.07,0-.1a19.24,19.24,0,0,0-2.18-1.21c-.07,0-.15.07-.07.11Z"/><path class="cls-1" d="M80.64,56.56a7.17,7.17,0,0,0,1,.58c.06,0,.08,0,0-.09a7.38,7.38,0,0,0-1-.6c-.07,0-.14.07-.07.11Z"/><path class="cls-1" d="M60.15,43.9a20.13,20.13,0,0,1,9.16.38s.08-.06,0-.08a16,16,0,0,0-9.19-.36s0,.07,0,.06Z"/><path class="cls-1" d="M69.79,45.14a9.6,9.6,0,0,1,6,4.33s.08,0,.06,0a8.34,8.34,0,0,0-6.1-4.34s0,0,0,0Z"/><path class="cls-1" d="M76.19,50.33a16.36,16.36,0,0,0,4.13,4s.09,0,.05-.06a44.46,44.46,0,0,1-4.16-4s0,0,0,0Z"/><path class="cls-1" d="M10.5,41.51a13.47,13.47,0,0,1,8.1-2.75,0,0,0,0,0,0,0,11.57,11.57,0,0,0-8.18,2.71c-.05,0,0,.13.08.09Z"/><path class="cls-1" d="M25.24,32.93h.14s0,0,0,0h-.14s0,0,0,0Z"/><path class="cls-1" d="M28.28,33.32a8,8,0,0,1,2.12.4c.61.19,1.15.52,1.76.72.07,0,.11-.07.05-.12a7.51,7.51,0,0,0-3.93-1Z"/><path class="cls-1" d="M27.38,32.64a10.14,10.14,0,0,1,3.14.58,0,0,0,0,0,0,0,8.32,8.32,0,0,0-3.16-.59,0,0,0,0,0,0,0Z"/><path class="cls-1" d="M27.81,31.76a35.11,35.11,0,0,1,4,1.9,0,0,0,0,0,.05-.08,10.86,10.86,0,0,0-4.05-1.87s-.06,0,0,.05Z"/><path class="cls-1" d="M60,45a.53.53,0,0,0-.28,0s0,.05,0,.06a.54.54,0,0,0,.28,0A0,0,0,0,0,60,45Z"/><path class="cls-1" d="M59.65,45c1.28-.35,2.66-.15,3.94-.44a.07.07,0,0,0,0-.13,10.91,10.91,0,0,0-2.55.16c-.42.06-1.21,0-1.5.36a0,0,0,0,0,0,0l0,.08s0,0,0,0l.07,0a0,0,0,1,0,0,0Z"/><path class="cls-1" d="M59.94,45.72a13.37,13.37,0,0,1,3.73-.28.06.06,0,0,0,0-.11,6.52,6.52,0,0,0-3.78.27c-.07,0,0,.14,0,.12Z"/><path class="cls-1" d="M12.54,53.27c-3.82,1-5.67,3.43-7.31,6.86C3.07,64.62.33,67.76,0,73c0,.12.18.13.19,0,.63-4.39,2.16-7.44,4.42-11.15S8,55.05,12.56,53.39c.07,0,0-.14,0-.12Z"/><path class="cls-1" d="M.11,73.25a26.59,26.59,0,0,1,8-.51A8.31,8.31,0,0,0,12.6,72c2.23-1,6.15-2.14,6.31-5a.09.09,0,0,0-.17,0C17.6,70.37,11.2,72.36,8.13,72.3S2.89,72,.07,73.06c-.11,0-.08.22,0,.19Z"/><path class="cls-1" d="M19.79,55.53a24.34,24.34,0,0,0-8.06,8.69c0,.07.06.13.1.07a43.53,43.53,0,0,1,8-8.74s0,0,0,0Z"/><path class="cls-1" d="M10.21,65.5a29.07,29.07,0,0,1-5,3.48.07.07,0,0,0,.06.12,15.17,15.17,0,0,0,4.93-3.58s0,0,0,0Z"/><path class="cls-1" d="M17.17,57a14.48,14.48,0,0,0-4.85,1.21.09.09,0,0,0,.06.16c.8-.2,1.57-.54,2.37-.75s1.63-.36,2.45-.52c.06,0,0-.11,0-.1Z"/><path class="cls-1" d="M16.74,57.85a4.76,4.76,0,0,0-3.6.36A39.59,39.59,0,0,0,7.7,61.15s0,.12,0,.09c2.82-1.24,5.74-3.89,9-3.33,0,0,.05,0,0-.06Z"/><path class="cls-1" d="M12.08,54.27C9.17,55.45,7.61,58.53,6,61.06A38.36,38.36,0,0,0,1.24,71.23c0,.12.15.18.18.06a38.22,38.22,0,0,1,4.12-9.12c1.72-2.79,3.55-6.34,6.61-7.78.08,0,0-.16-.07-.12Z"/><path class="cls-1" d="M15.26,60.19a44.62,44.62,0,0,1-1.4,8.09.11.11,0,0,0,.21.06,22.63,22.63,0,0,0,1.29-8.15.05.05,0,0,0-.1,0Z"/><path class="cls-1" d="M15.68,58.81c-.25,2.11-.63,4.23-.81,6.35,0,.07.1.09.12,0a24.39,24.39,0,0,0,.73-6.37s0,0,0,0Z"/><path class="cls-1" d="M18.22,66.43c-1.41,1.76-2.66,3.34-4.87,4.07A17.25,17.25,0,0,1,8,71c-2.14,0-4.21.09-6.07,1.28A.07.07,0,0,0,2,72.4c3.44-1.67,7-.76,10.57-1.49,2.64-.53,4.29-2.23,5.71-4.45,0,0,0-.06-.05,0Z"/><path class="cls-1" d="M29.6,73.79c.14,3.1-.5,7.79,1.88,10.17a17.87,17.87,0,0,0,1.57,1.18c1.14.93,1.8,2.27,2.79,3.27a2.83,2.83,0,0,0,1.9,1.15c.14,0,.18-.22,0-.26-1.45-.43-2.26-2.42-3.29-3.47-.73-.74-1.72-1.17-2.46-1.88-2.49-2.38-2-6.89-2.27-10.17,0-.09-.17-.08-.16,0Z"/><path class="cls-1" d="M37.56,89.51c2.57-2.33,5.74-2.88,8.68-4.53,1-.59.95-.7,1.37-1.74s1.66-1.83,1.72-3.13a.14.14,0,0,0-.28,0,10.56,10.56,0,0,1-1.69,2.83c-1.21,1.87-2.21,2.3-4.14,3.07-2.1.85-4.31,1.64-5.74,3.49,0,0,0,.1.08.06Z"/><path class="cls-1" d="M38.31,71.3c.14,4.44-1.38,8.88-.65,13.28,0,.07.12.06.11,0-.37-4.46,1.18-8.84.64-13.27,0-.06-.1,0-.1,0Z"/><path class="cls-1" d="M38.61,79.81c-.17,1.45-.4,2.9-.49,4.35,0,.06.08.06.08,0,.22-1.44.31-2.91.46-4.36a0,0,0,0,0,0,0Z"/><path class="cls-1" d="M38.1,84.76a1,1,0,0,0,0,.42c0,.06.1.06.12,0a.81.81,0,0,0,0-.41.08.08,0,1,0-.16,0Z"/><path class="cls-1" d="M38.63,78a14.72,14.72,0,0,0-.12,1.49,4.42,4.42,0,0,0,0,1.31.06.06,0,0,0,.11,0,4.32,4.32,0,0,0,.13-1.3c0-.5,0-1,0-1.5a.07.07,0,0,0-.14,0Z"/><path class="cls-1" d="M37.62,73.34A7.13,7.13,0,0,0,34,78.4c0,.12.18.16.21,0a8.25,8.25,0,0,1,3.41-5.07s0,0,0,0Z"/><path class="cls-1" d="M38.22,74.12a9.25,9.25,0,0,0-3.9,5.45.05.05,0,0,0,.1,0,18.82,18.82,0,0,1,1.53-3,13.62,13.62,0,0,1,2.31-2.43s0-.09,0-.06Z"/><path class="cls-1" d="M38.77,79A7.36,7.36,0,0,1,41,80.75a11.47,11.47,0,0,1,1.5,2.75s.11,0,.1,0A6.84,6.84,0,0,0,38.8,79s-.07,0,0,.07Z"/><path class="cls-1" d="M30.83,73.66a20.58,20.58,0,0,0,.74,7.49c.75,2.27,4.5,3,4.49,5.48a.09.09,0,1,0,.17,0c0-1.6-1-2.18-2.19-3-3.16-2.3-3.12-6.33-3.13-9.93a0,0,0,1,0-.08,0Z"/><path class="cls-1" d="M38.32,87.82c1.24-1.95,4-.79,5.38-2.52,0-.06,0-.12-.09-.08-1.17.9-2.44.82-3.76,1.27a2.5,2.5,0,0,0-1.61,1.29s0,.08.08,0Z"/><path class="cls-1" d="M59.32,75.63c0-.08,2.15.68,2.31.73a7.74,7.74,0,0,0,2.83.31,5,5,0,0,1,2.65.3c.81.33,1.49.82,2.28,1.14a4.88,4.88,0,0,0,2.33.35.09.09,0,0,0,0-.17c-2.1-.32-3.58-1.76-5.6-2-1.36-.19-2.63.33-4,0a17.2,17.2,0,0,1-3-1.17.06.06,0,0,0-.07.08l.19.49s.08,0,.07,0Z"/><path class="cls-1" d="M72.35,78.52c.6-2.35,2.2-4.34,2.88-6.69A20.08,20.08,0,0,0,76,65.47c0-.16-.26-.18-.26,0A21,21,0,0,1,74.53,73c-.69,1.87-2,3.48-2.3,5.45,0,.07.1.09.12,0Z"/><path class="cls-1" d="M65.3,68.75A3,3,0,0,0,66.5,70a4.1,4.1,0,0,1,1.84,2.11A4.31,4.31,0,0,0,71.28,75a.06.06,0,0,0,0-.11A4.81,4.81,0,0,1,69,73c-.37-.63-.49-1.37-.89-2-.67-1-2.15-1.18-2.73-2.27a0,0,0,1,0-.08,0Z"/><path class="cls-1" d="M71.1,74.78a3.9,3.9,0,0,1-1.84-2.5,3.91,3.91,0,0,0-.48-1.62c-.76-1-2.46-1.59-3.59-2.07-.06,0-.1.07,0,.11.81.47,1.67.82,2.49,1.27a3,3,0,0,1,1.48,2.34,3.69,3.69,0,0,0,2,2.52s.07,0,0,0Z"/><path class="cls-1" d="M65.06,68.84a15,15,0,0,0-2-1,.07.07,0,0,0-.06.13,17.81,17.81,0,0,0,2,1c.09,0,.15-.1.07-.15Z"/><path class="cls-1" d="M62.91,67.23a13.49,13.49,0,0,0,2.5,1s.1-.06,0-.09a13.47,13.47,0,0,0-2.52-1,.06.06,0,0,0,0,.11Z"/><path class="cls-1" d="M59.47,74.09c1.84,3,6.39.49,9,1.84a.05.05,0,1,0,.05-.09c-2.77-1.89-6.57,1-9-1.78a0,0,0,1,0,0,0Z"/><path class="cls-1" d="M69.82,76.72a15.39,15.39,0,0,0,1.34.87.07.07,0,0,0,.08-.12c-.44-.3-.91-.57-1.37-.83a0,0,0,1,0-.05.08Z"/><path class="cls-1" d="M71.68,77.4c.24-1.3,1.28-2,1.85-3.1s-.18-3.21,1.24-3.73c.09,0,.06-.19,0-.16-1.23.45-1,1.66-1.06,2.73-.18,1.69-2,2.55-2.09,4.24,0,.05.09.07.1,0Z"/><path class="cls-1" d="M62.75,67.62a32.46,32.46,0,0,0,.18,3.82c0,.11.19.09.19,0a30.47,30.47,0,0,0-.25-3.81c0-.06-.11,0-.12,0Z"/><path class="cls-1" d="M63.4,68.44a43.55,43.55,0,0,0,0,5c0,.08.13.09.13,0a41.38,41.38,0,0,0-.07-5s0,0,0,0Z"/><path class="cls-1" d="M74.38,67.15a16.17,16.17,0,0,0-.79,3c0,.08.1.08.13,0a16.1,16.1,0,0,0,.78-2.94c0-.08-.1-.12-.12,0Z"/></g></g></svg>