<svg xmlns="http://www.w3.org/2000/svg" viewBox="0 0 73.72 183.52"><defs><style>.cls-1{fill:#444;}</style></defs><title>icon-leaf_2</title><g id="Calque_2" data-name="Calque 2"><g id="_2" data-name="2"><path class="cls-1" d="M38.12,33.33c-1.65,12.19-1.85,24.71-2.47,37q-1,18.81-1.49,37.66c-.71,24.89-1.08,49.84-.59,74.74a.63.63,0,0,0,1.26,0c-.25-24.92-.31-49.83.39-74.74q.51-18.52,1.43-37c.62-12.51,2-25.1,2.08-37.62a.31.31,0,0,0-.61,0Z"/><path class="cls-1" d="M38.86,32.33a13.7,13.7,0,0,0-.46,5.51c0,.1.19.11.21,0a52.46,52.46,0,0,0,.52-5.47c0-.15-.23-.18-.27,0Z"/><path class="cls-1" d="M34.2,183.52a2.4,2.4,0,0,0,1.59-.41.26.26,0,0,0,0-.3.1.1,0,0,0,0-.05.24.24,0,0,0-.29,0,2.94,2.94,0,0,1-1.29.33c-.31,0-.31.46,0,.48Z"/><path class="cls-1" d="M38.54,32.61a9.58,9.58,0,0,0,.76-1.54l-.51-.15c-.41,2.32-1.22,4.83-1.21,7.19a.16.16,0,0,0,.32,0c.83-2.18,1-4.79,1.4-7.09a.27.27,0,0,0-.51-.15,8.7,8.7,0,0,0-.56,1.55.17.17,0,0,0,.31.14Z"/><path class="cls-1" d="M38.77,30.64C37.86,39,37.5,47.54,37.1,56s-1.42,17-1,25.33c0,.09.15.12.16,0,1.32-8.08,1.21-16.55,1.69-24.71.51-8.63,1.07-17.33,1-26a.14.14,0,0,0-.28,0Z"/><path class="cls-1" d="M37.43,71.67c-.84,18.46-2.36,36.82-2.64,55.32s.21,37.1.57,55.64c0,.65,1,.67,1,0-.51-18.55-.9-37.09-.84-55.65q0-13.74.7-27.48c.45-9.22,1.84-18.62,1.39-27.85a.09.09,0,1,0-.18,0Z"/><path class="cls-1" d="M37.5,66.55a39.92,39.92,0,0,0,0,9c0,.13.19.08.2,0a39.66,39.66,0,0,0,0-9,.09.09,0,0,0-.17,0Z"/><path class="cls-1" d="M36.94,76.85a20.1,20.1,0,0,0-1.39,4.82.14.14,0,0,0,.26.07,19.85,19.85,0,0,0,1.4-4.81.14.14,0,0,0-.27-.08Z"/><path class="cls-1" d="M36.91,79.5a49,49,0,0,0-1.66,6,.07.07,0,0,0,.14,0,51.23,51.23,0,0,0,1.59-6s-.06-.07-.07,0Z"/><path class="cls-1" d="M37.34,79.41a16,16,0,0,0-1.71,6.79c0,.13.21.18.25,0a44.33,44.33,0,0,1,1.72-6.71c.06-.15-.19-.27-.26-.12Z"/><path class="cls-1" d="M36.88,75.64a43.93,43.93,0,0,0-.5,8.33c0,.13.21.19.24,0a44.14,44.14,0,0,0,.48-8.37.11.11,0,0,0-.22,0Z"/><path class="cls-1" d="M38.84,30.87c.06,7.74.1,15.46-.25,23.21s-1.23,15.41-1.77,23.14c0,.07.12.09.13,0,2.41-15.1,2.71-31.12,2-46.37a0,0,0,1,0-.09,0Z"/><path class="cls-1" d="M39.26,43.29c1.28-5.56,4-8.73,8-12.62,1.54-1.5,2.67-3.31,4.09-4.91,1.92-2.15,4.29-3.53,6.59-5.21.16-.11.08-.43-.14-.35C52.32,22,49.86,27.35,45.91,31c-3.63,3.35-6.38,7.17-6.88,12.25a.12.12,0,0,0,.23,0Z"/><path class="cls-1" d="M57.57,20.52C49.79,27.38,48,38.87,39,44.48a.24.24,0,0,0,.24.42c4-2.07,6.66-5.89,8.83-9.75,1.4-2.51,2.65-5.1,4.2-7.53s3.63-4.66,5.38-7c0,0,0-.08-.07-.05Z"/><path class="cls-1" d="M43.17,36a29,29,0,0,0-3.4,5.79.11.11,0,0,0,.19.12A61.26,61.26,0,0,0,43.31,36a.08.08,0,0,0-.14-.09Z"/><path class="cls-1" d="M43.2,37.24c-1.52,1.87-2.91,3.89-4.26,5.88-.15.22.19.42.34.21,1.4-1.95,2.81-3.94,4-6,0-.07-.06-.15-.11-.09Z"/><path class="cls-1" d="M41.76,40.3A38.9,38.9,0,0,1,39,44.45c-.11.17.13.35.27.22a14.29,14.29,0,0,0,2.59-4.33c0-.05-.06-.09-.09,0Z"/><path class="cls-1" d="M40.58,41.09c-.94-.74,7.48-10,8.13-11.53,0-.1-.11-.15-.16-.07-2.11,3.1-4.82,5.64-6.81,8.85-.15.25-2.32,2.93-1.06,3.08a.09.09,0,0,0,.08-.06l.05-.19a.06.06,0,0,0,0-.07L40.63,41c-.05,0-.09.05-.05.08Z"/><path class="cls-1" d="M40.31,40.41a17.16,17.16,0,0,0-1.16,3l.49.14a6,6,0,0,1,.8-2L40,41.38,40,43c0,.24.36.39.48.14a1.77,1.77,0,0,0,.3-.93.13.13,0,0,0-.19-.11,1.73,1.73,0,0,0-.55.77l.48.14c0-.54,0-1.08,0-1.62a.26.26,0,0,0-.48-.14,6.3,6.3,0,0,0-.85,2.12.25.25,0,0,0,.49.14c.29-1,.63-2,1-3a.18.18,0,0,0-.32-.13Z"/><path class="cls-1" d="M37.71,42.9c-2.82-4.26-6.14-8.26-9.24-12.32C25.08,26.15,21.6,22,20.69,16.37a.24.24,0,0,0-.47.06c.31,4.51,3,8.23,5.64,11.71,3.81,5,7.53,10.19,11.7,14.87.07.08.21,0,.15-.11Z"/><path class="cls-1" d="M20.28,16.55A80.43,80.43,0,0,1,30.66,29.86C31.94,32,33,34.3,34.19,36.51s4,4.43,4.58,6.82c0,.19.37.17.36,0C39,41.42,37.5,40.42,36.41,39c-2.07-2.69-3.3-6-5-9-2.9-5-6.45-10-11-13.64-.1-.08-.24,0-.15.14Z"/><path class="cls-1" d="M38.24,35.31c-1.61-2.37-3.54-4.5-4.9-7a28.5,28.5,0,0,1-2.65-9c-1.06-6.2-2.8-12.82-.54-18.92,0-.11-.13-.18-.18-.08-2.95,5.31-.9,12.4.06,18,1.14,6.72,3.25,12.15,8.09,17.1a.08.08,0,0,0,.12-.09Z"/><path class="cls-1" d="M29.79.11a22,22,0,0,0,.78,8.38c.9,3,2.74,5.55,3.67,8.52,1.85,5.86,1.19,12.24,3.47,18,.09.23.48.15.4-.11-1.76-5.56-1.53-11.41-3-17a46.4,46.4,0,0,0-3-7A24.15,24.15,0,0,1,30,.12a.12.12,0,1,0-.23,0Z"/><path class="cls-1" d="M22.92,20.43a95.28,95.28,0,0,0,6.6,10.07c.09.12.3,0,.21-.12-2.37-3.26-4.5-6.65-6.74-10,0,0-.09,0-.07,0Z"/><path class="cls-1" d="M29.93,9.17a81.26,81.26,0,0,1,3.32,13.38c.34,2.69.65,5.3,2.64,7.29.11.11.27-.05.17-.17-2.35-2.79-2.23-6.39-2.89-9.79A65.76,65.76,0,0,0,30,9.15s-.07,0-.06,0Z"/><path class="cls-1" d="M38.14,53.35A80.87,80.87,0,0,0,47.3,40.91c3.33-5.23,7.8-7.92,13.13-10.83.1-.06,0-.26-.09-.21a27.09,27.09,0,0,0-11.69,8.29c-1.73,2.22-3,4.75-4.61,7.07-1.88,2.77-4,5.35-6.07,8-.08.1.08.23.17.14Z"/><path class="cls-1" d="M60.1,30.29A51.59,51.59,0,0,0,49.73,41.44C46.47,45.89,43.8,51.29,38.8,54a.2.2,0,0,0,.2.35c4.26-2,6.63-6.32,9.2-10a76.47,76.47,0,0,1,12-13.91c.1-.09,0-.22-.14-.14Z"/><path class="cls-1" d="M38.72,59.16c3.54-2.62,7.48-6,9.4-10,2.53-5.29,7.2-8,12.15-10.74.24-.12,0-.48-.2-.36-3.92,2.08-8.1,4.39-10.72,8.1-1.64,2.33-2.48,4.75-4.52,6.85s-4.31,3.85-6.19,6c0,.05,0,.16.08.11Z"/><path class="cls-1" d="M60.73,38.09c-3.46,4.22-6.41,8.92-9.57,13.37a26.19,26.19,0,0,1-5.61,6.26c-2.18,1.6-4.84,2-7.09,3.38-.3.19,0,.68.27.48,2.26-1.44,4.94-1.78,7.14-3.37a21.51,21.51,0,0,0,4.27-4.41A160.73,160.73,0,0,0,60.92,38.25c.07-.12-.1-.27-.19-.16Z"/><path class="cls-1" d="M37,53.12c-3.28-8.86-13-12.79-16-22a.11.11,0,0,0-.21.05c1.36,9.39,12.5,13.61,16,22,.06.12.28,0,.23-.1Z"/><path class="cls-1" d="M20.36,31.17c3.74,2.11,7.38,4.34,10.32,7.52s4.51,7,5.6,11.25a.09.09,0,0,0,.18,0c-.23-8.81-8.83-15.42-16-18.9-.11-.06-.2.09-.1.15Z"/><path class="cls-1" d="M36.24,48.78a3.33,3.33,0,0,0,.63,2.39s.06,0,.05,0a5.5,5.5,0,0,1-.56-2.36.06.06,0,1,0-.12,0Z"/><path class="cls-1" d="M39.34,60.23A21.54,21.54,0,0,0,43.63,57a48.51,48.51,0,0,0,4.23-4.13.08.08,0,0,0-.11-.11c-3,2.26-5.2,5.38-8.5,7.26a.1.1,0,0,0,.09.17Z"/><path class="cls-1" d="M48.38,51.72c1.54-1.36,2.26-3.33,3.42-5s3.37-2.54,4.38-4.4a.1.1,0,0,0-.17-.11c-1,1.66-2.93,2.38-4.1,3.91-1.35,1.75-2.15,3.82-3.57,5.54,0,0,0,.06,0,0Z"/><path class="cls-1" d="M36.51,61.41c-1.65-1.65-2.17-3.75-3.46-5.61a29.39,29.39,0,0,0-4.68-4.58C24.46,47.7,18.92,44.06,17,39c-.08-.21-.43-.12-.35.09,1.77,4.72,6.42,7.87,10,11.12,2.48,2.23,5.27,4.27,6.9,7.24.86,1.57,1.37,3,2.86,4.06.06,0,.12,0,.08-.09Z"/><path class="cls-1" d="M16.69,39.23c4,2.19,9,3.58,12.3,7s5.47,9.16,7.78,13.43a.22.22,0,0,0,.38-.21C34.73,55,32.58,49.06,28.9,45.55c-3.22-3.07-8.07-4.86-12.15-6.47-.08,0-.14.1-.06.15Z"/><path class="cls-1" d="M20.07,42.17c1.55,1.65,3.73,2.23,5.6,3.41a14.46,14.46,0,0,1,5.16,6.35,0,0,0,0,0,.07,0,11,11,0,0,0-3.68-5.68c-2.11-1.78-4.88-2.4-6.94-4.25a.15.15,0,0,0-.21.2Z"/><path class="cls-1" d="M31.43,52.62A27.73,27.73,0,0,0,36.14,59c0,.05.14,0,.1-.08-.72-1-1.57-2-2.33-3s-1.59-2.31-2.44-3.42c0,0-.06,0,0,0Z"/><path class="cls-1" d="M37.9,72.86c8.48-8.44,15.83-17.54,26-24a.11.11,0,0,0-.11-.2c-5,2.11-9.06,6.15-12.77,9.95-4.5,4.61-9,9.28-13.3,14.06-.11.12.06.29.17.18Z"/><path class="cls-1" d="M63.75,48.94c-8.42,8.73-14.9,19-26.13,24.58-.31.15,0,.62.26.46,10.64-5.26,19.13-15.49,26-25,0-.07-.06-.15-.11-.09Z"/><path class="cls-1" d="M37.3,72.71c3.27-4.92,6.53-9.59,10.9-13.63s9.29-6.86,14.46-9.75c.12-.07,0-.3-.1-.25-10.38,4-20.6,13.54-25.35,23.58a.05.05,0,1,0,.09,0Z"/><path class="cls-1" d="M36.31,71.68c-4-4.39-7.77-9.1-12.06-13.19C19.53,54,14.75,51,13.1,44.28a.11.11,0,0,0-.22,0c-.14,5.5,5.06,9.42,8.82,12.61,5.27,4.46,9.75,9.89,14.43,15,.11.12.29-.06.18-.18Z"/><path class="cls-1" d="M13.06,44c.45,1.76,2.63,2.82,4,3.87,2.86,2.19,5.77,4.32,8.48,6.7,4.92,4.3,8.91,9.29,10.88,15.6a.22.22,0,0,0,.42-.11c-1.35-5.12-4.49-9.51-8.21-13.21a69.17,69.17,0,0,0-6.37-5.48C19.44,49.21,15.08,47,13.08,44Z"/><path class="cls-1" d="M17.51,49.7A33,33,0,0,0,24,56.27a34.3,34.3,0,0,1,4.39,3.58c1.58,1.7,2.93,3.59,4.49,5.31,0,.06.12,0,.08-.08-2.06-2.69-4.21-5.57-7-7.58a48.78,48.78,0,0,1-8.43-7.81s0,0,0,0Z"/><path class="cls-1" d="M37.59,82.78C41.82,79.4,43.76,74,48,70.58c5.14-4.22,10.66-9,17.1-10.91.28-.08.16-.45-.11-.42C58.84,60,53.6,65.36,49,69c-4.87,3.79-7.27,9.28-11.63,13.52-.18.18.08.43.27.28Z"/><path class="cls-1" d="M65.6,59.66c-5,1.87-8.52,7-11.64,11.08-4.39,5.7-9,11.8-16.5,13.31-.51.11-.31.88.2.78,5.86-1.13,10.31-5.12,14-9.64,2.2-2.73,4.14-5.66,6.38-8.35a50,50,0,0,1,7.71-7,.13.13,0,0,0-.12-.21Z"/><path class="cls-1" d="M37.49,83.55a29.49,29.49,0,0,0,7.24-5.07,63.75,63.75,0,0,0,5.79-6.31.21.21,0,0,0-.24-.32c-2.42.76-3.6,3.49-5.09,5.33-2.11,2.61-5.06,4.34-7.81,6.19a.11.11,0,0,0,.11.18Z"/><path class="cls-1" d="M51,71.25a11.22,11.22,0,0,0,2.66-2.49A16.35,16.35,0,0,0,56.17,66c.07-.12-.07-.3-.21-.21a17.25,17.25,0,0,0-2.74,2.73A10.46,10.46,0,0,0,51,71.2s0,.06.06,0Z"/><path class="cls-1" d="M36.19,81.23c-2.81-4.49-6.64-7-10.71-10.23-4.78-3.72-9.6-10-10.62-16a.21.21,0,0,0-.41,0c.1,5.22,4.22,10,7.54,13.67a28.72,28.72,0,0,0,5.93,4.78,28.21,28.21,0,0,1,7.91,7.94c.15.21.5,0,.36-.2Z"/><path class="cls-1" d="M14.68,55.2c2.35,4.47,6.74,7.62,10.44,10.91a39.32,39.32,0,0,1,5.8,6.23c1.9,2.62,2.93,5.54,4.52,8.3a.16.16,0,0,0,.29-.12c-.81-5.18-5-10.08-8.71-13.52-4.25-3.93-8.63-7.31-12.29-11.84,0,0-.07,0-.05,0Z"/><path class="cls-1" d="M18.94,62.39a18.06,18.06,0,0,0,4,5.28c1.63,1.47,3.51,2.5,5,4.17.08.09.26,0,.21-.12-.6-1.53-2.24-2.32-3.49-3.27A24,24,0,0,1,19,62.34c0-.06-.13,0-.1,0Z"/><path class="cls-1" d="M38.77,29.35a17.16,17.16,0,0,0-.44,2.48A17.55,17.55,0,0,0,38,34.7a.09.09,0,0,0,.18,0,14.92,14.92,0,0,0,.41-2.48,18.65,18.65,0,0,0,.31-2.88.06.06,0,0,0-.12,0Z"/><path class="cls-1" d="M38.69,27.65a37.06,37.06,0,0,0-.4,8.14.09.09,0,0,0,.18,0,36.93,36.93,0,0,0,.47-8.14.13.13,0,0,0-.25,0Z"/><path class="cls-1" d="M39.37,27.24a39.45,39.45,0,0,0-.37,7.9c0,.1.16.14.18,0a39.63,39.63,0,0,0,.46-7.93c0-.18-.25-.17-.27,0Z"/><path class="cls-1" d="M38.7,26.76a27.27,27.27,0,0,0-.37,9.05c0,.17.26.11.28,0a81.41,81.41,0,0,0,.35-9c0-.14-.23-.19-.26,0Z"/><path class="cls-1" d="M39.27,27.64a15.86,15.86,0,0,0-.56,4.07,20.15,20.15,0,0,0-.18,4.1c0,.13.22.12.25,0a18.66,18.66,0,0,0,.48-4.09,15.09,15.09,0,0,0,.11-4.08c0-.05-.08,0-.1,0Z"/><path class="cls-1" d="M38.9,30.22c-.26,3.38-.59,7.16,0,10.51,0,.15.24.11.25,0,.27-3.43-.13-7-.12-10.48a.08.08,0,0,0-.16,0Z"/><path class="cls-1" d="M39.51,33.23c-.06,2.12-.42,4.3-.34,6.41,0,.15.23.2.27,0a20.22,20.22,0,0,0,.13-6.45s-.06,0-.06,0Z"/><path class="cls-1" d="M39.26,27.24v-.6l-.23,0c-.07.39.23,1,.68,1.06.07,0,.1-.07.08-.13s-.24-.28-.34-.44a2.36,2.36,0,0,1-.21-.52c0-.1-.22,0-.21.06s0,.4,0,.59.21.14.21,0Z"/><path class="cls-1" d="M39.43,34.41c3.31-2.29,7-6.36,8.18-10.31C49.2,18.71,47.23,13,49.34,7.65c.1-.27-.32-.39-.43-.13-1.73,4.39-.82,8.92-1.24,13.49-.55,6-4.87,9-8.3,13.35,0,0,0,.07.06,0Z"/><path class="cls-1" d="M48.8,7.74c-2.48,4.32-5,9.12-6.32,14-1,3.9-4.47,8.47-2.93,12.58.06.15.31.1.26-.07-1-3.35.69-5.63,1.9-8.59.7-1.71,1-3.52,1.51-5.28C44.55,16,47.13,12,48.88,7.77c0,0-.06-.08-.08,0Z"/><path class="cls-1" d="M39.23,34.29c1.24-2.39,3-4.43,4.23-6.85a27.36,27.36,0,0,0,2.47-7.16.1.1,0,0,0-.19-.05,40,40,0,0,1-3.27,8.26c-1.07,1.93-2.69,3.63-3.29,5.77a0,0,0,0,0,0,0Z"/><path class="cls-1" d="M46.43,19.26a0,0,0,1,0,0-.07s0,.07,0,.07Z"/><path class="cls-1" d="M46,19.23c.38-1.7.75-3.4,1-5.12,0-.07-.1-.09-.12,0-.42,1.68-.7,3.4-1,5.11,0,.07.1.11.11,0Z"/><path class="cls-1" d="M35,91a29.52,29.52,0,0,0-5.54-5.84c-2.7-2.06-6-2.82-8.35-5.33C15.61,74,9.9,68.6,8.55,60.42a.14.14,0,0,0-.28,0c.71,7.24,5.28,11.94,10,17,2,2.18,3.7,4.27,6.39,5.59,4.22,2.07,6.89,4.71,10.1,8,.1.1.29,0,.21-.15Z"/><path class="cls-1" d="M7.87,60.74A156.1,156.1,0,0,1,18.74,72.86a28.74,28.74,0,0,0,4.32,4.57,75.23,75.23,0,0,1,5.52,5.91c.12.12.35,0,.25-.19-2.7-4.07-6.66-6.74-9.63-10.53a100.16,100.16,0,0,0-11.26-12c-.05,0-.12,0-.07.07Z"/><path class="cls-1" d="M29.25,84a18.08,18.08,0,0,1,3.32,2.59A26.7,26.7,0,0,1,35.06,90c0,.08.21,0,.17-.07a12.19,12.19,0,0,0-5.89-6.06.08.08,0,0,0-.09.14Z"/><path class="cls-1" d="M8.2,60.59c4.74,4,9.8,7.75,14.67,11.64,2.92,2.32,5.91,4.54,7.53,8,1.41,3,2.54,6.14,3.85,9.18.08.21.38,0,.3-.17-1.3-3.22-2.51-6.55-4-9.67-1.34-2.76-3.67-4.6-6-6.5-5.29-4.31-10.65-8.64-16.19-12.62-.09-.06-.2.08-.12.15Z"/><path class="cls-1" d="M37.21,92.34c2.27-2.12,4.84-2.59,7.61-3.7a13.57,13.57,0,0,0,5.6-4.41c2-2.51,3.64-5.13,6.39-6.93,2-1.31,4-2.23,5.31-4.25.13-.2-.17-.38-.31-.2C60,75.39,57,76.31,54.73,78.31c-2.07,1.81-3.49,4.2-5.28,6.26-2.16,2.48-4.75,3.51-7.78,4.58-1.82.64-3.55,1.38-4.61,3.06-.07.1.07.2.15.13Z"/><path class="cls-1" d="M61.76,73c-2.6.86-5.14,2-7.65,3.11-3,1.31-4.41,3.51-6.94,5.42-4,3-9.52,4.71-10.57,10.17,0,.22.29.32.34.1,1.33-5.88,7.32-7.12,11.34-10.61,2.19-1.89,3.73-3.73,6.48-4.93,2.35-1,4.78-1.92,7.07-3.11a.08.08,0,0,0-.07-.15Z"/><path class="cls-1" d="M36.48,92.06a59,59,0,0,1,7.25-5.23c1.92-1,3.89-1.81,5.32-3.52.12-.14-.07-.35-.2-.21-1.87,2-4.43,2.83-6.69,4.26A31.29,31.29,0,0,0,36.43,92a0,0,0,1,0,0,.06Z"/><path class="cls-1" d="M49.63,82.39c.8-.67,1.52-1.43,2.34-2.08s1.94-1.22,2.86-1.9c.07,0,0-.2-.06-.16a11.41,11.41,0,0,0-5.18,4.1,0,0,0,0,0,0,0Z"/><path class="cls-1" d="M37.51,91.1c-.28.17-.37.46-.55.73s-.44.45-.5.73c0,.07,0,.17.12.16.32,0,.53-.33.71-.57a1.27,1.27,0,0,0,.34-1,.08.08,0,0,0-.12-.05Z"/><path class="cls-1" d="M37.5,91.19c.14,0,.39,0,.49.14l0-.27a5,5,0,0,0-1.22,1,2.2,2.2,0,0,0-.68,1.14.09.09,0,0,0,.14.09,5.85,5.85,0,0,0,.91-1,10.86,10.86,0,0,1,1-1c.14-.12,0-.37-.2-.27s-.39,0-.53,0-.08.12,0,.13Z"/><path class="cls-1" d="M34.5,102.66a5,5,0,0,0-2.18-5c-2.94-2.3-6.75-2.59-9.66-5.16-1.17-1-2.23-2.16-3.46-3.12s-3-1.75-4.33-2.9c-3-2.69-3.41-7.31-5.26-10.81,0,0-.08,0-.07,0A36.42,36.42,0,0,0,12,83.8c1.2,2.72,3.13,3.7,5.53,5.26,2.58,1.69,4.47,4.25,7.1,5.85,3.5,2.12,9.84,2.27,9.6,7.71,0,.14.22.18.24,0Z"/><path class="cls-1" d="M9.49,76.51c2.77,1.25,3.88,4.14,6,6.15a17.69,17.69,0,0,0,6.57,3.83c3.47,1.18,7,1.88,8.79,5.46,1.22,2.4,1.64,5,3.51,7.08.13.14.39,0,.28-.21-1.84-2.57-2.23-5.81-4-8.36-1.49-2.11-3.82-3-6.19-3.79-3.86-1.25-7.28-2.63-10-5.83C13,79.14,12,76.69,9.51,76.41c0,0-.07.08,0,.1Z"/><path class="cls-1" d="M12.8,81.29c.15,2.46,3.52,4.2,5.48,5.17,4.41,2.16,7.86,5.28,12,7.88.09.06.21-.08.12-.16a57,57,0,0,0-8.31-6.29c-3-1.83-8-2.75-9.21-6.61,0,0-.11,0-.1,0Z"/><path class="cls-1" d="M30.57,95.11a12.61,12.61,0,0,1,.87.92,6,6,0,0,0,.74.91c.07,0,.15,0,.14-.1a2.6,2.6,0,0,0-.7-1,5.59,5.59,0,0,0-1-.83.05.05,0,0,0-.06.08Z"/><path class="cls-1" d="M35.7,102c2.59-2.81,5.91-4.12,9.11-6.06a55.1,55.1,0,0,0,8.3-6.53c4-3.67,11.6-5.77,12.11-12.11,0-.13-.22-.17-.25,0-.68,4.27-4.08,6.37-7.5,8.46a50.08,50.08,0,0,0-6.84,5.48,47.05,47.05,0,0,1-9.29,6.27c-2.18,1.16-4.36,2.32-5.73,4.45,0,.06,0,.12.09.07Z"/><path class="cls-1" d="M64.62,77c-1.59,3.21-5,4-7.91,5.52-3.13,1.6-5.44,4.31-8.47,6-2.56,1.48-5.52,2.32-7.52,4.61-2.19,2.52-2.9,5.88-5.3,8.27-.16.17.09.43.26.26,2.53-2.45,3.17-6.11,5.61-8.6s6.41-3.45,9.28-5.61a55,55,0,0,1,9.48-6.08c2.09-1,3.89-2.13,4.81-4.32,0-.13-.17-.23-.24-.1Z"/><path class="cls-1" d="M37.29,99.42c1.41-1.26,2.77-2.6,4.14-3.91s2.7-2.88,4.63-3.43a.1.1,0,0,0,0-.2c-1.53,0-2.59,1.23-3.62,2.24-1.75,1.72-3.54,3.42-5.23,5.2a.07.07,0,0,0,.1.1Z"/><path class="cls-1" d="M46.55,91.46a38.58,38.58,0,0,0,6.75-3.27c2.21-1.54,4-3.17,6.43-4.34.08,0,0-.14-.06-.11a21.8,21.8,0,0,0-5.46,3.39C52,89,49.1,90,46.53,91.43c0,0,0,0,0,0Z"/><path class="cls-1" d="M34.51,112.57a10.09,10.09,0,0,0-3.73-4.9,14.68,14.68,0,0,0-3.31-1.55,15.33,15.33,0,0,1-5.75-3.86c-5.56-5.62-11.66-11-14.41-18.58a.08.08,0,0,0-.15,0C8.45,90.21,13.8,95,18.25,99.51c2.2,2.25,4.35,5.1,7.27,6.46,1.53.71,3.19,1,4.64,1.86a11.42,11.42,0,0,1,4.2,4.8c0,.08.18,0,.15-.06Z"/><path class="cls-1" d="M7.09,84.11c7.82,6.71,16.44,12.56,23.38,20.23.11.12.32,0,.23-.16-2.8-4-7.18-7.17-10.86-10.28A125.62,125.62,0,0,0,7.16,84s-.11,0-.07.08Z"/><path class="cls-1" d="M31.08,104.73a11.54,11.54,0,0,0,3.22,6.13c.09.08.21,0,.14-.14a18.12,18.12,0,0,1-3.24-6,.06.06,0,0,0-.12,0Z"/><path class="cls-1" d="M30.24,106.17a41.69,41.69,0,0,0-3.59-3.69c-1.23-1-2.75-1.54-4.06-2.45-3-2.1-5.61-4.82-8.5-7.09-.09-.07-.19.08-.12.16a42.5,42.5,0,0,0,7.72,6.75c1.14.81,2.43,1.3,3.61,2,1.79,1.1,3.33,3,4.9,4.36a0,0,0,0,0,0,0Z"/><path class="cls-1" d="M14.16,92.27s0,0,0,0,0,0,0,0Z"/><path class="cls-1" d="M13.91,92.27a23.43,23.43,0,0,0-2.19-3.54c-.05-.07-.14,0-.11.08a24.76,24.76,0,0,0,2.26,3.49s.05,0,0,0Z"/><path class="cls-1" d="M35.88,111.88c.51-.71,1-1.4,1.6-2.08a7.88,7.88,0,0,0,1.32-1.69c0-.08-.06-.14-.13-.11a5.42,5.42,0,0,0-1.52,1.57,17.13,17.13,0,0,0-1.46,2.2c-.07.12.11.22.19.11Z"/><path class="cls-1" d="M36,109.79a24.64,24.64,0,0,0,4.73-5.2,28.14,28.14,0,0,1,8.16-7.43C54.93,93.33,61.37,90,67.36,86a.14.14,0,0,0-.14-.25c-6.81,3.13-13.35,7.46-19.59,11.59a23.75,23.75,0,0,0-5.82,5.13c-1.94,2.46-3.56,5.11-6,7.15-.09.08,0,.21.14.14Z"/><path class="cls-1" d="M64.65,76.45a5.59,5.59,0,0,1,0,2.54s0,.08.07,0a3.24,3.24,0,0,0,0-2.59s-.08,0-.07,0Z"/><path class="cls-1" d="M64.8,76.42A20.4,20.4,0,0,0,64.38,79c0,.09.15.12.17,0a22.44,22.44,0,0,0,.26-2.6s0,0,0,0Z"/><path class="cls-1" d="M64.91,76.65a4.64,4.64,0,0,1-.27,1.28c-.14.36-.35.68-.48,1a.06.06,0,0,0,.1.06,3.34,3.34,0,0,0,.67-2.38s0,0,0,0Z"/><path class="cls-1" d="M64.9,76.43a14.36,14.36,0,0,0-.45,1.94s.09.06.1,0a14,14,0,0,0,.39-1.93s0,0,0,0Z"/><path class="cls-1" d="M67.31,85.45a1.33,1.33,0,0,0-.47.63s0,.07.07,0a1.3,1.3,0,0,0,.43-.66s0,0,0,0Z"/><path class="cls-1" d="M67.21,85.41c-2.68,6.14-6.3,10.9-12.15,14.36a76.9,76.9,0,0,1-7.52,3.4c-3.49,1.58-6,4.19-9.89,5.19-.31.08-.18.53.13.48,3.93-.69,6.15-3.18,9.57-4.93,3.2-1.65,6.54-2.58,9.56-4.65,4.68-3.22,9.17-8.12,10.31-13.84,0,0,0,0,0,0Z"/><path class="cls-1" d="M37.82,108.22a5.51,5.51,0,0,0-1,.59,1.49,1.49,0,0,0-.61.68.09.09,0,0,0,.13.1A3.94,3.94,0,0,0,37,109a4.49,4.49,0,0,1,.87-.63c.07,0,0-.14-.06-.11Z"/><path class="cls-1" d="M39.52,106.48c4.13-2.6,7.89-5.73,12-8.36,3-1.9,6.08-3.09,8.13-6.08a.11.11,0,0,0-.17-.14c-2.89,3-6.61,4.71-10,7.11s-6.82,4.79-10,7.43c0,0,0,0,0,0Z"/><path class="cls-1" d="M62.08,90.26c-.35.29-.68.6-1,.91a4.08,4.08,0,0,0-.82.94c0,.1,0,.21.15.15a3.86,3.86,0,0,0,1-.89c.3-.33.57-.66.84-1,.06-.07-.05-.15-.12-.1Z"/><path class="cls-1" d="M33.91,124.87A68.54,68.54,0,0,0,19.76,112.2,12.94,12.94,0,0,1,15.57,108,31.81,31.81,0,0,0,14,104.7c-.9-1.31-2.18-2.33-3.06-3.66a13.1,13.1,0,0,1-2-6.63.17.17,0,0,0-.33,0,12.42,12.42,0,0,0,2.65,7.66,24.9,24.9,0,0,1,3.62,5.27,9.94,9.94,0,0,0,1.74,2.81c2.37,2.59,5.77,4.28,8.47,6.49a78.18,78.18,0,0,1,8.63,8.44c.14.16.35-.06.23-.21Z"/><path class="cls-1" d="M8.59,94.4A85.79,85.79,0,0,1,16,100c2,1.83,3.27,4.09,4.94,6.15a21.31,21.31,0,0,0,3.75,3.35,16.13,16.13,0,0,1,5.84,8.13c0,.1.21.11.2,0-.55-5.85-5.71-7.46-9.08-11.39-2-2.32-3.37-4.84-5.71-6.88a39,39,0,0,0-7.35-5c-.05,0-.09,0,0,.08Z"/><path class="cls-1" d="M30.4,116.76a14.58,14.58,0,0,0,3.87,8.11c.09.08.24,0,.17-.13a27.76,27.76,0,0,1-4-8,0,0,0,1,0-.05,0Z"/><path class="cls-1" d="M11.46,98.49a40.9,40.9,0,0,0,3.15,3.69,35.12,35.12,0,0,1,3.47,4.94c1.2,1.94,3.1,3.9,5.41,4.36a.13.13,0,0,0,.1-.24,32.26,32.26,0,0,1-3.48-2.47A20.49,20.49,0,0,1,17.38,105a32.86,32.86,0,0,0-5.91-6.55s0,0,0,0Z"/><path class="cls-1" d="M24.48,112.37a74.21,74.21,0,0,0,5.48,7c.1.14.29,0,.19-.19a59.12,59.12,0,0,0-5.55-6.93c-.06-.06-.16,0-.12.08Z"/><path class="cls-1" d="M35.74,124.31c3.48-1.63,3.27-6.1,5.81-8.62,2.76-2.76,6.7-4.1,9.58-6.83,3.32-3.14,6.26-6.37,10.22-8.76s8.21-3.79,12.27-5.84a.21.21,0,0,0-.16-.39,50.16,50.16,0,0,0-21,12.74,35.09,35.09,0,0,1-5.25,4.65c-1.51,1-3.18,1.8-4.64,2.88a10,10,0,0,0-2.58,2.6c-1.63,2.58-1.52,5.59-4.37,7.43a.08.08,0,1,0,.08.14Z"/><path class="cls-1" d="M73.38,94.28c-2.08,1.9-2.95,4.6-4,7.11-2.1,4.81-5.67,7.19-9.9,10-2.74,1.83-5.64,3.33-7.54,6.06-3,4.29-7,6.12-12.22,5.94-.23,0-.3.37-.06.41a12.42,12.42,0,0,0,9.16-2.14,14.24,14.24,0,0,0,3.37-3.47c1.81-2.5,4-4,6.57-5.67,3.14-2.12,6.91-4.12,9.11-7.31,2.36-3.4,3.1-7.52,5.69-10.83.06-.08-.06-.17-.13-.1Z"/><path class="cls-1" d="M40,123.44c-1.1.09-4.09.2-4,1.9a.09.09,0,0,0,.17,0c.5-1.59,2.51-1.43,3.84-1.78.08,0,.07-.16,0-.15Z"/><path class="cls-1" d="M36.34,124.36a3.78,3.78,0,0,0-.55,2.61.07.07,0,0,0,.13,0c.12-.42.08-.87.17-1.3a9,9,0,0,1,.41-1.24c0-.1-.11-.16-.16-.07Z"/><path class="cls-1" d="M36.2,124.86a20.55,20.55,0,0,0-1,3.84.12.12,0,0,0,.24,0,20.19,20.19,0,0,0,.79-3.86s-.05-.06-.07,0Z"/><path class="cls-1" d="M35.65,124.86c-.08.57-.14,1.14-.27,1.7a7.66,7.66,0,0,0-.31,1.32c0,.11.13.13.18.06a4.9,4.9,0,0,0,.61-3.08.11.11,0,0,0-.21,0Z"/><path class="cls-1" d="M35.62,127a6.35,6.35,0,0,0,.7-1.09,4.6,4.6,0,0,1,1.19-1.22,4.93,4.93,0,0,1,1.53-.74,6.92,6.92,0,0,0,1.29-.3.15.15,0,0,0,0-.25c-1.64-.82-5.12,1.76-4.81,3.58a.06.06,0,0,0,.1,0Z"/><path class="cls-1" d="M39.28,121.84c4-2.37,6.75-5.65,10.22-8.67,3.07-2.67,7.2-4,9.73-7.28.07-.08-.06-.18-.13-.11-2.89,2.67-6.44,4.32-9.4,6.87-3.58,3.08-6.5,6.45-10.45,9.15a0,0,0,1,0,0,0Z"/><path class="cls-1" d="M61,104.82a62.41,62.41,0,0,0,9.26-7.09s0-.14-.08-.1c-3.12,2.27-6.2,4.74-9.22,7.14,0,0,0,.07,0,0Z"/><path class="cls-1" d="M34.17,133.45a20.27,20.27,0,0,0-4.59-5.09c-2.11-1.59-5.43-1.74-7-3.82-.15-.19-.41.07-.27.26,1.29,1.72,3.42,1.86,5.25,2.73,2.82,1.33,4.5,3.8,6.54,6,.06.06.17,0,.12-.09Z"/><path class="cls-1" d="M21.58,124.2c-1.53-1.5-3.51-1.89-5.35-2.91-2-1.12-3.61-2.92-5.63-4.09-2.41-1.4-5-2.33-6.48-4.87C2.83,110.14,2,108.05.18,106.19c-.08-.08-.23,0-.16.12,1.48,2.25,2.6,4.81,4.14,7a12.54,12.54,0,0,0,4.62,3.45,54.37,54.37,0,0,1,6,4.16c2.07,1.46,4.6,1.94,6.64,3.45.09.07.2-.08.12-.16Z"/><path class="cls-1" d="M.22,106.3a68.2,68.2,0,0,1,14.19,7.9c2.14,1.5,4.29,3,6.38,4.6a28.32,28.32,0,0,1,5.54,6.08c.09.12.27,0,.21-.15-2.41-4.86-7.15-7.56-11.46-10.58-4.58-3.21-9.43-6.34-14.85-7.91,0,0-.05,0,0,.06Z"/><path class="cls-1" d="M27,125.37c1.15,3.16,5.28,3.72,6.91,6.58.13.24.5,0,.37-.21-1.58-3-5.42-3.53-7.09-6.45-.05-.1-.23,0-.19.08Z"/><path class="cls-1" d="M4.65,110.07c1.92,2.38,4.52,3.07,7,4.68,1.72,1.12,2.81,3.65,5.07,3.69.12,0,.14-.16,0-.2-2.23-.79-3.28-2.88-5.27-4C9,112.85,6.86,112,4.73,110c-.05,0-.13,0-.08.08Z"/><path class="cls-1" d="M17.46,119.15a13,13,0,0,0,5.06,4c.06,0,.1-.07.05-.11-.84-.59-1.73-1.09-2.55-1.72a33.45,33.45,0,0,1-2.49-2.28,0,0,0,0,0-.07.07Z"/><path class="cls-1" d="M35.32,140.82c3.62-2,4.59-6.71,7.86-9.26a59.47,59.47,0,0,0,4.42-4.28c2.19-2.11,4.72-3.12,7.55-4.09a.1.1,0,0,0,0-.2c-4.82.64-7.18,3.88-10.5,6.92-1.53,1.4-3.24,2.28-4.47,4-1.7,2.35-2.51,4.92-4.93,6.73-.13.09,0,.3.12.21Z"/><path class="cls-1" d="M54.86,123.21c-1.19,2-1.75,4.67-3.07,6.58s-4.23,2.85-5.76,4.59c-2.09,2.38-4,4.3-7.19,5.26-1.25.38-2.21.35-3,1.41-.19.24.23.5.42.25,1.08-1.4,4.91-1.91,6.49-3,2-1.41,3.09-3.62,5-5.15,1.49-1.21,3.36-1.5,4.45-3.14,1.28-1.93,1.94-4.61,2.82-6.75,0,0,0-.07-.08,0Z"/><path class="cls-1" d="M35.44,141.64a2.13,2.13,0,0,1,.67-.73c.24-.17.52-.24.76-.41,0,0,0-.08,0-.08-.66-.11-1.32.59-1.6,1.12-.07.11.11.22.18.1Z"/><path class="cls-1" d="M37.74,139.5c2-2,4.54-3.08,6.42-5.24,2.26-2.58,4.19-4.55,7.37-6,.13-.06,0-.27-.09-.23a12.11,12.11,0,0,0-6.19,4.47,20.61,20.61,0,0,1-4.47,4.52,15.58,15.58,0,0,0-3.06,2.43s0,0,0,0Z"/><path class="cls-1" d="M33.2,141.55c-.27.68-1.41-1.11-1.63-1.33a11.56,11.56,0,0,0-2.22-1.78c-2.61-1.66-5.63-2.49-8-4.52-1.9-1.62-3.24-3.66-5.45-4.9-3.35-1.86-4.39-4.12-6.19-7.28a.07.07,0,0,0-.12.05,13.3,13.3,0,0,0,2.8,5.35c1.88,2.09,4.63,2.91,6.59,5a18.65,18.65,0,0,0,5.63,4.37c3.19,1.6,6.45,2.81,8.2,6.18a.17.17,0,0,0,.31-.08c0-.36.07-.72.11-1.08,0,0,0,0,0,0Z"/><path class="cls-1" d="M9.84,122.27c3.93,2,8.42,3,12.25,5.12,2.27,1.25,2.54,3,3.87,4.84,1.23,1.69,2.82,2.76,3.83,4.67a.11.11,0,0,0,.2-.08c-.47-1.73-1.75-2.65-2.92-3.95-1.36-1.5-1.76-3.59-3.28-4.92s-3.44-1.68-5.17-2.29c-3-1-5.85-2.24-8.73-3.51-.06,0-.11.09-.05.12Z"/><path class="cls-1" d="M29.91,136.77c1.09,2.1,2.69,4.65,4.7,6,.09.06.17-.07.11-.14-.72-1-1.66-1.74-2.42-2.67A35.08,35.08,0,0,1,30,136.72c0-.05-.11,0-.08.05Z"/><path class="cls-1" d="M31.22,141a7.39,7.39,0,0,1,1.52,1.38,6.31,6.31,0,0,1,.6.86,2.62,2.62,0,0,0,.44.72.12.12,0,0,0,.2-.07,3,3,0,0,0-.9-1.71,5.27,5.27,0,0,0-1.75-1.36.11.11,0,0,0-.11.18Z"/><path class="cls-1" d="M31.42,140.3A18.72,18.72,0,0,0,32.57,142a8.4,8.4,0,0,0,1.14,1.44.19.19,0,0,0,.29-.22,8.23,8.23,0,0,0-1.09-1.47,17.46,17.46,0,0,0-1.31-1.54.12.12,0,0,0-.18.14Z"/><path class="cls-1" d="M32.31,141.16c.3.3.63.56.92.88.13.14.25.29.37.44s.22.36.41.45.19,0,.18-.1c0-.37-.43-.75-.68-1a4.16,4.16,0,0,0-1.09-.82c-.09,0-.18.06-.11.14Z"/><path class="cls-1" d="M29.24,137.76a17.41,17.41,0,0,0-4-4.7c-2.45-1.83-4.9-2.56-6.78-5.13-.07-.09-.23-.05-.2.07.58,1.93,2.52,2.93,4.19,3.81a15.21,15.21,0,0,1,3.89,2.6c1,1,1.84,2.29,2.83,3.38,0,0,0,0,0,0Z"/><path class="cls-1" d="M17.65,127.56a10.4,10.4,0,0,0-3.84-2.39.07.07,0,0,0-.05.12c.63.39,1.34.68,2,1.07s1.27.81,1.9,1.22c0,0,0,0,0,0Z"/><path class="cls-1" d="M36.21,140.5a2.49,2.49,0,0,0-.43.29,6,6,0,0,0-.43.44c-.21.22-.51.44-.55.76a.1.1,0,0,0,.12.09c.32-.06.52-.41.73-.63s.21-.24.31-.37l.15-.19c.14-.18,0-.07.15-.33,0,0,0-.08,0-.06Z"/><path class="cls-1" d="M36.44,140.32c-.21.07-.37,0-.59.13a1.82,1.82,0,0,0-.57.57,1.38,1.38,0,0,0-.17,1.5.13.13,0,0,0,.23,0,6.15,6.15,0,0,1,.45-1.31c.13-.19.37-.35.48-.55s0-.15.21-.23,0-.11,0-.09Z"/><path class="cls-1" d="M37.05,140.09a6.72,6.72,0,0,0-2.21,2.9c-.05.17.2.27.3.13.31-.47.55-1,.87-1.46a16.19,16.19,0,0,1,1.17-1.43c.09-.09,0-.21-.13-.14Z"/><path class="cls-1" d="M35.25,142.85A7.15,7.15,0,0,1,36.42,141c.41-.48.93-.8,1.36-1.25a.08.08,0,0,0-.08-.14,4.56,4.56,0,0,0-2.51,3.22s.05.06.06,0Z"/></g></g></svg>