<svg xmlns="http://www.w3.org/2000/svg" viewBox="0 0 64.4 66.24"><defs><style>.cls-1{fill:#444;}</style></defs><title>icon-plumeriaflower</title><g id="Calque_2" data-name="Calque 2"><g id="_2" data-name="2"><path class="cls-1" d="M28.25,35.82l.26.42s.08,0,.06,0l-.26-.41s-.08,0-.06,0Z"/><path class="cls-1" d="M29,36.47a13.32,13.32,0,0,0-.62-6.67,36.48,36.48,0,0,1-1.9-11c0-4.47.51-9.26,3.38-12.89C32.2,2.93,35.28,1.75,38.65.48A.25.25,0,0,0,38.56,0C32.27,0,27.45,5.88,26.15,11.54a37.27,37.27,0,0,0-.44,12.55c.53,4.14,3.48,8.11,2.89,12.29a.22.22,0,0,0,.43.09Z"/><path class="cls-1" d="M38.59.52c2.77,3.44,4.67,7,5,11.48a26.58,26.58,0,0,1-.46,7.12c-.44,2.21-1.42,4.36-1.61,6.59,0,.15.19.32.3.16,2.7-3.7,3.27-10,2.75-14.45C44.11,7.24,42.4,2.83,39,.16c-.23-.19-.65.1-.43.36Z"/><path class="cls-1" d="M34.05,38c2.92-5.2,5.17-10.78,11.64-12.28,6.82-1.57,12.43,2.05,18.3,4.88.18.08.37-.16.2-.29-5-4.06-12.29-7-18.85-5.64S35.28,31.86,33.46,37.82c-.11.35.42.51.59.21Z"/><path class="cls-1" d="M64,30.3c-1.74,4.43-3.47,9.13-7.56,12-3.78,2.6-8.56,3.07-13,3.57-.57.07-.53,1,0,.9,4.74-.52,9.85-1.17,13.77-4.13C61,39.79,63.4,34.93,64.4,30.45c0-.23-.32-.39-.41-.15Z"/><path class="cls-1" d="M26,23.38c-.46-4.62-5-6.31-8.93-7.38a25.23,25.23,0,0,0-16,.65.23.23,0,0,0,.14.44,33,33,0,0,1,13.49-.74A26.23,26.23,0,0,1,21,18.28c2.53,1.16,3.45,2.9,5,5.13,0,0,.1,0,.09,0Z"/><path class="cls-1" d="M.78,17c1,5.45,5.35,11.34,9.05,15.31,4.82,5.17,11.41,6,18.15,5.64a.4.4,0,0,0,0-.79c-7,.48-13.53-.64-18.38-6.15A51.1,51.1,0,0,1,1,17c0-.09-.2-.08-.18,0Z"/><path class="cls-1" d="M13.14,35.16c-3.62-.76-7.71,1.77-9.81,4.58C.69,43.29-1.07,50.46.74,54.63c.08.19.4.17.38-.07C.66,50.5,1.11,45,3.24,41.38c2.36-4,5.76-5,9.9-6.2,0,0,0,0,0,0Z"/><path class="cls-1" d="M.92,55.05c3.67,2.7,8.29,1.42,12.18-.08a26.41,26.41,0,0,0,12.06-9.75c.15-.22-.08-.6-.34-.4-3.5,2.75-5.81,6.64-10,8.51C10.28,55.38,5.89,56.86,1,55c-.06,0-.13,0-.07.09Z"/><path class="cls-1" d="M25.14,44.83c.94-.92,1.55-2.13,2.51-3.06s2.13-1.53,3.12-2.4c.06-.06,0-.15-.08-.13a8.31,8.31,0,0,0-3.34,2.25A8,8,0,0,0,25,44.75c0,.09.08.13.14.08Z"/><path class="cls-1" d="M31.21,39.25c-4.28,3.14-6.7,8.26-10.57,11.87a20.56,20.56,0,0,1-7.93,4.66c-2.09.63-9.08,2.24-10.54-.3a.17.17,0,0,0-.3.1c.33,4.36,11.84.56,13.91-.41C22.54,52,26.62,44.88,31.32,39.38c.06-.07,0-.19-.11-.13Z"/><path class="cls-1" d="M23.64,48.52a1.14,1.14,0,0,0,0,.37.09.09,0,0,0,.16,0,1.45,1.45,0,0,0,.12-.35.12.12,0,0,0-.24,0Z"/><path class="cls-1" d="M23.75,48.56s0,0,0,0,0,0,0,0Z"/><path class="cls-1" d="M23.8,48.38c-1.33,4.8.85,8.33,4,11.76,1.74,1.91,3.36,4.3,5.87,5.22s6,.94,8.61.81c.32,0,.39-.55,0-.59-2-.27-4.1-.24-6.13-.55-3.07-.47-4.74-1.88-6.77-4.09-3.46-3.76-6.11-7-5.16-12.47a.22.22,0,0,0-.42-.09Z"/><path class="cls-1" d="M42.42,66c3-2.81,4.61-8.82,4.1-12.85a16.5,16.5,0,0,0-2.34-6.52c-1.35-2-3.76-2.53-5.28-4.43-.11-.14-.39-.1-.36.11.17,1.14.5,1.45,1.5,2.17,2.18,1.56,3.64,2.78,4.65,5.43,2.05,5.42.3,11.09-2.5,15.93a.14.14,0,0,0,.23.16Z"/><path class="cls-1" d="M38.1,41.94a7.09,7.09,0,0,0-2.66-2A21.17,21.17,0,0,0,32,38.42c-.37-.13-.5.47-.13.6a24.84,24.84,0,0,1,3.56,1.54A13.78,13.78,0,0,0,38.05,42a0,0,0,0,0,.05-.07Z"/><path class="cls-1" d="M40.22,25.89c-4.63,1.16-6.6,7.25-8.15,11.11-.07.17.18.31.27.13,1-2,1.72-4.06,2.79-6A13.8,13.8,0,0,1,40.27,26c.07,0,0-.14-.05-.13Z"/><path class="cls-1" d="M2.1,17.74c2.64,6.54,8.21,16.06,15.74,17.59.16,0,.21-.2.05-.25C10.16,32.83,5.57,24.44,2.15,17.72c0,0-.06,0,0,0Z"/><path class="cls-1" d="M18.42,35.78c2.55,1.24,6,1.07,8.75.72.25,0,.23-.43,0-.39a23.86,23.86,0,0,1-4.39.17c-1.46-.1-2.86-.5-4.32-.6-.05,0-.06.08,0,.1Z"/><path class="cls-1" d="M28.9,31.51l.07-.33s0,0,0,0l-.08.34s0,0,0,0Z"/><path class="cls-1" d="M28.91,31.52c.18-.8.14.31.15.5,0,.43,0,.87,0,1.31,0,.94-.16,1.88-.1,2.81a.08.08,0,0,0,.15,0,10.69,10.69,0,0,0-.09-5.27c0-.05-.08,0-.08,0a6.18,6.18,0,0,1-.12.62,0,0,0,1,0,.05,0Z"/><path class="cls-1" d="M29.21,31.42c.06.85.12,1.71.14,2.57a20,20,0,0,0,0,2.57c0,.08.13.1.15,0a14.24,14.24,0,0,0-.2-5.16c0-.09-.15-.09-.14,0Z"/><path class="cls-1" d="M27.8,32.72c.1.76.23,1.52.29,2.28a15.25,15.25,0,0,0,.1,2c0,.08.12,0,.14,0a6.14,6.14,0,0,0,0-2.18,9.93,9.93,0,0,0-.4-2.15.08.08,0,0,0-.15,0Z"/><path class="cls-1" d="M30,31.93c-.07.79-.08,1.58-.1,2.37a11,11,0,0,0,0,2.37,0,0,0,0,0,.07,0A10,10,0,0,0,30,34.48c0-.85,0-1.7,0-2.55,0,0,0,0-.05,0Z"/><path class="cls-1" d="M30.31,32.36c-.09.76-.13,1.53-.16,2.29a9.23,9.23,0,0,0,0,2.29.12.12,0,0,0,.23,0,7.91,7.91,0,0,0,.12-2.12c0-.81,0-1.63-.05-2.43,0-.09-.15-.11-.16,0Z"/><path class="cls-1" d="M30.74,32.77c-.07.58-.06,1.16-.09,1.74s-.16,1.31-.18,2c0,.15.22.15.26,0a7.73,7.73,0,0,0,.14-3.73c0-.07-.12-.06-.13,0Z"/><path class="cls-1" d="M31.52,32.43c-.09,1.41-.31,2.74-.53,4.12a.13.13,0,0,0,.25.06,10.18,10.18,0,0,0,.37-4.18,0,0,0,0,0-.09,0Z"/><path class="cls-1" d="M32.22,32.77c-.19.71-.31,1.45-.44,2.18a8.34,8.34,0,0,0-.24,1.92c0,.1.15.14.19.05a9.52,9.52,0,0,0,.41-2.06c.1-.69.21-1.38.26-2.08,0-.1-.16-.11-.18,0Z"/><path class="cls-1" d="M32.73,32.7a16.51,16.51,0,0,0-.86,3.9.13.13,0,0,0,.25.06A15.67,15.67,0,0,0,33,32.75a.12.12,0,0,0-.23,0Z"/><path class="cls-1" d="M33.61,32a7.75,7.75,0,0,0-1,2.32c-.08.3-.15.61-.23.91a1.43,1.43,0,0,0-.11.39.58.58,0,0,0,0,.19c.21.05.27,0,.18,0a.11.11,0,0,0-.19,0,.32.32,0,0,0,0,.17.14.14,0,0,0,.12.14h0a.13.13,0,0,0,.14-.05c.34-.3.37-1,.47-1.41.21-.87.54-1.7.83-2.54,0-.13-.14-.17-.2-.08Z"/><path class="cls-1" d="M33.7,32.21a7.41,7.41,0,0,0-.71,2,14.34,14.34,0,0,0-.6,2.34c0,.15.21.27.29.1a13.75,13.75,0,0,0,.64-2.19,8,8,0,0,0,.41-2.21s0,0,0,0Z"/><path class="cls-1" d="M32.19,36.8a1.43,1.43,0,0,0-1.31-.89c-.42,0-1.3.16-1.28.72,0,.08.07.11.14.1s.27-.16.42-.24a1.26,1.26,0,0,1,.63-.16,1.35,1.35,0,0,1,1.15.59c.09.12.32,0,.25-.12Z"/><path class="cls-1" d="M31,36.49a1.2,1.2,0,0,0-1.56-.15,1.07,1.07,0,0,0-.37,1.43c0,.06.16,0,.17,0a1.46,1.46,0,0,1,.43-1,1,1,0,0,1,1.16,0c.16.09.28-.13.17-.25Z"/><path class="cls-1" d="M30.36,35.73a2.26,2.26,0,0,0-1.7,1.57l.4.15c.13-.9.69-3,2-2.06,0-.13.05-.25.08-.38a3.13,3.13,0,0,0-2.8,1.84h.38c-.57-.76.68-1.37,1.26-1.4a4.74,4.74,0,0,1,1.93.54c.1,0,.23-.1.12-.17a2.79,2.79,0,0,0-2.55-.56,2.16,2.16,0,0,0-1.16,1.66.22.22,0,0,0,.41.15,2.93,2.93,0,0,1,2.43-1.65c.22,0,.24-.27.08-.38a1.43,1.43,0,0,0-1.69.12,3.21,3.21,0,0,0-.94,2.2.22.22,0,0,0,.42.1,3.58,3.58,0,0,1,1.34-1.59c.05,0,0-.14,0-.13Z"/><path class="cls-1" d="M30.7,36.25a2,2,0,0,1,1.64,1,.09.09,0,0,0,.16,0,1.59,1.59,0,0,0-1.81-1.12.09.09,0,0,0,0,.17Z"/><path class="cls-1" d="M31.73,36.45c.47-.09.76.41.74.81a4.59,4.59,0,0,1-.24,1c0,.06.07.11.11.06a1.58,1.58,0,0,0,.29-1.46.81.81,0,0,0-1-.5c-.08,0,0,.14.05.12Z"/><path class="cls-1" d="M32.3,37.73a1.66,1.66,0,0,0-2.12-2.29c-.23.11,0,.49.22.35.48-.29,1.23.53,1.43.88a3.53,3.53,0,0,1,.31,1.4.1.1,0,0,0,.15,0c.4-.47.14-1.24-.18-1.69a2.23,2.23,0,0,0-.64-.62c-.34-.21-.74-.18-1.08-.36l0,.38a1.47,1.47,0,0,1,1.82,1.87.07.07,0,0,0,.12,0Z"/><path class="cls-1" d="M32.19,37.71c.53-.8-.5-1.85-1.3-1.81s-1.67,1-1.19,1.79a.11.11,0,0,0,.2,0c.09-.59.25-1.2.93-1.35a1,1,0,0,1,.94.33,1.54,1.54,0,0,1,.35,1,0,0,0,0,0,.07,0Z"/><path class="cls-1" d="M29.5,37.25a1.23,1.23,0,0,1,.65-1.08A1.74,1.74,0,0,1,31.27,36a.1.1,0,0,0,.07-.17A1.15,1.15,0,0,0,30,36a1.37,1.37,0,0,0-.59,1.3.07.07,0,0,0,.13,0Z"/><path class="cls-1" d="M28.29,38.3a1.41,1.41,0,0,0,1.05,1.27c.48.15,1.28.12,1.47-.45,0-.08-.07-.14-.14-.12a2.12,2.12,0,0,1-1.19.16,1.37,1.37,0,0,1-.94-.9c0-.14-.27-.1-.25,0Z"/><path class="cls-1" d="M31.53,39a2.93,2.93,0,0,1-1.72.2,1,1,0,0,1-.62-1.26.1.1,0,0,0-.15-.1c-.54.4-.24,1.16.22,1.5A1.93,1.93,0,0,0,31.54,39s0,0,0,0Z"/><path class="cls-1" d="M38.47,1.38c-2.74,1-5.69,1.77-7.6,4.08a16,16,0,0,0-3.59,8.43,0,0,0,0,0,.06,0C28.08,10.92,29,8,31,5.58s4.84-2.91,7.51-4c.1,0,0-.19-.05-.15Z"/><path class="cls-1" d="M27.62,14.33A63.32,63.32,0,0,0,29,30.46c0,.07.12.05.12,0-.57-5.39-1.07-10.7-1.42-16.11,0-.05-.07,0-.07,0Z"/><path class="cls-1" d="M29.44,25.48a25.48,25.48,0,0,0,.25,6.23c0,.05.09,0,.09,0-.06-2.08-.26-4.14-.28-6.22,0,0-.06,0-.06,0Z"/><path class="cls-1" d="M30.51,28a2.73,2.73,0,0,0,0,1.6,0,0,0,0,0,0,0,3.09,3.09,0,0,1,0-1.57s0-.05,0,0Z"/><path class="cls-1" d="M38.84,2.5C40.18,7.15,43.09,11,42,16.06c0,.05.07.07.08,0C43.57,11.36,40.47,6.77,39,2.46a.07.07,0,1,0-.13,0Z"/><path class="cls-1" d="M42.07,17.12A59,59,0,0,0,40,26a.05.05,0,0,0,.1,0,57.9,57.9,0,0,0,2.07-8.89,0,0,0,1,0-.09,0Z"/><path class="cls-1" d="M34.39,3.1a14.19,14.19,0,0,0-.86,3s0,0,0,0c.26-1,.54-2,.87-3a0,0,0,0,0,0,0Z"/><path class="cls-1" d="M35,3.41a6.62,6.62,0,0,0-.31,1.16,12.61,12.61,0,0,0-.28,1.36,0,0,0,0,0,.09,0,12.73,12.73,0,0,0,.31-1.36A7.88,7.88,0,0,0,35,3.41s0,0,0,0Z"/><path class="cls-1" d="M35.64,2.85a16.68,16.68,0,0,0-.56,2.52s.06.06.07,0a15.49,15.49,0,0,0,.54-2.52,0,0,0,1,0,0,0Z"/><path class="cls-1" d="M36.59,2.52a8.79,8.79,0,0,0-.3,1.35s.06.06.07,0a8.64,8.64,0,0,0,.29-1.34s0-.06-.06,0Z"/><path class="cls-1" d="M32.88,11.23A38.75,38.75,0,0,0,32,20s0,0,0,0c.22-2.94.39-5.84.88-8.76,0,0,0-.06-.06,0Z"/><path class="cls-1" d="M33.26,12.9a24.68,24.68,0,0,0-.42,7.17,0,0,0,0,0,.09,0c.09-2.41,0-4.77.35-7.16,0,0,0,0,0,0Z"/><path class="cls-1" d="M34.81,14.65a28,28,0,0,0-.74,5.3s.06,0,.06,0c.24-1.77.39-3.54.72-5.3,0,0,0,0,0,0Z"/><path class="cls-1" d="M35.05,24.22c-.57,2.75-1.24,5.5-1.62,8.28a.06.06,0,0,0,.11,0c.67-2.72,1-5.53,1.52-8.3Z"/><path class="cls-1" d="M35.66,27c-.48,1.77-1.39,3.3-2,5,0,.09.08.19.14.1a13.13,13.13,0,0,0,2-5.07.05.05,0,0,0-.1,0Z"/><path class="cls-1" d="M34.44,28.3a11.8,11.8,0,0,0-1.22,4.34s.05,0,.06,0a16.58,16.58,0,0,1,1.22-4.31s0-.08-.06,0Z"/><path class="cls-1" d="M35.17,38.59c1.89-3.13,3.46-6.13,6.55-8.26.06,0,0-.15,0-.12C38.56,31.64,36.34,35.5,35,38.5a.09.09,0,0,0,.16.09Z"/><path class="cls-1" d="M42.57,29.58c3.17-3,6.86-2.87,10.62-1.35a32.81,32.81,0,0,0,7.13,2.17.07.07,0,1,0,0-.13c-5.7-1.39-12.76-6.45-17.87-.77-.06.06,0,.14.09.08Z"/><path class="cls-1" d="M62.71,31.76c-2.41,3.62-4.24,8-7.7,10.72C51.84,45,48,45.85,44.24,47.1a.07.07,0,0,0,0,.13c3.8-.75,7.87-2.06,10.94-4.51,3.39-2.71,5.53-7.18,7.56-10.92a0,0,0,0,0-.07,0Z"/><path class="cls-1" d="M45.06,47.72a17.29,17.29,0,0,0,2.39-1.21c.88-.44,1.81-.79,2.67-1.27.07,0,0-.13,0-.12a12.65,12.65,0,0,0-2.65,1.06A8.82,8.82,0,0,0,45,47.64s0,.1.05.08Z"/><path class="cls-1" d="M49.56,45.44c-1.54.69-3.05,1.45-4.59,2.14-.2.09-.11.42.1.33a52.38,52.38,0,0,0,7.51-3.08c.07,0,0-.14-.06-.12A53,53,0,0,0,45,47.58l.14.32c1.49-.82,3-1.58,4.48-2.4a0,0,0,0,0,0-.06Z"/><path class="cls-1" d="M54.18,44.55a32,32,0,0,1-7.39,2.37c-.08,0-.06.15,0,.14a17.85,17.85,0,0,0,7.43-2.42c.06,0,0-.12-.06-.09Z"/><path class="cls-1" d="M23.48,48a21.59,21.59,0,0,0,1.68,8.55c1.43,3,4,5.79,6.08,8.32.08.09.25,0,.17-.12-1.68-2.41-3.76-4.61-5.29-7.12-1.8-3-2-6.29-2.53-9.64a.06.06,0,0,0-.11,0Z"/><path class="cls-1" d="M31.22,40.27a.28.28,0,0,1,.1.34v.2c0,.23,0,.46,0,.7a9.27,9.27,0,0,0,0,1.29c0,.05.08.06.09,0a10.88,10.88,0,0,0,.08-1.71c0-.3.12-.81-.15-1a.07.07,0,0,0-.06,0c-.11,0-.08,0-.15.12a0,0,0,0,0,0,0l0,.07s0,0,0,0Z"/><path class="cls-1" d="M31.77,39.57a9.87,9.87,0,0,0,0,2.49c0,.07.13.06.15,0a5,5,0,0,0,0-1.16c0-.44,0-.88-.07-1.33,0-.08-.12-.07-.12,0Z"/><path class="cls-1" d="M32.27,39.86a13.62,13.62,0,0,0,.45,2.2c0,.06.12,0,.11,0a13.65,13.65,0,0,0-.46-2.2c0-.06-.11,0-.1,0Z"/><path class="cls-1" d="M30.52,41.22a51.33,51.33,0,0,0-3.83,6.15,0,0,0,0,0,.06,0,53.4,53.4,0,0,0,3.82-6.15s0-.07-.05,0Z"/><path class="cls-1" d="M25.91,48.67a7.63,7.63,0,0,0,.7,6.36c1.15,2.25,2.63,4.82,4.79,6.25.06,0,.12-.06.07-.1-3.35-2.62-6.78-8.18-5.53-12.5,0,0,0,0,0,0Z"/><path class="cls-1" d="M32.27,62.78c1.32.49,2.58,1,3.88,1.58,0,0,.06,0,0,0a12.57,12.57,0,0,0-3.87-1.62s-.09.07,0,.09Z"/><path class="cls-1" d="M19.51,38a6.34,6.34,0,0,0-4.67,2.12s0,.08.05.05a9,9,0,0,1,4.63-2.1,0,0,0,0,0,0-.07Z"/><path class="cls-1" d="M20,38.22a16.28,16.28,0,0,0-4.28,2.12c-.05,0,0,.14.05.11,1.45-.62,2.81-1.5,4.25-2.16,0,0,0-.09,0-.07Z"/><path class="cls-1" d="M20,38.88a22.78,22.78,0,0,0-3.44,1.86s0,.13.05.11A22.1,22.1,0,0,0,20.07,39c.06,0,0-.12-.05-.09Z"/><path class="cls-1" d="M13.42,35.92a11.59,11.59,0,0,0-7.22,4s0,.09.07.06a14.14,14.14,0,0,1,7.18-3.94c.07,0,.05-.14,0-.13Z"/><path class="cls-1" d="M4.24,42.5A13.51,13.51,0,0,0,1.82,54.36s.09,0,.08,0A14.71,14.71,0,0,1,4.26,42.51Z"/><path class="cls-1" d="M13.39,34.4c-.28.09-.57.08-.86.19s-.72.26-1.08.4a8.66,8.66,0,0,0-1.79.78c-.06,0,0,.14,0,.13a8.54,8.54,0,0,0,2-.66c.32-.12.65-.24,1-.38s.5-.31.78-.44c0,0,0,0,0,0Z"/><path class="cls-1" d="M13.88,34.85A6.79,6.79,0,0,0,8.52,36.1s0,.12.06.1a19.28,19.28,0,0,1,2.42-1A12,12,0,0,1,13.87,35c.07,0,.08-.11,0-.13Z"/><path class="cls-1" d="M8.28,36.12c1.74-.54,3.48-.86,5.25-1.26a0,0,0,0,0,0-.07A15.75,15.75,0,0,0,8.24,36a.06.06,0,0,0,0,.12Z"/><path class="cls-1" d="M14,35a4.51,4.51,0,0,0-4.89.81c-.05.06,0,.13.09.1A6.65,6.65,0,0,1,14,35,0,0,0,0,0,14,35Z"/><path class="cls-1" d="M8.88,24.38a17.14,17.14,0,0,0,6.55,6.43,0,0,0,0,0,0-.07A25.59,25.59,0,0,1,9,24.33a0,0,0,0,0-.08.05Z"/><path class="cls-1" d="M10.73,25.94a21.54,21.54,0,0,0,4.77,4.52s.06,0,0-.05c-1.62-1.48-3.29-2.86-4.78-4.49,0,0,0,0,0,0Z"/><path class="cls-1" d="M11.64,25.66a47.67,47.67,0,0,0,4.58,4.74s.08,0,.05-.06c-1.46-1.63-3.09-3.12-4.59-4.72a0,0,0,1,0,0,0Z"/><path class="cls-1" d="M13.06,25.62c1.08,1.23,2.15,2.48,3.28,3.67,0,0,.05,0,0,0-1.05-1.25-2.18-2.46-3.28-3.66a0,0,0,1,0,0,0Z"/><path class="cls-1" d="M4.52,18.06c1,1.5,2.13,3,3.26,4.42,0,0,.07,0,0,0-1-1.51-2.11-3-3.24-4.44a0,0,0,0,0-.07,0Z"/><path class="cls-1" d="M21.08,19.36a15,15,0,0,1,3.71,4.22,0,0,0,0,0,.08,0,9.46,9.46,0,0,0-3.73-4.26c-.05,0-.11,0-.06.08Z"/><path class="cls-1" d="M24.77,25c.75,2.53,1.55,5.09,2.52,7.54,0,0,.07,0,.06,0-.7-2.54-1.61-5.07-2.54-7.53,0,0,0,0,0,0Z"/><path class="cls-1" d="M33.78,38.09c2.35,1,4.54,2.25,6.81,3.47,0,0,.11-.05.06-.09A25.79,25.79,0,0,0,33.83,38c-.08,0-.12.1,0,.13Z"/><path class="cls-1" d="M41.62,42.6a9.43,9.43,0,0,0,6.44,1.2s0-.08,0-.08a11.57,11.57,0,0,1-6.38-1.23.06.06,0,0,0-.05.11Z"/><path class="cls-1" d="M53.73,42a10,10,0,0,1-5.6,1.36,0,0,0,0,0,0,.06,7.52,7.52,0,0,0,5.63-1.37,0,0,0,0,0,0-.05Z"/><path class="cls-1" d="M49.58,44.16c-2.72.76-4.87.3-7.52-.35-.14,0-.2.16-.09.23,2.23,1.27,5.31,1,7.63.18a0,0,0,1,0,0-.06Z"/><path class="cls-1" d="M40.46,31.74a2.18,2.18,0,0,1,1-.46s0,0,0,0a1.93,1.93,0,0,0-1,.47s0,0,0,0Z"/><path class="cls-1" d="M41.7,31.63a7.2,7.2,0,0,0-3.47,3.48s.05.09.07,0a9,9,0,0,1,3.41-3.49s0,0,0,0Z"/><path class="cls-1" d="M43,31.83a11.38,11.38,0,0,0-3.89,3.47c0,.05,0,.09.08.06A31,31,0,0,1,43,31.84s0,0,0,0Z"/><path class="cls-1" d="M43.78,32.43a26,26,0,0,0-3,2.75,0,0,0,0,0,.06.07,26.89,26.89,0,0,0,3-2.78s0-.07,0,0Z"/><path class="cls-1" d="M43.9,33.72A23.05,23.05,0,0,0,41.47,36s0,.08.05,0a21.21,21.21,0,0,0,2.41-2.33,0,0,0,0,0,0,0Z"/><path class="cls-1" d="M44,34.94a10.29,10.29,0,0,0-1.37.59s0,.06,0,0A9.58,9.58,0,0,0,44,35a0,0,0,1,0,0-.06Z"/><path class="cls-1" d="M42.13,30.71c-1.09.95-2.2,1.84-3.31,2.75-.06,0,0,.13.06.09a10.31,10.31,0,0,0,3.3-2.79s0-.08,0-.05Z"/><path class="cls-1" d="M31,44.86c.4,2.41.67,4.82,1,7.23a0,0,0,0,0,.07,0,60.88,60.88,0,0,0-1-7.24s-.08,0-.07,0Z"/><path class="cls-1" d="M32.43,45.63c.44,2,.69,3.94,1,5.93a0,0,0,0,0,.08,0,34.16,34.16,0,0,0-1-5.94s0,0,0,0Z"/><path class="cls-1" d="M33.18,45.51A39.26,39.26,0,0,0,34,50.8c0,.05.09,0,.09,0a39.36,39.36,0,0,0-.8-5.28c0-.06-.1,0-.09,0Z"/><path class="cls-1" d="M33.71,45.78A16.27,16.27,0,0,1,34.17,50s.07,0,.07,0a11.38,11.38,0,0,0-.49-4.18s0,0,0,0Z"/><path class="cls-1" d="M34.44,46.14c.12,1.26.19,2.54.4,3.79a0,0,0,0,0,0,0c-.06-1.27-.25-2.54-.39-3.8a0,0,0,0,0-.06,0Z"/><path class="cls-1" d="M34.85,46.59c.21,1.27.38,2.56.64,3.82,0,0,0,0,0,0-.15-1.27-.41-2.55-.62-3.81,0,0-.06,0-.06,0Z"/><path class="cls-1" d="M35.62,47.27a30.06,30.06,0,0,0,.53,3.29,0,0,0,0,0,.08,0,30.3,30.3,0,0,0-.54-3.28s-.07,0-.07,0Z"/><path class="cls-1" d="M39.62,44.44a13.86,13.86,0,0,1,.75,4.91s.06,0,.07,0a10.89,10.89,0,0,0-.8-4.91s0,0,0,0Z"/><path class="cls-1" d="M32.38,39.45l0-.07s0,0,0,0l-.09,0,0,0c-.1.59,1.56,1.09,2,1.33,1.66,1,3.1,2.28,4.73,3.3.08.05.14-.06.08-.12a15.7,15.7,0,0,0-3.32-2.63c-.59-.39-1.19-.75-1.8-1.1a8.42,8.42,0,0,1-1.53-.73s.06,0,.06,0Z"/><path class="cls-1" d="M41,45.87c3,2.19,2.66,5.84,3.39,9.13,0,0,.1,0,.1,0-.22-3.34-.44-7.16-3.44-9.19,0,0-.09.05,0,.08Z"/><path class="cls-1" d="M44.5,55.18a33,33,0,0,1-3,10.73.24.24,0,0,0,.34.3A1,1,0,0,0,42.44,65a.12.12,0,0,0-.23,0c-.21,1.22.82-1.54.91-1.79.27-.78.5-1.57.7-2.37a28.61,28.61,0,0,0,.78-5.6s-.09-.06-.1,0Z"/><path class="cls-1" d="M12.93,36.67c.49-.8.7-.46.18-.46a3.52,3.52,0,0,0-.58.15A10.79,10.79,0,0,0,11,37a5.85,5.85,0,0,0-2.31,1.67.07.07,0,0,0,.09.1c.83-.41,1.54-1,2.37-1.44s1.78-.55,2.56-1c0,0,0-.09,0-.09a1,1,0,0,0-.77.45s0,0,0,0Z"/><path class="cls-1" d="M13.75,36.33C11.21,36,7,38.7,6.47,41.26a.08.08,0,0,0,.13.07c.51-.51.83-1.17,1.31-1.72a9.62,9.62,0,0,1,1.72-1.53,18.26,18.26,0,0,1,4.12-1.7,0,0,0,0,0,0-.05Z"/><path class="cls-1" d="M14.41,36.47a10.14,10.14,0,0,0-5,2.68s0,.1.05.07a16.9,16.9,0,0,1,5-2.59.08.08,0,0,0-.05-.16Z"/><path class="cls-1" d="M15.14,37.15a7.13,7.13,0,0,0-4.67,2.46,0,0,0,1,0,0,0,8.63,8.63,0,0,1,4.65-2.44s0-.05,0-.05Z"/><path class="cls-1" d="M15.56,37.57a13.27,13.27,0,0,0-4.1,2.18,0,0,0,0,0,0,.07c1.37-.72,2.69-1.51,4.09-2.2,0,0,0-.06,0,0Z"/><path class="cls-1" d="M13.46,36.8c1.65.5,3.26,1.17,4.91,1.68.07,0,.1-.08,0-.11a20.48,20.48,0,0,0-4.94-1.64s-.05.05,0,.07Z"/><path class="cls-1" d="M28,38.9c-1.22,1.47-2.59,2.8-3.81,4.25,0,0,0,.12.06.08A19.86,19.86,0,0,0,28.08,39c.05-.06,0-.14-.08-.08Z"/><path class="cls-1" d="M23.85,44a29.18,29.18,0,0,1-8.19,8.63,0,0,0,0,0,.05.07A22.74,22.74,0,0,0,23.88,44s0,0,0,0Z"/><path class="cls-1" d="M22.8,38.94a5.74,5.74,0,0,0,.5-.36s0,0,0,0c-.18.11-.34.23-.51.35,0,0,0,0,0,0Z"/><path class="cls-1" d="M22.86,39c.07-.1.78-.63.33-.17-.13.13-.27.25-.41.37l-.92.81c-.58.51-1.19,1-1.78,1.47,0,0,0,.13.07.09a28.23,28.23,0,0,0,3.5-3s0-.08,0-.07a1.22,1.22,0,0,0-.76.55s0,0,0,0Z"/><path class="cls-1" d="M24.72,38.34c-1.21,1.16-2.61,2.18-3.77,3.38,0,0,0,.11.07.08a19.93,19.93,0,0,0,3.75-3.42,0,0,0,0,0-.05,0Z"/><path class="cls-1" d="M26.1,38.45c-.79.61-1.55,1.26-2.31,1.91l-1.13,1a6.82,6.82,0,0,0-.71.6c-.12.14-.29.45.08.07,0,0,0-.06,0,0l-.44.33c-.08.06,0,.19.08.13,1.53-1.28,3.06-2.57,4.5-4,0,0,0,0,0,0Z"/><path class="cls-1" d="M26.88,39.2a22.67,22.67,0,0,0-4.19,3.43s0,.11.06.07c1.4-1.14,2.69-2.39,4.15-3.47,0,0,0,0,0,0Z"/><path class="cls-1" d="M28.43,38.18c-3.11,1-5.74.43-8.89.26-.14,0-.14.21,0,.24,2.74.77,6.4,1,8.93-.47,0,0,0,0,0,0Z"/><path class="cls-1" d="M62.41,30.54a46.78,46.78,0,0,1-3.95,5.61s0,.07,0,.05a20,20,0,0,0,4-5.63s0-.06-.06,0Z"/><path class="cls-1" d="M57.75,37.65A11.76,11.76,0,0,1,52.84,42a0,0,0,0,0,0,.06,8.79,8.79,0,0,0,4.89-4.41Z"/><path class="cls-1" d="M2.85,17.54a51.29,51.29,0,0,1,12.44-.46s0,0,0,0a42.1,42.1,0,0,0-12.48.41c-.06,0,0,.11,0,.1Z"/><path class="cls-1" d="M18,32l-.41-.31s-.08,0-.05.05a14.92,14.92,0,0,0,7.81,3.72s.06-.06,0-.07A19.06,19.06,0,0,1,21.26,34,36.25,36.25,0,0,1,18,32Z"/><path class="cls-1" d="M20.6,32.34a14.19,14.19,0,0,0,5.91,2.81s0,0,0-.06a23.46,23.46,0,0,1-5.91-2.77s0,0,0,0Z"/><path class="cls-1" d="M22.66,32.23a11.19,11.19,0,0,0,3.83,2.16.05.05,0,0,0,0-.1,18.81,18.81,0,0,1-3.83-2.11s-.06,0,0,0Z"/><path class="cls-1" d="M24.15,32.11c1,.91,1.93,1.94,2.92,2.88,0,0,.08,0,.06,0a16.76,16.76,0,0,0-2.95-2.88s-.06,0,0,0Z"/><path class="cls-1" d="M25.07,31.93c.68.91,1.31,1.89,2.08,2.73,0,0,.06,0,0,0a34.18,34.18,0,0,0-2.07-2.72s-.08,0-.05,0Z"/><path class="cls-1" d="M25.35,30.73c.23.54.47,1.07.71,1.6a10.28,10.28,0,0,0,.7,1.41.06.06,0,0,0,.1-.05,17.17,17.17,0,0,0-1.43-3s-.1,0-.08,0Z"/><path class="cls-1" d="M25.22,29.79a16.24,16.24,0,0,1,1.31,2.09c.35.76.49,1.57.8,2.33a.06.06,0,0,0,.12,0,6.84,6.84,0,0,0-2.16-4.45s-.1,0-.07.05Z"/><path class="cls-1" d="M26.1,29.52c.78,1.83,1.26,3.77,2,5.61,0,.1.22.09.2,0a23.15,23.15,0,0,0-2.07-5.62c0-.07-.16,0-.13,0Z"/><path class="cls-1" d="M27,32.86a12.45,12.45,0,0,0,1,3.07l.25-.12c-.57-.91-1.14-1.82-1.7-2.74a.12.12,0,0,0-.22.1,23.21,23.21,0,0,0,1.29,2.88c.07.13.3,0,.24-.11A6.64,6.64,0,0,0,26,33.58a.12.12,0,0,0-.19.13,5.19,5.19,0,0,0,1.43,2.17c.12.1.29-.08.17-.19A12.36,12.36,0,0,0,26,34.56a.1.1,0,0,0-.14.12,2.93,2.93,0,0,0,1,1.47c.1.07.24,0,.17-.14a2.45,2.45,0,0,0-1.14-1c-.11,0-.24.07-.17.18a2.29,2.29,0,0,0,1.76,1.09c.12,0,.12-.17,0-.2A2.65,2.65,0,0,1,26,35l-.16.17a2.18,2.18,0,0,1,1.07.92l.17-.15a2.59,2.59,0,0,1-1-1.36l-.14.11a7.6,7.6,0,0,1,1.38,1.15l.17-.19a5.79,5.79,0,0,1-1.38-2.06l-.19.13A6,6,0,0,1,27.59,36l.23-.12a24.34,24.34,0,0,1-1.28-2.8l-.21.1L28,36a.14.14,0,0,0,.24-.12,29,29,0,0,0-1.22-3s-.07,0-.06,0Z"/><path class="cls-1" d="M26.86,35.13c.05-.3-.4-.31-.48,0-.17.55.75,1.21,1.15,1.4l.09-.24a5,5,0,0,1-2.15-.88.1.1,0,0,0-.12,0,.6.6,0,0,0,.56.9.11.11,0,0,0,.08-.13,1.07,1.07,0,0,0-.59-.76.1.1,0,0,0-.14.09,1.57,1.57,0,0,0,.66,1.41c.06,0,.13,0,.09-.09a2.07,2.07,0,0,1-.56-1.33l-.14.09a.88.88,0,0,1,.5.65l.09-.12c-.36,0-.48-.21-.36-.52a2.69,2.69,0,0,0,.29.16l.53.26c.39.17.79.29,1.17.47a.13.13,0,0,0,.12-.23,3,3,0,0,1-.58-.42,2.68,2.68,0,0,1-.28-.3q-.2-.18,0-.42a0,0,0,0,0,.07,0Z"/><path class="cls-1" d="M37,34.46c-.51.5-.93,1.08-1.42,1.59S34.45,37,34,37.52a.12.12,0,0,0,.15.18,6.17,6.17,0,0,0,1.63-1.43,7.49,7.49,0,0,0,1.3-1.72.08.08,0,0,0-.12-.09Z"/><path class="cls-1" d="M36.65,33.7c-.51.66-1,1.37-1.46,2a17.7,17.7,0,0,0-1.36,1.77c-.06.09.06.2.15.14a12.37,12.37,0,0,0,2.85-3.82c.05-.1-.1-.22-.18-.12Z"/><path class="cls-1" d="M36.24,33.65c-.41.65-.69,1.39-1.07,2.07a17.51,17.51,0,0,0-1.2,2c0,.06,0,.16.12.1A5.76,5.76,0,0,0,35.4,36a7.52,7.52,0,0,0,1-2.32c0-.08-.08-.11-.13,0Z"/><path class="cls-1" d="M35.1,33.23a13.1,13.1,0,0,0-1.18,2.26,16,16,0,0,0-1,2.36c0,.12.13.15.18.07a17.12,17.12,0,0,0,1.21-2.47,12.89,12.89,0,0,0,.89-2.19s0-.06-.06,0Z"/><path class="cls-1" d="M35.76,31.41c-.84,1.8-1.9,3.58-2.62,5.42,0,.07.06.15.11.08a18.57,18.57,0,0,0,2.61-5.46c0-.06-.08-.09-.1,0Z"/><path class="cls-1" d="M34,33.68a9.54,9.54,0,0,1-.47,1.72,10.28,10.28,0,0,0-.59,1.26c0,.06.07.13.13.08a4.35,4.35,0,0,0,1.09-3.05c0-.09-.15-.1-.16,0Z"/><path class="cls-1" d="M34.12,34.33a4.39,4.39,0,0,0-1.4,2.79.06.06,0,0,0,.12,0c.24-.41.34-.9.55-1.33a10.06,10.06,0,0,1,.86-1.36c.07-.1,0-.22-.13-.13Z"/><path class="cls-1" d="M36.28,34.71a10,10,0,0,0-2.22,2.47.06.06,0,0,0,.09.07,30.45,30.45,0,0,1,2.2-2.48s0-.1-.07-.06Z"/><path class="cls-1" d="M31.05,41.13l0-.6-.17-.09c-.24.59-.34,1.24-.52,1.85s-.51,1.39-.64,2.11a.11.11,0,0,0,.21.08,8.55,8.55,0,0,0,1.13-4c0-.11-.18-.13-.19,0a1.13,1.13,0,0,0,.08.7c0,.05.1,0,.08,0Z"/><path class="cls-1" d="M31,39.88A21.8,21.8,0,0,0,29.71,44c0,.15.2.25.27.1A21.62,21.62,0,0,0,31.26,40c0-.12-.17-.2-.22-.08Z"/><path class="cls-1" d="M30.94,39.7a11.77,11.77,0,0,0-.94,2,11.47,11.47,0,0,0-.69,1.85.11.11,0,0,0,.21.07,13.55,13.55,0,0,0,.88-2.07A9.39,9.39,0,0,0,31,39.74a.05.05,0,0,0-.09,0Z"/><path class="cls-1" d="M30.58,39.43A18.58,18.58,0,0,0,28.73,44a.06.06,0,0,0,.12,0,35.89,35.89,0,0,0,1.86-4.53c0-.09-.09-.15-.13-.07Z"/><path class="cls-1" d="M29.78,40.67a35.29,35.29,0,0,0-1.81,4c0,.06.08.09.11,0a34.22,34.22,0,0,0,1.83-4c0-.09-.09-.16-.13-.07Z"/><path class="cls-1" d="M29.42,41.66a36.28,36.28,0,0,0-2.27,4.43c0,.07.08.11.12.06a16,16,0,0,0,2.28-4.43.07.07,0,0,0-.13-.06Z"/><path class="cls-1" d="M28.84,42.44a14.28,14.28,0,0,0-2,5c0,.08.12.14.16,0,.65-1.67,1.24-3.35,1.93-5,0-.08-.06-.13-.1-.06Z"/><path class="cls-1" d="M32.28,39.49a12.54,12.54,0,0,0,.07,4.1c0,.12.19.07.19,0,0-1.33,0-2.71-.09-4a.09.09,0,0,0-.17,0Z"/><path class="cls-1" d="M32.49,39.74a13.42,13.42,0,0,1,.38,2.68c0,.21.32.19.32,0s0-.3,0-.45a.08.08,0,0,0-.14,0l-.17.42.3.06a7.07,7.07,0,0,0-.52-2.72.09.09,0,1,0-.18.06Z"/><path class="cls-1" d="M32.82,38.91a7.15,7.15,0,0,0,.94,3.65.15.15,0,0,0,.26-.13c-.18-.59-.46-1.14-.63-1.74s-.27-1.2-.4-1.81c0-.1-.17-.06-.17,0Z"/><path class="cls-1" d="M32.53,39.24a6.3,6.3,0,0,0,1.28,2.54.21.21,0,0,0,.35-.23c-.51-.85-1-1.72-1.46-2.59a.17.17,0,0,0-.31,0,3.47,3.47,0,0,0,.45,2.8c.13.21.42,0,.37-.17a10.47,10.47,0,0,0-.64-2.11.15.15,0,0,0-.28.09,17.68,17.68,0,0,0,.77,2.6c0,.11.26.1.24,0a16.42,16.42,0,0,0-.73-2.64l-.26.12a4,4,0,0,1,.5,2.06l.38-.12a4,4,0,0,1-.47-2.5l-.31,0c.48.87,1,1.75,1.4,2.64l.35-.23c-.28-.41-.55-.83-.8-1.26a5.81,5.81,0,0,0-.69-1.12.09.09,0,0,0-.14.07Z"/><path class="cls-1" d="M33.24,39A11.36,11.36,0,0,0,35,41.54c.14.19.45,0,.31-.2-.63-.91-1.31-1.79-2-2.68-.13-.17-.41,0-.29.19a10.06,10.06,0,0,0,2.54,2.78c.15.11.41,0,.33-.21a4.92,4.92,0,0,0-2.74-2.86c-.17-.07-.41.12-.27.3A16.37,16.37,0,0,0,36,42.18c.13.09.34,0,.23-.19-.89-1.18-2-2.22-2.94-3.36l-.22.32a4.08,4.08,0,0,1,2.5,2.59l.33-.21a10.7,10.7,0,0,1-2.53-2.67l-.29.19c.7.86,1.34,1.77,2,2.69l.31-.2a10.92,10.92,0,0,0-2-2.46.06.06,0,0,0-.1.07Z"/><path class="cls-1" d="M33.44,39l-.15-.3h-.22a7.4,7.4,0,0,0,1,1.93c.27.46.58,1.33,1.1,1.55a.23.23,0,0,0,.2,0c.16-.13.21-.27.06-.43s-.14,0-.14.07c0-.2-.35-.59-.46-.77l-.57-.92a6.08,6.08,0,0,0-1.05-1.54c-.1-.08-.25,0-.18.15a.73.73,0,0,0,.32.31s.07,0,0,0Z"/><path class="cls-1" d="M33.18,38.85a12.23,12.23,0,0,0,.91,1.62A7,7,0,0,0,35.21,42a.09.09,0,0,0,.13-.12,12.85,12.85,0,0,0-1-1.5c-.34-.51-.66-1-1-1.54,0-.07-.16,0-.13.06Z"/><path class="cls-1" d="M34.25,40a6,6,0,0,1,1.12,1.29,0,0,0,0,0,.06,0,3.51,3.51,0,0,0-1.15-1.3s-.06,0,0,.05Z"/></g></g></svg>