<svg xmlns="http://www.w3.org/2000/svg" viewBox="0 0 113.17 131.77"><defs><style>.cls-1{fill:#444;}</style></defs><title>icon-birdofparadiseflower</title><g id="Calque_2" data-name="Calque 2"><g id="_2" data-name="2"><path class="cls-1" d="M46.4,62.85c-1.9,3-5.19,4.12-8,6a27.27,27.27,0,0,0-6.42,6c-4.36,5.54-5.38,11.85-7.08,18.48a26.74,26.74,0,0,1-5.29,10.33,18.83,18.83,0,0,0-3.94,8c-1.74,7.14-3.5,13.52-7.81,19.59a.35.35,0,0,0,.52.46c4.87-4.08,6.42-11,7.85-16.86.86-3.54,1.5-6.77,3.81-9.7a30.53,30.53,0,0,0,5.27-8.89c1.21-3.47,1.56-7.15,2.58-10.67a32.92,32.92,0,0,1,4.67-9.81,26.75,26.75,0,0,1,8.53-7.62c2.28-1.36,4.42-2.62,5.67-5.06.12-.22-.19-.45-.33-.22Z"/><path class="cls-1" d="M7.63,131.73a22.25,22.25,0,0,0,6.63-2.22,26.5,26.5,0,0,0,6.09-3.45.15.15,0,0,0-.17-.25c-2.09,1-4,2.31-6.13,3.27s-4.41,1.5-6.46,2.54c-.06,0,0,.11,0,.11Z"/><path class="cls-1" d="M19.8,126.58a31.9,31.9,0,0,0,5-9.43c.58-1.7,1-3.47,1.64-5.13a39.52,39.52,0,0,1,3.29-5.53,16.34,16.34,0,0,0,1.67-4,18,18,0,0,1,3-5.59,20.39,20.39,0,0,0,3.64-9.42c0-.22-.28-.26-.36-.08-.76,1.68-1.21,3.47-1.91,5.18A27.05,27.05,0,0,1,32.4,98c-1.94,2.79-2.22,6.27-4.14,9.13a29,29,0,0,0-3.72,8.32,45.82,45.82,0,0,1-5.05,10.88.19.19,0,0,0,.31.22Z"/><path class="cls-1" d="M26.17,93.05c3.31-2.43,6.56-5,10-7.23s7-3,10.75-4.14A200.13,200.13,0,0,0,66.62,74.4c6.12-2.63,12.5-5.33,18-9.17,3-2.08,5.68-4.46,8.68-6.46a30,30,0,0,1,10.43-4.31.21.21,0,0,0,0-.42c-6.07-.26-11.49,4.07-16,7.55-6.46,4.94-13.6,8.35-21,11.56S51.75,79.07,44.12,81.5a29.34,29.34,0,0,0-8.31,3.73c-3.38,2.37-6.56,5.08-9.83,7.61-.14.11,0,.32.19.21Z"/><path class="cls-1" d="M103.69,53.78c-4.33,0-8.28,1.87-12.28,3.3C86.19,58.94,81,58.69,75.58,59.66c-5.59,1-11.09,2.73-16.58,4.2-4.06,1.08-9,1.66-12.2,4.59-.15.14,0,.43.2.31,4.23-2.65,9.67-3.4,14.43-4.67C66.51,62.74,71.6,61,76.8,60.21c4.71-.74,9.33-.59,13.9-2.16,4.36-1.51,8.37-3.42,13-4a.16.16,0,0,0,0-.31Z"/><path class="cls-1" d="M41.65,83.07a11.07,11.07,0,0,0-4,5.7c0,.1.11.2.18.09.59-.93,1-2,1.59-2.88a23,23,0,0,1,2.39-2.74.12.12,0,1,0-.16-.17Z"/><path class="cls-1" d="M40.9,83.26a10.58,10.58,0,0,0-3.81,5.47c0,.11.12.22.19.1.55-1,.94-2,1.56-3s1.4-1.71,2.09-2.59c0,0,0-.05,0,0Z"/><path class="cls-1" d="M40.91,83.49A16,16,0,0,0,39,85.55a.07.07,0,0,0,.1.09A16.12,16.12,0,0,0,41,83.56s0-.11-.08-.07Z"/><path class="cls-1" d="M46.41,68.58c-2.22,2-5.27,2.09-7.93,3.17a13.69,13.69,0,0,0-5.89,4.09c-.06.09,0,.23.14.17,2.74-1.79,5-3.67,8.23-4.66,2-.63,4.06-1,5.56-2.64.07-.08,0-.2-.11-.13Z"/><path class="cls-1" d="M27.46,91.41a60.9,60.9,0,0,1,6.91-5.93,36.8,36.8,0,0,1,8.3-4c6.13-2.19,12.37-4,18.49-6.28.06,0,0-.14,0-.12-6.39,1.93-12.77,4-19,6.3a35.87,35.87,0,0,0-14.72,9.87c-.07.08,0,.19.1.12Z"/><path class="cls-1" d="M62.36,74.88C70.27,72,78.64,68.53,85.59,63.74c.11-.07,0-.24-.12-.18-7.76,3.79-15.19,7.83-23.27,11-.22.09-.06.41.16.33Z"/><path class="cls-1" d="M44.88,59.61a3.83,3.83,0,0,1,1.18,1.83,7.5,7.5,0,0,1-.08,2c0,.08.11.17.18.09,1-1.1,0-3.48-1.14-4.08-.09-.05-.22.06-.14.15Z"/><path class="cls-1" d="M45.86,64a2.54,2.54,0,0,0,.36-3.19,5.34,5.34,0,0,0-1.38-1.65c-.67-.6-1.43-1.06-2.09-1.68a27.47,27.47,0,0,1-2.11-2.81,6.12,6.12,0,0,0-4.09-2.21c-3.79-.64-7-1.08-9.58-4.3-1.74-2.18-2.85-4.58-4.93-6.5A42.62,42.62,0,0,0,15.39,37C9.4,33.27,5.13,28.73.71,23.34a.28.28,0,0,0-.46.3c2.29,4.25,6,7.87,9.84,10.76,4.36,3.31,9.79,5.42,13.29,9.76,2.82,3.49,4.49,7.15,9.23,8.27a23.48,23.48,0,0,0,2.65.38A7,7,0,0,1,41,56c1.6,2.05,6.34,5,4.82,7.92,0,0,0,.1.07.06Z"/><path class="cls-1" d="M.89,23.29a49.23,49.23,0,0,0,12,9.86c2.37,1.46,4.69,2.62,6.7,4.6,1.55,1.53,2.85,3.23,4.75,4.33.11.07.28-.08.17-.19-1.81-1.63-3.39-3.47-5.17-5.12a28.79,28.79,0,0,0-5.26-3.53C9.25,30.4,5.18,26.83,1,23.21c0,0-.11,0-.07.08Z"/><path class="cls-1" d="M24.83,42.18c1.74,1.87,2.72,4.2,5,5.49,3,1.65,5.87,2,7.79,5.11,0,.07.19,0,.16-.06-.61-2.18-2.72-3.24-4.69-4.06s-4-1.54-5.46-3.33a21.3,21.3,0,0,0-2.71-3.27c-.07-.06-.17,0-.11.12Z"/><path class="cls-1" d="M15.29,34c-.89-1.21-1.85-2.38-2.74-3.59-1.2-1.62-1.14-3-1.54-4.9-.67-3.12-2.14-5.56-1.86-8.93a.2.2,0,0,0-.4,0c-.54,3.86,1.46,7,1.94,10.72.36,2.72,2.72,4.85,4.42,6.88.1.12.27,0,.18-.15Z"/><path class="cls-1" d="M8.63,16.76c2.15,7,7.69,12.53,13.23,17.09,3.11,2.56,6.4,4.86,9.54,7.36a41.48,41.48,0,0,1,9,10.2c.15.23.59.15.49-.16-2.07-6.79-9.66-11.08-15-15C18.71,30.87,12.53,25,8.81,16.7c-.05-.1-.21,0-.18.06Z"/><path class="cls-1" d="M40.14,50.13a9.09,9.09,0,0,0,3.23,4.44c2.49,1.9,3.09,4.36,4.39,7.08.05.1.19,0,.18-.07a11.8,11.8,0,0,0-2.62-6,9.38,9.38,0,0,0-1.71-1.36,10.92,10.92,0,0,1-3.33-4.14c0-.07-.16,0-.14,0Z"/><path class="cls-1" d="M40.09,49.67A12.1,12.1,0,0,0,41,51.59a9.48,9.48,0,0,0,1.11,1.84c.06.06.17,0,.15-.07a9.24,9.24,0,0,0-1-1.91,13.21,13.21,0,0,0-1.14-1.82s-.1,0-.08,0Z"/><path class="cls-1" d="M39.43,49.47A8.2,8.2,0,0,0,41.37,53c.06,0,.16,0,.12-.08-.3-.59-.74-1.11-1.07-1.69a19.6,19.6,0,0,1-.88-1.78c0-.06-.13,0-.11,0Z"/><path class="cls-1" d="M40.26,50.94a5.91,5.91,0,0,0,3.59,3.8.1.1,0,0,0,.09-.18c-.69-.6-1.48-1-2.12-1.66a16.15,16.15,0,0,1-1.48-2s-.09,0-.08,0Z"/><path class="cls-1" d="M47.69,61a17.27,17.27,0,0,0-4-11.11c-1.53-2-3.37-3.86-4.44-6.17s-.5-4.82-1.08-7.28C37.14,32,33.75,28,31.92,23.83c-2.46-5.67-3.48-11.42-2.26-17.52,0-.23-.34-.31-.4-.09A24.55,24.55,0,0,0,30,20.16c1.61,5.05,4.49,9.28,6.78,14,1.27,2.62.75,5.17,1.36,7.86a12.78,12.78,0,0,0,2.24,4.54c1.44,2,3.17,3.74,4.5,5.8A19,19,0,0,1,47.56,61c0,.07.13.06.13,0Z"/><path class="cls-1" d="M29.3,6.83a22.11,22.11,0,0,0,1.59,11.44c1.71,4.31,5.49,6.63,6.81,11.22.06.2.38.15.34-.07-.74-3.79-3.21-5.4-5.29-8.37-2.93-4.15-3.32-9.32-3.38-14.21a0,0,0,0,0-.07,0Z"/><path class="cls-1" d="M38.25,30.72a25.51,25.51,0,0,1,1.26,6c0,.1.15.08.16,0a11,11,0,0,0-1.3-6c0-.08-.15,0-.12.06Z"/><path class="cls-1" d="M39.05,31c.27,1.74.64,3.46,1,5.18a.16.16,0,0,0,.32-.06c-.37-1.72-.7-3.45-1.14-5.16,0-.1-.17-.07-.16,0Z"/><path class="cls-1" d="M39.91,31.23a29.28,29.28,0,0,0,.74,4.56.15.15,0,0,0,.3-.06,29.47,29.47,0,0,0-.84-4.54.1.1,0,0,0-.2,0Z"/><path class="cls-1" d="M40.74,31.67c.16.78.35,1.56.48,2.34a13.12,13.12,0,0,0,.37,2.08c0,.11.2.06.2,0a11.56,11.56,0,0,0-.92-4.43c0-.07-.14,0-.13.05Z"/><path class="cls-1" d="M37.32,26.91c.23.88.52,1.73.81,2.59a6.81,6.81,0,0,0,1,2.49.11.11,0,0,0,.2-.06,5.79,5.79,0,0,0-.68-2.27c-.36-.95-.72-1.9-1.15-2.83-.05-.11-.25,0-.21.08Z"/><path class="cls-1" d="M37.08,27.33c1.17,2.76,1.73,5.56,2.66,8.38,0,.11.23.13.23,0,0-2.86-1.31-6-2.75-8.44a.08.08,0,0,0-.14.08Z"/><path class="cls-1" d="M37.86,28.21a46,46,0,0,1-.48-7.95,19.88,19.88,0,0,0-.29-5.39,27.68,27.68,0,0,1-1-7.26A58.74,58.74,0,0,1,37.39.18c0-.19-.27-.25-.33-.07A23.82,23.82,0,0,0,36.3,14c1.1,4.72-.22,9.65,1.52,14.26a0,0,0,0,0,0,0Z"/><path class="cls-1" d="M37.05.7c-.27,7.56,3.07,16,7.58,22,1.49,1.95,3.37,3.61,4.31,5.93a18.36,18.36,0,0,1,.9,8.06c-.23,4-1.25,8.36.36,12.16.11.25.44.1.42-.14-.46-5,.33-9.8.13-14.79a13.83,13.83,0,0,0-3.21-8.78,42.1,42.1,0,0,1-7.08-10.85C38.59,9.85,38.06,5.35,37.1.7c0,0-.05,0-.05,0Z"/><path class="cls-1" d="M50.82,49.24c-.51,1.55.09,3,.27,4.63a35.05,35.05,0,0,1-.25,7c0,.09.14.12.16,0,1.1-4-.23-7.66-.15-11.68a0,0,0,0,0,0,0Z"/><path class="cls-1" d="M51.55,53a43.07,43.07,0,0,1-.24,7.09c0,.22.3.24.35,0a17.6,17.6,0,0,0,0-7.12c0-.05-.11-.05-.11,0Z"/><path class="cls-1" d="M50.27,48.69c.22,1.62.58,3.21.71,4.85s-.09,3.26.12,4.86a.2.2,0,0,0,.38,0c.94-2.89.23-7.1-1-9.8a.1.1,0,0,0-.19.06Z"/><path class="cls-1" d="M37.21,2.72s0-.06,0-.06a0,0,0,0,0,0,.06Z"/><path class="cls-1" d="M37,2.84c2.47,4.15,5.24,8.09,6.83,12.69.62,1.8,1,3.64,1.81,5.38,1,2.23,2.31,4.12,2.5,6.65,0,.29.53.26.52,0A11.75,11.75,0,0,0,47,22.31a56.23,56.23,0,0,1-2.64-7A46.27,46.27,0,0,0,37.09,2.79s-.12,0-.08,0Z"/><path class="cls-1" d="M51.6,57.28a2.71,2.71,0,0,1-.11.62l-.09.83c0,.51-.09,1-.12,1.54,0,.34.51.33.48,0a2.86,2.86,0,0,0-.09-.51.11.11,0,0,0-.22,0,2.08,2.08,0,0,0-.16.48l.47.1c.05-.71.1-1.42.12-2.13,0-.38.14-.84-.18-1.11a.1.1,0,0,0-.12,0,.3.3,0,0,0-.16.17.08.08,0,0,0,0,.08l0,.06c.05.06.16,0,.12-.08Z"/><path class="cls-1" d="M51.76,56.42c-.25,1.25-.2,2.5-.52,3.76l.57,0a40.82,40.82,0,0,1,.32-5.29l-.46,0c-.07,1.75-.27,3.48-.5,5.22,0,.3.41.32.46,0a39.58,39.58,0,0,0,.5-5.22.23.23,0,0,0-.46,0,38.61,38.61,0,0,1-.43,5.27c-.08.37.45.58.56.2a6.31,6.31,0,0,0,.15-4c0-.11-.17-.05-.19,0Z"/><path class="cls-1" d="M52.15,60.48c1.32-5.35,1.13-12.54,5.68-16.27,3.71-3,7.62-5.48,11-9,7.45-7.58,14-16.31,24.67-19.48.18-.06.13-.33-.06-.29-11.07,2.21-18,12-25.44,19.57a53.57,53.57,0,0,1-6.36,5.59c-1.89,1.37-4,2.49-5.64,4.2a10.09,10.09,0,0,0-2.42,5.21c-.7,3.42-1.38,6.88-1.88,10.34,0,.24.36.33.42.09Z"/><path class="cls-1" d="M93.47,15.82C85.92,18.76,80.28,23.71,75.29,30c-5.14,6.43-10,12.53-16.26,17.89a.12.12,0,0,0,.13.19c6.22-3.35,10.44-9.95,14.6-15.42a69.5,69.5,0,0,1,7.94-9.1c3.55-3.27,7.69-5.19,11.9-7.44a.15.15,0,0,0-.13-.26Z"/><path class="cls-1" d="M66.89,39a34.45,34.45,0,0,1-2.8,3.12c-1,.87-2.08,1.51-3,2.36-.06,0,0,.18.07.15a12,12,0,0,0,6-5.49.12.12,0,0,0-.2-.14Z"/><path class="cls-1" d="M60.33,45.76a14.86,14.86,0,0,0-5.78,9.58c0,.16.22.25.31.1a39.62,39.62,0,0,0,1.84-4.8,13.23,13.23,0,0,1,3.76-4.73c.1-.08,0-.23-.13-.15Z"/><path class="cls-1" d="M60.28,47.69c-4.25,2.8-3.3,9.3-6.5,13-.08.09.07.21.15.13,3.91-3.24,2.93-9.39,6.36-13.13,0,0,0,0,0,0Z"/><path class="cls-1" d="M57,57.58a28.3,28.3,0,0,1-2.51,3.7c-.1.13.1.26.2.14A17.22,17.22,0,0,0,57,57.6s0,0,0,0Z"/><path class="cls-1" d="M54.55,59.59a10.32,10.32,0,0,1-2,2.32c-.17.13,0,.36.21.24a5.37,5.37,0,0,0,1.89-2.54,0,0,0,0,0-.05,0Z"/><path class="cls-1" d="M54.87,59.77c-.54.56-1.11,1.09-1.69,1.61a8.35,8.35,0,0,0-1.57,1.45c-.08.11,0,.23.16.18a5.7,5.7,0,0,0,1.71-1.47c.51-.55,1-1.13,1.44-1.72,0,0,0-.08-.05,0Z"/><path class="cls-1" d="M56.34,59c2.9-4.21,6-9.14,7.32-14.13,0-.12-.14-.23-.21-.11-2.66,4.56-4.62,9.54-7.25,14.14-.06.1.08.19.14.1Z"/><path class="cls-1" d="M55.05,49.58h-.2s0,0,0,0l.2,0s0,0,0,0Z"/><path class="cls-1" d="M52.86,52.77v-.19h0l0,.19Z"/><path class="cls-1" d="M51.89,55.86A78.52,78.52,0,0,0,54.3,44.71a75.16,75.16,0,0,0,.06-12.19A28.23,28.23,0,0,1,56.55,20c1.5-3.56,3.4-7.09,4.51-10.79,0-.13-.14-.24-.22-.11a86.91,86.91,0,0,0-4.4,9.73,27.22,27.22,0,0,0-2.7,10.94c0,4,.73,8.06.49,12.12-.27,4.73-1.53,9.3-2.61,13.89,0,.18.22.28.27.1Z"/><path class="cls-1" d="M61.62,9.54a21,21,0,0,0-1.34,3A24.82,24.82,0,0,0,58.9,16c0,.09.1.16.15.08a23.6,23.6,0,0,0,1.33-3,24.84,24.84,0,0,0,1.36-3.5.07.07,0,0,0-.12-.05Z"/><path class="cls-1" d="M62.41,9.41c-.42.88-.78,1.78-1.19,2.67A24.12,24.12,0,0,0,60,14.73a.08.08,0,0,0,.14.07,17,17,0,0,0,2.38-5.34.07.07,0,0,0-.14-.05Z"/><path class="cls-1" d="M59.74,12c.46-.9.94-1.77,1.38-2.68s1-3.13,2.06-2a.07.07,0,0,0,.12-.08,1.44,1.44,0,0,0-.92-.83.15.15,0,0,0-.17.06A58.73,58.73,0,0,0,59.71,12s0,0,0,0Z"/><path class="cls-1" d="M63.65,7.76a12.21,12.21,0,0,0,.3,5.57,32,32,0,0,1,1.11,3.11,19.54,19.54,0,0,1,0,4.71q-.19,4.05-.38,8.12c-.15,3.24.06,6.63-.82,9.77a.16.16,0,0,0,.29.11c1.15-2.28,1-5,1.08-7.52.13-3.09.24-6.19.35-9.28.09-2.25.45-4.61-.24-6.79-.86-2.72-1.7-4.86-1.63-7.8,0,0,0,0,0,0Z"/><path class="cls-1" d="M40,72.25a16.2,16.2,0,0,0-8.23,5.41.05.05,0,0,0,.08.07,22.59,22.59,0,0,1,3.73-3.24,25,25,0,0,1,4.46-2.12c.07,0,0-.14,0-.12Z"/><path class="cls-1" d="M57.71,61.45c2.71.32,5.08-.87,7.5-1.94,4-1.76,8-1.39,12.3-1.59a118.54,118.54,0,0,0,22.89-3.07.12.12,0,0,0-.05-.24c-8.2.66-16.2,2.39-24.46,2.58-2.87.06-5.82-.25-8.6.63-3.32,1.06-6,3.23-9.59,3.47-.1,0-.08.15,0,.16Z"/><path class="cls-1" d="M60.39,53.42c3.13-3,8.14-3.09,12.1-4.4,4.7-1.55,9.29-3.45,13.92-5.2A91.13,91.13,0,0,0,98.87,38.5,76.68,76.68,0,0,1,113,32a.16.16,0,1,0-.06-.32c-4.7.69-8.8,3.15-12.85,5.49a97,97,0,0,1-13.85,6.19c-5.08,2-10.16,4.14-15.37,5.73C67.23,50.2,63,50.43,60.3,53.31c-.06.07,0,.17.09.11Z"/><path class="cls-1" d="M113,31.89c-.89,1.59-4.33,2.21-5.88,3-2.06,1-4,2.18-6,3.35a77.9,77.9,0,0,1-11.53,5.92c-3.7,1.45-7.55,2.73-10.86,5s-5.49,6.59-9.41,8.17c-.22.09-.1.48.14.41,3.61-1.07,5.36-4.73,8.08-7,3.85-3.24,8.63-4.71,13.19-6.58A98,98,0,0,0,103,37.51,57.49,57.49,0,0,1,109,34.33c1.73-.76,3.35-.6,4.14-2.35,0-.1-.12-.19-.17-.09Z"/><path class="cls-1" d="M63.12,51.83a125.1,125.1,0,0,1,19.8-9.51c7-2.52,14.22-4,21.18-6.5.1,0,0-.19-.06-.17A146.49,146.49,0,0,0,82.75,42c-6.8,2.46-13.87,5.42-19.69,9.78-.05,0,0,.13.06.09Z"/><path class="cls-1" d="M87.93,40.09a25,25,0,0,0,7-4.24,33.15,33.15,0,0,1,8.67-5c.08,0,0-.18,0-.16-6.09,1.73-10.18,6.52-15.68,9.41,0,0,0,0,0,0Z"/><path class="cls-1" d="M103.71,30.53c-1.94,1.78-4.34,2.8-6.57,4.17a51.36,51.36,0,0,0-6,4.28c-.16.13,0,.36.2.24A63.66,63.66,0,0,1,99.05,34c1.69-.95,3.65-1.69,4.7-3.41,0,0,0-.06,0,0Z"/><path class="cls-1" d="M32.55,78.26a22.53,22.53,0,0,0-4.95,11.6c0,.11.16.15.19,0a31.07,31.07,0,0,1,4.87-11.57c.05-.07,0-.14-.11-.07Z"/><path class="cls-1" d="M33,78.48a36.45,36.45,0,0,0-4.12,9.1.13.13,0,0,0,.25.09c1.19-3.14,2.52-6.13,4-9.15,0,0-.06-.09-.09,0Z"/><path class="cls-1" d="M32.76,77.68c.23.74-.9,1.82-1.26,2.37-.47.73-.9,1.47-1.3,2.24a18,18,0,0,0-1.72,4.22.12.12,0,1,0,.23.08c.88-1.84,1.56-3.72,2.58-5.5.56-1,1.66-2,1.76-3.18a.1.1,0,0,0,0-.1l-.23-.15s0,0,0,0Z"/><path class="cls-1" d="M32.58,77.24a19.28,19.28,0,0,0-3.36,7c0,.1.11.11.15,0,1.14-2.33,2.09-4.68,3.34-7,0-.08-.07-.17-.13-.09Z"/><path class="cls-1" d="M32.42,77.46a21.82,21.82,0,0,0-4.22,8.89c0,.11.15.14.19,0a79,79,0,0,1,4.18-8.83.09.09,0,0,0-.15-.1Z"/><path class="cls-1" d="M32,78a43.85,43.85,0,0,0-4.7,11.76c0,.13.15.2.19.07,1.43-4,2.9-7.89,4.61-11.78,0-.06-.06-.11-.1,0Z"/><path class="cls-1" d="M35,75.78A26.24,26.24,0,0,0,30.6,84s0,0,0,0A43.62,43.62,0,0,1,35,75.82a0,0,0,0,0-.06,0Z"/><path class="cls-1" d="M34.36,76.36a31.59,31.59,0,0,0-5.07,10.47.06.06,0,0,0,.11,0,47.79,47.79,0,0,1,5-10.46,0,0,0,0,0-.08,0Z"/><path class="cls-1" d="M35.73,76.25A23.79,23.79,0,0,0,30.6,87.32s.06.06.07,0a39.72,39.72,0,0,1,5.11-11.06s0-.06-.05,0Z"/><path class="cls-1" d="M34.14,75.63a16.91,16.91,0,0,0-4.33,7.86.09.09,0,1,0,.17.06c.71-1.41,1.23-2.9,2-4.3.67-1.24,1.54-2.36,2.21-3.59,0,0,0-.06,0,0Z"/><path class="cls-1" d="M34.26,75.57a19.39,19.39,0,0,0-5.18,8.89c0,.11.13.17.18.06a52.25,52.25,0,0,1,2.39-4.87c.82-1.39,1.86-2.63,2.69-4a.05.05,0,0,0-.08-.07Z"/><path class="cls-1" d="M27.19,93.18c-1.29,3.17-2.36,6.4-4.23,9.29-1.3,2-3.06,3.67-3.58,6,0,.06.07.09.09,0,1-2.89,3.25-5.07,4.68-7.74a44.57,44.57,0,0,0,3.12-7.61s-.06-.08-.08,0Z"/><path class="cls-1" d="M18.42,109.2A121.1,121.1,0,0,1,11,130c-.08.16.18.25.26.09a87.18,87.18,0,0,0,7.31-20.88c0-.06-.08-.1-.1,0Z"/><path class="cls-1" d="M15.81,120.84c-.55,1.45-1.15,2.88-1.82,4.27a38.24,38.24,0,0,0-2.19,4.33.06.06,0,0,0-.1-.05c-.07.12-.15.23-.23.35a.11.11,0,0,0,.19.12,40.35,40.35,0,0,0,4.23-9,0,0,0,1,0-.08,0Z"/><path class="cls-1" d="M16.67,120.32a57.19,57.19,0,0,1-4.08,8.85c.05-.08-.05-.19-.13-.12l-.07.07a.11.11,0,0,0,0,.13l.05.11a.14.14,0,0,0,.19.06c1-.63,1.49-2.31,2-3.35a36.53,36.53,0,0,0,2.16-5.72s-.06-.08-.08,0Z"/><path class="cls-1" d="M17.43,120.57c-1.16,2.65-2.43,5.17-3.82,7.71-.11.19.16.39.29.2a29.36,29.36,0,0,0,3.69-7.85c0-.1-.11-.16-.16-.06Z"/><path class="cls-1" d="M18.43,120.44a21.92,21.92,0,0,1-1.21,3.7,26.62,26.62,0,0,1-2.34,3.68c-.08.12.09.28.2.18a12.39,12.39,0,0,0,3.5-7.53c0-.08-.12-.11-.15,0Z"/><path class="cls-1" d="M15,120.82a34.78,34.78,0,0,1-2.34,5,48,48,0,0,1-3,4c-.07.09.06.2.15.13a16.94,16.94,0,0,0,5.28-9.11c0-.06-.07-.07-.09,0Z"/><path class="cls-1" d="M13.86,123.25c-1.16,2.65-2.79,5.14-3.87,7.8,0,.08.07.12.12.06,1.78-2.16,2.93-5.21,3.9-7.8,0-.1-.11-.15-.15-.06Z"/><path class="cls-1" d="M13.5,125.57c-.4.71-.81,1.42-1.26,2.1a20.92,20.92,0,0,0-1.42,2,.07.07,0,0,0,.1.09,11.05,11.05,0,0,0,2.73-4.13c0-.08-.1-.15-.15-.07Z"/><path class="cls-1" d="M37.9,85C36.1,88.7,34.65,92.48,32,95.65a8.43,8.43,0,0,0-2.17,5.76s.07.06.08,0a10,10,0,0,1,2.52-6,15,15,0,0,0,1.69-2.17c1.48-2.59,2.62-5.49,3.85-8.21,0-.07-.08-.11-.11,0Z"/><path class="cls-1" d="M29.56,102.47c-2.15,4.21-4.25,8.55-6,12.93-1.67,4.11-2.14,8.57-5.48,11.77a.07.07,0,0,0,.09.1c3.16-2.21,3.72-6.4,4.89-9.81,1.77-5.16,4.54-9.94,6.7-14.94,0-.1-.11-.15-.16,0Z"/><path class="cls-1" d="M37.54,85.55c-1.71,1.52-3.32,3.14-5.13,4.56s-3.76,2.6-5.66,3.88c-.08.05,0,.18.09.14a34.82,34.82,0,0,0,10.72-8.56s0,0,0,0Z"/><path class="cls-1" d="M36.54,87.75a45.71,45.71,0,0,1-5.78,4.89c-1.17.81-2.38,1.51-3.62,2.21-.41.23-.82.3-.93.78a.14.14,0,0,0,.08.16l.11,0a.12.12,0,0,0,.13,0l.09-.11a.08.08,0,0,0,0-.09l-.06-.06a.06.06,0,0,0-.1.07c0,.08,5.08-3.18,5.55-3.54a32.39,32.39,0,0,0,4.58-4.26s0-.07,0,0Z"/><path class="cls-1" d="M36.78,85.48a64.21,64.21,0,0,0-8.62,6.79c-.13.12,0,.29.17.2a65.8,65.8,0,0,0,8.52-6.91.05.05,0,1,0-.07-.08Z"/><path class="cls-1" d="M37.06,85c-1.53,1.28-3.09,2.53-4.68,3.73S29,90.9,27.54,92.2a.11.11,0,0,0,.12.18c3.5-1.64,6.71-4.68,9.49-7.31.07-.07,0-.18-.09-.11Z"/><path class="cls-1" d="M35.46,86.51c-2.7,2-5.37,4.14-7.86,6.38-.18.16.06.42.25.28,2.67-2,5.3-4.22,7.76-6.49.11-.1,0-.25-.15-.17Z"/><path class="cls-1" d="M38.19,84.48a32.43,32.43,0,0,0-4.87,3.44c-.19.16,0,.42.24.28,1.27-.94,2.59-1.84,3.91-2.72.1-.07,0-.21-.11-.17a16.2,16.2,0,0,0-5.17,3.56.1.1,0,0,0,.13.15c1.39-1,2.66-2,4.12-2.92.22-.14,1.28-.7.2-.31a6,6,0,0,0-1.1.7c-.72.48-1.44,1-2.18,1.41l.2.3c1.53-1.26,3.16-2.37,4.73-3.58.07-.06,0-.18-.1-.14Z"/><path class="cls-1" d="M36.2,86.08l-3.09,2.37a22.19,22.19,0,0,0-3,2.46c-.08.08,0,.24.12.18a21.17,21.17,0,0,0,2.92-2.27l3.16-2.61c.08-.07,0-.19-.11-.13Z"/><path class="cls-1" d="M37.15,86.72c-.89.53-1.74,1.13-2.6,1.71a24.82,24.82,0,0,0-2.83,2,.12.12,0,0,0,.13.2,22.49,22.49,0,0,0,2.6-1.72c.95-.66,1.91-1.3,2.82-2,.09-.07,0-.24-.12-.17Z"/><path class="cls-1" d="M37.2,85.55c-.58.59-1.14,1.2-1.74,1.76a11.11,11.11,0,0,0-1.65,1.56c-.07.09,0,.19.13.15a6.53,6.53,0,0,0,1.84-1.52,18.1,18.1,0,0,0,1.6-1.79.12.12,0,0,0-.18-.16Z"/><path class="cls-1" d="M25.49,100.59a35,35,0,0,0-5.41,8.11s.06.09.09,0c1.79-2.73,3.44-5.47,5.4-8.09a.05.05,0,1,0-.08-.06Z"/><path class="cls-1" d="M25.21,102.21a18.28,18.28,0,0,0-4,5.84c0,.1.11.15.15,0a24.3,24.3,0,0,1,3.88-5.85s0-.06,0,0Z"/><path class="cls-1" d="M24.5,104.16a25,25,0,0,0-2.3,3.55c0,.08.09.13.14.07a24.83,24.83,0,0,0,2.25-3.56.05.05,0,0,0-.09-.06Z"/><path class="cls-1" d="M24.76,105.13c-.47.74-1,1.49-1.38,2.27-.06.12.14.22.21.11.49-.72.89-1.52,1.31-2.29.05-.09-.08-.18-.14-.09Z"/><path class="cls-1" d="M24.93,106a1.21,1.21,0,0,1-.19.58,1.76,1.76,0,0,0-.27.34s0,.1.08.09c.42,0,.57-.69.53-1,0-.09-.14-.07-.15,0Z"/><path class="cls-1" d="M28.26,91.64c-.74,1.91-1.74,3.65-2.54,5.52,0,.11.11.18.17.09a18.49,18.49,0,0,0,2.53-5.55.09.09,0,0,0-.16-.06Z"/><path class="cls-1" d="M28,91.86C27.15,94,26,96,25.24,98.1c0,.1.1.16.16.08a20.58,20.58,0,0,0,2.82-6.24.12.12,0,0,0-.22-.08Z"/><path class="cls-1" d="M27.6,92a51.11,51.11,0,0,1-2.91,6.45c0,.08.09.13.14.07a16.43,16.43,0,0,0,2.89-6.48.06.06,0,0,0-.12,0Z"/><path class="cls-1" d="M27.37,93.19a31.18,31.18,0,0,1-3.68,7.73c-.05.08.06.2.14.12a16.33,16.33,0,0,0,3.68-7.82c0-.08-.11-.1-.14,0Z"/><path class="cls-1" d="M26.44,94.51c-.35.75-.71,1.49-1,2.27,0,0,0,.06.06,0,.38-.74.7-1.5,1-2.27,0-.06-.07-.1-.1,0Z"/><path class="cls-1" d="M19.39,109c-1.31,3.58-2.76,7.11-4,10.7,0,0,.05.06.07,0,1.54-3.47,2.77-7.11,4-10.71Z"/><path class="cls-1" d="M34.08,83.85c4.53-3.34,10.71-4.77,15.92-6.7,0,0,0-.11,0-.1-2.88.91-5.71,2-8.52,3.09-2.56,1-5.27,1.88-7.4,3.66a0,0,0,1,0,0,0Z"/><path class="cls-1" d="M51.71,76.44c6.39-1.13,12.35-4.79,18-7.86,0,0,0-.1,0-.07-5.9,2.77-11.57,6.3-18,7.82-.08,0-.06.13,0,.11Z"/><path class="cls-1" d="M71.07,68.92c-2.87,1.41-5.81,2.88-8.57,4.5-.09.06,0,.2.07.16A74.42,74.42,0,0,0,71.12,69c.07,0,0-.15-.05-.11Z"/><path class="cls-1" d="M41.2,72.59a14.46,14.46,0,0,0,6.25-2.35c.06,0,0-.13-.07-.1a31.71,31.71,0,0,1-6.21,2.3.08.08,0,1,0,0,.15Z"/><path class="cls-1" d="M39.29,73.73c-2.26.79-5,3.08-5.47,5.55,0,.1.13.14.19.06a27.65,27.65,0,0,1,2.21-3.17,13.66,13.66,0,0,1,3.15-2.29c.1,0,0-.19-.08-.15Z"/><path class="cls-1" d="M39.87,73.92c-2,.45-4.71,2.34-5.34,4.41,0,.08.09.18.16.11.77-.81,1.32-1.76,2.17-2.5a14.14,14.14,0,0,1,3.06-1.88.08.08,0,0,0-.05-.14Z"/><path class="cls-1" d="M39.59,74.07c.31-1.07-2.25.49-2.37.57a9.52,9.52,0,0,0-4,5.18c0,.11.13.22.2.1a20.11,20.11,0,0,1,2.29-3.48A11.93,11.93,0,0,1,37,75.26c.08-.07,2.55-1.7,2.53-1.2,0,0,0,0,.06,0Z"/><path class="cls-1" d="M38,74.11a12.68,12.68,0,0,0-4.75,7c0,.08.09.15.14.07,1.59-2.41,2.35-5,4.67-6.94.06,0,0-.12-.06-.08Z"/><path class="cls-1" d="M37.15,74.88a13.33,13.33,0,0,0-4.75,7.64c0,.12.14.14.18,0a24.14,24.14,0,0,1,4.6-7.64s0-.06,0,0Z"/><path class="cls-1" d="M34.44,78.36c-.59,1.21-1.19,2.42-1.72,3.65,0,0,0,0,0,0,.62-1.2,1.18-2.43,1.73-3.65a0,0,0,1,0-.05,0Z"/><path class="cls-1" d="M48,70.06a53.52,53.52,0,0,0,9.39-3.18c3.36-1.49,7-1.58,10.33-3,0,0,0,0,0,0-3,1-6.14,1.1-9.07,2.32-3.53,1.46-7,2.71-10.66,3.84-.05,0,0,.1,0,.09Z"/><path class="cls-1" d="M68.57,64c2.81-1.16,5.89-.93,8.79-1.81A82.51,82.51,0,0,1,86.14,60a0,0,0,1,0,0-.08c-3.49.29-6.48,1.47-9.82,2.33-2.59.66-5.38.3-7.75,1.67,0,0,0,0,0,0Z"/><path class="cls-1" d="M86.06,61.29C81.44,63.7,76.71,66,72.18,68.58c-.06,0,0,.13,0,.1a113.09,113.09,0,0,0,13.84-7.35s0,0,0,0Z"/><path class="cls-1" d="M84.83,62.65a71.62,71.62,0,0,0-7.71,4.18c-.05,0,0,.1,0,.08a73.36,73.36,0,0,0,7.69-4.19s0-.09,0-.07Z"/><path class="cls-1" d="M90.38,58.65A43.62,43.62,0,0,1,83,64a.08.08,0,0,0,.07.15,22.7,22.7,0,0,0,7.43-5.38c.07-.07,0-.18-.1-.11Z"/><path class="cls-1" d="M40.93,73.49h0s0,0,0,0Z"/><path class="cls-1" d="M40.92,73.47a1.07,1.07,0,0,0-.16.14s0,0,0,0l.16-.13s0,0,0,0Z"/><path class="cls-1" d="M41,73.79c1.54-.88,3.4-.67,5-1.32,1.9-.76,3.55-1.82,5.59-2.23.06,0,0-.09,0-.09-1.87.14-3.38,1.17-5.06,1.9s-3.93.61-5.61,1.62c-.07,0,0,.16.06.12Z"/><path class="cls-1" d="M52.69,69.74c4.6-1.1,8.69-3.88,13.44-4.15,0,0,0-.06,0,0-4.74.1-9,2.87-13.46,4.16,0,0,0,0,0,0Z"/><path class="cls-1" d="M58.81,65.38c-4,.85-8.87,1.13-11.72,4.47,0,0,0,.09.07.06,3.36-3.07,7.46-3.36,11.66-4.47,0,0,0-.07,0-.06Z"/><path class="cls-1" d="M47.94,67.9c-2.19,1.19-4.46,2-6.7,3.08-.05,0,0,.11,0,.1A16.59,16.59,0,0,0,48,67.93s0,0,0,0Z"/><path class="cls-1" d="M46.11,65a26.76,26.76,0,0,1-4.39,3c-.08,0,0,.15.06.12a12.48,12.48,0,0,0,4.4-3s0-.13-.07-.08Z"/><path class="cls-1" d="M47,65.35c-1.28.92-2.66,1.67-4,2.56-.07,0,0,.17.09.13A19.86,19.86,0,0,0,47,65.39s0-.06,0,0Z"/><path class="cls-1" d="M47.69,65.24a31.76,31.76,0,0,1-3.77,2.42.13.13,0,0,0,.12.24,15.64,15.64,0,0,0,3.7-2.6s0-.09-.05-.06Z"/><path class="cls-1" d="M48.09,65.51c-.45.28-.88.59-1.32.9l-.68.48-.34.24a5.15,5.15,0,0,0-.46.44c.07,0,.08-.09,0-.13l0,0a.08.08,0,0,0-.11,0c-.09.07-.09.1-.09.21a.13.13,0,0,0,.09.1c.41.13.89-.45,1.2-.68.6-.46,1.22-.91,1.8-1.41.07-.06,0-.18-.08-.13Z"/><path class="cls-1" d="M48.4,65.89c-.46.27-.9.56-1.35.86a7.09,7.09,0,0,0-1.19.84c-.07.08,0,.21.11.16a6.55,6.55,0,0,0,1.21-.81c.43-.31.86-.62,1.28-1,0,0,0-.13-.06-.1Z"/><path class="cls-1" d="M48.63,66.3a13.82,13.82,0,0,0-2.17,1.35c-.08.07,0,.2.11.16a8,8,0,0,0,1.14-.71l1-.68c.07,0,0-.16-.08-.12Z"/><path class="cls-1" d="M48.64,66.5a3.1,3.1,0,0,1-.61.41c-.2.09-.42.14-.62.23,0,0,0,.11,0,.11a1.92,1.92,0,0,0,1.28-.67s0-.13-.07-.08Z"/><path class="cls-1" d="M46.27,64.53c-.59.39-1.18.76-1.76,1.15A9.83,9.83,0,0,0,43,66.77c-.06.07,0,.18.09.14a9.23,9.23,0,0,0,1.58-1c.57-.41,1.13-.83,1.7-1.23.05,0,0-.13-.06-.1Z"/><path class="cls-1" d="M47,64.3c-.67.58-1.32,1.16-2,1.66s-1.53.87-2.21,1.4a.1.1,0,0,0,.08.16,10.39,10.39,0,0,0,4.3-3.09c.07-.08-.07-.2-.14-.13Z"/><path class="cls-1" d="M46.14,65.05c-.88.62-1.75,1.26-2.66,1.84-.73.47-1.55.85-2.23,1.39-.06,0,0,.11.06.09a16.29,16.29,0,0,0,4.89-3.26s0-.09-.06-.06Z"/><path class="cls-1" d="M44.61,66.31c-1.94,1.15-4,2.2-5.88,3.38a6.53,6.53,0,0,0-2.92,3.09c-.05.14.16.21.22.08C36.88,71,38.6,70,40.34,69.1a33.32,33.32,0,0,0,4.31-2.73s0-.09,0-.06Z"/><path class="cls-1" d="M40.43,69a15.27,15.27,0,0,0-4.78,3.88.08.08,0,0,0,.12.11c.79-.65,1.47-1.43,2.24-2.1s1.6-1.28,2.42-1.88Z"/><path class="cls-1" d="M38.64,70.19a6.42,6.42,0,0,0-2.81,3s.06.09.09,0a9.5,9.5,0,0,1,2.76-2.92s0-.1,0-.07Z"/><path class="cls-1" d="M57,61.58a7.24,7.24,0,0,0-4.51,2.51s0,.11.08.07a26.43,26.43,0,0,1,2.2-1.56A17,17,0,0,1,57,61.7c.08,0,0-.13,0-.12Z"/><path class="cls-1" d="M57.55,62.09a7.29,7.29,0,0,0-4.44,2.14s0,.09.07.06a20.14,20.14,0,0,1,2-1.35,9.56,9.56,0,0,1,2.33-.79s0-.07,0-.06Z"/><path class="cls-1" d="M59,62c-1.54.31-3.63.9-4.76,2,0,0,0,.12.05.1.71-.24,1.35-.69,2-1a19.77,19.77,0,0,1,2.7-1c.09,0,.07-.18,0-.16Z"/><path class="cls-1" d="M58.35,62.72A8.38,8.38,0,0,0,55.13,64c-.06,0,0,.17.07.14.51-.16,1-.45,1.49-.66s1.13-.43,1.7-.63c.07,0,0-.14,0-.13Z"/><path class="cls-1" d="M57.82,61.44a30,30,0,0,0-3.22,1.14c-.7.28-1.59.59-1.78,1.41a.13.13,0,0,0,.23.11,4.87,4.87,0,0,1,2.32-1.48c.83-.36,1.67-.68,2.48-1.06.07,0,0-.14,0-.12Z"/><path class="cls-1" d="M56.8,62a5.68,5.68,0,0,0-4,1.9.13.13,0,0,0,.16.19c.6-.35,1.11-.81,1.73-1.13a14.26,14.26,0,0,1,2.13-.78c.09,0,.1-.18,0-.18Z"/><path class="cls-1" d="M93.16,56.22c-2,.49-4,1.05-5.89,1.72a.13.13,0,0,0-.06.1v.06a.1.1,0,0,0,.09.11h.07a.08.08,0,0,0,.09,0l0-.16c0-.06,0-.09-.08,0a.8.8,0,0,0,.75-.08l.83-.27,1.25-.4c1-.31,2-.61,2.93-.89.06,0,0-.12,0-.1Z"/><path class="cls-1" d="M92.74,56.67a44.56,44.56,0,0,0-4.57,1.07c-.07,0-.06.14,0,.12a40.4,40.4,0,0,0,4.55-1.15s0-.05,0,0Z"/><path class="cls-1" d="M103.24,53.81a17.68,17.68,0,0,1,3.56-.26.06.06,0,0,0,0-.11,8.35,8.35,0,0,0-3.58.31s0,.07,0,.06Z"/><path class="cls-1" d="M106.81,53.42a10.19,10.19,0,0,0-5.12,1.3.08.08,0,0,0,0,.14c.84-.24,1.64-.61,2.49-.84s1.72-.34,2.58-.53c0,0,0-.07,0-.07Z"/><path class="cls-1" d="M106.2,53.73a28.6,28.6,0,0,0-9.62,3.8s0,.11,0,.08a60.16,60.16,0,0,1,9.59-3.84,0,0,0,0,0,0,0Z"/><path class="cls-1" d="M96.89,57.58c-2.32,1.37-4.65,2.71-7.09,3.87a16.36,16.36,0,0,0-5.08,3.07s0,.1.06.06c3.51-3,8.35-4.32,12.19-6.89.06,0,0-.15-.08-.11Z"/><path class="cls-1" d="M97.82,56.75a44.4,44.4,0,0,0-5.51,3.68.05.05,0,0,0,.06.08,45.55,45.55,0,0,0,5.51-3.68s0-.11-.06-.08Z"/><path class="cls-1" d="M96.32,57.73C94.38,58.87,92.44,60,90.41,61c-1.65.8-3.44,1.4-4.74,2.74-.06.06,0,.14.08.09,3.29-2.38,7.27-3.64,10.61-6,0,0,0-.1,0-.07Z"/><path class="cls-1" d="M58.41,69.45c0,.13,0,.15.05.27a.61.61,0,0,0,.24.21.62.62,0,0,0,.63,0,.1.1,0,0,0,.05-.08.77.77,0,0,0-.77-.66c-.34,0-.74.33-.67.7a0,0,0,0,0,.09,0c.12-.25.22-.5.53-.55a.62.62,0,0,1,.66.53l0-.09a.5.5,0,0,1-.54,0,.69.69,0,0,1-.26-.32s-.06,0-.05,0Z"/><path class="cls-1" d="M63.36,70.12c0,.31.63.48.7.12s-.64-.5-.67-.14a.06.06,0,0,0,.07.06c.09,0,.3-.17.38,0s-.05.18-.12.18a.26.26,0,0,1-.25-.21.06.06,0,1,0-.11,0Z"/><path class="cls-1" d="M62.76,52.77a10.33,10.33,0,0,0-3.94,3.42.06.06,0,0,0,.1.07,15.72,15.72,0,0,1,3.9-3.37c.06,0,0-.15-.06-.12Z"/><path class="cls-1" d="M63.1,53.45a10.09,10.09,0,0,0-3.53,2.72c0,.07,0,.16.11.1.22-.18.46-.35.69-.53,0,0,0-.05,0,0l-.74.44.08.12a14.89,14.89,0,0,1,3.44-2.78s0-.05,0,0Z"/><path class="cls-1" d="M63.41,53.87c-1.09.77-2.2,1.53-3.27,2.34-.07.06,0,.14.07.14a.79.79,0,0,0,.57-.28s0-.08,0,0l-.54.18,0,.13c1.11-.76,2.18-1.58,3.25-2.38.06,0,0-.13-.08-.08Z"/><path class="cls-1" d="M63.34,54.73c-.83.56-1.66,1.13-2.44,1.77-.07.06,0,.16.09.13l.82-.31s0-.06,0,0l-.85.21.07.14c.82-.56,1.61-1.2,2.38-1.83,0,0,0-.1,0-.06Z"/><path class="cls-1" d="M63.74,55.19a9,9,0,0,0-1.13,1.1s0,.1.06.07a7.76,7.76,0,0,0,1.14-1.08c0-.05,0-.13-.07-.09Z"/><path class="cls-1" d="M64.54,52.64c4.11-1.76,8.7-2.35,12.66-4.43,0,0,0-.1,0-.08C73,49.77,68.53,50.6,64.52,52.59c0,0,0,.06,0,0Z"/><path class="cls-1" d="M59.14,56.9c-.69.78-1.39,1.54-2.14,2.26S55.56,60.37,54.91,61a.05.05,0,0,0,.06.08A17.17,17.17,0,0,0,59.23,57c0-.05,0-.1-.09-.06Z"/><path class="cls-1" d="M58.8,58.24a14.4,14.4,0,0,1-2.87,2.7c-.06.05,0,.16.08.12a9.19,9.19,0,0,0,2.83-2.79s0-.05,0,0Z"/><path class="cls-1" d="M59.79,58.11a19.34,19.34,0,0,1-3.23,2.83c-.08.06,0,.21.1.15s.24-.15.4-.27a0,0,0,0,0,0-.06,4,4,0,0,0-.44.17l.1.15a15.12,15.12,0,0,0,3.17-2.91s0-.09-.06-.06Z"/><path class="cls-1" d="M60.36,58.92l-1.16.88a9.12,9.12,0,0,0-1.15.9s0,.12.06.09A9,9,0,0,0,59.22,60l1.21-1a.05.05,0,1,0-.07-.08Z"/><path class="cls-1" d="M58.9,60.47c2.73-1.47,5.77-1.72,8.49-3.1a28.55,28.55,0,0,0,6.3-4.8,0,0,0,0,0,0,0c-2.2,1.92-4.38,3.94-7.13,5.06s-5.15,1.29-7.66,2.79c-.06,0,0,.13,0,.1Z"/><path class="cls-1" d="M75.58,50.93a42.7,42.7,0,0,1-4.5,4.32s0,.1,0,.07A16.67,16.67,0,0,0,75.63,51s0-.07,0,0Z"/><path class="cls-1" d="M62.43,12.65C64,14.8,63.6,18,63.64,20.52q.06,3.15,0,6.3c0,4.21-.17,8.41-.29,12.61,0,.12.18.13.18,0,.32-5.33.36-10.7.28-16,0-3.2.81-8.12-1.41-10.76,0,0,0,0,0,0Z"/><path class="cls-1" d="M57,21.11a15.08,15.08,0,0,0-1.72,9.19c0,.08.12.05.11,0A17.29,17.29,0,0,1,57,21.13s0,0,0,0Z"/><path class="cls-1" d="M57.22,22.64a18.06,18.06,0,0,0-1.28,7.55c0,.08.12.09.12,0a22.22,22.22,0,0,1,1.2-7.54s0-.05,0,0Z"/><path class="cls-1" d="M57.71,24.26a13.94,13.94,0,0,0-1,5.71s.08,0,.08,0a23.78,23.78,0,0,1,.9-5.69s0,0,0,0Z"/><path class="cls-1" d="M59.58,14.51c-1.12,2.78-2.33,5.62-3.18,8.5,0,0,.06.08.08,0,1.24-2.74,2.18-5.67,3.16-8.51,0,0,0-.06-.06,0Z"/><path class="cls-1" d="M55.49,31.34c-.71,4.92.88,9.72.14,14.59,0,0,.08.07.09,0A14.8,14.8,0,0,0,55.83,40a37.09,37.09,0,0,1-.3-8.68s0,0,0,0Z"/><path class="cls-1" d="M56.82,37c-.06,2.55-.35,5.09-.44,7.63a0,0,0,1,0,.08,0A42.4,42.4,0,0,0,56.84,37s0,0,0,0Z"/><path class="cls-1" d="M57.64,37.84c0,.95,0,1.89-.08,2.84,0,.44-.06.88-.1,1.31l-.06.66c-.17.27-.15.43.07.48,0,0-.06-.06-.07,0l-.09.38a.08.08,0,1,0,.16,0,43.23,43.23,0,0,0,.2-5.69,0,0,0,0,0,0,0Z"/><path class="cls-1" d="M58.57,37c0,2-.14,3.91-.32,5.87,0,.09.13.1.14,0A35,35,0,0,0,58.64,37s-.07,0-.07,0Z"/><path class="cls-1" d="M59.19,38.54c-.08.65-.13,1.31-.19,2a8.07,8.07,0,0,0-.06,1.7s.06,0,.07,0a8,8,0,0,0,.18-1.7c0-.66.08-1.32.09-2a0,0,0,0,0-.09,0Z"/><path class="cls-1" d="M59.76,38.73a32.38,32.38,0,0,0-.27,3.81,0,0,0,0,0,.09,0,30.41,30.41,0,0,0,.29-3.82.06.06,0,0,0-.11,0Z"/><path class="cls-1" d="M60.34,38.62c-.05,1.08-.34,2.15-.37,3.22a.06.06,0,0,0,.11,0,9,9,0,0,0,.4-3.23c0-.09-.14-.1-.14,0Z"/><path class="cls-1" d="M60.46,38.66a7.59,7.59,0,0,1,.06,1.07,7.66,7.66,0,0,0,0,.83,0,0,0,0,0,.09,0,3.14,3.14,0,0,0,0-1.94c0-.1-.15-.07-.15,0Z"/><path class="cls-1" d="M60.93,38.81a9.07,9.07,0,0,0-.15,2.07c0,.06.1.06.11,0a9,9,0,0,0,.16-2.07c0-.08-.12-.09-.12,0Z"/><path class="cls-1" d="M61.43,38.84c0,.35,0,.69,0,1a3.46,3.46,0,0,0,0,.91s.09.06.1,0a3.39,3.39,0,0,0,0-.9c0-.35,0-.69-.05-1,0-.08-.12-.09-.12,0Z"/><path class="cls-1" d="M62.28,38.91A5.3,5.3,0,0,0,62.35,40s.07,0,.08,0a6.15,6.15,0,0,0,0-1.05c0-.07-.11-.06-.11,0Z"/><path class="cls-1" d="M62.49,39a2,2,0,0,1,.08,1.49s0,.07.06,0A1.61,1.61,0,0,0,62.55,39a0,0,0,0,0-.06,0Z"/><path class="cls-1" d="M62.64,11.51a4.45,4.45,0,0,0,0,1.78s.05,0,.05,0a12.89,12.89,0,0,1,0-1.76,0,0,0,0,0-.06,0Z"/><path class="cls-1" d="M62.67,11.07c0,.93,0,1.91.14,2.84a.11.11,0,0,0,.21,0,10.84,10.84,0,0,0-.23-2.84c0-.06-.12-.06-.12,0Z"/><path class="cls-1" d="M62.8,10.79a7.17,7.17,0,0,0,.55,4.5.06.06,0,0,0,.12,0c-.08-.69-.32-1.36-.42-2.06A21.23,21.23,0,0,1,63,10.8a.08.08,0,1,0-.15,0Z"/><path class="cls-1" d="M37.23,5.84c-.24,2,.51,3.8,1.1,5.68a48.25,48.25,0,0,0,2,6.21c.74,1.54,2.11,2.41,3.15,3.75A29.81,29.81,0,0,1,46.79,28c0,.05.09,0,.07,0a23.55,23.55,0,0,0-5-8.41c-1.76-1.95-2.28-4.56-3.06-7-.69-2.15-1.71-4.38-1.47-6.69,0-.06-.09-.07-.1,0Z"/><path class="cls-1" d="M47.79,28.81a11.28,11.28,0,0,1,1,7.78s.07.06.09,0a9.56,9.56,0,0,0-1.06-7.8s0,0,0,0Z"/><path class="cls-1" d="M37.78,18.56A29.69,29.69,0,0,0,39.73,30.8c0,.06.13,0,.11,0a43.11,43.11,0,0,1-2-12.2,0,0,0,1,0-.09,0Z"/><path class="cls-1" d="M36.77,9.81c.64,3.06.89,6.11,1.28,9.2,0,0,.09,0,.09,0A40.38,40.38,0,0,0,36.82,9.8s-.06,0,0,0Z"/><path class="cls-1" d="M38.49,19.2a48.75,48.75,0,0,0,.62,7.73c.27,1.74.34,4,1.5,5.45,0,0,.11,0,.08-.05-1-1.65-1.24-4-1.53-5.9a70.12,70.12,0,0,1-.67-7.23Z"/><path class="cls-1" d="M40,24A19.68,19.68,0,0,0,41.6,32.3a0,0,0,0,0,.08,0A35.08,35.08,0,0,1,40.11,24S40,24,40,24Z"/><path class="cls-1" d="M41.55,25.91a13.36,13.36,0,0,0,.62,6.43,0,0,0,0,0,.08,0,22.32,22.32,0,0,1-.64-6.41,0,0,0,1,0-.06,0Z"/><path class="cls-1" d="M42.13,27.57a16.09,16.09,0,0,0,.3,4.16c0,.06.11.06.11,0-.07-1.39-.31-2.76-.35-4.15,0,0-.06,0-.06,0Z"/><path class="cls-1" d="M42.83,28.21a13.26,13.26,0,0,0,0,2.27c0,.34-.08,1.05.26,1.23a.06.06,0,0,0,.08,0c.07-.06.07-.07.06-.16a0,0,0,0,0,0,0h0a0,0,0,0,0,0,.08,5.87,5.87,0,0,1-.15-1.72c0-.55,0-1.1,0-1.64a0,0,0,1,0-.08,0Z"/><path class="cls-1" d="M43.33,29.15l.11,1.13a3.55,3.55,0,0,0,.14,1,0,0,0,0,0,.07,0,3.6,3.6,0,0,0-.07-1c0-.37-.1-.75-.14-1.12,0-.07-.12-.05-.11,0Z"/><path class="cls-1" d="M43.86,30.22a5.81,5.81,0,0,0,.32,1.37.06.06,0,0,0,.1,0A5.48,5.48,0,0,0,44,30.19a.07.07,0,0,0-.13,0Z"/><path class="cls-1" d="M44.4,30.85a15.61,15.61,0,0,0,.32,1.79s.05,0,0,0a15.58,15.58,0,0,0-.31-1.79s-.06,0-.05,0Z"/><path class="cls-1" d="M39.93,19.89A8.26,8.26,0,0,0,40,23.75s.07,0,.06,0A20.55,20.55,0,0,1,40,19.9a0,0,0,0,0-.07,0Z"/><path class="cls-1" d="M45.9,32.89c.63,1,1.31,2,1.84,3.13a21.67,21.67,0,0,1,1.1,4c0,.06.11.06.11,0,.15-2.7-1.41-5.11-3-7.16,0,0-.06,0,0,0Z"/><path class="cls-1" d="M44.74,30a9.82,9.82,0,0,1,1,1.82.1.1,0,0,0,.19,0c0-1.3-1.28-2.52-1.93-3.61-.92-1.54-1.68-3.19-2.66-4.69a.06.06,0,0,0-.1.05,28.92,28.92,0,0,0,2.67,5q.6,1,1.23,1.92c1.25,1.84,0-.14-.34-.5,0,0-.09,0-.06.05Z"/><path class="cls-1" d="M33,23.8c1.71,5,5.53,8.78,5.52,14.34,0,0,.07.06.07,0C39,32.78,34.93,28.47,33,23.77c0,0,0,0,0,0Z"/><path class="cls-1" d="M38.48,37.33a13.21,13.21,0,0,0,2.28,7.55c2.59,3.6,5,6.21,5.31,10.86,0,.07.12.06.12,0a13.55,13.55,0,0,0-2.61-7.6c-1.16-1.61-2.66-3-3.61-4.77a16.3,16.3,0,0,1-1.44-6,0,0,0,0,0-.05,0Z"/><path class="cls-1" d="M54.56,36.72l-.08-.12s0,0-.06,0l-.17,0a.08.08,0,0,0-.07.08c-.12,1.72.52,3.54.49,5.31a32.2,32.2,0,0,1-.87,5.69c0,.09.13.11.16,0a15.24,15.24,0,0,0,1-5.31,18.45,18.45,0,0,0-.06-2.35c0-.31-.28-3.27-.36-3.31s0,0,0,0Z"/><path class="cls-1" d="M54.67,40.32c-.25,2.39-.62,4.83-.76,7.22,0,.1.15.15.18,0a24.88,24.88,0,0,0,.68-7.25c0-.06-.1-.07-.1,0Z"/><path class="cls-1" d="M54.63,41.11c-.3,2.94-.82,5.84-1.18,8.77,0,.09.12.12.15,0a30,30,0,0,0,1.11-8.8,0,0,0,1,0-.08,0Z"/><path class="cls-1" d="M54.63,45.25a22.46,22.46,0,0,0-1.72,8.31.06.06,0,1,0,.11,0c.52-2.8.94-5.54,1.69-8.29,0-.05-.06-.08-.08,0Z"/><path class="cls-1" d="M53.79,49.67A10.57,10.57,0,0,0,52.94,54S53,54,53,54a15.2,15.2,0,0,1,.85-4.27s0,0-.05,0Z"/><path class="cls-1" d="M11.86,25.21c.35,2.32,1,5,2.87,6.63,0,0,0,0,0,0-1.74-1.92-2.24-4.15-2.88-6.59,0,0,0,0,0,0Z"/><path class="cls-1" d="M15.18,32.66C16.3,34,18,34.57,19.34,35.54a25.07,25.07,0,0,1,4.83,4.6s.06,0,0,0a19.49,19.49,0,0,0-3.82-3.93c-1.65-1.28-3.72-2.05-5.2-3.52,0,0,0,0,0,0Z"/><path class="cls-1" d="M21.25,35.79a21.92,21.92,0,0,1,2.93,3.51c0,.05.12,0,.09-.06a16.57,16.57,0,0,0-3-3.47s0,0,0,0Z"/><path class="cls-1" d="M22.26,35.6c.86,1.06,1.62,2.17,2.38,3.3,0,.06.13,0,.1-.07a24.37,24.37,0,0,0-2.41-3.29,0,0,0,1,0-.07.06Z"/><path class="cls-1" d="M23.35,35.89c.76.82,1.44,1.69,2.18,2.52,0,.07.15,0,.1-.09a26.14,26.14,0,0,0-2.24-2.47s-.06,0,0,0Z"/><path class="cls-1" d="M25.14,37a7.59,7.59,0,0,0,1.74,2.23s.08,0,.05,0a21.87,21.87,0,0,1-1.73-2.21s-.08,0-.06,0Z"/><path class="cls-1" d="M43.73,46.87a23.69,23.69,0,0,1,3.7,8.07c.5,2.18.49,4.43,1,6.59,0,.08.16.06.14,0-.7-2.78-.66-5.65-1.57-8.4a22.46,22.46,0,0,0-3.29-6.26s0,0,0,0Z"/><path class="cls-1" d="M47.92,54c.35,2.48.61,4.95.81,7.45,0,.07.14.06.13,0A62.43,62.43,0,0,0,48,53.93s-.08,0-.07,0Z"/><path class="cls-1" d="M48.7,54.75a25.93,25.93,0,0,0,1.1,6.84s.08,0,.08,0c-.31-2.29-.87-4.52-1.1-6.83,0,0-.08,0-.08,0Z"/><path class="cls-1" d="M49.77,55.69a53.56,53.56,0,0,0,.33,5.37c0,.09.17.08.17,0a53.77,53.77,0,0,0-.46-5.37s0,0,0,0Z"/><path class="cls-1" d="M50.33,56.17A23.73,23.73,0,0,0,50.5,60a.06.06,0,0,0,.11,0,22.92,22.92,0,0,0-.18-3.88c0-.06-.1,0-.1,0Z"/><path class="cls-1" d="M50.23,55.14a18.29,18.29,0,0,0-.93-6.47c-.75-2.94-.4-5.56-.45-8.52,0-.06-.09-.07-.1,0a22.34,22.34,0,0,0-.12,6.73c.53,2.83,1.72,5.31,1.53,8.26a0,0,0,0,0,.07,0Z"/><path class="cls-1" d="M39.13,7.14c.92,4.57,3.95,8.16,5.1,12.63a0,0,0,0,0,.07,0c-.71-4.49-4-8.16-5.12-12.62,0,0,0,0,0,0Z"/><path class="cls-1" d="M41.17,39.59a.66.66,0,0,0,0,.65s0,0,.06,0a.52.52,0,0,0,.27-.81.06.06,0,0,0-.07,0,.35.35,0,0,0-.19.45s.06,0,.06,0,.21-.46.2-.11a.46.46,0,0,1-.11.27c-.27.25-.27-.28-.22-.44s0,0,0,0Z"/><path class="cls-1" d="M47.38,49.18a.78.78,0,0,0,.25.77.07.07,0,0,0,.09,0c.2-.12.49-.5.33-.75s-.5-.08-.57.1,0,.1.08.07.31-.21.36,0a.49.49,0,0,1-.27.43l.1,0a1,1,0,0,1-.33-.66s0,0,0,0Z"/><path class="cls-1" d="M61.3,30.23c-.44.21.17.87.47.39.1-.16.11-.59-.1-.68s-.34,0-.44.11a.77.77,0,0,0-.28.34s0,.06,0,0,.5-.49.65-.27.05.59-.26.47c-.1,0-.19-.27-.06-.34a0,0,0,1,0,0-.05Z"/><path class="cls-1" d="M63.19,18a41.88,41.88,0,0,0-.47,6.31c.05.58.32,1.11.42,1.69a16.35,16.35,0,0,1-.1,3.63,0,0,0,1,0,.08,0,11.11,11.11,0,0,0,.1-4.37c-.6-2.3-.11-4.89,0-7.27a0,0,0,0,0,0,0Z"/><path class="cls-1" d="M.26,22.69a4.61,4.61,0,0,0,.52,1,2.17,2.17,0,0,0,.61.73.1.1,0,0,0,.14-.12A4.73,4.73,0,0,0,1,23.53c-.2-.3-.38-.62-.56-.93a.1.1,0,0,0-.17.09Z"/><path class="cls-1" d="M0,22.62a3.55,3.55,0,0,0,.32.95,1.91,1.91,0,0,0,.52.76c.08.06.16,0,.13-.12a9.12,9.12,0,0,0-.47-.79,7.91,7.91,0,0,1-.37-.84c0-.07-.14,0-.13,0Z"/><path class="cls-1" d="M.06,22.62c.23.42.48.83.74,1.24a5.71,5.71,0,0,0,.75,1.07.05.05,0,0,0,.09-.06,5.44,5.44,0,0,0-.71-1.18c-.25-.38-.51-.76-.79-1.13,0,0-.11,0-.08.06Z"/><path class="cls-1" d="M.44,22.86c.29.37.61.73.92,1.08a5.34,5.34,0,0,0,.91.93.08.08,0,0,0,.12-.11,4.9,4.9,0,0,0-.84-1c-.33-.35-.65-.7-1-1a.07.07,0,1,0-.11.1Z"/><path class="cls-1" d="M.19,22.22a7.3,7.3,0,0,0,2.36,2.94c.05,0,.11,0,.07-.07a15.78,15.78,0,0,1-2.38-2.9,0,0,0,1,0,0,0Z"/><path class="cls-1" d="M8.5,31c3.77,2.6,7,5.89,10.94,8.25,0,0,0,0,0,0-1.9-1.31-3.81-2.57-5.63-4s-3.42-3-5.33-4.25a0,0,0,1,0,0,0Z"/><path class="cls-1" d="M23.36,42.49c1.66,2.15,3.25,4.68,5.28,6.5,1.83,1.63,4.29,2.26,6.63,2.75.06,0,.09-.1,0-.12C32.56,50.91,30,50.25,28,48.07c-1.62-1.79-3.06-3.76-4.61-5.61a0,0,0,0,0,0,0Z"/><path class="cls-1" d="M27.55,44A25.92,25.92,0,0,0,31,47a0,0,0,0,0,0-.06c-1.15-1-2.35-2-3.47-3,0,0-.06,0,0,0Z"/><path class="cls-1" d="M28.19,43.94a24.15,24.15,0,0,0,3.12,2.58c.07,0,.14-.06.07-.11-1.08-.8-2.14-1.62-3.16-2.5a0,0,0,1,0,0,0Z"/><path class="cls-1" d="M28.9,43.61A14.58,14.58,0,0,0,31.71,46c.06,0,.11,0,.06-.09-.93-.79-1.92-1.51-2.82-2.34,0,0-.09,0-.05,0Z"/><path class="cls-1" d="M30.4,43.83A13.82,13.82,0,0,0,32,45.16s.05,0,0,0a13.35,13.35,0,0,0-1.63-1.36s-.08,0,0,.06Z"/><path class="cls-1" d="M31,43.74c.37.35.73.69,1.08,1.06s.64.78,1,1.14c0,0,.1,0,.07,0A9,9,0,0,0,31,43.71s0,0,0,0Z"/><path class="cls-1" d="M27.64,39.48c4.58,2.4,7.19,7,10.75,10.53.06.07.2,0,.15-.1a38.06,38.06,0,0,0-5.41-6.48,15.94,15.94,0,0,0-5.47-4s0,0,0,0Z"/><path class="cls-1" d="M38.4,50.24A33.38,33.38,0,0,0,41.91,55c1.35,1.47,3,2.51,3.82,4.41,0,.05.09,0,.08,0-.38-1.64-1.8-2.6-3-3.7a45.43,45.43,0,0,1-4.39-5.48s-.08,0-.06,0Z"/><path class="cls-1" d="M67.57,53.59c-.36.56.59,1,.79.38,0-.17,0-.48-.2-.52s-.57.35-.5.61a0,0,0,0,0,.08,0,.5.5,0,0,1,.25-.43c.22-.12.29.14.24.3-.14.48-.75.1-.59-.3,0,0,0-.06-.07,0Z"/><path class="cls-1" d="M84.68,43.48c-2.38.65-4.79,2.19-7.1,3.12-2.57,1-5.19,1.93-7.79,2.88a0,0,0,0,0,0,0,90.82,90.82,0,0,0,15.41-6.18s0-.05,0-.05l-.53.18s0,0,0,0Z"/><path class="cls-1" d="M90.91,40.8a38.1,38.1,0,0,0-7.16,2.68,0,0,0,1,0,0,.06c2.4-.85,4.73-1.85,7.15-2.66,0,0,0-.1,0-.08Z"/><path class="cls-1" d="M75.79,63.91a.62.62,0,0,0,.25.72.09.09,0,0,0,.07,0,.74.74,0,0,0,.35-.83s0-.05-.08-.05a.59.59,0,0,0-.45.31,0,0,0,0,0,.07.05.88.88,0,0,1,.41-.23l-.08,0c0,.17,0,.52-.17.61s-.31-.37-.28-.52-.07-.07-.09,0Z"/><path class="cls-1" d="M45.65,34.05c2.87,3.46,1.29,7.81,1.5,11.85,0,.05.06.05.06,0,0-3.93,1.43-8.65-1.5-11.9,0,0-.09,0-.06,0Z"/><path class="cls-1" d="M48.32,39.47c-.3,2.33-.61,4.68-.77,7,0,0,0,0,.05,0,.34-2.32.56-4.68.76-7,0,0,0,0,0,0Z"/></g></g></svg>