<svg xmlns="http://www.w3.org/2000/svg" viewBox="0 0 124.98 96.31"><defs><style>.cls-1{fill:#9e9d9d;}.cls-2{fill:#5c5c5c;}.cls-3{fill:#2b2c2c;}</style></defs><title>g2995</title><g id="Calque_2" data-name="Calque 2"><g id="_01" data-name="01"><g id="g2995"><path id="path3001" class="cls-1" d="M59.64,96.12c-.11-.18-1.4-2.7-2.86-5.61s-3.37-6.63-4.23-8.27-1.81-3.62-2.11-4.4-1.69-3.74-3.09-6.59-3-6.31-3.62-7.68-2.46-5.3-4.15-8.72-3.06-6.27-3.06-6.35c0-.57-2.87-6.15-3.1-6a5.87,5.87,0,0,0,.65,2.62c1.4,3.66,1.4,4,0,1.1a11,11,0,0,0-1.53-2.59,14.86,14.86,0,0,0-2.92,3.91c0,.51,1.2,3.89,3.29,9.24a36,36,0,0,1,1.62,4.65c-.07.07-.38-.55-.68-1.38-1.63-4.44-4.81-11.86-5-11.67-.49.48-6.95,9.59-9.76,13.75-3.7,5.47-4.71,7-9.31,14.35A133.76,133.76,0,0,1,1.89,87.81a7.13,7.13,0,0,1-1.5,1.65c-.71,0-.46-.71.84-2.38A109.1,109.1,0,0,0,10.6,72c1.18-2.24,2.38-4.43,2.67-4.86,1.17-1.74,3.8-6.78,12.43-23.87C27.84,39.07,30.51,34,31.64,32s2.43-4.5,2.89-5.58a7.45,7.45,0,0,1,1-2c.18,0,1.25,3.22,3.68,11a119.48,119.48,0,0,0,4,11.37c.41.91.85,2,1,2.37s.35.71.51.71.21-.2.12-.43c-.22-.58,7.25-15.19,10-19.61.77-1.22,2.17-3.94,5.81-11.24,1.21-2.43,2.64-5.17,3.18-6.09A11.17,11.17,0,0,0,65,10c.1-.49.35-.9.56-.9.55,0,1.42,1,1.42,1.7s1.28,4.32,3.2,9.29c.7,1.82,1.54,4.08,1.88,5s1,2.57,1.5,3.61c1,2.05,3.16,7.2,3.8,9s.78,1.71,1.66.22c1.1-1.89,4.22-7.83,5.21-10,1.93-4.1,2.72-5.49,3.16-5.49.26,0,.52.28.59.63a65.17,65.17,0,0,0,2.91,5.88c1.53,2.88,2.79,5.32,2.79,5.4s.67,1.32,1.49,2.75,2.68,4.94,4.12,7.79c3,6,5.25,10.18,6,11.31.29.43,1.1,1.84,1.79,3.14s1.81,3.27,2.46,4.39c2.34,4,5.17,9.19,5.17,9.42a3.44,3.44,0,0,0,.65,1.06c.36.46.57.83.48.83a4.55,4.55,0,0,0,.76,1.58,14.94,14.94,0,0,1,.93,1.73c0,.18,3.67,5.93,4.79,7.5.87,1.22.8,2-.14,1.59a2.09,2.09,0,0,1-.83-.88c-.2-.38-.54-1-.75-1.28-1.14-1.72-10.38-15.4-13-19.3-3.51-5.14-3.48-5.11-5.38-8.06-1.62-2.52-3.15-5-3.81-6.12-.25-.43-1.4-2.34-2.57-4.24s-2.54-4.18-3.06-5.08a8.59,8.59,0,0,0-1.33-1.86c-.21-.13,0,.46.51,1.31s1.65,2.94,2.59,4.65,2.59,4.46,3.68,6.12a55.37,55.37,0,0,1,4.26,7.15,25,25,0,0,0,1.81,3c1,1.51,3.07,4.73,4.63,7.16l3.85,6a6.43,6.43,0,0,1,.92,1.71c-.06.06-1.87-2.57-4-5.85s-5.47-8.34-7.38-11.23-4-6.25-4.69-7.46-1.45-2.55-1.75-3S94.71,48.29,94,46.91c-1.34-2.56-4.92-8.6-5.76-9.73s-.91-.26-.11,1.15l3.26,5.76c1.37,2.41,3,5.24,3.7,6.28,1.67,2.61,2.68,4.44,2.68,4.89,0,.2-2.33-3.48-5.17-8.2-5.21-8.64-5.68-9.35-6-9.05s.64,1.9,2.52,4.82c3.77,5.85,7.81,12.6,8.53,14.23.42,1,3.2,5.33,6.17,9.71,6.28,9.27,6.56,9.7,5.36,8.26-2.55-3-14.31-20.71-14.07-21.11a9.75,9.75,0,0,0-1.46-3c-2-3.4-7.52-11.68-7.71-11.68s-1.79,2.51-3.79,5.57l-5.6,8.56C75.49,55,73.86,57.53,73,59c-1.61,2.6-2.11,3.47-3.91,6.75a18.56,18.56,0,0,1-1.27,2c-.64.74-3.88,6.17-5.43,9.1-.77,1.47-2,3.66-2.74,4.87a22.31,22.31,0,0,0-1.57,3c-.22.74-.25.74-.67.18-.28-.4-.32-.7-.11-.91a1.64,1.64,0,0,0,.31-1A23.58,23.58,0,0,1,60,77c.64-1,3.37-6.72,4.65-9.8.84-2,6-12.73,10.39-21.45,2.5-5,2.51-5,1-6.64a14,14,0,0,1-1.55-2.49c-.52-1-2-3.34-3.2-5.18s-2.8-4.22-3.45-5.3A13.33,13.33,0,0,0,66.33,24c-.16-.1.15.57.7,1.49s1.45,2.45,2,3.4,1.82,3.14,2.83,4.86c1.91,3.28,4,7.67,3.84,7.88a15.81,15.81,0,0,1-1.62-2.84c-1.54-3-6.64-11.89-8.58-14.9-.81-1.25-1.16-1.58-1.36-1.26s1,3.07,3.63,7.51c.56.95,2,3.56,3.13,5.79s2.32,4.39,2.59,4.79.39.73.28.73c-.33,0-2.32-3.42-5.11-8.8-1.67-3.2-5-8.78-5.2-8.78s-.32.35-.43.78a1.91,1.91,0,0,1-.66,1.05c-.4.22-.33.59.46,2.43.51,1.19,2,4.14,3.32,6.55,2.19,4,2.57,4.92,1.87,4.46-.14-.09-1.66-2.92-3.39-6.29-2.64-5.15-3.21-6.06-3.57-5.71-.53.53-.18,1.73,1.57,5.33C63.3,33.8,63.84,35,63.84,35s-.21.11-.47.11a.46.46,0,0,1-.47-.43c0-.62-2.62-6.17-2.91-6.17-.64,0-.55,1.16.24,3a5.5,5.5,0,0,1,.66,2.24c-.32.33-.7-.28-1.28-2.06-.34-1-.66-1.56-.84-1.38s-.13.79.15,1.6.34,1.38.19,1.47c-.32.2-.92-.86-.92-1.63,0-.49,0-.5-.47-.09a147.38,147.38,0,0,0-9.48,14.19c-1.22,2.46-2.71,4.63-3.16,4.63s-.51-.11.26,2.07S46.63,56.3,48,60.42c1.23,3.73,3.46,10,4.81,13.5,2.71,7,3.74,9.84,5.31,14.44.94,2.77,1.82,5.55,1.95,6.18C60.3,95.71,60,96.74,59.64,96.12Zm-3.18-8.85c-.61-1.61-1.45-3.57-1.87-4.37s-1.78-3.71-3-6.47-3.5-7.5-5-10.52-4.82-9.7-7.35-14.84-4.65-9.34-4.72-9.34c-.45,0,2.85,7.81,5.1,12.09,1.95,3.7,2.07,4,4.18,8.64.89,2,2.5,5.37,3.58,7.53s2.42,5,3,6.28c1.59,3.67,7,14.19,7.16,14A21.68,21.68,0,0,0,56.46,87.27ZM54,89.54c-.74-1.51-1.75-3.74-2.24-4.94s-3.16-6.72-5.92-12.25S40.28,61,39.59,59.47a111.45,111.45,0,0,1-4.23-10.4,7.26,7.26,0,0,1,1,2C38.91,57.22,41,61.66,45.58,70.7c2.39,4.71,5.16,10.47,6.17,12.8,1.74,4,3.54,8,3.83,8.55.07.13.05.24,0,.24A16,16,0,0,1,54,89.54Zm59.93-11c-.17-.44-.13-.48.18-.17s.31.46.21.56S114.07,78.87,114,78.56Zm-69-.32c-.39-.5-.38-.51.12-.12s.69.67.43.67A2.14,2.14,0,0,1,45,78.24Zm65.54-.93c-.17-.45-.14-.49.17-.18s.31.47.22.57S110.61,77.62,110.5,77.31Zm-63.69-.49c-.46-.7-2.79-5.11-3-5.73-.41-1,.72.74,2.11,3.38C47.44,77.37,47.83,78.38,46.81,76.82ZM43,75.1C41.5,72.7,37.15,64,37.43,64a23,23,0,0,1,1.9,3.53c.92,1.94,2.39,4.73,3.25,6.2,1.94,3.29,1.86,3.14,1.67,3.14A9.55,9.55,0,0,1,43,75.1Zm63.1-1.57c-.66-1-1.82-2.59-2.58-3.54-1.87-2.32-8.69-12.79-10.18-15.62-.66-1.25-2.38-4.15-3.83-6.44-3.08-4.88-3.75-6.11-3.58-6.61.07-.21.72.68,1.44,2s2.15,3.7,3.18,5.34,2.66,4.4,3.64,6.12,2.38,4.06,3.12,5.18l3.4,5.26c1.14,1.76,2.83,4.24,3.75,5.49,1.78,2.43,3.19,4.64,3,4.64A11,11,0,0,1,106.08,73.53Zm-66.9-.42c-.12-.18-.14-.4-.06-.48s.23.07.34.33C39.67,73.52,39.49,73.61,39.18,73.11Zm62-3c-1.27-1.78-3.43-5.19-4.47-7.06a73.68,73.68,0,0,0-4.13-6.55c-.22-.16-3-4.73-7.38-12.17a3.87,3.87,0,0,1-.57-1.57c0-.44.14-.35.51.35a83.65,83.65,0,0,0,5.34,8.74,6.59,6.59,0,0,1,1.25,1.88c1.07,2.12,9.09,15.46,10.09,16.78.43.56.68,1,.57,1A6.24,6.24,0,0,1,101.13,70.14Zm-63,.72c-.32-.41-.91-2.09-.63-1.81a8.17,8.17,0,0,1,1.07,2.2C38.54,71.25,38.34,71.07,38.17,70.86Zm59.91-.61c-1.54-2.08-4.58-6.43-5-7.18-.25-.42-1.86-3-3.58-5.8S86.18,51.9,86,51.47c-2-3.83-2.67-5.44-2.59-5.88s.63.54,1.3,1.91S86.5,51,87.26,52.28a22.27,22.27,0,0,1,1.39,2.54c0,.36,4.79,8.08,7.36,11.88,2.93,4.31,3.08,4.55,2.92,4.55A5.56,5.56,0,0,1,98.08,70.25ZM43.1,70c-.19-.36-.29-.72-.22-.79s.3.22.49.66C43.81,70.78,43.6,70.89,43.1,70ZM99,69.29c-.53-.74-1.75-2.68-2.71-4.32s-3.28-5.56-5.16-8.7-3.41-5.8-3.41-5.91c0-.58.84.64,3.37,5,5.17,8.77,8.24,13.89,8.76,14.61.28.38.42.7.31.7A5.87,5.87,0,0,1,99,69.29Zm-62.06-1.1c-.11-.3-.53-1.32-.93-2.25a5.83,5.83,0,0,1-.61-1.82,17.67,17.67,0,0,1,1.91,4C37.55,68.87,37.21,69,36.93,68.19Zm4.77-1A5.58,5.58,0,0,1,41,65.4c.07-.07.51.6,1,1.49a5,5,0,0,1,.69,1.77C42.6,68.73,42.16,68.06,41.7,67.17Zm-8-.4c-.22-.56-1.08-2.92-1.91-5.26s-2.17-5.69-3-7.48-1.28-3.19-1.08-3.12c.44.15,2,3.85,3.74,8.72s2.82,7.54,3.14,7.54a.29.29,0,0,1,.28.31C35,68.21,34.12,67.72,33.74,66.77Zm56.33-5c-1.52-3-3.44-6.59-4.29-8C84.21,51.05,84,50.66,84.56,51s2.69,4.2,5.54,9.84c1.45,2.87,2.78,5.35,3,5.52.38.39.41.82,0,.82A41.34,41.34,0,0,1,90.07,61.75Zm-49.6,2.68c-.17-.44-.14-.48.17-.17s.31.46.22.56S40.59,64.74,40.47,64.43Zm-5.65-1.52a1.77,1.77,0,0,1-.06-1c.09-.08.26.22.37.68a1.65,1.65,0,0,1,0,1C35.1,63.67,34.93,63.37,34.82,62.91Zm4.74-.31c-.74-1.55-.63-1.81.14-.35a3.32,3.32,0,0,1,.51,1.33C40.14,63.65,39.85,63.21,39.56,62.6Zm-2.72.49c0-.17-.86-2.31-1.9-4.75a29,29,0,0,1-1.74-4.6c.18-.18.21-.12,2.51,5.5a17.17,17.17,0,0,1,1.41,4.16A.3.3,0,0,1,36.84,63.09Zm50.07-.71a49.15,49.15,0,0,0-3.57-7.15l-.62-.78.13,1.37a4.49,4.49,0,0,0,.47,1.78c.24.29.24.47,0,.62s-.39.17-.43.11a27.78,27.78,0,0,1-1-3.71,27.44,27.44,0,0,0-.62-2.92c-.09-.3,0-.55.16-.55s.43.38.54.85a8.42,8.42,0,0,0,1.27,2.22,61.1,61.1,0,0,1,4.5,8.64C87.71,63.39,87.1,63,86.91,62.38Zm-58-.24c-2.16-6.76-3-10-2.29-9.38a74.48,74.48,0,0,1,2.58,9.48C29.11,62.49,29,62.46,28.91,62.14Zm-2.58-1c-1-3.07-1.49-5-1.36-5.12s.59,1,2.06,5.12c.08.22,0,.39-.22.39A.55.55,0,0,1,26.33,61.12Zm-2.56-1A5.53,5.53,0,0,0,24,58.61c0-1.28.18-1,.43.63.17,1.1.12,1.33-.3,1.33S23.64,60.4,23.77,60.08Zm14-1.08c0-.17-1.27-3-2.83-6.26s-2.82-6.1-2.82-6.28c0-.83.53-.2,1,1.24.3.87,1.31,3.17,2.23,5.11,2.47,5.21,3,6.51,2.67,6.51A.31.31,0,0,1,37.78,59Zm42.53-4.23c-.75-1.81-.49-2.32.34-.64s.87,1.73.45,1.73C80.92,55.86,80.56,55.37,80.31,54.77ZM84,52.44a23.24,23.24,0,0,1-1.61-3.54c0-.63.81.53,2.08,3a28,28,0,0,0,1.45,2.6.48.48,0,0,1,0,.72C85.71,55.47,85.07,54.53,84,52.44Zm-52.3-2.13c-1-2.71-1.33-4.18-.86-4.18.19,0,.35.33.35.73a15.62,15.62,0,0,0,.79,3C33,52.83,32.77,53.13,31.69,50.31Zm41.11-7A4.25,4.25,0,0,0,72.16,42c-.44-.51-6.18-10.82-7.88-14.16a10.11,10.11,0,0,1-1.05-2.67c0-.33.55.54,1.21,1.92s2,3.85,2.86,5.49,2.08,3.76,2.59,4.71,1.5,2.68,2.18,3.84a7.35,7.35,0,0,1,1.12,2.51C73.11,43.91,72.94,43.74,72.8,43.3Zm-57.93-17a8.33,8.33,0,0,1-3.8-3.55,8.68,8.68,0,0,1-.3-2.33,3.17,3.17,0,0,1,.94-2.62,6.16,6.16,0,0,0,.95-1.26c0-.11-.49-.2-1.09-.2A2.79,2.79,0,0,1,9.38,15.2C8.06,13.87,7.72,12.39,8.2,10A4.33,4.33,0,0,1,9.84,7.13,5.39,5.39,0,0,1,14.4,5.44c1.53.29,1.35.79-.27.75a6.14,6.14,0,0,0-4.44,2,7.5,7.5,0,0,0-.81,4.92c.65,2.41,2.76,3.14,6.29,2.16,2.25-.63,3.33-.53,4.54.43a3.32,3.32,0,0,1,1.43,3.7c-.66,2.44-3.63,3.45-5,1.7-.88-1.13-.86-2.57.05-2.91,1.25-.46,2.27,0,2.38,1.17s-.47,1.39-.62.29c-.13-.87-1.34-1.14-1.64-.37a1.75,1.75,0,0,0,.3,1.31c.42.64.68.74,1.5.58a3.52,3.52,0,0,0,1.7-1c2-2.29-.72-5.25-3.89-4.21-2.5.82-4.06,2.24-4.48,4.08-.36,1.6.48,3.36,2.27,4.78,1.21,1,1.43,1,3.81,1,2.6,0,4.4-.61,4.77-1.57.25-.65.6-.57,1.5.33a2.67,2.67,0,0,0,1.54.78c1.2,0,5.23-2.16,5.62-3s.56-.92,2.05-.12,2.13.8,5.39-.34l2.76-1,1.18.63c.93.5,1.35.56,2,.31,1.62-.61,5.07-3.6,5.07-4.38,0-.12-.76-.19-1.7-.17-2.14,0-3-.62-3-2.31a2,2,0,0,1,2.13-2.2c1.24,0,1.83.88,1.16,1.76-.43.57-.45.57-.46-.11,0-.53-.19-.71-.75-.71a1.21,1.21,0,0,0-1.3,1.56,1.9,1.9,0,0,0,2.34,1.11c.71-.15.86-.32.72-.85s-.07-.63.66-.45S50,15.32,50,14c0-3.27-4.12-5.25-6.33-3-1.16,1.15-1.53,1.18-1.53.14,0-.62-.24-.91-1.06-1.25-2.84-1.19-5-.78-6,1.12-.58,1.12-.8,1-1.52-.55-1.17-2.6-5.27-4-8.15-2.81a9.92,9.92,0,0,0-2.47,2,11.09,11.09,0,0,1-1.63,1.62,3.09,3.09,0,0,1-.68-1.18c-.71-1.69-2-2.9-3-2.9-.48,0-.88-.13-.88-.28,0-.43,1.29-.67,1.9-.34A9.56,9.56,0,0,1,21,9.26c.33.56.43.52,1.67-.6a6.16,6.16,0,0,1,4.69-1.92,6.76,6.76,0,0,1,5.84,2c1,1.14,1.22,1.24,1.69.85A5.58,5.58,0,0,1,38,8.45a11.77,11.77,0,0,1,4.34,1.28c.3.25.78.2,1.82-.2a5.08,5.08,0,0,1,6.15,2.13c.74,1.21.82,3.32.17,4.18a2.69,2.69,0,0,0-.47,1.4,3.2,3.2,0,0,1-.51,1.5,20,20,0,0,1-4.81,3.66,1.73,1.73,0,0,1-2.14.05c-1.52-.72-2.55-.63-5.31.47l-2.44,1-1.55-.65-1.56-.66-.94.8A14.28,14.28,0,0,1,26,25.85a4.22,4.22,0,0,1-2.31-.32c-.87-.35-1.4-.43-1.54-.21-.35.56-3.15,1.34-4.69,1.31A11.23,11.23,0,0,1,14.87,26.25Zm86.81-.54A8,8,0,0,1,96,21.79c-.3-.52-.39-.51-1.56.12a5.45,5.45,0,0,1-5.17,0C87.77,21.09,87,19.66,87,17.53c0-1-.16-1.2-1.11-1.71a3.65,3.65,0,0,1-2.3-3.47,2.2,2.2,0,0,1,1-2.15c1.21-1,2.12-1.26,3.21-.84,1.29.49,1,.91-.48.75a2.15,2.15,0,0,0-2.2.68c-1.21,1.15-1.16,2.44.15,3.64,1.15,1.05,2.7,1.45,3.64,1A5,5,0,0,1,90.8,15c2.73,0,4,3.78,1.52,4.68-.89.33-2.1-.22-2.1-1,0-.55.81-.78,2.12-.61.59.08.48-.74-.18-1.34a3.09,3.09,0,0,0-3.33,0c-.79.79-.62,2.5.37,3.59a3.15,3.15,0,0,0,2.43,1.13,3.08,3.08,0,0,0,2.91-.79c1.72-1.26,2.28-1.26,2.28,0,0,2.18,3,4.51,5.82,4.47,2.36,0,4.23-1.15,4.23-2.53,0-.88.68-.83.81.06a2,2,0,0,0,.5,1,10,10,0,0,0,4.52,1.4c1.5,0,3.29-.81,3.49-1.57s.72-.85.72-.15-1.52,2-2.73,2.22a10.79,10.79,0,0,1-5.59-.79l-1.42-.63-1.1.65A6.41,6.41,0,0,1,101.68,25.71Zm15.08-3.58c-2.11-.92-3-3.19-2-4.88a3,3,0,0,1,4.57-.83c.81.69.84.81.45,1.54-.6,1.12-1.51,1.28-2.11.36-.48-.73-.37-1.4.23-1.4.17,0,.27.25.22.55-.12.7.8.74.93.05.06-.32-.25-.65-.82-.89a1.74,1.74,0,0,0-1.86.1c-1.65.85-1.8,2.48-.37,3.89s2.71,1.46,5.07.6c1.53-.55,2-.9,2.49-1.78,1.18-2.22.41-5-1.94-7-1.67-1.43-3.07-1.56-4.25-.38s-1.74,1-1.51-.11-.27-2.09-1.83-3.07a4.73,4.73,0,0,0-2.94-.81c-2.32,0-4.84,1.39-4.84,2.63a.55.55,0,0,1-.51.58c-.4,0-.46-.21-.31-1.07s0-1.28-.82-2.4c-1.45-1.89-2.36-2.47-4.34-2.79A19.51,19.51,0,0,0,92.4,6c-1.28.54-2.81,2.21-2.81,3.09,0,.33-.14.6-.31.6S89,9.33,89,8.87C89,7.74,91.26,5.49,92.89,5c2-.59,7.39-.8,8.78-.34a9.14,9.14,0,0,1,4.14,3.54c.42.82.53.87,1,.47a6.57,6.57,0,0,1,6-1.18c1.31.36,3.75,2.34,3.75,3,0,.38.19.43.86.23,2.43-.71,4.62.3,6.3,2.91,1.34,2.08,1.56,3.71.75,5.53s-1.67,2.37-4.08,2.93C118.24,22.66,118,22.66,116.76,22.13Zm-64.3-6.38c-.52-.07-.86-.32-.86-.62s.29-.45,1.86-.28c2.58.3,4.41-.55,5.22-2.42.72-1.65.66-1.58,1.06-1.33s-.34,2.17-1.17,3.1C57.37,15.55,55,16.14,52.46,15.75Zm1.42-5.59c-1-1-1.1-1.21-.94-2.58a2.88,2.88,0,0,1,.86-2c2-1.61,5.07.74,3.43,2.61l-.65.75.19-.9A1.67,1.67,0,0,0,55.2,5.93c-1,0-1.53.79-1.53,2.11,0,2.26,3.55,3.59,5,1.89a8.15,8.15,0,0,0,1.69-3.72c0-.9-1.7-3.17-2.89-3.88a5.11,5.11,0,0,0-6.44,1.56c-1,1.23-1.35,1.37-1.35.52s-1.9-2.75-3.38-3.31a7.38,7.38,0,0,0-7.55,1.25c-1.26,1.26-1.63,1.33-1.63.32s-1.39-1.58-3.43-1.3a4.14,4.14,0,0,0-2.84,1.49C30,3.76,29.61,4.38,29.61,5s-.13.85-.31.73c-.95-.58.36-3.16,2.18-4.32A7.7,7.7,0,0,1,34.17.68c1.49-.15,1.9-.07,2.69.51s.94.69,1.79.08c2.85-2,8-1.56,10.43.93l1.1,1.15,1.29-.93a7.26,7.26,0,0,1,5.88-.9A9,9,0,0,1,61.21,5.8c.22.9-1.31,4.39-2.2,5a5.18,5.18,0,0,1-2.33.45A2.92,2.92,0,0,1,53.88,10.16Z"/><path id="path2999" class="cls-2" d="M58.89,94.17c-.32-1-.69-1.79-.81-1.66s-.15,0,0-.27c.22-.6-1.07-4.5-2.53-7.64C55,83.39,53.4,80,52.07,77.06s-3.52-7.53-4.88-10.21-4.73-9.49-7.52-15.15-5.19-10.28-5.34-10.28-.08.51.19,1.13c.56,1.35.36,1.81-.25.55-.48-1-1.07-.93-1,.15.05.58,0,.66-.36.38s-.77.08-2,1.66c-1.48,1.87-1.57,2.07-1.29,3.05s.18,1.71-.16.64c-.11-.36-.33-.65-.48-.65s-1.77,1.94-5.36,6.9c-3.21,4.43-11.53,17-12.11,18.22a12.18,12.18,0,0,1-.92,1.41c-.39.52-1.24,1.86-1.89,3S7.39,80,7.25,80.2c-.38.45-3.76,5.18-4.38,6.12-1,1.48-2.4,3-2.62,2.77a7.38,7.38,0,0,1,1.49-2.51,106.49,106.49,0,0,0,8.72-13.92C11.71,70.24,12.84,68.13,13,68c.69-.9,5.8-10.58,10.18-19.31,5.19-10.34,6.1-12.08,9.25-17.74,1.06-1.9,2.15-4.06,2.43-4.79.61-1.59.91-1.68,1.17-.37a12,12,0,0,0,.63,2c.24.55,1,2.84,1.62,5.08,1.41,4.85,4.41,13.59,4.83,14.1a110.49,110.49,0,0,1,3.79,10.9c.51,1.66,1.44,4.42,2.07,6.12s2,5.44,3,8.29,2.43,6.6,3.1,8.32,1.84,5,2.61,7.23,1.56,4.5,1.78,5c.48,1.13.66,3.3.27,3.3A4.62,4.62,0,0,1,58.89,94.17Zm-2.43-4.71c-.26-.51-.41-.94-.33-.94a2.74,2.74,0,0,1,.65.94c.27.52.41,1,.33,1A2.71,2.71,0,0,1,56.46,89.46Zm65-3.06c-.31-.47-.79-1.26-1.05-1.74-.54-1-7-10.52-9.9-14.66-1-1.47-2.59-3.75-3.46-5.07s-2.36-3.58-3.34-5c-2-2.95-7.17-11.3-8.37-13.47C94,44,90.7,39.21,90.6,39.51a10.07,10.07,0,0,0,1.28,2.59c.76,1.26,2,3.39,2.66,4.71s2,3.59,3,5c3.14,4.82,5.2,8.42,4.81,8.42a29,29,0,0,1-1.76-2.59c-.92-1.43-2.06-3.18-2.56-3.9a7.7,7.7,0,0,1-.89-1.53,26.4,26.4,0,0,0-1.55-2.79,35.88,35.88,0,0,1-1.85-3.34c-.32-.82-5.26-9-5.73-9.54a.37.37,0,0,0-.51-.07,6.91,6.91,0,0,0,.94,2.57,16,16,0,0,1,1,2.35,14.87,14.87,0,0,1-1.27-1.89,7,7,0,0,0-1.43-1.88c-.41,0-.62.83-.3,1.16a9,9,0,0,1,.91,1.53L88,41.57l-.7-.82a11.58,11.58,0,0,1-1-1.38c-.35-.6-2,1.69-10.19,14.45-4.75,7.36-5.12,8-6.43,10.36-.66,1.21-2.26,3.9-3.57,6s-2.81,4.62-3.36,5.65c-2,3.89-3.35,6.26-4.09,7.35a4.51,4.51,0,0,0-.76,1.58c0,.33-.1.37-.35.12s-.24-.53,0-1a1.37,1.37,0,0,0,.2-.93c-.23-.37.93-3.07,3.47-8,1.23-2.42,2.62-5.39,3.09-6.59.83-2.12,6.33-13.55,10.86-22.54A42.89,42.89,0,0,0,77.35,41a8.12,8.12,0,0,0-1.28-2.09,17.12,17.12,0,0,1-1.7-2.72q-.54-1.28-7.5-11.82c-.54-.82-1-1.36-1.08-1.19a1.94,1.94,0,0,0,.42,1.09c.29.44.46.81.37.81a7.81,7.81,0,0,1-1.19-1.65c-.93-1.52-1-1.6-1.31-1s-.12,1,.38,2c.62,1.29.3,1.08-.73-.47-.37-.56-.43-.53-.94.55-.3.63-.7,1.14-.88,1.14s-.24.24-.13.54.11.44,0,.32c-.38-.38-1.07.43-1.07,1.26A14.89,14.89,0,0,0,62,31.29a16.73,16.73,0,0,1,1.15,2.8,17,17,0,0,1-1.47-2.8c-.75-1.6-1.41-3-1.47-3-.21-.27-1,1.09-.88,1.48.08.23,0,.34-.12.25-.58-.36-9,11.81-11.58,16.83a20.19,20.19,0,0,1-1.93,3.12l-.66.71v-1c0-.88,1.09-3.33,3.1-7,.34-.6,1.11-2.16,1.73-3.45,1.14-2.42,1.66-3.36,5.41-9.91,1.19-2.08,2.4-4.27,2.69-4.87,2.52-5.2,5.47-11,6-11.64a17,17,0,0,0,1.24-2.35l.65-1.53.6.78A3.09,3.09,0,0,1,67,11.17c0,.66.88,3.21,2.83,8.26.5,1.3,1.4,3.7,2,5.34s1.72,4.33,2.47,6,1.86,4.18,2.44,5.65,1.16,2.79,1.27,2.93c.34.4,4.87-7.92,7.79-14.31a20.24,20.24,0,0,1,1.4-2.75A28.36,28.36,0,0,1,89,25.48c4.23,8.25,6.41,12.39,7,13.16a3.84,3.84,0,0,1,.58,1,22.41,22.41,0,0,0,1.34,2.62c.73,1.32,1.68,3.18,2.11,4.13.78,1.73,4.4,8.44,6.25,11.56a20,20,0,0,1,1,1.76c0,.06.79,1.5,1.77,3.21s2,3.59,2.38,4.2.74,1.24.87,1.41,1.07,1.94,2.07,3.93a123.39,123.39,0,0,0,7.09,12.15,23.1,23.1,0,0,1,1.52,2.43C122.88,87.6,121.93,87.15,121.43,86.4Zm-66.67,0c-.51-1-.41-1.23.17-.41.27.39.42.79.33.88S55,86.72,54.76,86.37Zm-1.55-3.11c-.34-.8-.33-.82.11-.25a2.25,2.25,0,0,1,.47.86C53.79,84.35,53.58,84.13,53.21,83.26Zm-.94-1.82c-.52-1.15-.42-1.4.15-.35.26.49.42,1,.35,1S52.48,81.88,52.27,81.44Zm-2.05-4.39c-.3-.79-.21-1,.16-.36.18.31.26.64.18.72S50.33,77.33,50.22,77.05Zm-.78-1.76c-.22-.36-.33-.72-.25-.8s.32.15.52.53C50.19,75.9,50,76.13,49.44,75.29Zm-2.73-5.64a39,39,0,0,1-2-4.23A35.49,35.49,0,0,1,47,69.54a40.24,40.24,0,0,1,2,4.22A40.74,40.74,0,0,1,46.71,69.65Zm58.23-.52c-.39-.5-.38-.51.12-.12s.69.67.43.67A2.14,2.14,0,0,1,104.94,69.13Zm-2.79-1c-.18-.35-.26-.63-.17-.63s.3.28.49.63.26.63.18.63S102.34,68.45,102.15,68.11Zm-67.93-.52a.86.86,0,0,1-.21-.54c0-.2.15-.18.37,0s.3.44.21.53A.27.27,0,0,1,34.22,67.59Zm9.72-3.73c-.3-.79-.21-1,.16-.36.18.32.26.64.18.72S44.05,64.14,43.94,63.86Zm43.35-1a.92.92,0,0,1-.21-.54c0-.2.15-.18.37,0s.3.44.21.53A.27.27,0,0,1,87.29,62.88ZM28.87,61.66c-.31-.79-.22-1,.15-.36.19.32.27.64.19.72S29,61.94,28.87,61.66ZM26.37,61a1.07,1.07,0,0,1-.2-.71c0-.4.07-.39.34.08S26.75,61.37,26.37,61Zm15.35-2.21c-.17-.45-.13-.48.18-.18s.31.47.21.57S41.84,59.09,41.72,58.78Zm46.93-.09c-.18-.35-.26-.63-.18-.63s.31.28.5.63.26.63.17.63S88.84,59,88.65,58.69Zm8-2a9,9,0,0,1-1.39-2.9c.08-.41.27-.28.76.55A34.08,34.08,0,0,1,98.27,59,27.89,27.89,0,0,1,96.69,56.65ZM82.9,58.06a11.61,11.61,0,0,1-.33-1.41l-.17-.94.47,1a2.93,2.93,0,0,1,.34,1.41C83.12,58.4,83,58.36,82.9,58.06Zm11.62-1.72c-1.11-1.93-1.63-3.49-.73-2.2a17.43,17.43,0,0,1,2,4.08A6.65,6.65,0,0,1,94.52,56.34ZM26.84,54.86a4.16,4.16,0,0,1-.21-1.45c.06-.07.28.47.47,1.2a3.76,3.76,0,0,1,.22,1.45C27.24,56.14,27,55.6,26.84,54.86Zm13.31.78c-.17-.45-.13-.48.18-.18s.31.47.21.57S40.27,56,40.15,55.64Zm51.56-.48c-.28-.57-.83-1.5-1.21-2.09L89.79,52l.69.37c.38.2.68.5.68.67A6.34,6.34,0,0,0,92,54.61c.85,1.34.92,1.57.53,1.57C92.34,56.18,92,55.72,91.71,55.16Zm-11.07.39c-.1-.17,0-.32.3-.32s.49.15.49.32a.3.3,0,0,1-.3.31A.69.69,0,0,1,80.64,55.55Zm6.65-2.08a16.08,16.08,0,0,1-1.46-2.73c0-.55.49.09,1.64,2.14C89.51,56.51,89.39,56.91,87.29,53.47Zm-5.24,1.21A9.7,9.7,0,0,0,81.89,53c-.08-.44-.06-.58,0-.33a5.61,5.61,0,0,0,.82,1.1,6.34,6.34,0,0,1,.92,1.27c.17.34-.05.2-.5-.32l-.82-.94.2.86c.12.54.06.87-.16.87S82.05,55.16,82.05,54.68Zm2.08-2.24c-1.94-3.78-1.83-4.06.17-.41a15.36,15.36,0,0,1,1.44,3.08A10.91,10.91,0,0,1,84.13,52.44Zm-4,1.65a1.71,1.71,0,0,1-.19-1c.07-.07.28.3.46.83C80.84,55.13,80.6,55.25,80.16,54.09Zm5.51-.74c-.27-.52-.42-.94-.33-.94a2.81,2.81,0,0,1,.64.94c.27.52.42.94.33.94A2.81,2.81,0,0,1,85.67,53.35ZM28.09,51.92c-.52-1.15-.42-1.4.15-.35.26.49.42,1,.35,1S28.29,52.36,28.09,51.92Zm60.23-.48c-.19-.36-.29-.72-.22-.79s.3.22.49.66C89,52.26,88.82,52.36,88.32,51.44Zm-3.6-2.82c-.9-1.76-1.55-3.37-1.25-3.07a31,31,0,0,1,2.19,4.66A7.37,7.37,0,0,1,84.72,48.62Zm3.62,1c-.19-.34-.27-.63-.18-.63s.31.29.49.63.27.63.18.63S88.52,49.93,88.34,49.58Zm.94-2.2c-.19-.34-.27-.63-.18-.63s.31.29.49.63.27.63.18.63S89.46,47.73,89.28,47.38Zm-3.55-2.31a13.68,13.68,0,0,1-1.16-2.26,7.24,7.24,0,0,1,1.26,1.88A11,11,0,0,1,87,47,8.88,8.88,0,0,1,85.73,45.07ZM91,46.42c-.11-.18-.14-.4,0-.48s.23.06.33.33C91.48,46.82,91.3,46.92,91,46.42ZM89.35,43.9a6,6,0,0,1-.87-1.54,12.5,12.5,0,0,1,2,3A5.65,5.65,0,0,1,89.35,43.9Zm-2.55-.59a8,8,0,0,1-.87-1.89,14.32,14.32,0,0,1,2,3.65A6.14,6.14,0,0,1,86.8,43.31Zm4,.62c-.19-.35-.27-.63-.18-.63s.31.28.49.63.27.63.18.63S91,44.27,90.85,43.93ZM65.24,33.86c-.11-.19-.14-.4,0-.49s.23.07.33.34C65.73,34.26,65.55,34.36,65.24,33.86Zm-5.13-1c-.87-2.31-.74-3,.18-.94.29.64.59,1.28.66,1.41s0,.24-.23.24S60.25,33.25,60.11,32.86Zm-1.61,0a6.39,6.39,0,0,0-.2-1.18c-.13-.52-.09-.68.12-.47.47.47.78,2,.4,2A.37.37,0,0,1,58.5,32.86Zm3.65-5.12c-.3-.79-.21-1,.16-.35.18.31.27.64.19.72S62.26,28,62.15,27.74ZM15.43,26.29A7.67,7.67,0,0,1,13,24.92c-2.73-2.34-3-5.19-.7-7.86a7.58,7.58,0,0,1,5.56-1.92,4.09,4.09,0,0,1,3.23,3.46,3.45,3.45,0,0,1-3.94,3.21,2.51,2.51,0,0,1-1.39-3,1.78,1.78,0,0,1,2.45-.25c.45.46.49,1.4.06,1.67-.18.11-.28-.11-.24-.53.07-.61-.08-.74-.94-.83s-1,0-1,.69c0,1.7,1.59,2.24,3.38,1.14,1.49-.91,1.52-2.8.05-4.16C17.86,15,14.68,15.61,12.38,18c-1.8,1.86-1.66,4.05.42,6.24,1.4,1.48,2.63,2,5,1.94,1.5,0,1.9.05,1.25.2A6.9,6.9,0,0,1,15.43,26.29Zm6.49-1.4.94-1,.69.74c.9,1,2.11.95,4.33,0s2.28-.71.08.31c-1.89.88-3.55,1-4.55.29-.63-.44-.77-.43-1.56.08l-.87.56Zm78,.17a7.82,7.82,0,0,1-3.66-3.21L95.84,21l-1,.61a7.64,7.64,0,0,1-2.07.8,6.38,6.38,0,0,1-4.18-1,8.09,8.09,0,0,1-1.41-4.51c.13-.53,0-.75-.83-1.09-2.24-.94-3.24-3.1-2.23-4.82a3,3,0,0,1,3.51-1.42l1.18.26L87.24,10c-2,.13-3,1-3,2.57a2.51,2.51,0,0,0,1,2.06c1,1,1.53,1,5.07.74,1.22-.1,1.6,0,2.27.64,1.44,1.35.81,3.79-1,3.79-.75,0-1.49-.77-1.2-1.24a1.67,1.67,0,0,1,1.2-.3c.56,0,.76.11.46.18s-.55.3-.55.48c0,.4,1.33-.44,1.5-.95S91.57,16,90.54,16A2.73,2.73,0,0,0,88,18.24a4.2,4.2,0,0,0,2.07,3.09,4.94,4.94,0,0,0,4.71-.63c1.62-1.23,2-1.2,1.92.18,0,1,.19,1.35,1.4,2.49,2.3,2.18,5.21,2.59,7.64,1.09.86-.53,1.11-.89,1.11-1.6,0-1.17.49-1.19.72,0s1.93,2,4.6,2.15c2.3.14,3.37-.25,4-1.48l.42-.78-.1.77c-.13,1.15-1.77,2-3.86,1.94s-4.18-.54-4.89-1.17c-.44-.39-.6-.37-1.26.13A6.36,6.36,0,0,1,100,25.06ZM30.7,22.83l.86-1.07,1.55.77c1.41.69,1.67.73,2.83.38a3.09,3.09,0,0,1,1.43-.22c.17.17-2,.83-2.73.82a7.75,7.75,0,0,1-1.81-.61c-.73-.34-1.33-.49-1.33-.35s-.37.51-.83.81l-.82.54ZM38,22.27a6,6,0,0,1,1.78-.68c1.31-.35,1.61-.34,2.41.13,1.33.79,1.92.68,4-.76s3.27-2.7,3.27-3.47c0-.42-.17-.48-.87-.29a3.07,3.07,0,0,1-3.31-1,1.92,1.92,0,0,1,2.22-3c.72.27.94,1,.39,1.37-.17.11-.23,0-.13-.26.23-.62-.92-1-1.74-.52a1.71,1.71,0,0,0-.15,2.54,3.73,3.73,0,0,0,2.95.13c.26-.15.25-.33,0-.66-.47-.56-.1-1,.41-.5s.81.45,1-.57A4.39,4.39,0,0,0,49,11a5.16,5.16,0,0,0-4.71-.78A2.3,2.3,0,0,0,43.2,11.3c-.22.85-.71.74-.71-.15,0-.56-.3-.9-1.18-1.31-2.64-1.26-5.8-.77-6.23,1-.27,1.07-.66,1-1.18-.25-1.15-2.74-5.64-4.25-8.77-2.94-1,.43-3.37,2.76-3.37,3.35s-.6.24-.92-.72c-.53-1.62-2.13-3.36-3.1-3.39-.47,0-.66-.1-.44-.19.9-.36,1.92.27,2.89,1.78A6.12,6.12,0,0,0,21.42,10a4.23,4.23,0,0,0,1.15-1A6.48,6.48,0,0,1,27.8,6.88c2.17,0,4.95,1,5.55,2.09.87,1.53.89,1.54,1.66.84,1.67-1.5,4.33-1.54,6.79-.09,1,.55,1.11.57,2,.14,3.71-1.92,8.36,2,6.71,5.69a8.8,8.8,0,0,0-.6,1.69c-.16,1.34-.71,2-3,3.6-2.67,1.88-3.19,2-4.87,1.2-1-.49-1.22-.49-2.73,0C38.41,22.32,37.81,22.42,38,22.27Zm78.44-.59c-2.12-1.34-2.63-3.41-1.2-4.84a2.94,2.94,0,0,1,3.34-.84c1.59.66,1.44,3-.19,2.74-.48-.07-.67-.34-.71-1-.06-.85,0-.87.16-.18.29,1,.78,1.13,1.33.47.38-.45.34-.6-.3-1.11a2.39,2.39,0,0,0-3.74,2.76,4.77,4.77,0,0,0,3.39,2.3A10.69,10.69,0,0,0,123,20.42c2.48-2.16,1.36-6.64-2.18-8.71-1.23-.73-1.48-.77-2.49-.44a3.31,3.31,0,0,0-1.5,1c-.56.9-.88.72-.68-.39.14-.8,0-1.24-.82-2.22-.62-.78-.76-1.1-.38-.86a6.05,6.05,0,0,1,1.32,1.43c.59.86.83,1,1.3.75,1.76-.95,4.31.23,6.1,2.82a4.54,4.54,0,0,1,.94,3.33A4.29,4.29,0,0,1,124,20C122.52,21.93,118.31,22.88,116.4,21.68ZM11.24,16.07c-.87-.13-2.67-1.48-2.67-2,0-.13.42.18.92.69a3.12,3.12,0,0,0,1.65.92,2.59,2.59,0,0,1,1.2.31c.26.17.33.29.16.26Zm42.16-.34c-2.27-.15-1.78-.69.63-.69,2.7,0,3.95-.71,4.84-2.71.8-1.8,1.16-1.55.45.32C58.52,14.75,56.28,15.91,53.4,15.73ZM8.31,11.84A5.34,5.34,0,0,1,9.76,7.41c1.54-1.62,4.13-2.32,5.41-1.47.33.22.1.26-.8.12a4.27,4.27,0,0,0-2.75.5c-1.94.91-2.83,2.37-3.08,5l-.18,2Zm46.56-1a4.29,4.29,0,0,1-2-3.05,4.24,4.24,0,0,1,1.82-2.6,2.23,2.23,0,0,1,2.76,2.52c-.26,1-.76,1-.57,0a1.8,1.8,0,0,0-1.54-2c-1.7,0-2.48,2.82-1.13,4.1,1.69,1.6,3.39,1.64,4.84.1.59-.63,1-1.21.91-1.3s.06-.58.33-1.09c.63-1.21.41-2-1-3.67a5.8,5.8,0,0,0-4.1-2.27c-.75,0-.78-.06-.16-.18a6.12,6.12,0,0,1,2.2.36,4.83,4.83,0,0,1,2.66,2.11A5.74,5.74,0,0,1,61,6.21a8.52,8.52,0,0,1-2.23,4.55A4.46,4.46,0,0,1,54.87,10.82Zm50.56-.7a2.63,2.63,0,0,0-.72-2.51C102.84,5,100.09,4.22,95.7,5c-3.59.61-6,2.22-6.19,4-.06.81-.55.94-.54.14A5,5,0,0,1,91.27,6C93.71,4.45,99.68,3.89,102,5a12,12,0,0,1,4,3.78c.09.29.55.17,1.66-.42a7.75,7.75,0,0,1,5.7-.49c1.26.49.8.62-.85.24A7.67,7.67,0,0,0,110,7.93c-1.46.28-3.66,1.74-3.78,2.51a1,1,0,0,1-.52.76C105.32,11.31,105.27,11.07,105.43,10.12Zm-76.32-5c-.19-.48.78-2.37,1.21-2.37.14,0-.05.41-.43.92a2,2,0,0,0-.49,1.41c.11.27.12.5,0,.5S29.2,5.41,29.11,5.16Zm20.71-1a9.37,9.37,0,0,0-1-1.67l-.76-1.1.91,1a4.36,4.36,0,0,0,1.12,1,8.07,8.07,0,0,0,1.52-.94,4.62,4.62,0,0,1,2-.93c.49,0,.39.12-.41.47A8.16,8.16,0,0,0,51.08,3.6C50.15,4.59,50,4.65,49.82,4.15ZM37.46,2.81a2.1,2.1,0,0,0-.82-1.25c-.46-.36-.69-.65-.51-.65a1.28,1.28,0,0,1,.71.47c.53.65,1,.59,2.55-.31A5.32,5.32,0,0,1,42.8.33c1.13,0,1.55.1,1,.16-3.46.34-3.81.45-5,1.7C37.7,3.19,37.46,3.3,37.46,2.81Zm-6.28-.92a6.6,6.6,0,0,1,4-1.21c.45.12.4.16-.2.19a12.08,12.08,0,0,0-3.77,1.24l-.78.41Zm15.48-.8C45.28.59,45,.23,46.27.6a4.08,4.08,0,0,1,1.36.61C48,1.58,48,1.58,46.66,1.09Z"/><path id="path2997" class="cls-3" d="M59.19,94.41a102.79,102.79,0,0,0-3.48-9.91c-.2-.38-.24-.69-.08-.69.45,0,1.07.88.86,1.22a.35.35,0,0,0,.1.49,20.44,20.44,0,0,1,1.46,3.71c.64,1.94,1.32,3.81,1.51,4.16.37.69.48,2.35.15,2.35C59.59,95.74,59.36,95.14,59.19,94.41ZM.41,89a44,44,0,0,1,4-5.61A9.48,9.48,0,0,1,2.81,86.1a18.55,18.55,0,0,0-1.23,1.71C.77,89.06.41,89.41.41,89Zm121.12-2.74a8.16,8.16,0,0,1-.85-1.25c0-.15-2.53-3.94-7.07-10.58C104.92,61.66,98.54,51.8,94.3,44.56,93,42.26,90,38,89.69,38c-.07,0,0,.18.07.39s-.17,0-.62-.55-1-1.16-1.28-1.43a1.68,1.68,0,0,1-.46-.87.33.33,0,0,0-.29-.36c-.32,0,0,1.75.55,2.73s.42,1.28-.22.32c-.5-.76-.63-.82-1-.41a.8.8,0,0,0-.2.77c.11.17,0,.35-.25.41s-2.61,3.25-5.62,7.95a20.22,20.22,0,0,1-1.61,2.16c-.44.5-.71,1.07-.6,1.26s.09.25,0,.13c-.33-.29-2.69,2.09-2.69,2.73,0,.28-.13.43-.29.33s-.36,0-.46.22-.1,0,0-.39.09-.7-.18-.44A3.67,3.67,0,0,0,74,54.45c-.16,1-.11,1.15.25,1s.15,0-.19.28-.63.6-.63.72a9.23,9.23,0,0,1-1,1.65,10.62,10.62,0,0,0-1.34,2.74,3.68,3.68,0,0,1-.7,1.52,7.6,7.6,0,0,0-1.12,2,11.6,11.6,0,0,1-1,1.92A20,20,0,0,0,66,70c0,.16-.46.59-1,1s-.77.58-.47.48c.76-.25.69.19-.11.69-.36.22-.58.49-.48.59S62.55,76,60.89,78.79C60.53,79.4,59.67,81,59,82.3s-1.37,2.33-1.52,2.23-.11-.32.08-.5A1.81,1.81,0,0,0,57.88,83c0-.92.46-2,3.82-8.65,1.54-3,2.85-5.81,2.91-6.12a25.77,25.77,0,0,1,1.24-3c.62-1.33,1.13-2.5,1.13-2.6s.76-1.58,1.69-3.28,2.14-4.21,2.7-5.57S73.58,49,75,46.18c2.29-4.46,2.58-5.21,2.27-5.8a3.86,3.86,0,0,0-.57-.85,17.58,17.58,0,0,1-2.21-3.35,11.93,11.93,0,0,0-1.07-2,5.24,5.24,0,0,1-.9-2c.1-.1-.06-.27-.34-.38s-.44-.31-.35-.46-.12-.42-.47-.61a1.18,1.18,0,0,1-.64-.88,1.33,1.33,0,0,0-.62-.93.76.76,0,0,1-.43-.87c.12-.31,0-.45-.23-.4a.33.33,0,0,1-.43-.31.89.89,0,0,0-.37-.63,2.13,2.13,0,0,1-.59-1,2.59,2.59,0,0,0-.78-1.16,3.6,3.6,0,0,1-.94-1.34c-.3-.73-.5-.88-.8-.63s-.47.23-.64,0-.1-.29.13-.15.36.09.36-.07-.35-.37-.78-.45-.82,0-1,.43a1.36,1.36,0,0,0,0,.9c.11.17,0,.32-.16.32-.52,0-1.32.89-1.11,1.23s-.39.79-1.07.8c-.26,0-.52.29-.57.64a6.86,6.86,0,0,1-.29,1.09,1.57,1.57,0,0,0-.14.72c0,.14-.26.08-.65-.12-.61-.33-.66-.32-.34.06s.14.76-.72,1.95c-.68.94-1.29,1.47-1.62,1.41s-.55.05-.57.22a5.4,5.4,0,0,1-.4,1.2,6.32,6.32,0,0,0-.36,1,19,19,0,0,1-2.77,3.73c-.08-.08,0-.36.25-.62s.3-.48-.15-.48-.51.19-.36.93c.1.51,0,1-.13,1.12a7.49,7.49,0,0,0-1.1,1.66c-.44.81-1.3,2.18-1.9,3a36,36,0,0,0-2.2,3.76C46,49.56,45.63,50,45.23,49.62s1.55-4.5,2.56-5.58c.35-.37.55-.75.46-.84s0-.5.33-.89.5-.56.51-.26.06.38.26.05A1.74,1.74,0,0,0,49.48,41c-.15-.79,1.36-3.77,5.55-11,.89-1.53,3.1-5.76,4.92-9.4s3.55-7,3.86-7.41A14.75,14.75,0,0,0,65,10.88c.92-2.29,1-2.21,2.88,3.37.7,2.08,1.79,5.18,2.42,6.91s1.28,3.57,1.44,4.08a29,29,0,0,0,2,4.56,71.35,71.35,0,0,1,3.53,8.08c.29.91.69,1.65.89,1.64.53,0,4.66-7.62,7.55-13.88,1.27-2.77,2.07-3.79,2.07-2.64a8.64,8.64,0,0,0,.9,2.12c.49.93,2.1,4,3.57,6.88,3,5.82,4.74,9,5.73,10.67.37.61,1.68,3.17,2.91,5.69s3,5.83,3.83,7.35a18.38,18.38,0,0,1,1.59,3.18c0,.23.1.43.23.43s.39.32.58.71,1.44,2.61,2.78,4.94,2.8,4.87,3.24,5.65l1.51,2.67c.4.69,1,1.75,1.23,2.35.62,1.33,5,8.58,6.06,10a2.54,2.54,0,0,1,.64,1.37C122.44,87.18,122,86.84,121.53,86.22Zm-42.61-41c0-.19-.14-.25-.32-.14s-.31.25-.31.33.14.14.31.14A.32.32,0,0,0,78.92,45.17Zm2.82-4.55c-.34-.4-.32-.44.12-.28.28.11.51,0,.51-.15,0-.45-.84-.45-1.12,0a.48.48,0,0,0,.22.63C82.1,41.22,82.18,41.16,81.74,40.62Zm1.37-2.19c.1-.26,0-.47-.12-.47s-.31.21-.31.47.06.47.13.47S83,38.69,83.11,38.43ZM4.83,82.74c0-.33.06-.52.16-.41a.61.61,0,0,1,0,.6C4.92,83.18,4.84,83.1,4.83,82.74Zm1.23-2.07c.19-.34.47-.63.64-.63s.13.28-.08.63-.51.63-.65.63S5.88,81,6.06,80.67ZM7.33,79A15.57,15.57,0,0,1,9,76.33c.07-.07.05.15,0,.48C8.84,77.45,7.35,79.42,7.33,79ZM52,76.69c-2.56-5.55-2.91-6.32-3.27-7.19a9.16,9.16,0,0,1-.41-1.13,1,1,0,0,0-.25-.44.47.47,0,0,1,.08-.61c.22-.27,0-.76-.95-1.69-1.41-1.44-2.9-4.46-2.63-5.3.12-.36.08-.42-.1-.17s-.52-.14-1-1.25c-.42-.9-.77-1.71-.78-1.79s-1.32-2.73-2.91-5.86a47.6,47.6,0,0,1-2.9-6.36c0-.36-.16-.66-.35-.66s-.28-.27-.19-.63,0-.62-.14-.62-.22-.13-.12-.29-.27-.52-.82-.79c-1.21-.6-1.32-.61-1.11-.06.12.31,0,.39-.44.28s-.76.17-.64.94c0,.12-.14.23-.37.23-.46,0-3.36,3.66-3.36,4.25a.7.7,0,0,1-.45.57c-.4.15-1.29,1.32-4.14,5.41A29.73,29.73,0,0,1,22.83,56a21.42,21.42,0,0,0-1.72,2.27c-2.3,3.54-3.29,5-3.45,5.18a7.84,7.84,0,0,0-.78,1.18c-.58,1-1.08,1.33-1.08.7a.3.3,0,0,1,.3-.31c.17,0,.21-.24.1-.54s-.24-.44-.35-.08a2.7,2.7,0,0,1-.58.87c-.58.58-.52,1.11.1.87.43-.16.45-.11.12.28s-.52.4-.67.31-.19,0-.08.33,0,.56-.47.68-.69.3-.71.46-.06.4-.08.56a1.08,1.08,0,0,1-.25.5.7.7,0,0,0-.05.66c.1.26,0,.44-.33.44s-.72.43-1,1-.58.9-.66.81C11,71.85,12,70,12.37,70c.18,0,.23-.15.11-.34s.09-.75.45-1.24a3.61,3.61,0,0,0,.67-1.23c0-.18.11-.33.24-.33s.41-.39.61-.86.88-1.78,1.51-2.91,1.65-2.95,2.26-4.08,1.3-2.32,1.54-2.66a2.57,2.57,0,0,0,.43-1.25,4.54,4.54,0,0,1,.68-1.74c.37-.6,2.64-5,5-9.84,4.32-8.65,5.82-11.3,7.16-12.71.38-.4.62-.8.53-.89-.24-.24,1.44-4.08,1.82-4.18.54-.15,3.12,7.59,3.49,10.49a2,2,0,0,0,.41,1.1,5.57,5.57,0,0,1,.76,1.74A71.64,71.64,0,0,0,43,46.91c.22.34,1.9,5.13,3.74,10.63s3.81,11.22,4.39,12.72a72.42,72.42,0,0,1,2.69,7.92c0,.18-.13.25-.28.15a.26.26,0,0,0-.4.16C53,78.68,52.55,77.87,52,76.69Zm-.73-4.21c-.2-.36-.42-.59-.49-.52-.22.22.22,1.17.55,1.17C51.49,73.13,51.46,72.84,51.27,72.48Zm-1.7-3.09c-.1-.16,0-.34.2-.41s.21-.19-.12-.32-.47,0-.4.33c.13.71.12.69.32.69S49.67,69.55,49.57,69.39Zm-.17-2.07c0-.26-.14-.47-.31-.47s-.22.21-.12.47.24.48.3.48S49.4,67.58,49.4,67.32ZM22.29,55.39c0-.26,0-.47-.07-.47a2.38,2.38,0,0,0-.46.47c-.31.38-.3.47.07.47A.47.47,0,0,0,22.29,55.39Zm5.13-6.77c0-.18-.15-.24-.32-.14s-.31.26-.31.33.14.14.31.14A.33.33,0,0,0,27.42,48.62Zm11.41-1.09c-.1-.27-.25-.42-.34-.34s-.05.3.06.49C38.86,48.18,39,48.08,38.83,47.53Zm-.42-1.4c-.25-.16-.53-.21-.61-.13s0,.29.29.44.53.21.61.12S38.66,46.28,38.41,46.13Zm1.25.19A12.4,12.4,0,0,0,39.12,45c-.52-1.19-.54-1.2-.64-.36a1.91,1.91,0,0,0,.3,1.32C39.16,46.38,39.66,46.59,39.66,46.32Zm-6.28-7.59c0-.27-.14-.4-.31-.3a.67.67,0,0,0-.32.49.31.31,0,0,0,.32.3C33.24,39.22,33.38,39,33.38,38.73Zm67.28,18.94a8.71,8.71,0,0,1-.68-1.18c-.36-.76-.35-.76.14-.16s1.17,1.73,1,1.73S100.84,57.88,100.66,57.67ZM82.24,55.28c-.14-.22-.16-.49-.06-.59.28-.28.59.13.44.59S82.44,55.6,82.24,55.28Zm5.67-.83c-.1-.26-.13-.47-.07-.47a1.78,1.78,0,0,1,.5.47c.22.27.25.47.07.47S88,54.71,87.91,54.45Zm9.84-1.58c-.22-.26-.33-.54-.26-.61s.31.14.52.48C98.46,53.47,98.31,53.55,97.75,52.87ZM86,51.24c-.17-.44-.13-.48.18-.17s.31.46.21.56S86.12,51.55,86,51.24ZM60.25,33c-.17-.45-.13-.48.18-.18s.31.47.21.57S60.37,33.34,60.25,33Zm47-10c0-.52.06-.77.15-.56a1.85,1.85,0,0,1,0,.94C107.32,23.74,107.25,23.56,107.24,23.05Zm-17.8-1.28c-1.07-.56-1.43-1.07-1.89-2.65s-.24-2.67.59-3.12,2.4-.65,2.4-.29c0,.15-.29.27-.63.27a2.09,2.09,0,0,0-1.23.6c-.33.33-.66.54-.74.47-.33-.33.33,2.62.73,3.24.5.8.91,1,2.61,1.35a4.68,4.68,0,0,0,4.09-1.1c.9-.78,1.55-.81,1.27-.06a1,1,0,0,1-.78.44,3.49,3.49,0,0,0-1.45.69C93.4,22.41,90.82,22.49,89.44,21.77Zm1.27-2.61c-.24-.39.66-1.08,1.15-.88.24.1.17.17-.18.19s-.52.18-.4.49C91.47,19.46,91,19.62,90.71,19.16Zm2.36-1.11c0-.33.06-.52.17-.42a.67.67,0,0,1,0,.61C93.16,18.49,93.09,18.41,93.07,18.05ZM12.55,17.1A3.3,3.3,0,0,1,13.91,16c.27,0,0,.46-.72,1.08C11.67,18.48,11.4,18.48,12.55,17.1Zm36-.4c.39-.1.5-.33.37-.75s-.05-.6.16-.6.27.13.17.29a.34.34,0,0,0,.11.47c.16.1.37-.05.48-.33s.28-.44.37-.35c.4.4-.69,1.49-1.44,1.46C48.22,16.86,48.15,16.81,48.55,16.7Zm6.5-1.16c0-.07.22-.21.49-.31s.4-.05.29.13S55.05,15.8,55.05,15.54ZM47.85,14c0-.33.06-.51.17-.41a.65.65,0,0,1,0,.6C47.94,14.4,47.87,14.33,47.85,14Zm68.34-1.73c.09-.36.29-.65.45-.65.42,0,.33.51-.17.92S116.05,12.76,116.19,12.23Zm-57.06-.31a.65.65,0,0,1,.31-.49c.18-.11.23,0,.13.29C59.36,12.27,59.13,12.37,59.13,11.92ZM42.65,11c-.11-.18,0-.32.13-.32a.33.33,0,0,1,.34.32c0,.17-.07.31-.14.31S42.75,11.13,42.65,11Zm-21.36-.32c-.11-.17,0-.31.14-.31a.32.32,0,0,1,.33.31c0,.17-.06.32-.14.32S21.4,10.81,21.29,10.64Zm84.23-.32a1.85,1.85,0,0,1,.83-1c.65-.34.65-.33.12.27a2.17,2.17,0,0,0-.55,1c0,.2-.13.37-.28.37S105.43,10.67,105.52,10.32ZM50,4.07a.33.33,0,0,1,.31-.34c.17,0,.31.07.31.14s-.14.23-.31.33S50,4.25,50,4.07Z"/></g></g></g></svg>